<?xml version="1.0" encoding="utf-8"?>
<!-- Generator: Adobe Illustrator 25.2.1, SVG Export Plug-In . SVG Version: 6.00 Build 0)  -->
<svg version="1.1" id="Layer_1" xmlns="http://www.w3.org/2000/svg" xmlns:xlink="http://www.w3.org/1999/xlink" x="0px" y="0px"
	 viewBox="0 0 187.8 70" style="enable-background:new 0 0 187.8 70;" xml:space="preserve">
<style type="text/css">
	.st0{fill:#010101;}
	.st1{fill:#EF4138;}
</style>
<g>
	<path class="st0" d="M16.2,61.9v7.8h-1.3V54.5h3.5c2.2,0,4,1.8,4,4s-1.8,4-4,4l6.4,7.2h-1.7L16.2,61.9z M16.2,55.6v5.8h2
		c1.5,0.1,2.8-1.1,2.9-2.6c0-0.1,0-0.2,0-0.4c0.1-1.5-1-2.7-2.5-2.9c-0.2,0-0.4,0-0.5,0H16.2z"/>
	<path class="st0" d="M27.1,62c0.1-4.3,3.7-7.8,8-7.7c4.3,0.1,7.8,3.7,7.7,8c-0.1,4.3-3.6,7.8-8,7.7C30.5,70,27.1,66.4,27.1,62
		C27.1,62,27.1,62,27.1,62z M35,55.4c-3.7-0.1-6.7,2.8-6.8,6.5s2.8,6.7,6.5,6.8c3.7,0.1,6.7-2.8,6.8-6.5c0-0.1,0-0.1,0-0.2
		C41.6,58.4,38.7,55.5,35,55.4C35,55.5,35,55.5,35,55.4L35,55.4z"/>
	<path class="st0" d="M47.2,69.7V54.5h3.9c2-0.1,3.7,1.4,3.8,3.4c0,0.1,0,0.2,0,0.3c0.1,1.4-0.7,2.7-2,3.3c2,0.3,3.5,2,3.5,4
		c0,2.9-2.2,4.3-4.6,4.3L47.2,69.7z M48.5,55.7v5.5h2.2c1.4,0.2,2.7-0.8,2.9-2.3c0-0.2,0-0.4,0-0.5c0.1-1.3-0.8-2.6-2.2-2.7
		c-0.2,0-0.3,0-0.5,0H48.5z M48.5,62.4v6.1h3.3c2.2,0,3.3-1.3,3.3-3c0-2.1-1.5-3.1-3.3-3.1L48.5,62.4z"/>
	<path class="st0" d="M59.9,62c0.1-4.3,3.7-7.8,8-7.7c4.3,0.1,7.8,3.7,7.7,8c-0.1,4.3-3.6,7.8-8,7.7C63.3,69.9,59.8,66.4,59.9,62
		C59.9,62,59.9,62,59.9,62z M67.8,55.4C64.1,55.4,61,58.3,61,62c-0.1,3.7,2.8,6.7,6.5,6.8c3.7,0.1,6.7-2.8,6.8-6.5
		c0-0.1,0-0.1,0-0.2C74.3,58.4,71.4,55.5,67.8,55.4C67.8,55.5,67.8,55.5,67.8,55.4z"/>
	<path class="st0" d="M83.4,55.7v14h-1.3v-14h-3.8v-1.2h8.9v1.2H83.4z"/>
	<path class="st0" d="M92.1,69.7h-1.3V54.5h1.3V69.7z"/>
	<path class="st0" d="M96.7,62c0-4.3,3.6-7.8,7.9-7.8c1.7,0,3.3,0.6,4.6,1.7v1.5c-1.3-1.1-2.9-1.8-4.6-1.8c-3.7,0-6.7,2.9-6.7,6.5
		c0,3.7,2.9,6.7,6.5,6.7c1.7,0,3.4-0.6,4.7-1.8v1.4c-1.3,1-3,1.6-4.7,1.7C100.2,69.9,96.7,66.3,96.7,62z"/>
	<path class="st0" d="M113.3,58.1c0.1-2.2,1.9-4,4.1-3.9c0.1,0,0.1,0,0.2,0c1.7,0,3.3,0.9,4.2,2.3l-1,0.7c-0.7-1.1-1.9-1.8-3.2-1.8
		c-1.5-0.2-2.8,0.9-3,2.4c0,0.1,0,0.2,0,0.3c0,1.8,1.3,2.2,4,3.1c2,0.6,3.9,1.7,3.9,4.3s-2.2,4.5-5,4.5c-2.4,0-3.9-1.2-5.1-3.5
		c0,0,0.7-0.4,1.2-0.6c0.6,1.7,2.2,2.8,3.9,2.8c2.4,0,3.7-1.3,3.7-3.2s-1.1-2.6-3.3-3.2S113.3,60.8,113.3,58.1z"/>
	<path class="st0" d="M140,69.7h-6.5V54.5h1.3v14h5.2L140,69.7z"/>
	<path class="st0" d="M147.4,55.7v14h-1.3v-14h-3.8v-1.2h8.9v1.2H147.4z"/>
	<path class="st0" d="M154.8,69.7V54.5h5.3c4,0.1,7.1,3.5,7,7.5c0,0,0,0,0,0c0,4-2.6,7.7-7,7.7L154.8,69.7z M156.1,55.7v12.9h3.5
		c3.8,0,6.2-2.5,6.2-6.4c0-4.2-2.8-6.5-5.8-6.5H156.1z"/>
	<path class="st0" d="M172.2,68.3c0.5,0,0.9,0.4,0.9,0.9s-0.4,0.9-0.9,0.9s-0.9-0.4-0.9-0.9C171.3,68.7,171.7,68.3,172.2,68.3z"/>
	<path class="st1" d="M24.8,0L0,47.8h17.4c-1.7-1.7-2.7-4-2.8-6.5c0-3.8,2.1-7.6,5.3-9.1c-1.6-1-2.5-2.5-2.2-3.8c0.5-2,3.6-3,7-2.2
		s5.9,3,5.4,5c-0.2,0.7-0.7,1.3-1.3,1.7c8.8,3.7,9.4,9.7,9.4,14.8h11.3L24.8,0z M31.4,23.7c-0.9,2.1-4.3,2.8-7.5,1.4s-4.9-4-4.2-6.1
		l0,0c0.8-2.2,2.1-4.1,3.9-5.5c-0.6,1-1.1,2.2-1.4,3.3c0.3-0.1,0.6-0.1,0.9-0.2c0.6-1.2,1.5-2.3,2.5-3.1c-0.5,1-1,2-1.4,3.1
		c1.1,0.1,2.1,0.3,3.1,0.8C30.5,18.7,32.3,21.5,31.4,23.7z"/>
	<polygon class="st1" points="95.3,2.6 95.3,33.4 62.3,0.5 62.3,0.5 62.3,10.8 62.3,47.8 69.6,47.8 69.6,18.1 95.3,43.8 102.6,51.1 
		102.6,40.8 102.6,2.6 	"/>
	<polygon class="st1" points="145.2,2.5 128.7,2.5 126.5,2.5 115.4,2.5 115.4,9.9 126.5,9.9 126.5,47.8 133.9,47.8 133.9,9.9 
		145.2,9.9 	"/>
	<polygon class="st1" points="187.8,2.5 171.3,2.5 169.1,2.5 158,2.5 158,9.9 169.1,9.9 169.1,47.8 176.4,47.8 176.4,9.9 187.8,9.9 
			"/>
</g>
</svg>
