<?xml version="1.0" encoding="utf-8"?>
<!-- Generator: Adobe Illustrator 25.2.1, SVG Export Plug-In . SVG Version: 6.00 Build 0)  -->
<svg version="1.1" id="Layer_1" xmlns="http://www.w3.org/2000/svg" xmlns:xlink="http://www.w3.org/1999/xlink" x="0px" y="0px"
	 viewBox="0 0 575 388.3" style="enable-background:new 0 0 575 388.3;" xml:space="preserve">
<style type="text/css">
	.st0{fill:#FFFFFF;stroke:#DCDBDB;stroke-miterlimit:10;}
	.st1{fill:#DCDBDB;}
	.st2{fill:#434A4E;}
	.st3{fill:none;stroke:#000000;stroke-width:1.5;stroke-miterlimit:10;}
	.st4{fill:#439AD5;}
	.st5{fill:none;stroke:#000000;stroke-width:2;stroke-miterlimit:10;}
	.st6{fill:#FFFFFF;}
	.st7{fill:#117EC2;}
	.st8{fill-rule:evenodd;clip-rule:evenodd;fill:#00959C;}
	.st9{fill:#00959C;}
	.st10{fill:#010101;}
	.st11{fill:#74AA42;}
	.st12{fill:#BC1F45;}
	.st13{fill:#12254B;}
	.st14{fill:#E7362E;}
	.st15{fill:#A5A4A4;}
	.st16{fill:#EB2B26;}
</style>
<g>
	<path class="st0" d="M4.5,0.5h566c2.2,0,4,1.8,4,4v78.3c0,2.2-1.8,4-4,4H4.5c-2.2,0-4-1.8-4-4V4.5C0.5,2.3,2.3,0.5,4.5,0.5z"/>
	<path class="st1" d="M13.9,20.5H9.4l-0.8,2.2H6.8l3.9-10.8h2l3.9,10.8h-1.8L13.9,20.5z M13.4,19.1l-1.8-5l-1.8,5H13.4z"/>
	<path class="st1" d="M21.2,14.5c0.5-0.3,1.1-0.4,1.8-0.4c1.5,0,2.8,0.8,3.5,2.1c0.4,0.7,0.5,1.5,0.5,2.3c0,0.8-0.2,1.6-0.5,2.3
		c-0.3,0.6-0.8,1.2-1.5,1.6c-0.6,0.4-1.3,0.6-2,0.6c-0.6,0-1.2-0.1-1.7-0.4c-0.5-0.2-0.9-0.6-1.2-1v5.3h-1.8V14.2H20v1.3
		C20.3,15.1,20.7,14.7,21.2,14.5z M24.8,16.9c-0.2-0.4-0.6-0.8-1-1c-0.4-0.2-0.8-0.3-1.3-0.3c-0.9,0-1.8,0.5-2.2,1.3
		c-0.3,0.5-0.4,1-0.3,1.6c0,0.5,0.1,1.1,0.4,1.5c0.2,0.4,0.6,0.8,1,1c0.4,0.2,0.8,0.3,1.3,0.3c0.4,0,0.9-0.1,1.3-0.4
		c0.4-0.2,0.8-0.6,1-1c0.3-0.5,0.4-1,0.4-1.5C25.2,17.9,25.1,17.4,24.8,16.9L24.8,16.9z"/>
	<path class="st1" d="M31.7,14.5c0.5-0.3,1.1-0.4,1.7-0.4c0.7,0,1.4,0.2,2,0.6c0.6,0.4,1.1,0.9,1.5,1.5c0.4,0.7,0.5,1.5,0.5,2.3
		c0,0.8-0.2,1.6-0.5,2.3c-0.3,0.6-0.8,1.2-1.4,1.5c-0.6,0.4-1.3,0.6-2,0.6c-0.6,0-1.2-0.1-1.7-0.4c-0.5-0.2-0.9-0.6-1.3-1v5.3h-1.8
		V14.2h1.8v1.3C30.8,15.1,31.2,14.7,31.7,14.5z M35.3,16.9c-0.2-0.4-0.6-0.8-1-1c-0.4-0.2-0.8-0.3-1.3-0.3c-0.4,0-0.9,0.1-1.3,0.3
		c-0.4,0.2-0.8,0.6-1,1c-0.2,0.5-0.3,1-0.2,1.6c0,0.5,0.1,1.1,0.4,1.5c0.2,0.4,0.6,0.8,1,1c0.4,0.2,0.8,0.3,1.3,0.3
		c0.5,0,0.9-0.1,1.3-0.4c0.4-0.2,0.8-0.6,1-1c0.2-0.5,0.4-1,0.4-1.5C35.7,17.9,35.6,17.4,35.3,16.9L35.3,16.9z"/>
	<path class="st1" d="M40.9,11.3v11.4h-1.8V11.3H40.9z"/>
	<path class="st1" d="M43.3,12.7c-0.2-0.2-0.3-0.5-0.3-0.8c0-0.6,0.5-1.1,1.1-1.1c0,0,0,0,0,0c0.3,0,0.6,0.1,0.8,0.3
		c0.2,0.2,0.3,0.5,0.3,0.8c0,0.6-0.4,1.1-1,1.1c0,0,0,0-0.1,0C43.9,13.1,43.6,13,43.3,12.7z M45,14.2v8.5h-1.8v-8.5H45z"/>
	<path class="st1" d="M47.3,16.1c0.3-0.6,0.9-1.2,1.5-1.5c1.5-0.8,3.3-0.7,4.7,0.2c0.7,0.5,1.2,1.3,1.4,2.1H53
		c-0.1-0.4-0.4-0.8-0.8-1c-0.4-0.3-0.8-0.4-1.3-0.4c-0.7,0-1.3,0.3-1.7,0.8c-0.5,0.6-0.7,1.4-0.6,2.2c0,0.8,0.2,1.5,0.6,2.1
		c0.4,0.5,1.1,0.8,1.7,0.8c0.9,0,1.7-0.5,2-1.3h1.9c-0.2,0.8-0.7,1.5-1.3,2c-0.7,0.5-1.6,0.8-2.5,0.8c-0.8,0-1.5-0.2-2.2-0.5
		c-0.6-0.4-1.1-0.9-1.5-1.5c-0.4-0.7-0.6-1.5-0.6-2.3C46.7,17.7,46.9,16.9,47.3,16.1z"/>
	<path class="st1" d="M56.6,16.1c0.7-1.3,2-2.1,3.5-2.1c0.6,0,1.2,0.1,1.8,0.4c0.5,0.2,0.9,0.6,1.2,1v-1.3h1.8v8.5H63v-1.2
		c-0.3,0.4-0.8,0.8-1.2,1c-1.2,0.6-2.6,0.5-3.8-0.2c-0.6-0.4-1.1-0.9-1.5-1.6C56.2,20,56,19.3,56,18.5C56,17.7,56.2,16.9,56.6,16.1z
		 M62.7,16.9c-0.4-0.8-1.3-1.3-2.2-1.3c-0.4,0-0.9,0.1-1.3,0.3c-0.4,0.2-0.8,0.6-1,1c-0.2,0.5-0.4,1-0.4,1.5c0,0.5,0.1,1.1,0.4,1.5
		c0.2,0.4,0.6,0.8,1,1c0.4,0.2,0.8,0.3,1.3,0.4c0.9,0,1.8-0.5,2.2-1.3c0.3-0.5,0.4-1,0.4-1.5C63,17.9,62.9,17.4,62.7,16.9z"/>
	<path class="st1" d="M69.2,15.6v4.7c0,0.3,0.1,0.5,0.2,0.7c0.2,0.2,0.5,0.2,0.8,0.2h1.1v1.5h-1.4c-0.7,0-1.3-0.2-1.8-0.6
		c-0.5-0.5-0.7-1.1-0.6-1.8v-4.7h-1v-1.4h1v-2.1h1.8v2.1h2.1v1.4L69.2,15.6z"/>
	<path class="st1" d="M73,12.7c-0.2-0.2-0.3-0.5-0.3-0.8c0-0.3,0.1-0.6,0.3-0.8c0.2-0.2,0.5-0.3,0.8-0.3c0.6,0,1.1,0.5,1.1,1.1
		c0,0.3-0.1,0.6-0.3,0.8c-0.2,0.2-0.5,0.3-0.8,0.3C73.5,13.1,73.2,13,73,12.7z M74.7,14.2v8.5h-1.8v-8.5H74.7z"/>
	<path class="st1" d="M78.5,22.3c-0.6-0.4-1.2-0.9-1.5-1.5c-0.4-0.7-0.6-1.5-0.6-2.3c0-0.8,0.2-1.6,0.6-2.3c0.3-0.7,0.9-1.2,1.5-1.6
		c1.4-0.7,3-0.7,4.4,0c0.7,0.4,1.2,0.9,1.6,1.5c0.8,1.4,0.8,3.2,0,4.6c-0.4,0.7-0.9,1.2-1.6,1.6c-0.7,0.4-1.5,0.6-2.2,0.5
		C79.9,22.9,79.2,22.7,78.5,22.3z M82,21c0.4-0.2,0.8-0.6,1-1c0.2-0.5,0.3-1,0.3-1.5c0-0.5-0.1-1.1-0.4-1.6c-0.2-0.4-0.5-0.8-0.9-1
		c-0.4-0.2-0.8-0.3-1.3-0.3c-0.4,0-0.9,0.1-1.3,0.3c-0.4,0.2-0.7,0.6-0.9,1c-0.2,0.5-0.4,1-0.3,1.6c0,0.8,0.2,1.5,0.7,2.1
		c0.5,0.5,1.1,0.8,1.8,0.8C81.1,21.4,81.6,21.2,82,21L82,21z"/>
	<path class="st1" d="M92.9,14.5c0.5,0.3,1,0.7,1.2,1.2c0.3,0.6,0.5,1.3,0.4,2v5h-1.7V18c0-0.6-0.2-1.3-0.6-1.8
		c-0.9-0.8-2.3-0.8-3.1,0c-0.4,0.5-0.6,1.1-0.6,1.8v4.8h-1.8v-8.5h1.8v1c0.3-0.4,0.7-0.6,1.1-0.8c0.4-0.2,0.9-0.3,1.4-0.3
		C91.8,14.1,92.4,14.2,92.9,14.5z"/>
	<path class="st1" d="M102.7,13.4v3.1h3.7v1.4h-3.7v3.3h4.2v1.4h-5.9V11.9h5.9v1.4L102.7,13.4z"/>
	<path class="st1" d="M115.1,14.5c0.5,0.3,1,0.7,1.2,1.2c0.3,0.6,0.5,1.3,0.4,2v5h-1.8V18c0-0.6-0.2-1.3-0.6-1.8
		c-0.9-0.8-2.3-0.8-3.1,0c-0.4,0.5-0.6,1.1-0.6,1.8v4.8H109v-8.5h1.8v1c0.3-0.4,0.7-0.6,1.1-0.8c0.4-0.2,0.9-0.3,1.4-0.3
		C113.9,14.1,114.6,14.2,115.1,14.5z"/>
	<path class="st1" d="M119,16.1c0.3-0.6,0.9-1.2,1.5-1.5c0.6-0.4,1.3-0.5,2-0.6c0.6,0,1.2,0.1,1.8,0.4c0.5,0.2,0.9,0.6,1.2,1v-1.3
		h1.8v8.5h-1.7v-1.2c-0.3,0.4-0.7,0.8-1.2,1c-1.2,0.6-2.6,0.5-3.8-0.2c-0.6-0.4-1.1-0.9-1.4-1.6c-0.4-0.7-0.6-1.5-0.5-2.3
		C118.5,17.7,118.7,16.9,119,16.1z M125.1,16.9c-0.4-0.8-1.3-1.3-2.2-1.3c-0.4,0-0.9,0.1-1.3,0.3c-0.4,0.2-0.8,0.6-1,1
		c-0.3,0.5-0.4,1-0.4,1.5c0,0.5,0.1,1.1,0.4,1.5c0.2,0.4,0.6,0.8,1,1c0.4,0.2,0.8,0.4,1.3,0.4c0.9,0,1.8-0.5,2.2-1.3
		c0.3-0.5,0.4-1,0.4-1.5C125.5,17.9,125.4,17.4,125.1,16.9z"/>
	<path class="st1" d="M132.6,14.5c0.5-0.3,1.1-0.4,1.7-0.4c1.5,0,2.8,0.8,3.5,2.1c0.4,0.7,0.5,1.5,0.5,2.3c0,0.8-0.2,1.6-0.5,2.3
		c-0.3,0.6-0.8,1.2-1.4,1.6c-0.6,0.4-1.3,0.6-2,0.6c-0.6,0-1.2-0.1-1.8-0.4c-0.5-0.2-0.9-0.6-1.2-1v1.2h-1.8V11.3h1.8v4.2
		C131.7,15.1,132.1,14.7,132.6,14.5z M136.1,16.9c-0.2-0.4-0.6-0.8-1-1c-0.4-0.2-0.8-0.3-1.3-0.3c-0.4,0-0.9,0.1-1.3,0.3
		c-0.4,0.2-0.8,0.6-1,1c-0.2,0.5-0.4,1-0.4,1.5c0,0.5,0.1,1.1,0.4,1.5c0.2,0.4,0.6,0.8,1,1c0.4,0.2,0.8,0.3,1.3,0.3
		c0.9,0,1.8-0.5,2.2-1.4c0.2-0.5,0.4-1,0.4-1.5C136.5,17.9,136.4,17.4,136.1,16.9L136.1,16.9z"/>
	<path class="st1" d="M141.8,11.3v11.4h-1.8V11.3H141.8z"/>
	<path class="st1" d="M151.9,19.1h-6.5c0.1,1.3,1.1,2.3,2.4,2.3c0.8,0.1,1.6-0.4,2-1.2h1.9c-0.3,0.8-0.7,1.5-1.4,1.9
		c-0.7,0.5-1.6,0.8-2.5,0.8c-0.8,0-1.5-0.2-2.2-0.5c-0.6-0.4-1.2-0.9-1.5-1.5c-0.4-0.7-0.6-1.5-0.6-2.3c0-0.8,0.2-1.6,0.5-2.3
		c0.3-0.6,0.9-1.2,1.5-1.5c0.7-0.4,1.4-0.6,2.2-0.5c0.8,0,1.5,0.2,2.1,0.5c0.6,0.3,1.1,0.9,1.5,1.5c0.4,0.7,0.5,1.4,0.5,2.2
		C151.9,18.5,151.9,18.8,151.9,19.1z M150.1,17.7c0-0.6-0.2-1.2-0.7-1.6c-0.5-0.4-1.1-0.6-1.7-0.6c-0.6,0-1.1,0.2-1.6,0.6
		c-0.4,0.4-0.7,1-0.8,1.6H150.1z"/>
	<path class="st1" d="M165.8,14.5c0.5,0.3,1,0.7,1.3,1.2c0.3,0.6,0.5,1.3,0.4,2v5h-1.8V18c0-0.6-0.2-1.3-0.6-1.8
		c-0.4-0.4-1-0.6-1.6-0.6c-0.6,0-1.2,0.2-1.6,0.6c-0.4,0.5-0.6,1.1-0.6,1.8v4.8h-1.8V18c0-0.6-0.2-1.3-0.6-1.8
		c-0.4-0.4-1-0.6-1.6-0.6c-0.6,0-1.2,0.2-1.6,0.6c-0.4,0.5-0.6,1.1-0.6,1.8v4.8h-1.8v-8.5h1.8v1c0.3-0.4,0.7-0.6,1.1-0.8
		c0.4-0.2,0.9-0.3,1.4-0.3c0.6,0,1.3,0.1,1.8,0.4c0.5,0.3,1,0.7,1.2,1.2c0.3-0.5,0.7-1,1.2-1.2c0.5-0.3,1.2-0.5,1.8-0.5
		C164.7,14.1,165.3,14.2,165.8,14.5z"/>
	<path class="st1" d="M177.5,19.1H171c0,0.6,0.3,1.2,0.8,1.6c0.5,0.4,1.1,0.6,1.7,0.6c0.8,0.1,1.6-0.4,2-1.2h1.9
		c-0.3,0.8-0.7,1.5-1.4,1.9c-0.7,0.5-1.6,0.8-2.5,0.8c-0.8,0-1.5-0.2-2.2-0.5c-0.6-0.4-1.2-0.9-1.5-1.5c-0.4-0.7-0.6-1.5-0.6-2.3
		c0-0.8,0.2-1.6,0.5-2.3c0.3-0.6,0.9-1.2,1.5-1.5c0.7-0.4,1.4-0.6,2.2-0.5c0.8,0,1.5,0.2,2.2,0.5c0.6,0.3,1.1,0.9,1.5,1.5
		c0.4,0.7,0.5,1.4,0.5,2.2C177.5,18.5,177.5,18.8,177.5,19.1z M175.7,17.7c0-0.6-0.2-1.2-0.7-1.6c-0.5-0.4-1.1-0.6-1.7-0.6
		c-0.6,0-1.1,0.2-1.6,0.6c-0.4,0.4-0.7,1-0.8,1.6H175.7z"/>
	<path class="st1" d="M185.4,14.5c0.5,0.3,1,0.7,1.2,1.2c0.3,0.6,0.5,1.3,0.4,2v5h-1.8V18c0-0.6-0.2-1.3-0.6-1.8
		c-0.4-0.4-1-0.6-1.6-0.6c-0.6,0-1.2,0.2-1.6,0.6c-0.4,0.5-0.6,1.1-0.6,1.8v4.8h-1.8v-8.5h1.8v1c0.3-0.4,0.7-0.6,1.1-0.8
		c0.4-0.2,0.9-0.3,1.4-0.3C184.3,14.1,184.9,14.2,185.4,14.5z"/>
	<path class="st1" d="M191.4,15.6v4.7c0,0.3,0.1,0.5,0.2,0.7c0.2,0.2,0.5,0.2,0.8,0.2h1.1v1.5h-1.4c-0.7,0-1.3-0.2-1.8-0.6
		c-0.5-0.5-0.7-1.1-0.6-1.8v-4.7h-1v-1.4h1v-2.1h1.8v2.1h2.1v1.4L191.4,15.6z"/>
	<path class="st2" d="M308.7,44.6c-0.3-1.2-0.9-2.4-1.6-3.5c-0.6,2-2.4,3.3-4.5,3.3h-0.3c0.5,0.6,0.8,1.4,0.9,2.1
		c0.4,1.8-0.1,3.6-1.2,5c-1,1.3-2.6,2-4.2,2c-0.2,0-0.4,0-0.6,0c-1.6-0.2-3.1-0.9-4.4-2c-0.9-0.8-1.9-1.7-2.8-2.5l-1-1
		c-0.1-0.1-0.1-0.1-0.2-0.2l0.4-0.4c0.6-0.6,1.3-1.2,1.9-1.8c1.1-1,2.3-1.9,3.6-2.6c1-0.5,2.1-0.8,3.3-0.8h0.4h0.3
		c-0.5-0.8-0.8-1.7-0.8-2.6c0-1.1,0.4-2.2,1.1-3c-0.3,0-0.6,0-0.8,0c-2.2,0-4.4,0.6-6.4,1.7c-1.9,1.1-3.6,2.4-5,4
		c-0.5,0.5-1,1-1.5,1.5l-0.2,0.2l-0.6-0.7c-1.7-1.8-3.7-3.5-5.8-4.9c-1.9-1.2-4.1-1.9-6.3-1.9c-0.8,0-1.5,0.1-2.3,0.2
		c-3.3,0.6-6.2,2.7-7.8,5.7c-1.5,2.7-1.8,5.8-0.9,8.7c1.1,4.2,4.6,7.3,8.9,7.7c0.5,0.1,1.1,0.1,1.6,0.1c2,0,3.9-0.5,5.7-1.4
		c2-1,3.8-2.4,5.4-4c0.6-0.6,1.2-1.1,1.8-1.7l0.4-0.3h0.1c0.4,0.4,0.7,0.8,1.1,1.1c1.6,1.7,3.5,3.2,5.5,4.5c1.8,1.1,3.9,1.7,6,1.7
		c0.8,0,1.7-0.1,2.5-0.3c3.3-0.7,6.1-2.8,7.7-5.8C309.3,50.4,309.5,47.4,308.7,44.6z M276.6,52c-1.1,0.8-2.5,1.3-3.9,1.5
		c-0.2,0-0.4,0-0.6,0c-2.8,0.1-5.1-2.1-5.3-4.8c-0.4-2.2,0.7-4.4,2.6-5.6c0.9-0.6,1.9-0.9,2.9-0.9c0.9,0,1.8,0.2,2.6,0.6
		c1.3,0.6,2.5,1.4,3.6,2.5c0.7,0.7,1.5,1.4,2.2,2.1l0.6,0.5C279.9,49.5,278.3,50.9,276.6,52L276.6,52z"/>
	<path class="st3" d="M307.9,38.9"/>
	<circle class="st4" cx="302.6" cy="39.7" r="3.1"/>
	<path class="st5" d="M307.9,38.9"/>
	<path class="st4" d="M310.7,39c-0.2,0-0.4-0.2-0.5-0.4c-0.6-3.7-3.8-6.5-7.6-6.5c-0.6,0-1.1,0.1-1.7,0.2c-0.3,0.1-0.5-0.1-0.6-0.4
		c-0.1-0.3,0.1-0.5,0.4-0.6c0.6-0.1,1.2-0.2,1.9-0.2c4.2,0,7.9,3.1,8.5,7.3C311.2,38.7,311,38.9,310.7,39
		C310.8,39,310.8,39,310.7,39L310.7,39z"/>
	<path class="st4" d="M307.9,39.3c-0.2,0-0.4-0.2-0.4-0.4c0,0,0,0,0,0c-0.4-2.4-2.5-4.1-4.9-4.2c-0.4,0-0.7,0-1.1,0.1
		c-0.2,0-0.4-0.1-0.5-0.3c0,0,0,0,0,0c0-0.2,0.1-0.4,0.3-0.5c0,0,0,0,0,0c0.4-0.1,0.8-0.1,1.2-0.1c2.8,0,5.2,2.1,5.7,4.9v0.1
		C308.3,39.1,308.2,39.3,307.9,39.3C307.9,39.3,307.9,39.3,307.9,39.3z"/>
	<path class="st4" d="M313.4,38.7c-0.3,0-0.6-0.2-0.6-0.6c-0.8-5-5.1-8.6-10.1-8.7c-0.8,0-1.5,0.1-2.2,0.2c-0.4,0-0.7-0.2-0.7-0.6
		c0-0.3,0.2-0.6,0.4-0.7c0.8-0.2,1.7-0.3,2.5-0.3c5.7,0,10.5,4.2,11.4,9.8c0.1,0.4-0.2,0.7-0.5,0.8L313.4,38.7z"/>
	<path class="st0" d="M4.5,100.8h566c2.2,0,4,1.8,4,4v78.3c0,2.2-1.8,4-4,4H4.5c-2.2,0-4-1.8-4-4v-78.3
		C0.5,102.6,2.3,100.8,4.5,100.8z"/>
	<path class="st1" d="M14.5,117c-0.3,0.5-0.7,0.9-1.2,1.2c-0.7,0.3-1.4,0.5-2.2,0.5H9.2v4.4H7.4v-10.8h3.7c0.7,0,1.4,0.1,2.1,0.4
		c0.5,0.3,1,0.7,1.3,1.2c0.3,0.5,0.4,1.1,0.4,1.6C14.9,116,14.8,116.6,14.5,117z M12.6,116.8c0.3-0.3,0.5-0.8,0.5-1.3
		c0-1.2-0.7-1.8-2-1.8H9.2v3.5h1.9C11.7,117.3,12.2,117.1,12.6,116.8L12.6,116.8z"/>
	<path class="st1" d="M19.4,114.7c0.5-0.2,1-0.4,1.5-0.4v1.8h-0.4c-0.6,0-1.1,0.1-1.6,0.5c-0.4,0.5-0.6,1.2-0.5,1.8v4.5h-1.8v-8.5
		h1.8v1.2C18.6,115.3,19,115,19.4,114.7z"/>
	<path class="st1" d="M24.1,122.6c-0.7-0.4-1.2-0.9-1.6-1.5c-0.8-1.4-0.8-3.2,0-4.6c0.4-0.7,0.9-1.2,1.6-1.6c1.4-0.7,3-0.7,4.4,0
		c0.7,0.4,1.2,0.9,1.6,1.6c0.8,1.4,0.8,3.2,0,4.6c-0.4,0.7-0.9,1.2-1.6,1.6c-0.7,0.4-1.5,0.6-2.2,0.6
		C25.5,123.2,24.7,123,24.1,122.6z M27.5,121.3c0.4-0.2,0.8-0.6,1-1c0.3-0.5,0.4-1,0.4-1.6c0-0.5-0.1-1.1-0.4-1.5
		c-0.2-0.4-0.5-0.8-0.9-1c-0.4-0.2-0.8-0.3-1.3-0.3c-0.4,0-0.9,0.1-1.3,0.3c-0.4,0.2-0.7,0.6-0.9,1c-0.2,0.5-0.4,1-0.3,1.6
		c0,0.8,0.2,1.5,0.7,2.1c0.5,0.5,1.1,0.8,1.8,0.8C26.7,121.6,27.1,121.5,27.5,121.3L27.5,121.3z"/>
	<path class="st1" d="M34.5,116v4.7c0,0.3,0.1,0.5,0.2,0.7c0.2,0.2,0.5,0.2,0.8,0.2h1.1v1.5h-1.4c-0.7,0-1.3-0.1-1.8-0.6
		c-0.5-0.5-0.7-1.1-0.6-1.8V116h-1v-1.5h1v-2.1h1.8v2.1h2.1v1.4L34.5,116z"/>
	<path class="st1" d="M39.7,122.6c-0.6-0.4-1.2-0.9-1.5-1.5c-0.4-0.7-0.6-1.5-0.6-2.3c0-0.8,0.2-1.6,0.6-2.3
		c0.4-0.7,0.9-1.2,1.6-1.6c1.4-0.7,3-0.7,4.4,0c0.7,0.4,1.2,0.9,1.6,1.6c0.4,0.7,0.6,1.5,0.6,2.3c0,0.8-0.2,1.6-0.6,2.3
		c-0.4,0.7-0.9,1.2-1.6,1.6c-0.7,0.4-1.5,0.6-2.2,0.6C41.1,123.2,40.4,123,39.7,122.6z M43.2,121.3c0.4-0.2,0.8-0.6,1-1
		c0.3-0.5,0.4-1,0.4-1.6c0-0.5-0.1-1.1-0.4-1.6c-0.2-0.4-0.5-0.8-0.9-1c-0.4-0.2-0.8-0.3-1.3-0.3c-0.4,0-0.9,0.1-1.3,0.3
		c-0.4,0.2-0.7,0.6-0.9,1c-0.2,0.5-0.4,1-0.3,1.6c-0.1,0.8,0.2,1.5,0.7,2.1c0.5,0.5,1.1,0.8,1.8,0.8
		C42.3,121.6,42.8,121.5,43.2,121.3z"/>
	<path class="st1" d="M48,116.5c0.3-0.7,0.8-1.2,1.5-1.6c0.7-0.4,1.4-0.6,2.2-0.5c0.9,0,1.8,0.2,2.6,0.7c0.7,0.5,1.2,1.3,1.4,2.1
		h-1.9c-0.1-0.4-0.4-0.8-0.8-1c-1-0.6-2.2-0.4-3,0.4c-0.9,1.3-0.9,3,0,4.3c0.4,0.5,1.1,0.8,1.7,0.8c0.9,0,1.7-0.5,2-1.3h1.9
		c-0.2,0.8-0.7,1.6-1.4,2.1c-0.7,0.5-1.6,0.8-2.5,0.8c-0.8,0-1.5-0.2-2.2-0.6c-0.6-0.4-1.1-0.9-1.5-1.5
		C47.3,119.6,47.3,117.9,48,116.5L48,116.5z"/>
	<path class="st1" d="M58.9,122.6c-0.6-0.4-1.2-0.9-1.5-1.5c-0.4-0.7-0.6-1.5-0.6-2.3c0-0.8,0.2-1.6,0.6-2.3
		c0.4-0.7,0.9-1.2,1.6-1.6c1.4-0.7,3-0.7,4.4,0c0.7,0.4,1.2,0.9,1.6,1.6c0.4,0.7,0.6,1.5,0.6,2.3c0,0.8-0.2,1.6-0.6,2.3
		c-0.4,0.7-0.9,1.2-1.6,1.6c-0.7,0.4-1.5,0.6-2.2,0.6C60.3,123.2,59.5,123,58.9,122.6z M62.3,121.3c0.4-0.2,0.8-0.6,1-1
		c0.3-0.5,0.4-1,0.4-1.6c0-0.5-0.1-1.1-0.4-1.6c-0.2-0.4-0.5-0.8-0.9-1c-0.8-0.4-1.7-0.4-2.5,0c-0.4,0.2-0.7,0.6-0.9,1
		c-0.2,0.5-0.4,1-0.3,1.6c-0.1,0.8,0.2,1.5,0.7,2.1c0.5,0.5,1.1,0.8,1.8,0.8C61.5,121.6,61.9,121.5,62.3,121.3z"/>
	<path class="st1" d="M69,111.6V123h-1.8v-11.4H69z"/>
	<path class="st1" d="M72.6,122.8c-0.5-0.2-0.9-0.6-1.3-1c-0.3-0.4-0.5-0.9-0.5-1.4h1.8c0,0.4,0.2,0.7,0.5,0.9
		c0.3,0.2,0.8,0.4,1.2,0.4c0.4,0,0.8-0.1,1.2-0.3c0.3-0.2,0.4-0.4,0.4-0.7c0-0.3-0.2-0.6-0.4-0.7c-0.5-0.2-1-0.4-1.4-0.5
		c-0.5-0.1-1.1-0.3-1.6-0.5c-0.4-0.2-0.7-0.4-1-0.8c-0.3-0.4-0.5-0.9-0.4-1.3c0-0.4,0.1-0.9,0.4-1.2c0.3-0.4,0.6-0.7,1.1-0.9
		c0.5-0.2,1.1-0.3,1.7-0.3c0.8,0,1.7,0.2,2.3,0.7c0.6,0.5,1,1.2,1,2h-1.8c0-0.4-0.2-0.7-0.5-0.9c-0.3-0.2-0.7-0.4-1.1-0.3
		c-0.4,0-0.7,0.1-1.1,0.3c-0.2,0.1-0.4,0.4-0.4,0.7c0,0.2,0.1,0.4,0.2,0.6c0.2,0.2,0.4,0.3,0.6,0.4c0.2,0.1,0.6,0.2,1.1,0.3
		c0.5,0.1,1,0.3,1.5,0.5c0.4,0.2,0.7,0.4,1,0.8c0.3,0.4,0.5,0.8,0.4,1.3c0,0.5-0.1,0.9-0.4,1.3c-0.3,0.4-0.7,0.7-1.1,0.9
		c-0.5,0.2-1.1,0.3-1.7,0.3C73.8,123.2,73.2,123.1,72.6,122.8z"/>
	
		<image style="overflow:visible;opacity:0.15;enable-background:new    ;" width="545" height="255" xlink:href="676EA185.png"  transform="matrix(0.24 0 0 0.24 157.3 113.38)">
	</image>
	<path class="st6" d="M187.8,128.5h69.6c8.5,0,15.5,6.9,15.5,15.5l0,0c0,8.5-6.9,15.5-15.5,15.5h-69.6c-8.5,0-15.5-6.9-15.5-15.5
		l0,0C172.4,135.4,179.3,128.5,187.8,128.5z"/>
	<path class="st6" d="M187.8,128.5h69.6c8.5,0,15.5,6.9,15.5,15.5l0,0c0,8.5-6.9,15.5-15.5,15.5h-69.6c-8.5,0-15.5-6.9-15.5-15.5
		l0,0C172.4,135.4,179.3,128.5,187.8,128.5z"/>
	<path class="st4" d="M211.9,149.2v-4.4H208v4.4h-2.1v-10.5h2.1v4.3h3.9v-4.3h2.1v10.5H211.9z"/>
	<path class="st4" d="M215.4,140.6v-1.9h7.7v1.9h-2.8v8.6h-2.1v-8.6H215.4z"/>
	<path class="st4" d="M223.6,140.6v-1.9h7.7v1.9h-2.8v8.6h-2.1v-8.6H223.6z"/>
	<path class="st4" d="M236.5,146.1h-1.7v3.1h-2.1v-10.5h3.9c2.5,0,3.7,1.2,3.7,3.7c0.1,1-0.3,2-0.9,2.8
		C238.5,145.9,237.5,146.2,236.5,146.1z M234.8,144.3h1.7c1.1,0,1.6-0.7,1.6-2c0.1-0.5-0.1-1-0.4-1.4c-0.3-0.3-0.8-0.5-1.2-0.4h-1.7
		L234.8,144.3z"/>
	
		<image style="overflow:visible;opacity:0.15;enable-background:new    ;" width="545" height="255" xlink:href="676EA187.png"  transform="matrix(0.24 0 0 0.24 286.9 113.38)">
	</image>
	<path class="st6" d="M317.5,128.5h69.6c8.5,0,15.5,6.9,15.5,15.5l0,0c0,8.5-6.9,15.5-15.5,15.5h-69.6c-8.5,0-15.5-6.9-15.5-15.5
		l0,0C302,135.4,309,128.5,317.5,128.5z"/>
	<path class="st6" d="M317.5,128.5h69.6c8.5,0,15.5,6.9,15.5,15.5l0,0c0,8.5-6.9,15.5-15.5,15.5h-69.6c-8.5,0-15.5-6.9-15.5-15.5
		l0,0C302,135.4,309,128.5,317.5,128.5z"/>
	<path class="st4" d="M333.7,149.2v-10.5h3.6l1.9,7.7l1.9-7.7h3.6v10.5h-2.1v-8.1h-0.2l-2,7.7h-2.1l-2.1-7.7h-0.2v8.1H333.7z"/>
	<path class="st4" d="M350.9,149.4c-1.3,0.1-2.5-0.3-3.4-1.3c-0.8-1.2-1.1-2.7-1-4.1c-0.1-1.5,0.3-2.9,1-4.1c1.9-1.8,4.9-1.8,6.8,0
		c0.8,1.3,1.1,2.7,1,4.2c0,2.3-0.5,3.8-1.6,4.6l1.3,2.1l-2,0.9l-1.4-2.3C351.3,149.4,351.1,149.4,350.9,149.4z M349.2,146.7
		c0.4,0.6,1,0.9,1.7,0.8c0.7,0.1,1.3-0.2,1.7-0.8c0.4-0.9,0.5-1.8,0.5-2.7c0.1-1-0.1-1.9-0.5-2.8c-0.7-0.9-2-1.1-2.9-0.5
		c-0.2,0.1-0.3,0.3-0.5,0.5c-0.4,0.9-0.5,1.8-0.5,2.8C348.7,144.9,348.8,145.9,349.2,146.7L349.2,146.7z"/>
	<path class="st4" d="M356,140.6v-1.9h7.7v1.9H361v8.6h-2.1v-8.6H356z"/>
	<path class="st4" d="M364.2,140.6v-1.9h7.7v1.9h-2.8v8.6H367v-8.6H364.2z"/>
	<path class="st0" d="M4.5,201.1h566c2.2,0,4,1.8,4,4v78.3c0,2.2-1.8,4-4,4H4.5c-2.2,0-4-1.8-4-4v-78.3
		C0.5,202.9,2.3,201.1,4.5,201.1z"/>
	<path class="st1" d="M7.6,215.1c0.5-0.8,1.2-1.5,2-1.9c0.8-0.5,1.8-0.7,2.8-0.7c1.1,0,2.1,0.3,3,0.9c0.9,0.6,1.6,1.4,1.9,2.4h-2.1
		c-0.2-0.5-0.6-1-1.2-1.3c-0.5-0.3-1.1-0.4-1.7-0.4c-0.7,0-1.3,0.2-1.9,0.5c-0.6,0.3-1,0.8-1.3,1.4c-0.6,1.3-0.6,2.9,0,4.2
		c0.3,0.6,0.8,1.1,1.3,1.4c0.6,0.3,1.2,0.5,1.9,0.5c0.6,0,1.2-0.1,1.7-0.4c0.5-0.3,0.9-0.7,1.2-1.3h2.1c-0.4,1-1,1.8-1.9,2.4
		c-0.9,0.6-1.9,0.8-3,0.8c-1,0-1.9-0.2-2.8-0.7c-0.8-0.5-1.5-1.2-2-2C6.6,219,6.6,216.9,7.6,215.1L7.6,215.1z"/>
	<path class="st1" d="M20.9,223c-0.6-0.4-1.2-0.9-1.5-1.6c-0.4-0.7-0.6-1.5-0.6-2.3c0-0.8,0.2-1.6,0.6-2.3c0.4-0.7,0.9-1.2,1.6-1.6
		c1.4-0.7,3-0.7,4.4,0c0.7,0.4,1.2,0.9,1.6,1.6c0.4,0.7,0.6,1.5,0.6,2.3c0,0.8-0.2,1.6-0.6,2.3c-0.4,0.7-0.9,1.2-1.6,1.6
		c-0.7,0.4-1.5,0.6-2.2,0.6C22.3,223.5,21.6,223.3,20.9,223z M24.3,221.7c0.4-0.2,0.8-0.6,1-1c0.3-0.5,0.4-1,0.4-1.6
		c0-0.5-0.1-1.1-0.4-1.6c-0.2-0.4-0.5-0.8-0.9-1c-0.4-0.2-0.8-0.3-1.3-0.3c-0.4,0-0.9,0.1-1.3,0.3c-0.4,0.2-0.7,0.6-0.9,1
		c-0.2,0.5-0.4,1-0.3,1.6c-0.1,0.8,0.2,1.5,0.7,2.1c0.5,0.5,1.1,0.8,1.8,0.8C23.5,222,24,221.9,24.3,221.7L24.3,221.7z"/>
	<path class="st1" d="M35.3,215.1c0.5,0.3,1,0.7,1.2,1.2c0.3,0.6,0.5,1.3,0.5,2v5h-1.8v-4.8c0-0.6-0.2-1.3-0.6-1.8
		c-0.9-0.8-2.3-0.8-3.1,0c-0.4,0.5-0.6,1.1-0.6,1.8v4.8h-1.8v-8.5H31v1c0.3-0.4,0.7-0.6,1.1-0.8c0.5-0.2,0.9-0.3,1.4-0.3
		C34.2,214.7,34.8,214.8,35.3,215.1z"/>
	<path class="st1" d="M45.4,215.1c0.5,0.3,1,0.7,1.2,1.2c0.3,0.6,0.5,1.3,0.5,2v5h-1.7v-4.8c0-0.6-0.2-1.3-0.6-1.8
		c-0.4-0.4-1-0.7-1.6-0.6c-0.6,0-1.2,0.2-1.6,0.6c-0.4,0.5-0.6,1.1-0.6,1.8v4.8h-1.8v-8.5H41v1c0.3-0.4,0.7-0.6,1.1-0.8
		c0.5-0.2,0.9-0.3,1.4-0.3C44.2,214.7,44.8,214.8,45.4,215.1z"/>
	<path class="st1" d="M57.1,219.8h-6.5c0,0.6,0.3,1.2,0.8,1.6c0.5,0.4,1.1,0.6,1.7,0.6c0.8,0.1,1.6-0.4,2-1.2h1.9
		c-0.3,0.8-0.7,1.5-1.4,1.9c-0.7,0.5-1.6,0.8-2.5,0.8c-0.8,0-1.5-0.2-2.2-0.6c-0.6-0.4-1.2-0.9-1.5-1.6c-0.4-0.7-0.6-1.5-0.5-2.3
		c0-0.8,0.2-1.6,0.5-2.3c0.3-0.6,0.9-1.2,1.5-1.5c0.7-0.4,1.4-0.6,2.2-0.5c0.8,0,1.5,0.2,2.2,0.5c0.6,0.3,1.1,0.9,1.5,1.5
		c0.4,0.7,0.5,1.4,0.5,2.2C57.1,219.2,57.1,219.5,57.1,219.8z M55.3,218.3c0-0.6-0.2-1.2-0.7-1.6c-0.5-0.4-1.1-0.6-1.7-0.6
		c-0.6,0-1.1,0.2-1.6,0.6c-0.5,0.4-0.7,1-0.8,1.6H55.3z"/>
	<path class="st1" d="M58.8,216.8c0.3-0.6,0.9-1.2,1.5-1.5c1.5-0.8,3.3-0.7,4.7,0.2c0.7,0.5,1.2,1.2,1.4,2.1h-1.9
		c-0.1-0.4-0.4-0.8-0.8-1c-0.4-0.2-0.8-0.4-1.3-0.4c-0.7,0-1.3,0.3-1.7,0.8c-0.9,1.3-0.9,3,0,4.3c0.4,0.5,1.1,0.8,1.7,0.8
		c0.9,0,1.7-0.5,2-1.3h1.9c-0.2,0.8-0.7,1.5-1.4,2.1c-0.7,0.5-1.6,0.8-2.5,0.8c-0.8,0-1.5-0.2-2.2-0.6c-0.6-0.4-1.1-0.9-1.5-1.6
		C58.1,219.9,58.1,218.2,58.8,216.8L58.8,216.8z"/>
	<path class="st1" d="M70.2,216.3v4.7c0,0.3,0.1,0.5,0.2,0.7c0.2,0.2,0.5,0.2,0.8,0.2h1.1v1.5h-1.4c-0.7,0-1.3-0.2-1.8-0.6
		c-0.5-0.5-0.7-1.1-0.6-1.8v-4.7h-1v-1.4h1v-2.1h1.8v2.1h2.1v1.4L70.2,216.3z"/>
	<path class="st1" d="M74,213.4c-0.2-0.2-0.3-0.5-0.3-0.8c0-0.6,0.5-1.1,1.1-1.1c0.3,0,0.6,0.1,0.8,0.3c0.2,0.2,0.3,0.5,0.3,0.8
		c0,0.6-0.4,1.1-1,1.1c0,0,0,0-0.1,0C74.5,213.8,74.2,213.6,74,213.4z M75.7,214.8v8.5h-1.8v-8.5H75.7z"/>
	<path class="st1" d="M81.3,221.8l2.4-6.9h1.9l-3.2,8.5h-2.1l-3.2-8.5h1.9L81.3,221.8z"/>
	<path class="st1" d="M87,213.4c-0.2-0.2-0.3-0.5-0.3-0.8c0-0.6,0.5-1.1,1.1-1.1s1.1,0.5,1.1,1.1c0,0,0,0,0,0c0,0.6-0.5,1.1-1.1,1.1
		C87.5,213.7,87.2,213.6,87,213.4z M88.7,214.8v8.5h-1.8v-8.5H88.7z"/>
	<path class="st1" d="M93.1,216.3v4.7c0,0.3,0.1,0.5,0.2,0.7c0.2,0.2,0.5,0.2,0.8,0.2h1.1v1.5h-1.4c-0.7,0-1.3-0.2-1.8-0.6
		c-0.5-0.5-0.7-1.1-0.6-1.8v-4.7h-1v-1.4h1v-2.1h1.8v2.1h2.1v1.4L93.1,216.3z"/>
	<path class="st1" d="M104.4,214.8l-5.2,12.5h-1.8l1.7-4.1l-3.4-8.4h2l2.4,6.5l2.5-6.5H104.4z"/>
	
		<image style="overflow:visible;opacity:0.15;enable-background:new    ;" width="545" height="255" xlink:href="676EA182.png"  transform="matrix(0.24 0 0 0.24 156.82 213.7)">
	</image>
	<path class="st6" d="M187.4,228.8H257c8.5,0,15.5,6.9,15.5,15.5l0,0c0,8.5-6.9,15.5-15.5,15.5h-69.6c-8.5,0-15.5-6.9-15.5-15.5l0,0
		C171.9,235.8,178.8,228.8,187.4,228.8z"/>
	<path class="st6" d="M187.4,228.8H257c8.5,0,15.5,6.9,15.5,15.5l0,0c0,8.5-6.9,15.5-15.5,15.5h-69.6c-8.5,0-15.5-6.9-15.5-15.5l0,0
		C171.9,235.8,178.8,228.8,187.4,228.8z"/>
	<path class="st4" d="M204,239h2.2l1.3,8.7h0.2l1.9-8.7h2.5l1.9,8.7h0.2l1.3-8.7h2.2l-2,10.5h-3.2l-1.6-8l-1.7,8h-3.2L204,239z"/>
	<path class="st4" d="M219.1,240.8v-2.1h2.1v2.1H219.1z M219.1,249.5v-7.7h2.1v7.7L219.1,249.5z"/>
	<path class="st4" d="M223,246.4v-1.9h4.6v1.9L223,246.4z"/>
	<path class="st4" d="M229.6,249.5V239h6.7v1.9h-4.6v3.1h3.8v1.9h-3.8v3.7H229.6z"/>
	<path class="st4" d="M237.6,240.8v-2.1h2.1v2.1H237.6z M237.6,249.5v-7.7h2.1v7.7L237.6,249.5z"/>
	
		<image style="overflow:visible;opacity:0.15;enable-background:new    ;" width="609" height="255" xlink:href="676EA183.png"  transform="matrix(0.24 0 0 0.24 272.02 213.7)">
	</image>
	<path class="st6" d="M302.5,228.8h85.1c8.5,0,15.5,6.9,15.5,15.5l0,0c0,8.5-6.9,15.5-15.5,15.5h-85.1c-8.5,0-15.5-6.9-15.5-15.5
		l0,0C287,235.8,294,228.8,302.5,228.8z"/>
	<path class="st6" d="M302.5,228.8h85.1c8.5,0,15.5,6.9,15.5,15.5l0,0c0,8.5-6.9,15.5-15.5,15.5h-85.1c-8.5,0-15.5-6.9-15.5-15.5
		l0,0C287,235.8,294,228.8,302.5,228.8z"/>
	<path class="st4" d="M318.8,249.5h-6V239h2.1v8.6h3.9L318.8,249.5z"/>
	<path class="st4" d="M320.4,242.7c1.5-1.4,3.9-1.4,5.5,0c0.6,0.9,0.9,1.9,0.8,3c0,2.7-1.2,4.1-3.5,4.1c-2.4,0-3.6-1.4-3.6-4.1
		C319.5,244.6,319.8,243.6,320.4,242.7z M322,247.4c0.5,0.6,1.4,0.7,2,0.2c0.1-0.1,0.2-0.1,0.2-0.2c0.2-0.5,0.4-1.1,0.3-1.8
		c0-0.6-0.1-1.2-0.3-1.7c-0.5-0.6-1.4-0.7-2.1-0.2c-0.1,0.1-0.2,0.1-0.2,0.2c-0.2,0.5-0.4,1.1-0.3,1.7
		C321.6,246.3,321.7,246.9,322,247.4L322,247.4z"/>
	<path class="st4" d="M330.4,246v3.5h-2.1V239h4.1c2.5,0,3.7,1.2,3.7,3.5c0.1,1.2-0.5,2.4-1.5,3l1.5,4h-2.3l-1.2-3.5H330.4z
		 M333.5,243.7c0.3-0.4,0.4-0.8,0.4-1.2c0-0.4-0.1-0.9-0.4-1.2c-0.3-0.3-0.7-0.5-1.1-0.4h-2v3.4h2
		C332.8,244.2,333.2,244,333.5,243.7L333.5,243.7z"/>
	<path class="st4" d="M343.6,244.2v3.2c0,0.2,0,0.4,0.1,0.5c0.1,0.1,0.2,0.2,0.4,0.2l-0.1,1.6c-0.4,0-0.9,0-1.3-0.1
		c-0.3-0.1-0.7-0.2-1-0.4c-0.7,0.4-1.5,0.5-2.3,0.5c-1.6,0-2.4-0.9-2.4-2.5c-0.1-0.7,0.2-1.3,0.7-1.8c0.6-0.4,1.3-0.6,2-0.6l1.6-0.1
		v-0.5c0-0.2-0.1-0.5-0.2-0.7c-0.2-0.1-0.4-0.2-0.7-0.2l-2.9,0.1l-0.1-1.4c1-0.3,2.1-0.4,3.1-0.4c0.8-0.1,1.5,0.1,2.1,0.6
		C343.4,242.8,343.6,243.5,343.6,244.2z M340.1,246.2c-0.5,0-0.9,0.4-0.9,0.8c0,0,0,0.1,0,0.1c0,0.6,0.2,0.9,0.8,0.9
		c0.4,0,0.9-0.1,1.3-0.2l0.2-0.1v-1.6L340.1,246.2z"/>
	<path class="st4" d="M344.6,239h2.2l1.3,8.7h0.2l1.9-8.7h2.5l1.9,8.7h0.2l1.3-8.7h2.2l-2,10.5h-3.2l-1.6-8l-1.7,8h-3.2L344.6,239z"
		/>
	<path class="st4" d="M358.6,249.5L361,239h4.1l2.4,10.5h-2.1l-0.4-1.9h-3.7l-0.4,1.9H358.6z M362.6,240.7l-1.1,5h2.9l-1.1-5H362.6z
		"/>
	<path class="st4" d="M368.9,249.5V239h3.6l2.5,8.7h0.2V239h2.1v10.5h-3.5l-2.6-8.7H371v8.7H368.9z"/>
	<path class="st0" d="M4.5,301.5h566c2.2,0,4,1.8,4,4v78.3c0,2.2-1.8,4-4,4H4.5c-2.2,0-4-1.8-4-4v-78.3
		C0.5,303.3,2.3,301.5,4.5,301.5z"/>
	<path class="st1" d="M16,312.9v10.8h-1.8V319H9.2v4.7H7.4v-10.8h1.8v4.6h5.1v-4.6H16z"/>
	<path class="st1" d="M18.3,317.1c0.3-0.6,0.8-1.2,1.5-1.5c0.6-0.4,1.3-0.5,2-0.5c0.6,0,1.2,0.1,1.8,0.4c0.5,0.2,0.9,0.6,1.2,1v-1.2
		h1.8v8.5h-1.8v-1.3c-0.3,0.4-0.7,0.8-1.2,1c-0.5,0.3-1.1,0.4-1.8,0.4c-0.7,0-1.4-0.2-2-0.6c-0.6-0.4-1.1-0.9-1.4-1.6
		c-0.4-0.7-0.6-1.5-0.5-2.3C17.7,318.6,17.9,317.8,18.3,317.1z M24.3,317.9c-0.2-0.4-0.5-0.8-1-1c-0.4-0.2-0.8-0.3-1.3-0.3
		c-0.4,0-0.9,0.1-1.3,0.3c-0.4,0.2-0.8,0.6-1,1c-0.3,0.5-0.4,1-0.4,1.5c0,0.5,0.1,1.1,0.4,1.5c0.2,0.4,0.6,0.8,1,1
		c0.8,0.5,1.7,0.5,2.5,0c0.4-0.2,0.7-0.6,1-1c0.2-0.5,0.4-1,0.4-1.5C24.7,318.9,24.6,318.4,24.3,317.9L24.3,317.9z"/>
	<path class="st1" d="M31.6,315.4c0.5-0.3,1-0.4,1.5-0.4v1.8h-0.5c-0.6,0-1.1,0.2-1.6,0.5c-0.4,0.5-0.6,1.2-0.5,1.8v4.5h-1.8v-8.5
		h1.8v1.2C30.8,316,31.2,315.6,31.6,315.4z"/>
	<path class="st1" d="M34.7,317.1c1-1.8,3.3-2.6,5.2-1.7c0.5,0.2,1,0.6,1.3,1v-4.1h1.8v11.5h-1.8v-1.3c-0.3,0.4-0.7,0.8-1.2,1
		c-0.5,0.3-1.1,0.4-1.8,0.4c-0.7,0-1.4-0.2-2-0.6c-0.6-0.4-1.1-0.9-1.5-1.6c-0.4-0.7-0.5-1.5-0.5-2.3
		C34.2,318.6,34.3,317.8,34.7,317.1z M40.8,317.9c-0.2-0.4-0.6-0.8-1-1c-0.4-0.2-0.8-0.3-1.3-0.3c-0.4,0-0.9,0.1-1.3,0.3
		c-0.4,0.2-0.7,0.6-1,1c-0.3,0.5-0.4,1-0.4,1.5c0,0.5,0.1,1.1,0.4,1.5c0.2,0.4,0.6,0.8,1,1c0.4,0.2,0.8,0.4,1.3,0.4
		c0.4,0,0.9-0.1,1.3-0.3c0.4-0.2,0.8-0.6,1-1c0.2-0.5,0.4-1,0.4-1.5C41.2,318.9,41,318.4,40.8,317.9L40.8,317.9z"/>
	<path class="st1" d="M59.2,312.9l-3.2,10.8h-2l-2.3-8.1l-2.4,8.1h-2l-3-10.8h1.9l2.2,8.8l2.4-8.8h2l2.2,8.7l2.2-8.7H59.2z"/>
	<path class="st1" d="M60.7,317.1c0.7-1.3,2-2.1,3.5-2.1c0.6,0,1.2,0.1,1.8,0.4c0.5,0.2,0.9,0.6,1.2,1v-1.2h1.8v8.5h-1.8v-1.3
		c-0.3,0.4-0.7,0.8-1.2,1c-0.5,0.3-1.1,0.4-1.8,0.4c-0.7,0-1.4-0.2-2-0.6c-0.6-0.4-1.1-0.9-1.5-1.6c-0.4-0.7-0.5-1.5-0.5-2.3
		C60.1,318.6,60.3,317.8,60.7,317.1z M66.7,317.9c-0.2-0.4-0.6-0.8-1-1c-0.4-0.2-0.8-0.3-1.3-0.3c-0.4,0-0.9,0.1-1.3,0.3
		c-0.4,0.2-0.8,0.6-1,1c-0.3,0.5-0.4,1-0.4,1.5c0,0.5,0.1,1.1,0.4,1.5c0.2,0.4,0.6,0.8,1,1c0.4,0.2,0.8,0.3,1.3,0.4
		c0.4,0,0.9-0.1,1.3-0.3c0.4-0.2,0.8-0.6,1-1c0.3-0.5,0.4-1,0.4-1.5C67.1,318.9,67,318.4,66.7,317.9L66.7,317.9z"/>
	<path class="st1" d="M74,315.4c0.5-0.3,1-0.4,1.5-0.4v1.8h-0.4c-0.6,0-1.1,0.1-1.6,0.5c-0.4,0.5-0.6,1.2-0.5,1.8v4.5h-1.8v-8.5H73
		v1.2C73.2,316,73.6,315.6,74,315.4z"/>
	<path class="st1" d="M84.9,320.1h-6.5c0,0.6,0.3,1.2,0.8,1.6c0.5,0.4,1.1,0.6,1.7,0.6c0.9,0.1,1.6-0.4,2-1.2h1.9
		c-0.3,0.8-0.7,1.5-1.4,1.9c-0.7,0.5-1.6,0.8-2.5,0.8c-0.8,0-1.5-0.2-2.2-0.5c-0.6-0.4-1.2-0.9-1.5-1.5c-0.7-1.5-0.7-3.2,0-4.6
		c0.3-0.7,0.9-1.2,1.5-1.5c0.7-0.4,1.4-0.6,2.2-0.5c0.8,0,1.5,0.2,2.2,0.5c0.6,0.3,1.1,0.9,1.5,1.5c0.4,0.7,0.5,1.4,0.5,2.2
		C85,319.5,84.9,319.8,84.9,320.1z M83.1,318.7c0-0.6-0.2-1.2-0.7-1.6c-0.5-0.4-1.1-0.6-1.7-0.6c-0.6,0-1.1,0.2-1.6,0.6
		c-0.4,0.4-0.7,1-0.8,1.6H83.1z"/>
	
		<image style="overflow:visible;opacity:0.15;enable-background:new    ;" width="272" height="271" xlink:href="676EA18D.png"  transform="matrix(0.24 0 0 0.24 103.3 312.1)">
	</image>
	<circle class="st6" cx="135.9" cy="344.6" r="17.5"/>
	<circle class="st6" cx="135.9" cy="344.6" r="17.5"/>
	<path class="st7" d="M135.2,351.4c-5.2,0.5-10.7-0.3-11.4-4.4c-0.3-2,0.4-4,1.8-5.5v-0.7c-2.2,1.9-3.4,4.4-2.7,7.2
		c0.9,3.7,5.5,5.8,12.7,5.1c3.2-0.3,6.2-1.2,9.1-2.6v-2C141.7,350.2,138.5,351.1,135.2,351.4z M148.9,340.9c-1.2-6-13-6.4-20.5-1.8
		v0.5c7.6-3.9,18.3-3.9,19.3,1.7c0.2,2-0.8,3.9-2.6,4.9v1.5C147.8,346.6,149.5,343.7,148.9,340.9L148.9,340.9z"/>
	<path class="st7" d="M144.2,340h-1.4v6.1c0,0.7,0.5,1.4,1.2,1.4c0,0,0.1,0,0.1,0V340z"/>
	<path class="st7" d="M127.9,342.2h-1.4v4c-0.1,0.7,0.5,1.4,1.2,1.4c0.1,0,0.1,0,0.2,0L127.9,342.2z"/>
	<rect x="126.5" y="340.2" class="st7" width="1.4" height="1.3"/>
	<path class="st7" d="M136.1,347.6c-0.8,0.1-1.5-0.5-1.6-1.3c0-0.1,0-0.1,0-0.2v-5.3h1.4v1.5h1v1.1h-1v2.6c0,0.2,0.1,0.4,0.4,0.5
		c0,0,0.1,0,0.1,0h0.6v1.1H136.1"/>
	<path class="st7" d="M138.6,345.3c0,0.6,0.4,1.2,1,1.2c0.1,0,0.1,0,0.2,0c0.5,0,0.9-0.2,1.2-0.5l0.8,0.8c-0.5,0.6-1.3,0.9-2.1,0.9
		c-1.3,0-2.5-0.7-2.5-2.8c-0.2-1.4,0.8-2.6,2.2-2.8c0.1,0,0.2,0,0.3,0c1.4,0,2.3,1.2,2.3,2.7v0.5L138.6,345.3 M139.7,343.2
		c-0.4,0-0.8,0.2-1,0.6c-0.1,0.2-0.1,0.4-0.1,0.6h2.1C140.6,343.8,140.4,343.2,139.7,343.2L139.7,343.2z"/>
	<path class="st7" d="M131.6,343.3c0.4,0,0.6,0.2,0.6,0.5v3.8h1.4v-3.8c0.1-0.8-0.6-1.5-1.4-1.6c-0.1,0-0.2,0-0.2,0h-2.8v5.4h1.4
		v-4.3H131.6z"/>
	<path class="st7" d="M145.6,341.1c-0.3,0-0.5-0.3-0.5-0.6c0-0.2,0.2-0.4,0.5-0.5c0.3,0,0.6,0.2,0.6,0.5s-0.2,0.6-0.5,0.6
		C145.7,341.1,145.7,341.1,145.6,341.1z M145.6,340.1c-0.3,0-0.4,0.3-0.4,0.5c0,0.2,0.2,0.4,0.4,0.4c0.3,0,0.5-0.1,0.5-0.4
		c0-0.3-0.1-0.5-0.4-0.5C145.7,340.1,145.7,340.1,145.6,340.1z M145.9,340.9h-0.1l-0.1-0.2h-0.1v0.2l0,0h-0.1l0,0v-0.6
		c0,0,0,0,0-0.1h0.2c0.2,0,0.3,0,0.3,0.2l0,0c0,0.1,0,0.2-0.1,0.2L145.9,340.9L145.9,340.9L145.9,340.9z M145.7,340.4
		c0-0.1,0-0.1-0.1-0.1h-0.1v0.2h0.1C145.7,340.5,145.7,340.5,145.7,340.4L145.7,340.4z"/>
	
		<image style="overflow:visible;opacity:0.15;enable-background:new    ;" width="272" height="271" xlink:href="676EA18F.png"  transform="matrix(0.24 0 0 0.24 153.7 312.1)">
	</image>
	<circle class="st6" cx="186.4" cy="344.6" r="17.5"/>
	<circle class="st6" cx="186.4" cy="344.6" r="17.5"/>
	<path class="st8" d="M176.1,342.9c0,5,7,6.9,10.4,1.8c3.6,5.3,10.2,3.1,10.2-1.8s-6.6-7.2-10.2-1.8
		C183.1,335.7,176.1,337.8,176.1,342.9L176.1,342.9z M177.9,342.9c0-3.6,5.1-4.8,7.5,0C183,347.5,177.9,346.5,177.9,342.9z
		 M187.5,342.9c2.2-4.9,7.4-3.5,7.4,0S189.6,347.5,187.5,342.9L187.5,342.9z"/>
	<rect x="179.9" y="342.4" class="st9" width="3.1" height="1"/>
	<polygon class="st8" points="190.9,343.3 189.9,343.3 189.9,342.3 190.9,342.3 190.9,341.3 192,341.3 192,342.3 193,342.3 
		193,343.3 192,343.3 192,344.4 190.9,344.4 	"/>
	<path class="st9" d="M195.7,338.9v-0.5h-0.1v-0.1h0.3v0.1h-0.1L195.7,338.9L195.7,338.9z M196,338.9v-0.5h0.1l0.1,0.4l0.1-0.4h0.1
		v0.5h-0.1v-0.4l-0.1,0.4h-0.1l-0.1-0.4L196,338.9L196,338.9z"/>
	<path class="st8" d="M184.8,350.5c0.1,0.7-0.4,1.3-1.1,1.4c-0.1,0-0.3,0-0.4,0h-0.8v-2.9h0.8c0.7-0.1,1.4,0.3,1.5,1
		C184.8,350.2,184.8,350.4,184.8,350.5z M184.1,350.5c0-0.6-0.3-0.8-0.9-0.8v1.6C183.8,351.3,184.1,351,184.1,350.5z"/>
	<path class="st8" d="M186.5,351.9c-0.8,0-1.1-0.3-1.2-1V349h0.7v1.9c0,0.3,0.1,0.4,0.4,0.4s0.4-0.1,0.4-0.4V349h0.7v1.9
		C187.6,351.6,187.3,351.9,186.5,351.9z"/>
	<polygon class="st8" points="189.3,349 188.2,349 188.2,349.6 188.9,349.6 188.9,350.5 188.9,351.3 188.2,351.3 188.2,351.9 
		189.3,351.9 190.4,351.9 190.4,351.3 189.6,351.3 189.6,350.5 189.6,349.6 190.4,349.6 190.4,349 	"/>
	<polygon class="st8" points="192.5,350.5 191.7,349 190.9,349 190.9,351.9 191.6,351.9 191.6,350.2 191.8,350.5 192.5,351.9 
		193.3,351.9 193.3,349 192.6,349 192.6,350.8 	"/>
	<path class="st8" d="M194.9,349.6c-0.4,0-0.4,0.4-0.4,0.8s0,0.8,0.4,0.8s0.4-0.4,0.4-0.8S195.3,349.6,194.9,349.6z M194.9,351.9
		c-0.8,0-1.2-0.5-1.2-1.4s0.4-1.4,1.2-1.4s1.2,0.5,1.2,1.4S195.7,351.9,194.9,351.9z"/>
	<path class="st8" d="M179.3,351.9l-1-2.9h-0.8l-1,2.9h0.9l0.1-0.6h0.8l0.2,0.6H179.3z M178.2,350.7h-0.5l0.2-0.9L178.2,350.7z"/>
	<path class="st8" d="M179.7,349v2.9h0.8V351h0.3l0.5,0.9h0.8l-0.6-1.1c0.4-0.3,0.5-0.9,0.2-1.4c-0.2-0.3-0.5-0.4-0.8-0.4H179.7z
		 M180.5,350.5v-0.8h0.3c0.6,0,0.4,0.8,0,0.8H180.5z"/>
	
		<image style="overflow:visible;opacity:0.15;enable-background:new    ;" width="272" height="271" xlink:href="676EA180.png"  transform="matrix(0.24 0 0 0.24 204.34 312.1)">
	</image>
	<circle class="st6" cx="236.9" cy="344.6" r="17.5"/>
	<circle class="st6" cx="236.9" cy="344.6" r="17.5"/>
	<path class="st10" d="M233.7,335.4c-0.1,0-0.2,0-0.3,0.1c-0.2-0.1-0.6-0.1-0.8,0.1c-0.4,0-0.5,0-0.6,0.2s-0.6-0.1-0.8,0.3
		c-0.6-0.1-0.8,0.4-0.6,0.7c-0.2,0.2-0.2,0.5,0,0.7c-0.1,0.2,0,0.4,0.2,0.7c-0.1,0.2,0.1,0.5,0.3,0.6c0,0.4,0.4,0.6,0.5,0.7
		s0.1,0.4,0.6,0.5c0.1,0.3,0.4,0.4,0.6,0.5c-1.1,0.5-1.7,1.6-1.6,2.8l-0.1,0.2c-1.3,0.9-1.6,2.6-0.7,3.8c0.1,0.1,0.2,0.2,0.2,0.3
		c0.1,0.4,0.2,0.8,0.4,1.2c0.1,1.1,0.9,2,1.9,2.4c0.5,0.4,1.1,0.8,1.8,1c0.6,0.6,1.4,1,2.2,1c0.8-0.1,1.6-0.5,2.2-1
		c0.6-0.2,1.3-0.6,1.8-1c1-0.4,1.7-1.3,1.9-2.4c0.2-0.4,0.3-0.8,0.4-1.2c1-1.1,0.9-2.9-0.2-3.9c-0.1-0.1-0.2-0.2-0.3-0.2l-0.1-0.2
		c0.1-1.2-0.5-2.3-1.6-2.8c0.3-0.1,0.5-0.1,0.6-0.5c0.4-0.1,0.6-0.3,0.6-0.5s0.5-0.3,0.5-0.7c0.2-0.1,0.3-0.4,0.3-0.6
		c0.2-0.3,0.3-0.5,0.2-0.7c0.2-0.2,0.2-0.5,0-0.7c0.2-0.4,0-0.8-0.6-0.7c-0.2-0.4-0.8-0.3-0.8-0.3s-0.2-0.2-0.6-0.2
		c-0.2-0.1-0.4-0.2-0.6-0.1c-0.3-0.2-0.5,0-0.8,0c-0.4-0.1-0.5,0-0.7,0.1c-0.4-0.1-0.6,0.1-0.8,0.3h-0.2c-0.5,0.4-0.9,0.9-1.1,1.5
		c-0.2-0.6-0.5-1.2-1.1-1.5h-0.2c-0.2-0.2-0.3-0.4-0.8-0.3c-0.2-0.1-0.3-0.2-0.7-0.1C234.1,335.4,233.9,335.4,233.7,335.4"/>
	<path class="st11" d="M232.5,337.1c1.2,0.5,2.3,1.3,3.2,2.2c-0.3,1.1-1.7,1.2-2.2,1.1c0.1,0,0.2-0.1,0.2-0.2
		c-0.1-0.1-0.6,0-0.9-0.2c0.1,0,0.2,0,0.2-0.1c-0.3-0.1-0.6-0.2-0.8-0.4c0.1,0,0.2,0,0.4-0.1c-0.3-0.1-0.6-0.3-0.8-0.5
		c0.1,0,0.3,0,0.4-0.1c-0.2-0.1-0.5-0.3-0.6-0.5c0.2,0,0.3,0,0.3,0c-0.2-0.2-0.4-0.4-0.6-0.6c0.1,0.1,0.3,0.1,0.4,0
		c-0.1-0.1-0.4-0.2-0.5-0.6c0.1,0,0.2,0,0.4,0c-0.1-0.2-0.2-0.5-0.3-0.6c0.3,0,0.5,0,0.8,0l-0.2-0.2c0.3-0.1,0.6,0,0.9,0.1
		c0.1-0.1,0-0.2-0.1-0.3c0.3,0,0.5,0.1,0.8,0.2c0.1-0.1-0.1-0.2-0.2-0.3c0.3,0,0.6,0.2,0.8,0.3c0.1-0.1,0-0.2-0.1-0.4
		c0.2,0.1,0.5,0.2,0.7,0.4c0.1-0.1,0.1-0.1,0-0.3c0.2,0.1,0.4,0.3,0.5,0.5c0.1-0.1,0.1-0.2,0.1-0.3c0.2,0.2,0.4,0.4,0.6,0.6
		c0.1-0.1,0.1-0.2,0.1-0.3c0.6,0.6,1.4,2,0.2,2.5C234.9,338.2,233.7,337.5,232.5,337.1L232.5,337.1"/>
	<path class="st11" d="M241.5,337.1c-1.2,0.5-2.3,1.3-3.2,2.2c0.3,1.1,1.7,1.2,2.2,1.1c-0.1,0-0.2-0.1-0.2-0.2
		c0.1-0.1,0.6,0,0.9-0.2c-0.1,0-0.2,0-0.2-0.1c0.3-0.1,0.6-0.2,0.8-0.4c-0.1,0-0.2,0-0.3-0.1c0.3-0.1,0.6-0.3,0.8-0.5
		c-0.1,0-0.3,0-0.4-0.1c0.2-0.1,0.5-0.3,0.6-0.5c-0.1,0-0.2,0-0.3,0c0.2-0.2,0.4-0.4,0.6-0.6c-0.1,0.1-0.3,0.1-0.4,0
		c0.1-0.1,0.4-0.2,0.5-0.6c-0.1,0-0.2,0-0.4,0c0.1-0.2,0.2-0.5,0.3-0.6c-0.3,0-0.5,0-0.8,0l0.2-0.2c-0.3-0.1-0.6,0-0.9,0.1
		c-0.1-0.1,0-0.2,0.1-0.3c-0.3,0-0.5,0.1-0.8,0.2c-0.1-0.1,0.1-0.2,0.2-0.3c-0.3,0-0.6,0.2-0.8,0.3c-0.1-0.1,0-0.2,0.1-0.4
		c-0.3,0.1-0.5,0.2-0.7,0.4c-0.1-0.1-0.1-0.1,0-0.3c-0.2,0.1-0.4,0.3-0.5,0.5c-0.1-0.1-0.1-0.2-0.1-0.3c-0.2,0.2-0.4,0.4-0.6,0.6
		c-0.1-0.1-0.1-0.2-0.1-0.3c-0.6,0.6-1.4,2-0.2,2.5C239.1,338.2,240.3,337.5,241.5,337.1L241.5,337.1"/>
	<path class="st12" d="M239,348.4c0,1.1-0.9,2-2,2s-2-0.9-2-2l0,0c0-1.1,0.9-2,2-2S239,347.2,239,348.4L239,348.4"/>
	<path class="st12" d="M235.8,343c1.1,0.5,1.6,1.8,1.1,2.9c-0.5,1.1-1.8,1.6-2.9,1.1c-1.1-0.5-1.6-1.8-1.1-2.9
		c0-0.1,0.1-0.2,0.2-0.3C233.6,342.8,234.8,342.5,235.8,343"/>
	<path class="st12" d="M238.1,342.9c-1.1,0.5-1.6,1.8-1.1,2.9c0.5,1.1,1.8,1.6,2.9,1.1c1.1-0.5,1.6-1.8,1.1-2.9
		c0-0.1-0.1-0.2-0.2-0.3C240.3,342.7,239.1,342.4,238.1,342.9"/>
	<path class="st12" d="M231.6,343.9c0.9-0.2,0.3,3.8-0.4,3.4c-0.9-0.8-0.9-2.2-0.1-3.1C231.3,344.1,231.4,344,231.6,343.9"/>
	<path class="st12" d="M242.1,343.9c-0.9-0.2-0.3,3.8,0.4,3.4c0.9-0.8,0.9-2.2,0.1-3.1C242.5,344.1,242.3,344,242.1,343.9"/>
	<path class="st12" d="M239,340.9c1.2-0.3,2.4,0.4,2.8,1.6c0.1,0.2,0.1,0.5,0.1,0.7C241.9,343.9,238.5,341,239,340.9"/>
	<path class="st12" d="M234.7,340.8c-1.2-0.3-2.4,0.4-2.8,1.6c-0.1,0.2-0.1,0.5-0.1,0.8C231.9,343.8,235.3,340.9,234.7,340.8"/>
	<path class="st12" d="M236.9,340.4c-0.9,0-1.8,0.7-1.8,1.1s0.8,1,1.9,1s1.9-0.4,1.9-0.9S237.8,340.4,236.9,340.4L236.9,340.4"/>
	<path class="st12" d="M237,350.8c0.8,0,1.9,0.3,1.9,0.7s-1,1.2-2,1.2c-0.8,0-1.6-0.4-2-1.1C234.9,351.2,236.1,350.8,237,350.8"/>
	<path class="st12" d="M234,348.5c0.6,0.7,0.9,1.9,0.4,2.3c-0.9,0.3-1.9-0.1-2.4-1c-0.5-1-0.5-1.9-0.1-2.2
		C232.4,347.2,233.3,347.7,234,348.5L234,348.5"/>
	<path class="st12" d="M239.9,348.3c-0.6,0.7-1,2.1-0.5,2.5s1.6,0.3,2.5-0.9c0.5-0.8,0.5-1.7,0.1-2.5
		C241.4,346.9,240.6,347.4,239.9,348.3L239.9,348.3"/>
	
		<image style="overflow:visible;opacity:0.15;enable-background:new    ;" width="271" height="271" xlink:href="676EA181.png"  transform="matrix(0.24 0 0 0.24 254.98 312.1)">
	</image>
	<circle class="st6" cx="287.5" cy="344.6" r="17.5"/>
	<circle class="st6" cx="287.5" cy="344.6" r="17.5"/>
	<g id="Layer_2_1_">
		<g id="Logo">
			<path class="st13" d="M298.6,338.9h-16.4c-1.2,0-2.3,0.7-2.8,1.8l-3.2,7.8c0,0.1,0,0.2,0.1,0.2h7.5c0.3,0,0.5-0.2,0.6-0.4
				c0-0.2-0.1-0.4-0.2-0.5l-2.7-2.5c-1-1.1-1-2.9,0.1-3.9c0.5-0.5,1.3-0.8,2-0.7H298c0.1,0,0.1,0,0.2-0.1l0.6-1.4c0,0,0,0,0-0.1
				C298.8,339,298.7,338.9,298.6,338.9z"/>
			<path class="st13" d="M297,342.9h-2.8c-0.2,0-0.3,0.1-0.4,0.3l-3.1,7.5c0,0,0,0.1,0,0.1c0,0.1,0.1,0.2,0.2,0.2h1
				c1.2,0,2.3-0.7,2.8-1.9l0,0l2.5-6c0,0,0,0,0-0.1C297.1,342.9,297,342.9,297,342.9z"/>
			<path class="st13" d="M291.5,343c0-0.1-0.1-0.2-0.2-0.2h-7.8c-0.3,0-0.5,0.2-0.5,0.5c0,0.2,0.1,0.3,0.2,0.4l2.6,2.4
				c0.6,0.6,0.9,1.5,0.8,2.4c-0.1,1-0.8,1.8-1.6,2.2l0,0 M284.9,350.9L284.9,350.9h3c0.2,0,0.4-0.1,0.4-0.3l3.1-7.5c0,0,0,0,0-0.1
				L284.9,350.9z"/>
		</g>
	</g>
	
		<image style="overflow:visible;opacity:0.15;enable-background:new    ;" width="272" height="271" xlink:href="676EA186.png"  transform="matrix(0.24 0 0 0.24 305.38 312.1)">
	</image>
	<circle class="st6" cx="338" cy="344.6" r="17.5"/>
	<circle class="st6" cx="338" cy="344.6" r="17.5"/>
	<path class="st14" d="M335.2,348.8c0,0.7-0.5,1.2-1.2,1.2s-1.2-0.5-1.2-1.2c0-0.7,0.5-1.2,1.2-1.2l0,0
		C334.6,347.6,335.2,348.1,335.2,348.8L335.2,348.8"/>
	<path class="st14" d="M345.6,347.5c-0.8-5.5-5.1-9.7-10.5-10.5c-0.6,0.3-1.2,0.8-1.7,1.3v1.1c5.4,0,9.8,4.4,9.9,9.9h1.2
		C344.9,348.7,345.3,348.1,345.6,347.5"/>
	<path class="st14" d="M346.5,343.9c0-4.3-3.5-7.8-7.8-7.8c0,0,0,0,0,0l0,0c-0.3,0-0.5,0-0.8,0l-0.2,0.5c3.8,1.3,6.9,4.4,8.2,8.2
		l0.5-0.2C346.5,344.4,346.5,344.1,346.5,343.9"/>
	<path class="st14" d="M338.8,353.1c-5.1,0-9.2-4.1-9.3-9.2c0-2.5,1-4.8,2.7-6.6l0.5,0.5c-3.4,3.3-3.4,8.7,0,12.1l0,0
		c3.3,3.4,8.7,3.4,12.1,0l0,0l0.5,0.5C343.7,352.2,341.3,353.2,338.8,353.1"/>
	<path class="st14" d="M338.7,349.8c0.2-1.9-0.6-3.7-2.1-4.8c-0.8-0.6-1.7-1-2.7-1.1c-0.3,0-0.4-0.3-0.4-0.5c0-0.3,0.3-0.5,0.5-0.4
		c0,0,0,0,0,0l0,0c3.5,0.4,6,3.5,5.7,7c0,0.4-0.1,0.7-0.2,1.1l1.4,0.4c0.4-0.1,0.8-0.3,1.2-0.5c0.1-0.5,0.2-1.1,0.1-1.7
		c0-4.4-3.2-8.1-7.5-8.8c-0.5-0.1-1-0.1-1.4,0c-0.6,0.2-1.1,0.5-1.5,1c-1.1,1.2-1,3.1,0.3,4.2c0,0,0,0,0,0c0.3,0.3,0.6,0.5,1,0.6
		c0.2,0.1,0.5,0.1,0.8,0.1l0,0c1.4,0.2,2.4,1.4,2.4,2.8c0,0.5-0.2,1.1-0.5,1.5l1,0.6c0.5,0.1,1,0.2,1.5,0.2
		C338.4,351,338.6,350.4,338.7,349.8"/>
	
		<image style="overflow:visible;opacity:0.15;enable-background:new    ;" width="272" height="271" xlink:href="F2FD584E.png"  transform="matrix(0.24 0 0 0.24 356.02 312.1)">
	</image>
	<circle class="st6" cx="388.6" cy="344.6" r="17.5"/>
	<circle class="st6" cx="388.6" cy="344.6" r="17.5"/>
	<path class="st15" d="M389.6,343.3c1.1,1.4,1.1,3.3,0,4.7c1.3-0.4,2-1.8,1.6-3.1C391,344.2,390.4,343.6,389.6,343.3z"/>
	<path class="st15" d="M391.5,337.1h-5.8c-2.6,0-4.7,2.1-4.7,4.7l0,0v5.8c0,2.6,2.1,4.7,4.7,4.7h0h5.8c2.6,0,4.7-2.1,4.7-4.7v0l0,0
		v-5.8C396.2,339.1,394.1,337,391.5,337.1L391.5,337.1z M388.6,350.1c-2.5,0.1-4.6-1.8-4.7-4.2c0,0,0,0,0,0c0-2.7,2-2.8,3-5.6
		c0.2,0.1,0.4,0.2,0.5,0.4c-0.2,2.5-1.8,3.1-1.8,5.2c0.1,1.5,1.3,2.6,2.7,2.6c-2.8-4,1.3-4.4-0.4-9.5c0.2-0.4,0.5-0.7,0.9-0.9
		c0.9,4.9,4.3,4.2,4.3,7.8C393.1,348.2,391,350.2,388.6,350.1L388.6,350.1z"/>
	
		<image style="overflow:visible;opacity:0.15;enable-background:new    ;" width="272" height="271" xlink:href="F2FD5849.png"  transform="matrix(0.24 0 0 0.24 406.42 312.1)">
	</image>
	<circle class="st6" cx="439.1" cy="344.6" r="17.5"/>
	<circle class="st6" cx="439.1" cy="344.6" r="17.5"/>
	<path class="st16" d="M435.3,346.6c0.2,0.2,0.2,0.5,0,0.7l-2.3,3.5c-0.9-1-1.6-2.1-2-3.4l2-3.1c0.1-0.1,0.3-0.2,0.5-0.1
		c0,0,0,0,0.1,0.1L435.3,346.6z"/>
	<path class="st16" d="M441.4,347.1c0.1,0.2,0.1,0.4,0,0.6l-1.6,2.1c-0.2,0.2-0.5,0.3-0.7,0.1c0,0-0.1-0.1-0.1-0.1l-4.5-6.9
		c-0.1-0.2-0.1-0.5,0-0.6l1.8-1.9c0.2-0.2,0.5-0.2,0.7,0c0,0,0,0,0.1,0.1L441.4,347.1z"/>
	<path class="st16" d="M447.3,347.2c-0.4,1.3-1,2.5-1.9,3.4l-5.2-7.9c-0.2-0.2-0.1-0.6,0.1-0.8l1.8-1.9c0.1-0.2,0.4-0.2,0.5,0
		c0,0,0,0,0.1,0.1L447.3,347.2z"/>
	<path class="st16" d="M447.6,345c0,4.7-3.9,8.5-8.6,8.4c-4.7,0-8.5-3.9-8.4-8.6c0-4.7,3.9-8.5,8.6-8.4c1.1,0,2.3,0.2,3.3,0.7
		L447.6,345z"/>
	<path class="st6" d="M447.3,347.2c-0.4,1.3-1,2.5-1.9,3.4l-5.2-7.9c-0.2-0.2-0.1-0.6,0.1-0.8l1.8-1.9c0.1-0.2,0.4-0.2,0.5,0
		c0,0,0,0,0.1,0.1L447.3,347.2z"/>
	<path class="st6" d="M441.4,347.7l-1.6,2.1c-0.2,0.2-0.5,0.3-0.7,0.1c0,0-0.1-0.1-0.1-0.1l-4.5-6.9c-0.1-0.2-0.1-0.5,0-0.6l1.8-1.9
		c0.2-0.2,0.5-0.2,0.7,0c0,0,0,0,0.1,0.1l4.4,6.7C441.5,347.3,441.5,347.5,441.4,347.7z"/>
	<path class="st6" d="M435.3,347.3l-2.3,3.5c-0.9-1-1.6-2.1-2-3.4l2-3.1c0.1-0.1,0.3-0.2,0.5-0.1c0,0,0,0,0.1,0.1l1.7,2.3
		C435.4,346.8,435.4,347,435.3,347.3z"/>
	<circle cx="444.9" cy="338" r="0.9"/>
</g>
</svg>
