<?xml version="1.0" encoding="utf-8"?>
<!-- Generator: Adobe Illustrator 25.2.1, SVG Export Plug-In . SVG Version: 6.00 Build 0)  -->
<svg version="1.1" id="Layer_1" xmlns="http://www.w3.org/2000/svg" xmlns:xlink="http://www.w3.org/1999/xlink" x="0px" y="0px"
	 viewBox="0 0 148.4 80" style="enable-background:new 0 0 148.4 80;" xml:space="preserve">
<style type="text/css">
	.st0{fill:#19879F;}
	.st1{fill:#A11F60;}
	.st2{fill:#E5332E;}
	.st3{fill:#E45E25;}
	.st4{fill:#F1AF1D;}
	.st5{fill:#0A9147;}
	.st6{fill:#E5E21C;}
	.st7{fill:#E18427;}
	.st8{fill:#D24D27;}
	.st9{fill:#CA2034;}
	.st10{fill:#D11D58;}
	.st11{fill:#48307E;}
	.st12{fill:#1BB1CF;}
	.st13{fill:#104D6E;}
	.st14{fill:#CB215A;}
	.st15{fill:#F2D11A;}
	.st16{fill:#6BBE47;}
	.st17{fill:#F2B01C;}
	.st18{fill:#E65348;}
	.st19{fill:#6B2D85;}
	.st20{fill:#0B8C9B;}
	.st21{fill:#1C6483;}
	.st22{fill:#D53D6B;}
	.st23{fill:#EB774F;}
	.st24{fill:#D21B66;}
	.st25{fill:#221F1F;}
	.st26{fill:#1B87C8;}
</style>
<g>
	<polygon class="st0" points="2.1,66.2 2.1,66.2 0,62.1 4.1,62.1 	"/>
	<polygon class="st1" points="6.2,57.9 6.2,57.9 8.3,62.1 4.1,62.1 	"/>
	<polygon class="st2" points="10.4,57.9 10.4,57.9 12.4,62.1 8.3,62.1 	"/>
	<polygon class="st3" points="14.5,66.2 14.5,66.2 12.4,62.1 16.6,62.1 	"/>
	<polygon class="st4" points="18.6,66.2 18.6,66.2 16.6,62.1 20.7,62.1 	"/>
	<polygon class="st5" points="22.8,57.9 22.8,57.9 24.8,62.1 20.7,62.1 	"/>
	<polygon class="st6" points="26.9,66.2 26.9,66.2 24.8,62.1 29,62.1 	"/>
	<polygon class="st7" points="31,57.9 31,57.9 33.1,62.1 29,62.1 	"/>
	<polygon class="st8" points="35.2,57.9 35.2,57.9 37.2,62.1 33.1,62.1 	"/>
	<polygon class="st9" points="39.3,57.9 39.3,57.9 41.4,62.1 37.2,62.1 	"/>
	<polygon class="st10" points="43.5,57.9 43.5,57.9 45.5,62.1 41.4,62.1 	"/>
	<polygon class="st1" points="47.6,57.9 47.6,57.9 49.7,62.1 45.5,62.1 	"/>
	<polygon class="st11" points="51.7,57.9 51.7,57.9 53.8,62.1 49.7,62.1 	"/>
	<polygon class="st12" points="55.9,66.2 55.9,66.2 53.8,62.1 57.9,62.1 	"/>
	<polygon class="st13" points="60,57.9 60,57.9 62.1,62.1 57.9,62.1 	"/>
	<polygon class="st1" points="64.1,57.9 64.1,57.9 66.2,62.1 62.1,62.1 	"/>
	<polygon class="st14" points="68.3,66.2 68.3,66.2 66.2,62.1 70.3,62.1 	"/>
	<polygon class="st2" points="68.3,57.9 68.3,57.9 70.3,62.1 66.2,62.1 	"/>
	<polygon class="st15" points="72.4,57.9 72.4,57.9 74.5,62.1 70.3,62.1 	"/>
	<polygon class="st4" points="76.6,66.2 76.6,66.2 74.5,62.1 78.6,62.1 	"/>
	<polygon class="st1" points="70.3,53.8 70.3,53.8 68.3,57.9 72.4,57.9 	"/>
	<polygon class="st14" points="66.2,62.1 66.2,62.1 68.3,57.9 64.1,57.9 	"/>
	<polygon class="st2" points="66.2,53.8 66.2,53.8 64.1,57.9 68.3,57.9 	"/>
	<polygon class="st2" points="62.1,62.1 62.1,62.1 64.1,57.9 60,57.9 	"/>
	<polygon class="st3" points="62.1,53.8 62.1,53.8 60,57.9 64.1,57.9 	"/>
	<polygon class="st4" points="57.9,62.1 57.9,62.1 60,57.9 55.9,57.9 	"/>
	<polygon class="st4" points="57.9,53.8 57.9,53.8 55.9,57.9 60,57.9 	"/>
	<polygon class="st13" points="53.8,62.1 53.8,62.1 55.9,57.9 51.7,57.9 	"/>
	<polygon class="st16" points="53.8,53.8 53.8,53.8 51.7,57.9 55.9,57.9 	"/>
	<polygon class="st6" points="49.7,62.1 49.7,62.1 51.7,57.9 47.6,57.9 	"/>
	<polygon class="st17" points="49.7,53.8 49.7,53.8 47.6,57.9 51.7,57.9 	"/>
	<polygon class="st3" points="45.5,62.1 45.5,62.1 47.6,57.9 43.5,57.9 	"/>
	<polygon class="st4" points="45.5,53.8 45.5,53.8 43.5,57.9 47.6,57.9 	"/>
	<polygon class="st2" points="41.4,62.1 41.4,62.1 43.5,57.9 39.3,57.9 	"/>
	<polygon class="st1" points="41.4,53.8 41.4,53.8 39.3,57.9 43.5,57.9 	"/>
	<polygon class="st18" points="37.2,62.1 37.2,62.1 39.3,57.9 35.2,57.9 	"/>
	<polygon class="st3" points="37.2,53.8 37.2,53.8 35.2,57.9 39.3,57.9 	"/>
	<polygon class="st1" points="33.1,62.1 33.1,62.1 35.2,57.9 31,57.9 	"/>
	<polygon class="st7" points="33.1,53.8 33.1,53.8 31,57.9 35.2,57.9 	"/>
	<polygon class="st19" points="29,62.1 29,62.1 31,57.9 26.9,57.9 	"/>
	<polygon class="st1" points="29,53.8 29,53.8 26.9,57.9 31,57.9 	"/>
	<polygon class="st13" points="24.8,62.1 24.8,62.1 26.9,57.9 22.8,57.9 	"/>
	<polygon class="st1" points="24.8,53.8 24.8,53.8 22.8,57.9 26.9,57.9 	"/>
	<polygon class="st12" points="20.7,62.1 20.7,62.1 22.8,57.9 18.6,57.9 	"/>
	<polygon class="st20" points="20.7,53.8 20.7,53.8 18.6,57.9 22.8,57.9 	"/>
	<polygon class="st20" points="16.6,62.1 16.6,62.1 18.6,57.9 14.5,57.9 	"/>
	<polygon class="st12" points="16.6,53.8 16.6,53.8 14.5,57.9 18.6,57.9 	"/>
	<polygon class="st11" points="12.4,62.1 12.4,62.1 14.5,57.9 10.4,57.9 	"/>
	<polygon class="st1" points="12.4,53.8 12.4,53.8 10.4,57.9 14.5,57.9 	"/>
	<polygon class="st2" points="8.3,53.8 8.3,53.8 6.2,57.9 10.4,57.9 	"/>
	<polygon class="st3" points="60,49.7 60,49.7 62.1,53.8 57.9,53.8 	"/>
	<polygon class="st15" points="60,57.9 60,57.9 57.9,53.8 62.1,53.8 	"/>
	<polygon class="st4" points="55.9,49.7 55.9,49.7 57.9,53.8 53.8,53.8 	"/>
	<polygon class="st6" points="55.9,57.9 55.9,57.9 53.8,53.8 57.9,53.8 	"/>
	<polygon class="st16" points="51.7,49.7 51.7,49.7 53.8,53.8 49.7,53.8 	"/>
	<polygon class="st5" points="51.7,57.9 51.7,57.9 49.7,53.8 53.8,53.8 	"/>
	<polygon class="st6" points="47.6,49.7 47.6,49.7 49.7,53.8 45.5,53.8 	"/>
	<polygon class="st12" points="47.6,57.9 47.6,57.9 45.5,53.8 49.7,53.8 	"/>
	<polygon class="st3" points="43.5,49.7 43.5,49.7 45.5,53.8 41.4,53.8 	"/>
	<polygon class="st7" points="43.5,57.9 43.5,57.9 41.4,53.8 45.5,53.8 	"/>
	<polygon class="st19" points="39.3,49.7 39.3,49.7 41.4,53.8 37.2,53.8 	"/>
	<polygon class="st8" points="39.3,57.9 39.3,57.9 37.2,53.8 41.4,53.8 	"/>
	<polygon class="st18" points="35.2,49.7 35.2,49.7 37.2,53.8 33.1,53.8 	"/>
	<polygon class="st9" points="35.2,57.9 35.2,57.9 33.1,53.8 37.2,53.8 	"/>
	<polygon class="st1" points="31,49.7 31,49.7 33.1,53.8 29,53.8 	"/>
	<polygon class="st10" points="31,57.9 31,57.9 29,53.8 33.1,53.8 	"/>
	<polygon class="st19" points="26.9,49.7 26.9,49.7 29,53.8 24.8,53.8 	"/>
	<polygon class="st8" points="26.9,57.9 26.9,57.9 24.8,53.8 29,53.8 	"/>
	<polygon class="st13" points="22.8,49.7 22.8,49.7 24.8,53.8 20.7,53.8 	"/>
	<polygon class="st11" points="22.8,57.9 22.8,57.9 20.7,53.8 24.8,53.8 	"/>
	<polygon class="st12" points="18.6,49.7 18.6,49.7 20.7,53.8 16.6,53.8 	"/>
	<polygon class="st21" points="18.6,57.9 18.6,57.9 16.6,53.8 20.7,53.8 	"/>
	<polygon class="st13" points="14.5,57.9 14.5,57.9 12.4,53.8 16.6,53.8 	"/>
	<polygon class="st3" points="16.6,53.8 16.6,53.8 14.5,49.7 18.6,49.7 	"/>
	<polygon class="st4" points="20.7,53.8 20.7,53.8 18.6,49.7 22.8,49.7 	"/>
	<polygon class="st6" points="20.7,45.5 20.7,45.5 22.8,49.7 18.6,49.7 	"/>
	<polygon class="st16" points="24.8,53.8 24.8,53.8 22.8,49.7 26.9,49.7 	"/>
	<polygon class="st5" points="24.8,45.5 24.8,45.5 26.9,49.7 22.8,49.7 	"/>
	<polygon class="st6" points="29,53.8 29,53.8 26.9,49.7 31,49.7 	"/>
	<polygon class="st7" points="29,45.5 29,45.5 31,49.7 26.9,49.7 	"/>
	<polygon class="st3" points="33.1,53.8 33.1,53.8 31,49.7 35.2,49.7 	"/>
	<polygon class="st17" points="33.1,45.5 33.1,45.5 35.2,49.7 31,49.7 	"/>
	<polygon class="st2" points="37.2,53.8 37.2,53.8 35.2,49.7 39.3,49.7 	"/>
	<polygon class="st1" points="37.2,45.5 37.2,45.5 39.3,49.7 35.2,49.7 	"/>
	<polygon class="st4" points="41.4,53.8 41.4,53.8 39.3,49.7 43.5,49.7 	"/>
	<polygon class="st3" points="41.4,45.5 41.4,45.5 43.5,49.7 39.3,49.7 	"/>
	<polygon class="st1" points="45.5,53.8 45.5,53.8 43.5,49.7 47.6,49.7 	"/>
	<polygon class="st7" points="45.5,45.5 45.5,45.5 47.6,49.7 43.5,49.7 	"/>
	<polygon class="st19" points="49.7,53.8 49.7,53.8 47.6,49.7 51.7,49.7 	"/>
	<polygon class="st3" points="49.7,45.5 49.7,45.5 51.7,49.7 47.6,49.7 	"/>
	<polygon class="st13" points="53.8,53.8 53.8,53.8 51.7,49.7 55.9,49.7 	"/>
	<polygon class="st20" points="53.8,45.5 53.8,45.5 55.9,49.7 51.7,49.7 	"/>
	<polygon class="st12" points="57.9,53.8 57.9,53.8 55.9,49.7 60,49.7 	"/>
	<polygon class="st21" points="57.9,45.5 57.9,45.5 60,49.7 55.9,49.7 	"/>
	<polygon class="st20" points="62.1,53.8 62.1,53.8 60,49.7 64.1,49.7 	"/>
	<polygon class="st6" points="26.9,41.4 26.9,41.4 24.8,45.5 29,45.5 	"/>
	<polygon class="st17" points="26.9,49.7 26.9,49.7 29,45.5 24.8,45.5 	"/>
	<polygon class="st3" points="31,41.4 31,41.4 29,45.5 33.1,45.5 	"/>
	<polygon class="st2" points="31,49.7 31,49.7 33.1,45.5 29,45.5 	"/>
	<polygon class="st2" points="35.2,41.4 35.2,41.4 33.1,45.5 37.2,45.5 	"/>
	<polygon class="st8" points="35.2,49.7 35.2,49.7 37.2,45.5 33.1,45.5 	"/>
	<polygon class="st18" points="39.3,41.4 39.3,41.4 37.2,45.5 41.4,45.5 	"/>
	<polygon class="st9" points="39.3,49.7 39.3,49.7 41.4,45.5 37.2,45.5 	"/>
	<polygon class="st1" points="43.5,41.4 43.5,41.4 41.4,45.5 45.5,45.5 	"/>
	<polygon class="st10" points="43.5,49.7 43.5,49.7 45.5,45.5 41.4,45.5 	"/>
	<polygon class="st19" points="47.6,41.4 47.6,41.4 45.5,45.5 49.7,45.5 	"/>
	<polygon class="st1" points="47.6,49.7 47.6,49.7 49.7,45.5 45.5,45.5 	"/>
	<polygon class="st13" points="51.7,41.4 51.7,41.4 49.7,45.5 53.8,45.5 	"/>
	<polygon class="st11" points="51.7,49.7 51.7,49.7 53.8,45.5 49.7,45.5 	"/>
	<polygon class="st2" points="35.2,33.1 35.2,33.1 33.1,29 37.2,29 	"/>
	<polygon class="st8" points="35.2,24.8 35.2,24.8 37.2,29 33.1,29 	"/>
	<polygon class="st18" points="39.3,33.1 39.3,33.1 37.2,29 41.4,29 	"/>
	<polygon class="st9" points="39.3,24.8 39.3,24.8 41.4,29 37.2,29 	"/>
	<polygon class="st1" points="43.5,33.1 43.5,33.1 41.4,29 45.5,29 	"/>
	<polygon class="st22" points="43.5,24.8 43.5,24.8 45.5,29 41.4,29 	"/>
	<polygon class="st19" points="47.6,33.1 47.6,33.1 45.5,29 49.7,29 	"/>
	<polygon class="st1" points="33.1,29 33.1,29 35.2,24.8 31,24.8 	"/>
	<polygon class="st10" points="37.2,20.7 37.2,20.7 35.2,24.8 39.3,24.8 	"/>
	<polygon class="st7" points="37.2,29 37.2,29 39.3,24.8 35.2,24.8 	"/>
	<polygon class="st18" points="41.4,20.7 41.4,20.7 39.3,24.8 43.5,24.8 	"/>
	<polygon class="st19" points="41.4,29 41.4,29 43.5,24.8 39.3,24.8 	"/>
	<polygon class="st10" points="45.5,29 45.5,29 47.6,24.8 43.5,24.8 	"/>
	<polygon class="st16" points="53.8,45.5 53.8,45.5 55.9,41.4 51.7,41.4 	"/>
	<polygon class="st6" points="49.7,45.5 49.7,45.5 51.7,41.4 47.6,41.4 	"/>
	<polygon class="st17" points="49.7,37.2 49.7,37.2 47.6,41.4 51.7,41.4 	"/>
	<polygon class="st3" points="45.5,45.5 45.5,45.5 47.6,41.4 43.5,41.4 	"/>
	<polygon class="st7" points="45.5,37.2 45.5,37.2 43.5,41.4 47.6,41.4 	"/>
	<polygon class="st2" points="41.4,45.5 41.4,45.5 43.5,41.4 39.3,41.4 	"/>
	<polygon class="st8" points="41.4,37.2 41.4,37.2 39.3,41.4 43.5,41.4 	"/>
	<polygon class="st7" points="37.2,45.5 37.2,45.5 39.3,41.4 35.2,41.4 	"/>
	<polygon class="st9" points="37.2,37.2 37.2,37.2 35.2,41.4 39.3,41.4 	"/>
	<polygon class="st1" points="33.1,45.5 33.1,45.5 35.2,41.4 31,41.4 	"/>
	<polygon class="st10" points="33.1,37.2 33.1,37.2 31,41.4 35.2,41.4 	"/>
	<polygon class="st19" points="29,45.5 29,45.5 31,41.4 26.9,41.4 	"/>
	<polygon class="st1" points="29,37.2 29,37.2 26.9,41.4 31,41.4 	"/>
	<polygon class="st13" points="24.8,45.5 24.8,45.5 26.9,41.4 22.8,41.4 	"/>
	<polygon class="st17" points="26.9,41.4 26.9,41.4 29,37.2 24.8,37.2 	"/>
	<polygon class="st7" points="31,41.4 31,41.4 33.1,37.2 29,37.2 	"/>
	<polygon class="st2" points="35.2,33.1 35.2,33.1 33.1,37.2 37.2,37.2 	"/>
	<polygon class="st8" points="35.2,41.4 35.2,41.4 37.2,37.2 33.1,37.2 	"/>
	<polygon class="st18" points="39.3,33.1 39.3,33.1 37.2,37.2 41.4,37.2 	"/>
	<polygon class="st2" points="39.3,41.4 39.3,41.4 41.4,37.2 37.2,37.2 	"/>
	<polygon class="st1" points="43.5,33.1 43.5,33.1 41.4,37.2 45.5,37.2 	"/>
	<polygon class="st10" points="43.5,41.4 43.5,41.4 45.5,37.2 41.4,37.2 	"/>
	<polygon class="st19" points="47.6,33.1 47.6,33.1 45.5,37.2 49.7,37.2 	"/>
	<polygon class="st1" points="47.6,41.4 47.6,41.4 49.7,37.2 45.5,37.2 	"/>
	<polygon class="st11" points="51.7,41.4 51.7,41.4 53.8,37.2 49.7,37.2 	"/>
	<polygon class="st17" points="29,29 29,29 31,33.1 26.9,33.1 	"/>
	<polygon class="st17" points="53.8,29 53.8,29 55.9,33.1 51.7,33.1 	"/>
	<polygon class="st3" points="33.1,37.2 33.1,37.2 31,33.1 35.2,33.1 	"/>
	<polygon class="st7" points="33.1,29 33.1,29 35.2,33.1 31,33.1 	"/>
	<polygon class="st7" points="37.2,37.2 37.2,37.2 35.2,33.1 39.3,33.1 	"/>
	<polygon class="st8" points="37.2,29 37.2,29 39.3,33.1 35.2,33.1 	"/>
	<polygon class="st10" points="41.4,37.2 41.4,37.2 39.3,33.1 43.5,33.1 	"/>
	<polygon class="st9" points="41.4,29 41.4,29 43.5,33.1 39.3,33.1 	"/>
	<polygon class="st22" points="45.5,37.2 45.5,37.2 43.5,33.1 47.6,33.1 	"/>
	<polygon class="st10" points="45.5,29 45.5,29 47.6,33.1 43.5,33.1 	"/>
	<polygon class="st2" points="35.2,24.8 35.2,24.8 33.1,20.7 37.2,20.7 	"/>
	<polygon class="st8" points="33.1,20.7 33.1,20.7 35.2,24.8 31,24.8 	"/>
	<polygon class="st23" points="39.3,24.8 39.3,24.8 37.2,20.7 41.4,20.7 	"/>
	<polygon class="st9" points="39.3,16.6 39.3,16.6 41.4,20.7 37.2,20.7 	"/>
	<polygon class="st1" points="43.5,24.8 43.5,24.8 41.4,20.7 45.5,20.7 	"/>
	<polygon class="st10" points="43.5,16.6 43.5,16.6 45.5,20.7 41.4,20.7 	"/>
	<polygon class="st2" points="41.4,20.7 41.4,20.7 43.5,16.6 39.3,16.6 	"/>
	<polygon class="st8" points="41.4,12.4 41.4,12.4 39.3,16.6 43.5,16.6 	"/>
	<polygon class="st18" points="37.2,20.7 37.2,20.7 39.3,16.6 35.2,16.6 	"/>
	<polygon class="st9" points="37.2,12.4 37.2,12.4 35.2,16.6 39.3,16.6 	"/>
	<polygon class="st24" points="39.3,8.3 39.3,8.3 41.4,12.4 37.2,12.4 	"/>
	<polygon class="st7" points="39.3,16.6 39.3,16.6 37.2,12.4 41.4,12.4 	"/>
	<polygon class="st2" points="37.2,12.4 37.2,12.4 35.2,8.3 39.3,8.3 	"/>
	<polygon class="st18" points="41.4,12.4 41.4,12.4 39.3,8.3 43.5,8.3 	"/>
	<polygon class="st18" points="39.3,0 39.3,0 37.2,4.1 41.4,4.1 	"/>
	<polygon class="st1" points="39.3,8.3 39.3,8.3 41.4,4.1 37.2,4.1 	"/>
	<path class="st25" d="M72.3,44.6c-0.1,0.3-0.3,0.6-0.6,0.9c-0.3,0.2-0.6,0.4-0.9,0.5c-0.4,0.1-0.8,0.2-1.2,0.2h-3.9v-9.6h3.7
		c0.8,0,1.5,0.2,2.1,0.7c0.5,0.5,0.8,1.2,0.8,1.9c0,0.2,0,0.5-0.1,0.7c-0.1,0.2-0.2,0.4-0.3,0.6c-0.1,0.2-0.3,0.3-0.4,0.4
		c-0.1,0.1-0.3,0.2-0.5,0.3c0.2,0.1,0.4,0.2,0.5,0.3c0.2,0.1,0.3,0.3,0.5,0.5c0.1,0.2,0.3,0.4,0.3,0.6c0.1,0.3,0.1,0.5,0.1,0.8
		C72.5,43.9,72.4,44.3,72.3,44.6z M70.5,38.3c-0.3-0.2-0.7-0.4-1.1-0.4h-2.2v2.7h2.2c0.4,0,0.8-0.1,1.1-0.4c0.3-0.3,0.4-0.6,0.4-1
		C70.9,38.9,70.8,38.5,70.5,38.3L70.5,38.3z M70.7,42.4c-0.3-0.3-0.7-0.4-1.2-0.4h-2.3v2.9h2.3c0.4,0,0.9-0.1,1.2-0.4
		c0.3-0.3,0.4-0.6,0.4-1C71.1,43.1,70.9,42.7,70.7,42.4L70.7,42.4z"/>
	<path class="st25" d="M80,46.2l-0.7-1.9h-3.8l-0.7,1.9h-1.5l3.5-9.6H78l3.5,9.6H80z M77.4,38.8L76,43h2.9L77.4,38.8z"/>
	<path class="st25" d="M88.5,46.2l-4.4-6.7v6.7h-1.5v-9.6H84l4.4,6.7v-6.7h1.5v9.6H88.5z"/>
	<path class="st25" d="M98.5,44c-0.1,0.4-0.4,0.8-0.7,1.1c-0.3,0.4-0.8,0.6-1.2,0.8c-0.5,0.2-0.9,0.3-1.4,0.3
		c-0.5,0-0.9-0.1-1.4-0.3c-0.4-0.2-0.8-0.4-1.1-0.8c-0.2-0.2-0.4-0.5-0.5-0.7c-0.1-0.3-0.2-0.5-0.3-0.8c-0.1-0.3-0.1-0.7-0.1-1
		c0-0.4,0-0.8,0-1.2s0-0.9,0-1.2c0-0.3,0-0.7,0.1-1c0.1-0.3,0.1-0.6,0.3-0.9c0.1-0.3,0.3-0.5,0.5-0.7c1-1,2.5-1.3,3.9-0.8
		c0.4,0.1,0.7,0.4,1,0.6c0.3,0.3,0.5,0.6,0.7,0.9c0.2,0.4,0.3,0.8,0.4,1.2h-1.5c-0.1-0.5-0.3-0.9-0.7-1.2c-0.4-0.3-0.8-0.5-1.3-0.4
		c-0.3,0-0.5,0.1-0.8,0.2c-0.2,0.1-0.4,0.2-0.6,0.4c-0.1,0.1-0.2,0.3-0.3,0.4c-0.1,0.2-0.1,0.4-0.2,0.5c0,0.3-0.1,0.5-0.1,0.8
		c0,0.3,0,0.7,0,1.2s0,0.9,0,1.2c0,0.3,0,0.5,0.1,0.8c0,0.2,0.1,0.4,0.2,0.5c0.1,0.1,0.2,0.3,0.3,0.4c0.2,0.2,0.4,0.3,0.6,0.4
		c0.3,0.1,0.5,0.2,0.8,0.2c0.3,0,0.6-0.1,0.9-0.2c0.3-0.1,0.5-0.3,0.7-0.5c0.2-0.2,0.3-0.4,0.4-0.7c0.1-0.3,0.1-0.5,0.1-0.8v-0.5h-2
		V41h3.5v1.5C98.7,43,98.7,43.5,98.5,44z"/>
	<path class="st25" d="M100.6,46.2v-9.6h1.5v8.3h4.6v1.3H100.6z"/>
	<path class="st25" d="M113.6,46.2l-0.7-1.9h-3.8l-0.7,1.9H107l3.5-9.6h1.2l3.5,9.6H113.6z M111.2,38.8l-1.5,4.2h2.9L111.2,38.8z"/>
	<path class="st25" d="M123.1,42.4c0,0.4,0,0.7-0.1,1c-0.1,0.3-0.1,0.7-0.3,1c-0.1,0.3-0.3,0.6-0.6,0.9c-0.3,0.3-0.7,0.5-1.1,0.7
		c-0.4,0.1-0.9,0.2-1.4,0.2h-3.4v-9.6h3.4c0.5,0,0.9,0.1,1.4,0.2c0.4,0.1,0.8,0.4,1.1,0.7c0.2,0.2,0.4,0.5,0.6,0.8
		c0.1,0.3,0.2,0.6,0.3,0.9c0.1,0.3,0.1,0.7,0.1,1c0,0.3,0,0.7,0,1S123.1,42,123.1,42.4z M121.6,39.7c0-0.4-0.2-0.8-0.4-1.1
		c-0.4-0.4-1-0.7-1.6-0.6h-1.8v7h1.8c0.6,0,1.2-0.2,1.6-0.6c0.3-0.3,0.4-0.7,0.4-1.2c0-0.5,0.1-1.1,0.1-1.7S121.6,40.1,121.6,39.7z"
		/>
	<path class="st25" d="M125.1,46.2v-9.6h6.1v1.3h-4.7v2.8h4V42h-4v2.9h4.7v1.3H125.1z"/>
	<path class="st25" d="M138.7,44.6c-0.2,0.3-0.4,0.7-0.7,0.9c-0.3,0.2-0.7,0.4-1.1,0.5c-0.4,0.1-0.9,0.2-1.4,0.2
		c-0.6,0-1.3-0.1-1.9-0.3c-0.6-0.2-1.1-0.6-1.5-1l1-1c0.3,0.3,0.7,0.6,1.1,0.7c0.4,0.1,0.9,0.2,1.3,0.2c0.5,0,1-0.1,1.5-0.4
		c0.6-0.5,0.7-1.4,0.2-2c0,0,0,0,0-0.1c-0.1-0.1-0.3-0.2-0.4-0.2c-0.2-0.1-0.4-0.1-0.7-0.1l-1.1-0.2c-0.7-0.1-1.3-0.3-1.8-0.8
		c-0.5-0.5-0.7-1.1-0.7-1.8c0-0.4,0.1-0.8,0.2-1.1c0.3-0.7,0.9-1.2,1.6-1.5c0.4-0.1,0.9-0.2,1.3-0.2c0.6,0,1.1,0.1,1.7,0.2
		c0.5,0.2,0.9,0.5,1.3,0.8l-0.9,0.9c-0.3-0.3-0.6-0.5-1-0.6c-0.4-0.1-0.7-0.2-1.1-0.2c-0.5,0-0.9,0.1-1.3,0.4
		c-0.3,0.3-0.5,0.7-0.5,1.1c0,0.2,0,0.3,0.1,0.5c0.1,0.2,0.2,0.3,0.3,0.4c0.3,0.2,0.7,0.4,1.1,0.4l1.1,0.2c0.4,0,0.7,0.1,1.1,0.3
		c0.3,0.1,0.5,0.3,0.7,0.4c0.3,0.2,0.5,0.5,0.6,0.8c0.1,0.4,0.2,0.7,0.2,1.1C138.9,43.8,138.9,44.2,138.7,44.6z"/>
	<path class="st25" d="M146,46.2V42h-3.9v4.2h-1.4v-9.6h1.4v4.1h3.9v-4.1h1.4v9.6H146z"/>
	<path class="st26" d="M10.5,76.5c-0.1,0.3-0.3,0.5-0.6,0.7c-0.3,0.2-0.6,0.4-0.9,0.4c-0.4,0.1-0.7,0.2-1.1,0.1
		c-0.5,0-1-0.1-1.5-0.2c-0.5-0.2-0.9-0.4-1.2-0.8L6,76c0.3,0.3,0.6,0.5,0.9,0.6c0.3,0.1,0.7,0.2,1.1,0.2c0.4,0,0.8-0.1,1.2-0.3
		c0.5-0.4,0.5-1.1,0.1-1.6c0,0,0,0,0,0c-0.1-0.1-0.2-0.2-0.3-0.2c-0.2-0.1-0.3-0.1-0.5-0.1l-0.9-0.1c-0.5,0-1-0.3-1.4-0.6
		c-0.4-0.4-0.6-0.9-0.6-1.5c0-0.3,0.1-0.6,0.2-0.9c0.1-0.3,0.3-0.5,0.5-0.7c0.2-0.2,0.5-0.4,0.8-0.5C7.4,70.1,7.7,70,8.1,70
		c0.4,0,0.9,0.1,1.3,0.2c0.4,0.2,0.7,0.4,1,0.7l-0.7,0.7c-0.2-0.2-0.5-0.4-0.8-0.5C8.6,71.1,8.3,71,8,71c-0.4,0-0.7,0.1-1,0.3
		c-0.2,0.2-0.4,0.5-0.4,0.9c0,0.1,0,0.3,0.1,0.4c0.1,0.1,0.1,0.2,0.2,0.3c0.3,0.2,0.6,0.3,0.9,0.4l0.9,0.1c0.3,0,0.6,0.1,0.9,0.2
		c0.2,0.1,0.4,0.2,0.6,0.4c0.2,0.2,0.4,0.4,0.5,0.7c0.1,0.3,0.2,0.6,0.2,0.9C10.7,75.9,10.7,76.2,10.5,76.5z"/>
	<path class="st26" d="M15.3,77.7l-1.5-2.5L13,76.1v1.6h-1.1v-7.6H13v4.7l2.1-2.5h1.3l-1.9,2.1l2.1,3.3H15.3z"/>
	<path class="st26" d="M17.5,71.2v-1.2h1.2v1.2H17.5z M17.5,77.7v-5.4h1.1v5.4L17.5,77.7z"/>
	<path class="st26" d="M21.6,77.7c-0.2,0-0.5,0-0.7-0.1c-0.2-0.1-0.3-0.2-0.5-0.3c-0.1-0.1-0.2-0.3-0.3-0.5
		c-0.1-0.2-0.1-0.4-0.1-0.6v-6.1h1.1v6.1c0,0.2,0,0.3,0.1,0.5c0.1,0.1,0.3,0.2,0.5,0.2h0.5v0.9L21.6,77.7z"/>
	<path class="st26" d="M24.6,77.7c-0.2,0-0.5,0-0.7-0.1c-0.2-0.1-0.3-0.2-0.5-0.3c-0.1-0.1-0.2-0.3-0.3-0.5
		c-0.1-0.2-0.1-0.4-0.1-0.6v-6.1h1.1v6.1c0,0.2,0,0.3,0.1,0.5c0.1,0.1,0.3,0.2,0.5,0.2h0.5v0.9L24.6,77.7z"/>
	<path class="st26" d="M26.8,75.3c0,0.4,0.1,0.8,0.4,1.1c0.3,0.3,0.6,0.4,1,0.4c0.3,0,0.5,0,0.8-0.1c0.2-0.1,0.4-0.3,0.6-0.4
		l0.7,0.7c-0.1,0.1-0.3,0.3-0.4,0.4c-0.3,0.2-0.6,0.4-1,0.4c-0.2,0-0.4,0.1-0.6,0.1c-0.3,0-0.7,0-1-0.1c-0.3-0.1-0.6-0.3-0.8-0.5
		c-0.2-0.2-0.4-0.5-0.5-0.9c-0.1-0.4-0.2-0.9-0.2-1.3c0-0.7,0.2-1.5,0.6-2c0.4-0.5,1-0.7,1.7-0.7c0.3,0,0.7,0.1,1,0.2
		c0.3,0.1,0.5,0.3,0.7,0.5c0.2,0.2,0.4,0.5,0.5,0.8c0.1,0.3,0.2,0.7,0.2,1.1v0.5L26.8,75.3z M29.2,74.2c0-0.1-0.1-0.2-0.1-0.3
		c-0.1-0.2-0.2-0.4-0.4-0.5c-0.2-0.1-0.4-0.2-0.7-0.2c-0.2,0-0.5,0.1-0.7,0.2c-0.2,0.1-0.3,0.3-0.4,0.5c0,0.1-0.1,0.2-0.1,0.3
		c0,0.1,0,0.3,0,0.4h2.5C29.3,74.4,29.2,74.3,29.2,74.2L29.2,74.2z"/>
	<path class="st26" d="M34.6,77.7v-0.6c-0.2,0.2-0.4,0.4-0.7,0.5c-0.3,0.1-0.5,0.1-0.8,0.1c-0.3,0-0.5,0-0.8-0.1
		c-0.2-0.1-0.4-0.2-0.6-0.4c-0.1-0.1-0.3-0.3-0.3-0.5c-0.1-0.2-0.1-0.4-0.2-0.6c0-0.2-0.1-0.4-0.1-0.6c0-0.2,0-0.4,0-0.6
		s0-0.4,0-0.6c0-0.2,0-0.4,0.1-0.6c0-0.2,0.1-0.4,0.2-0.6c0.1-0.2,0.2-0.3,0.3-0.5c0.2-0.2,0.4-0.3,0.6-0.4c0.2-0.1,0.5-0.1,0.7-0.1
		c0.3,0,0.5,0,0.8,0.1c0.2,0.1,0.5,0.3,0.6,0.5v-2.7h1.1v7.6L34.6,77.7z M34.6,74.3c0-0.2-0.1-0.4-0.2-0.6c-0.1-0.2-0.2-0.3-0.3-0.4
		c-0.2-0.1-0.4-0.1-0.6-0.1c-0.2,0-0.4,0-0.6,0.1c-0.1,0.1-0.3,0.2-0.3,0.4c-0.1,0.2-0.2,0.4-0.2,0.6c0,0.2,0,0.5,0,0.7s0,0.5,0,0.7
		c0,0.2,0.1,0.4,0.2,0.6c0.1,0.2,0.2,0.3,0.3,0.4c0.2,0.1,0.4,0.2,0.6,0.1c0.2,0,0.4,0,0.6-0.1c0.2-0.1,0.3-0.2,0.3-0.4
		c0.1-0.2,0.1-0.4,0.2-0.6c0-0.2,0-0.5,0-0.7S34.6,74.5,34.6,74.3L34.6,74.3z"/>
	<path class="st26" d="M37.2,77.7v-1.3h1.3v1.3H37.2z"/>
	<path class="st26" d="M42.3,77.7v-7.6h4.9v1h-3.7v2.2h3.2v1h-3.2v2.3h3.7v1L42.3,77.7z"/>
	<path class="st26" d="M51.5,79.9v-2.8c-0.2,0.2-0.4,0.4-0.6,0.5c-0.2,0.1-0.5,0.1-0.8,0.1c-0.3,0-0.5,0-0.8-0.1
		c-0.2-0.1-0.4-0.2-0.6-0.4c-0.1-0.1-0.3-0.3-0.3-0.5c-0.1-0.4-0.2-0.8-0.3-1.2c0-0.2,0-0.4,0-0.6s0-0.4,0-0.6c0-0.2,0-0.4,0.1-0.6
		c0-0.2,0.1-0.4,0.2-0.6c0.1-0.2,0.2-0.3,0.3-0.5c0.2-0.2,0.4-0.3,0.6-0.4c0.2-0.1,0.5-0.1,0.8-0.1c0.3,0,0.5,0,0.8,0.1
		c0.3,0.1,0.5,0.3,0.7,0.5v-0.6h1.1v7.6L51.5,79.9z M51.5,74.3c0-0.2-0.1-0.4-0.2-0.6c-0.1-0.2-0.2-0.3-0.3-0.4
		c-0.2-0.1-0.4-0.1-0.6-0.1c-0.2,0-0.4,0-0.6,0.1c-0.1,0.1-0.3,0.2-0.3,0.4c-0.1,0.2-0.1,0.4-0.2,0.6c0,0.2,0,0.5,0,0.7
		c0,0.2,0,0.5,0,0.7c0,0.2,0.1,0.4,0.2,0.6c0.1,0.2,0.2,0.3,0.3,0.4c0.2,0.1,0.4,0.2,0.6,0.1c0.2,0,0.4,0,0.6-0.1
		c0.1-0.1,0.3-0.2,0.3-0.4c0.1-0.2,0.1-0.4,0.2-0.6c0-0.2,0-0.5,0-0.7S51.5,74.5,51.5,74.3L51.5,74.3z"/>
	<path class="st26" d="M57.4,77.7v-0.5c-0.2,0.2-0.4,0.4-0.7,0.5c-0.3,0.1-0.5,0.2-0.8,0.1c-0.3,0-0.5,0-0.8-0.1
		c-0.2-0.1-0.4-0.2-0.6-0.4c-0.2-0.2-0.3-0.4-0.4-0.7c-0.1-0.3-0.1-0.6-0.1-0.9v-3.5h1.1v3.3c0,0.3,0.1,0.7,0.3,0.9
		c0.2,0.2,0.5,0.3,0.8,0.3c0.1,0,0.3,0,0.4-0.1c0.1,0,0.3-0.1,0.4-0.2c0.1-0.1,0.2-0.2,0.2-0.4c0.1-0.2,0.1-0.4,0.1-0.5v-3.3h1.1
		v5.4H57.4z"/>
	<path class="st26" d="M59.9,71.2v-1.2h1.2v1.2H59.9z M59.9,77.7v-5.4H61v5.4L59.9,77.7z"/>
	<path class="st26" d="M67,75.6c0,0.2,0,0.4-0.1,0.6c0,0.2-0.1,0.4-0.2,0.6c-0.1,0.2-0.2,0.3-0.3,0.5c-0.2,0.2-0.4,0.3-0.6,0.4
		c-0.5,0.2-1,0.2-1.5,0c-0.2-0.1-0.5-0.3-0.6-0.5V80h-1.1v-7.7h1.1v0.6c0.2-0.2,0.4-0.4,0.7-0.5c0.3-0.1,0.5-0.1,0.8-0.1
		c0.3,0,0.5,0,0.8,0.1c0.2,0.1,0.4,0.2,0.6,0.4c0.1,0.1,0.2,0.3,0.3,0.5c0.1,0.2,0.1,0.4,0.2,0.6c0,0.2,0.1,0.4,0.1,0.6
		c0,0.2,0,0.4,0,0.6S67,75.4,67,75.6z M65.8,74.3c0-0.2-0.1-0.4-0.2-0.6c-0.1-0.2-0.2-0.3-0.3-0.4c-0.2-0.1-0.4-0.1-0.6-0.1
		c-0.2,0-0.4,0-0.6,0.1c-0.1,0.1-0.3,0.2-0.3,0.4c-0.1,0.2-0.1,0.4-0.2,0.6c0,0.2,0,0.5,0,0.7c0,0.2,0,0.5,0,0.7
		c0,0.2,0.1,0.4,0.2,0.6c0.1,0.2,0.2,0.3,0.3,0.4c0.2,0.1,0.4,0.2,0.6,0.1c0.2,0,0.4,0,0.6-0.1c0.1-0.1,0.3-0.2,0.3-0.4
		c0.1-0.2,0.1-0.4,0.2-0.6c0-0.2,0-0.5,0-0.7C65.8,74.8,65.8,74.5,65.8,74.3z"/>
	<path class="st26" d="M72.6,75.6c0,0.4-0.1,0.8-0.3,1.2c-0.1,0.2-0.2,0.3-0.3,0.5c-0.2,0.2-0.4,0.3-0.6,0.4
		c-0.2,0.1-0.5,0.1-0.8,0.1c-0.3,0-0.5,0-0.8-0.1c-0.3-0.1-0.5-0.3-0.6-0.5v2.8h-1.1v-7.6h1.1v0.6c0.2-0.2,0.4-0.4,0.6-0.5
		c0.3-0.1,0.5-0.1,0.8-0.1c0.3,0,0.5,0,0.8,0.1c0.2,0.1,0.4,0.2,0.6,0.4c0.1,0.1,0.2,0.3,0.3,0.5c0.1,0.2,0.1,0.4,0.2,0.6
		c0.1,0.2,0.1,0.4,0.1,0.6c0,0.2,0,0.4,0,0.6S72.6,75.4,72.6,75.6z M71.5,74.3c0-0.2-0.1-0.4-0.2-0.6c-0.1-0.2-0.2-0.3-0.3-0.4
		c-0.2-0.1-0.4-0.1-0.6-0.1c-0.2,0-0.4,0-0.6,0.1c-0.1,0.1-0.3,0.2-0.3,0.4c-0.1,0.2-0.1,0.4-0.2,0.6c0,0.2,0,0.5,0,0.7
		c0,0.2,0,0.5,0,0.7c0,0.2,0.1,0.4,0.2,0.6c0.1,0.2,0.2,0.3,0.3,0.4c0.2,0.1,0.4,0.2,0.6,0.1c0.2,0,0.4,0,0.6-0.1
		c0.1-0.1,0.3-0.2,0.3-0.4c0.1-0.2,0.1-0.4,0.2-0.6c0-0.2,0-0.5,0-0.7C71.5,74.8,71.5,74.5,71.5,74.3z"/>
	<path class="st26" d="M74.7,75.3c0,0.4,0.1,0.8,0.4,1.1c0.3,0.3,0.6,0.4,1,0.4c0.3,0,0.5,0,0.8-0.1c0.2-0.1,0.4-0.2,0.6-0.4
		l0.7,0.7c-0.1,0.1-0.3,0.3-0.4,0.4c-0.1,0.1-0.3,0.2-0.4,0.3c-0.2,0.1-0.4,0.1-0.5,0.2c-0.2,0-0.4,0.1-0.6,0.1c-0.3,0-0.7,0-1-0.1
		c-0.3-0.1-0.6-0.3-0.8-0.5c-0.2-0.2-0.4-0.5-0.5-0.9c-0.1-0.4-0.2-0.9-0.2-1.3c0-0.7,0.2-1.4,0.7-2c0.4-0.5,1-0.7,1.7-0.7
		c0.3,0,0.7,0.1,1,0.2c0.3,0.1,0.5,0.3,0.7,0.5c0.2,0.2,0.4,0.5,0.5,0.8c0.1,0.3,0.2,0.7,0.2,1.1v0.5L74.7,75.3z M77.1,74.2
		c0-0.1-0.1-0.2-0.1-0.3c-0.3-0.6-1-0.9-1.7-0.5c0,0-0.1,0-0.1,0c-0.2,0.1-0.3,0.3-0.4,0.5c-0.1,0.1-0.1,0.2-0.1,0.3
		c0,0.1,0,0.3,0,0.4h2.5C77.1,74.4,77.1,74.3,77.1,74.2L77.1,74.2z"/>
	<path class="st26" d="M82.5,77.7v-0.6c-0.2,0.2-0.4,0.4-0.6,0.5c-0.3,0.1-0.5,0.1-0.8,0.1c-0.3,0-0.5,0-0.8-0.1
		c-0.2-0.1-0.4-0.2-0.6-0.4c-0.1-0.1-0.3-0.3-0.3-0.5c-0.1-0.2-0.2-0.4-0.2-0.6c0-0.2-0.1-0.4-0.1-0.6c0-0.2,0-0.4,0-0.6
		s0-0.4,0-0.6c0-0.2,0-0.4,0.1-0.6c0-0.2,0.1-0.4,0.2-0.6c0.1-0.2,0.2-0.3,0.3-0.5c0.2-0.2,0.4-0.3,0.6-0.4c0.2-0.1,0.5-0.1,0.8-0.1
		c0.3,0,0.5,0,0.8,0.1c0.3,0.1,0.5,0.3,0.6,0.5v-2.7h1.1v7.6L82.5,77.7z M82.5,74.3c0-0.2-0.1-0.4-0.2-0.6c-0.1-0.2-0.2-0.3-0.3-0.4
		c-0.2-0.1-0.4-0.1-0.6-0.1c-0.2,0-0.4,0-0.6,0.1c-0.2,0.1-0.3,0.2-0.3,0.4c-0.1,0.2-0.1,0.4-0.2,0.6c0,0.2,0,0.5,0,0.7s0,0.5,0,0.7
		c0,0.2,0.1,0.4,0.2,0.6c0.1,0.2,0.2,0.3,0.3,0.4c0.2,0.1,0.4,0.2,0.6,0.1c0.2,0,0.4,0,0.6-0.1c0.2-0.1,0.3-0.2,0.3-0.4
		c0.1-0.2,0.1-0.4,0.2-0.6c0-0.2,0-0.5,0-0.7S82.5,74.5,82.5,74.3L82.5,74.3z"/>
	<path class="st26" d="M85,77.7v-1.3h1.3v1.3H85z"/>
	<path class="st26" d="M95.6,74.7c0,0.3,0,0.6-0.1,0.8c0,0.3-0.1,0.5-0.2,0.8c-0.1,0.3-0.3,0.5-0.5,0.7c-0.3,0.2-0.6,0.4-0.9,0.5
		c-0.4,0.1-0.7,0.2-1.1,0.2h-2.7v-7.6h2.7c0.4,0,0.7,0.1,1.1,0.2c0.3,0.1,0.6,0.3,0.9,0.5c0.2,0.2,0.4,0.4,0.5,0.7
		c0.1,0.2,0.2,0.5,0.2,0.8c0,0.3,0.1,0.5,0.1,0.8c0,0.3,0,0.5,0,0.8S95.7,74.4,95.6,74.7z M94.4,72.5c0-0.3-0.1-0.6-0.3-0.9
		c-0.3-0.4-0.8-0.5-1.3-0.5h-1.4v5.6h1.4c0.5,0,1-0.2,1.3-0.5c0.2-0.3,0.3-0.6,0.3-0.9c0-0.5,0.1-0.9,0.1-1.4
		C94.5,73.4,94.5,73,94.4,72.5L94.4,72.5z"/>
	<path class="st26" d="M97,71.2v-1.2h1.2v1.2H97z M97,77.7v-5.4H98v5.4L97,77.7z"/>
	<path class="st26" d="M103.5,78.6c-0.1,0.3-0.3,0.5-0.5,0.7c-0.2,0.2-0.5,0.4-0.7,0.5c-0.3,0.1-0.7,0.2-1,0.2c-0.4,0-0.7,0-1-0.2
		c-0.3-0.1-0.6-0.3-0.9-0.6l0.7-0.7c0.1,0.1,0.3,0.3,0.5,0.4c0.2,0.1,0.4,0.1,0.7,0.1c0.2,0,0.4,0,0.6-0.1c0.2-0.1,0.3-0.2,0.4-0.3
		c0.1-0.1,0.2-0.3,0.2-0.4c0-0.2,0.1-0.4,0.1-0.5V77c-0.2,0.2-0.4,0.4-0.7,0.5c-0.2,0.1-0.5,0.1-0.8,0.1c-0.3,0-0.5,0-0.7-0.1
		c-0.2-0.1-0.4-0.2-0.6-0.4c-0.3-0.3-0.5-0.6-0.5-1c-0.1-0.8-0.1-1.7,0-2.5c0.1-0.4,0.2-0.7,0.5-1c0.3-0.3,0.8-0.5,1.3-0.5
		c0.3,0,0.5,0,0.8,0.1c0.3,0.1,0.5,0.3,0.7,0.5v-0.6h1.1v5.4C103.7,78,103.7,78.3,103.5,78.6z M102.5,74.3c0-0.2-0.1-0.4-0.1-0.5
		c-0.1-0.2-0.2-0.3-0.3-0.4c-0.2-0.1-0.4-0.1-0.6-0.1c-0.2,0-0.4,0-0.6,0.1c-0.1,0.1-0.3,0.2-0.3,0.4c-0.1,0.2-0.1,0.4-0.2,0.5
		c0,0.2,0,0.4,0,0.6c0,0.2,0,0.4,0,0.6c0,0.2,0.1,0.4,0.2,0.5c0.1,0.2,0.2,0.3,0.3,0.4c0.2,0.1,0.4,0.1,0.6,0.1c0.2,0,0.4,0,0.6-0.1
		c0.1-0.1,0.3-0.2,0.3-0.4c0.1-0.2,0.1-0.4,0.1-0.5c0-0.2,0-0.4,0-0.6C102.6,74.7,102.6,74.5,102.5,74.3L102.5,74.3z"/>
	<path class="st26" d="M105.2,71.2v-1.2h1.2v1.2H105.2z M105.2,77.7v-5.4h1.1v5.4L105.2,77.7z"/>
	<path class="st26" d="M109.4,77.7c-0.2,0-0.5,0-0.7-0.1c-0.2-0.1-0.3-0.2-0.5-0.3c-0.1-0.1-0.2-0.3-0.3-0.5
		c-0.1-0.2-0.1-0.4-0.1-0.6v-3h-0.6v-0.8h0.6v-1.6h1.1v1.6h1v0.8h-1v2.9c0,0.2,0,0.3,0.1,0.5c0.1,0.1,0.3,0.2,0.5,0.2h0.5v0.9H109.4
		z"/>
	<path class="st26" d="M114,77.7v-0.5c-0.2,0.2-0.4,0.3-0.6,0.4c-0.3,0.1-0.5,0.1-0.8,0.1c-0.3,0-0.6,0-0.9-0.1
		c-0.7-0.2-1.1-0.8-1-1.5c0-0.4,0.1-0.8,0.4-1.1c0.4-0.3,0.9-0.5,1.4-0.4h1.4v-0.4c0-0.3-0.1-0.6-0.3-0.8c-0.3-0.2-0.6-0.3-0.9-0.2
		c-0.2,0-0.5,0-0.7,0.1c-0.2,0.1-0.4,0.2-0.5,0.4l-0.7-0.7c0.2-0.3,0.5-0.5,0.8-0.6c0.4-0.1,0.7-0.2,1.1-0.2c1.5,0,2.2,0.6,2.2,1.9
		v3.6L114,77.7z M114,75.3h-1.3c-0.3,0-0.5,0-0.7,0.2c-0.2,0.1-0.3,0.4-0.2,0.6c0,0.2,0.1,0.4,0.2,0.6c0.2,0.2,0.5,0.2,0.8,0.2
		c0.2,0,0.4,0,0.5,0c0.2,0,0.3-0.1,0.5-0.3c0.2-0.2,0.3-0.5,0.2-0.8L114,75.3z"/>
	<path class="st26" d="M118,77.7c-0.2,0-0.5,0-0.7-0.1c-0.2-0.1-0.3-0.2-0.5-0.3c-0.1-0.1-0.2-0.3-0.3-0.5c-0.1-0.2-0.1-0.4-0.1-0.6
		v-6.1h1.1v6.1c0,0.2,0,0.3,0.1,0.5c0.1,0.1,0.3,0.2,0.5,0.2h0.5v0.9L118,77.7z"/>
	<path class="st26" d="M124,77.7l-1.6-3.2h-1.5v3.2h-1.2v-7.6h3c0.3,0,0.7,0,1,0.2c0.3,0.1,0.5,0.3,0.7,0.5c0.2,0.2,0.4,0.4,0.5,0.7
		c0.1,0.3,0.2,0.6,0.2,0.9c0,0.5-0.1,1-0.4,1.3c-0.3,0.3-0.7,0.6-1.1,0.7l1.8,3.4L124,77.7z M123.6,71.4c-0.3-0.2-0.6-0.3-0.9-0.3
		h-1.7v2.4h1.7c0.3,0,0.7-0.1,0.9-0.3c0.2-0.2,0.4-0.5,0.4-0.9C123.9,72,123.8,71.7,123.6,71.4L123.6,71.4z"/>
	<path class="st26" d="M127.2,75.3c0,0.4,0.1,0.8,0.4,1.1c0.3,0.3,0.6,0.4,1,0.4c0.3,0,0.5,0,0.7-0.1c0.2-0.1,0.4-0.2,0.6-0.4
		l0.7,0.7c-0.1,0.1-0.3,0.3-0.4,0.4c-0.1,0.1-0.3,0.2-0.4,0.3c-0.2,0.1-0.3,0.1-0.5,0.2c-0.2,0-0.4,0.1-0.6,0.1c-0.3,0-0.7,0-1-0.1
		c-0.3-0.1-0.6-0.3-0.8-0.5c-0.2-0.2-0.4-0.5-0.5-0.9c-0.1-0.4-0.2-0.9-0.2-1.3c0-0.7,0.2-1.5,0.6-2c0.4-0.5,1-0.7,1.7-0.7
		c0.3,0,0.7,0.1,1,0.2c0.3,0.1,0.5,0.3,0.7,0.5c0.2,0.2,0.4,0.5,0.5,0.8c0.1,0.3,0.2,0.7,0.2,1.1v0.5L127.2,75.3z M129.6,74.2
		c0-0.1-0.1-0.2-0.1-0.3c-0.1-0.2-0.2-0.4-0.4-0.5c-0.4-0.2-0.9-0.2-1.3,0c-0.2,0.1-0.3,0.3-0.4,0.5c-0.1,0.1-0.1,0.2-0.1,0.3
		c0,0.1,0,0.3,0,0.4h2.5C129.7,74.4,129.6,74.3,129.6,74.2L129.6,74.2z"/>
	<path class="st26" d="M134.8,77.7v-0.5c-0.2,0.2-0.4,0.3-0.6,0.4c-0.3,0.1-0.5,0.1-0.8,0.1c-0.3,0-0.6,0-0.9-0.1
		c-0.7-0.2-1.1-0.8-1-1.5c0-0.4,0.2-0.8,0.5-1.1c0.4-0.3,0.9-0.5,1.4-0.4h1.4v-0.4c0-0.3-0.1-0.6-0.3-0.8c-0.3-0.2-0.6-0.3-0.9-0.2
		c-0.2,0-0.5,0-0.7,0.1c-0.2,0.1-0.4,0.2-0.5,0.4l-0.7-0.7c0.2-0.3,0.5-0.5,0.8-0.6c0.4-0.1,0.7-0.2,1.1-0.2c1.5,0,2.2,0.6,2.2,1.9
		v3.6L134.8,77.7z M134.8,75.3h-1.3c-0.3,0-0.5,0-0.7,0.2c-0.2,0.1-0.3,0.4-0.2,0.6c0,0.2,0.1,0.4,0.2,0.6c0.2,0.1,0.5,0.2,0.8,0.2
		c0.2,0,0.4,0,0.6,0c0.2,0,0.3-0.1,0.5-0.3c0.2-0.2,0.3-0.5,0.2-0.8V75.3z"/>
	<path class="st26" d="M140.5,77.7v-0.6c-0.2,0.2-0.4,0.4-0.7,0.5c-0.3,0.1-0.5,0.1-0.8,0.1c-0.3,0-0.5,0-0.8-0.1
		c-0.2-0.1-0.4-0.2-0.6-0.4c-0.1-0.1-0.3-0.3-0.3-0.5c-0.1-0.2-0.2-0.4-0.2-0.6c0-0.2-0.1-0.4-0.1-0.6c0-0.2,0-0.4,0-0.6
		s0-0.4,0-0.6c0-0.2,0-0.4,0.1-0.6c0-0.2,0.1-0.4,0.2-0.6c0.1-0.2,0.2-0.3,0.3-0.5c0.2-0.2,0.3-0.3,0.6-0.4c0.2-0.1,0.5-0.1,0.8-0.1
		c0.3,0,0.5,0,0.8,0.1c0.3,0.1,0.5,0.3,0.7,0.5v-2.7h1.1v7.6L140.5,77.7z M140.4,74.3c0-0.2-0.1-0.4-0.2-0.6
		c-0.1-0.2-0.2-0.3-0.3-0.4c-0.2-0.1-0.4-0.1-0.6-0.1c-0.2,0-0.4,0-0.6,0.1c-0.1,0.1-0.3,0.2-0.3,0.4c-0.1,0.2-0.1,0.4-0.2,0.6
		c0,0.2,0,0.5,0,0.7c0,0.2,0,0.5,0,0.7c0,0.2,0.1,0.4,0.2,0.6c0.1,0.2,0.2,0.3,0.3,0.4c0.2,0.1,0.4,0.2,0.6,0.1
		c0.4,0,0.8-0.2,0.9-0.5c0.1-0.2,0.1-0.4,0.2-0.6c0-0.2,0-0.5,0-0.7S140.4,74.5,140.4,74.3L140.4,74.3z"/>
	<path class="st26" d="M144.7,78.8c-0.1,0.3-0.2,0.5-0.4,0.7c-0.1,0.1-0.3,0.3-0.5,0.3c-0.2,0.1-0.4,0.1-0.6,0.1h-0.4v-1h0.3
		c0.2,0,0.4,0,0.5-0.1c0.1-0.1,0.2-0.3,0.3-0.5l0.3-0.9l-1.9-5.2h1.2l1.3,3.8l1.3-3.8h1.2L144.7,78.8z"/>
	<path class="st26" d="M147,77.7v-1.3h1.3v1.3H147z"/>
	<path class="st25" d="M66.6,29.3c0,0.4,0,0.7-0.1,1c-0.1,0.3-0.2,0.7-0.3,1c-0.1,0.3-0.3,0.6-0.6,0.9c-0.3,0.3-0.7,0.5-1.1,0.7
		c-0.4,0.1-0.9,0.2-1.4,0.2h-3.3v-9.5h3.4c0.5,0,0.9,0.1,1.4,0.2c0.4,0.1,0.8,0.4,1.1,0.7c0.3,0.2,0.5,0.5,0.6,0.8
		c0.1,0.3,0.2,0.6,0.3,0.9c0.1,0.3,0.1,0.7,0.1,1L66.6,29.3L66.6,29.3z M65.1,26.6c0-0.4-0.2-0.8-0.4-1.1c-0.4-0.4-1-0.7-1.6-0.6
		h-1.8v7H63c0.6,0,1.2-0.2,1.6-0.6c0.3-0.3,0.4-0.7,0.4-1.2c0-0.5,0.1-1.1,0.1-1.7C65.2,27.7,65.1,27.1,65.1,26.6z"/>
	<path class="st25" d="M68.6,33.1v-9.5H70v9.5H68.6z"/>
	<path class="st25" d="M78.7,31c-0.1,0.4-0.4,0.8-0.7,1.1c-0.3,0.4-0.8,0.7-1.2,0.8c-0.5,0.2-0.9,0.3-1.4,0.2
		c-0.5,0-0.9-0.1-1.4-0.3c-0.4-0.2-0.8-0.4-1.1-0.8c-0.2-0.2-0.4-0.5-0.5-0.7c-0.1-0.3-0.2-0.5-0.3-0.8C72,30.3,72,30,72,29.6
		c0-0.4,0-0.8,0-1.2s0-0.9,0-1.2c0-0.3,0-0.7,0.1-1c0.1-0.3,0.1-0.6,0.3-0.9c0.1-0.3,0.3-0.5,0.5-0.7c0.3-0.3,0.7-0.6,1.1-0.8
		c0.9-0.3,1.9-0.3,2.8,0c0.4,0.1,0.7,0.4,1,0.6c0.3,0.3,0.5,0.6,0.7,0.9c0.2,0.4,0.3,0.8,0.4,1.2h-1.5c-0.1-0.5-0.3-0.9-0.7-1.2
		c-0.6-0.5-1.4-0.6-2.1-0.3c-0.2,0.1-0.4,0.2-0.6,0.4c-0.1,0.1-0.2,0.3-0.3,0.4c-0.1,0.2-0.1,0.4-0.2,0.5c-0.1,0.3-0.1,0.5-0.1,0.8
		c0,0.3,0,0.7,0,1.2s0,0.9,0,1.2c0,0.3,0,0.5,0.1,0.8c0,0.2,0.1,0.4,0.2,0.5c0.1,0.2,0.2,0.3,0.3,0.4c0.2,0.2,0.4,0.3,0.6,0.4
		c0.5,0.2,1.1,0.2,1.7,0c0.3-0.1,0.5-0.3,0.7-0.5c0.2-0.2,0.3-0.4,0.4-0.7c0.1-0.3,0.1-0.6,0.1-0.8v-0.5h-2V28h3.5v1.5
		C78.9,30,78.8,30.5,78.7,31z"/>
	<path class="st25" d="M80.8,33.1v-9.5h1.5v9.5H80.8z"/>
	<path class="st25" d="M87.8,24.8v8.2h-1.5v-8.2h-2.6v-1.3h6.7v1.3H87.8z"/>
	<path class="st25" d="M96.5,33.1l-0.7-1.9h-3.8l-0.7,1.9h-1.5l3.5-9.5h1.2l3.5,9.5H96.5z M94,25.7L92.5,30h2.9L94,25.7z"/>
	<path class="st25" d="M99.2,33.1v-9.5h1.5v8.3h4.6v1.3L99.2,33.1z"/>
</g>
</svg>
