<?xml version="1.0" encoding="utf-8"?>
<!-- Generator: Adobe Illustrator 25.2.1, SVG Export Plug-In . SVG Version: 6.00 Build 0)  -->
<svg version="1.1" id="Layer_1" xmlns="http://www.w3.org/2000/svg" xmlns:xlink="http://www.w3.org/1999/xlink" x="0px" y="0px"
	 viewBox="0 0 145.1 50" style="enable-background:new 0 0 145.1 50;" xml:space="preserve">
<style type="text/css">
	.st0{fill:#434A4E;}
	.st1{fill:none;stroke:#000000;stroke-width:1.5;stroke-miterlimit:10;}
	.st2{fill:#FFFFFF;}
	.st3{fill:none;stroke:#000000;stroke-width:2;stroke-miterlimit:10;}
</style>
<g>
	<path class="st0" d="M75.4,27c-0.5-2-1.4-3.8-2.5-5.5c-0.9,3.1-3.8,5.3-7.1,5.3c-0.2,0-0.3,0-0.5,0c0.7,1,1.2,2.1,1.4,3.3
		c0.7,2.8-0.1,5.8-2,8c-1.6,2-4.1,3.1-6.6,3.1c-0.3,0-0.7,0-1,0c-2.6-0.3-5-1.5-6.8-3.2c-1.5-1.2-3-2.6-4.3-4
		c-0.5-0.5-1.1-1-1.6-1.5c-0.1-0.1-0.2-0.2-0.3-0.3l0.6-0.6c1-1,2-1.9,3-2.9c1.7-1.6,3.6-3,5.7-4c1.6-0.8,3.4-1.3,5.2-1.3h0.6
		c0.2,0,0.3,0,0.5,0c-1.8-2.7-1.6-6.3,0.5-8.8c-0.4,0-0.9-0.1-1.3-0.1c-3.5,0-7,1-10.1,2.8c-2.9,1.7-5.6,3.8-8,6.2
		c-0.8,0.8-1.5,1.6-2.3,2.4l-0.3,0.3l-1-1c-2.7-2.9-5.7-5.4-9-7.6c-3-1.9-6.5-3-10-3c-1.2,0-2.4,0.1-3.6,0.4c-5.2,1-9.8,4.3-12.2,9
		c-2.3,4.2-2.8,9.1-1.4,13.7c1.7,6.6,7.3,11.5,14.1,12.2c0.8,0.1,1.7,0.2,2.5,0.2c3.1,0,6.2-0.8,8.9-2.2c3.1-1.6,6-3.7,8.5-6.2
		c0.9-0.9,1.9-1.8,2.8-2.7l0.6-0.5l0.1,0.1c0.6,0.6,1.2,1.2,1.7,1.8c2.6,2.7,5.5,5.1,8.7,7.1c2.9,1.7,6.1,2.7,9.5,2.7
		c1.3,0,2.7-0.1,4-0.4c5.2-1.1,9.6-4.5,12-9.2C76.2,36.2,76.7,31.5,75.4,27z M24.7,38.8c-1.8,1.3-3.9,2-6.1,2.3c-0.3,0-0.6,0-0.9,0
		c-2.1,0-4.1-0.7-5.7-2.1c-1.6-1.4-2.5-3.4-2.7-5.5c-0.6-3.5,1.1-7,4.1-8.8c1.4-0.9,3-1.4,4.6-1.4c1.4,0,2.8,0.3,4.1,0.9
		c2.1,0.9,4,2.2,5.6,3.8c1.2,1.1,2.3,2.2,3.5,3.3l0.9,0.9C29.9,34.7,27.4,36.9,24.7,38.8z"/>
	<path class="st1" d="M74.1,18.1"/>
	<circle class="st2" cx="65.8" cy="19.4" r="4.8"/>
	<path class="st3" d="M74.1,18.1"/>
	<path class="st2" d="M78.4,18.2c-0.4,0-0.7-0.3-0.8-0.7c-0.9-5.9-6-10.2-11.9-10.2c-0.9,0-1.8,0.1-2.6,0.3
		c-0.4,0.1-0.8-0.2-0.9-0.6c-0.1-0.4,0.2-0.8,0.6-0.9c1-0.2,2-0.3,3-0.3c6.7,0,12.4,4.9,13.5,11.5c0.1,0.4-0.2,0.8-0.6,0.9
		L78.4,18.2z"/>
	<path class="st2" d="M74.1,18.7c-0.3,0-0.6-0.3-0.6-0.6c0,0,0,0,0,0c-0.6-3.8-3.9-6.5-7.7-6.6c-0.6,0-1.1,0.1-1.7,0.2
		c-0.3,0.1-0.7,0-0.8-0.4c-0.1-0.3,0-0.7,0.4-0.8c0,0,0.1,0,0.2,0c0.7-0.2,1.3-0.2,2-0.2c4.5,0,8.3,3.3,9,7.7c0,0,0,0.1,0,0.1
		C74.8,18.5,74.5,18.7,74.1,18.7C74.2,18.7,74.1,18.7,74.1,18.7z"/>
	<path class="st2" d="M82.8,17.8c-0.5,0-0.9-0.4-1-0.9c-1.3-7.9-8-13.7-16-13.7c-1.2,0-2.4,0.1-3.5,0.4c-0.6,0.1-1.1-0.2-1.2-0.8
		s0.2-1.1,0.8-1.2c9.8-2.2,19.6,4,21.8,13.8c0.1,0.4,0.2,0.8,0.2,1.2c0.1,0.5-0.3,1.1-0.8,1.2c0,0,0,0-0.1,0L82.8,17.8z"/>
	<rect x="89.6" class="st2" width="4.7" height="23"/>
	<rect x="131.8" class="st2" width="4.7" height="23"/>
	<rect x="123.2" class="st2" width="21.9" height="4.7"/>
	<path class="st2" d="M110.5,0.9c-6.1,0-11.1,5-11.1,11.1s5,11.1,11.1,11.1c6.1,0,11.1-5,11.1-11.1l0,0
		C121.6,5.8,116.6,0.9,110.5,0.9z M111.5,17.1h-2v-2h2V17.1z M113,13.6c-0.7-0.6-1.5-1-2.5-1c-0.9,0-1.8,0.4-2.4,1l-1.5-1.4
		c2.2-2.1,5.7-2.1,7.9,0L113,13.6z M115.5,11.1c-2.8-2.7-7.3-2.7-10.1,0L104,9.7c3.6-3.6,9.4-3.6,13,0L115.5,11.1z"/>
	<path class="st2" d="M92.5,33.5c-0.4-0.1-0.8-0.3-1.2-0.4c-0.3-0.1-0.6-0.3-0.9-0.5c-0.3-0.2-0.5-0.5-0.6-0.8
		c-0.1-0.3-0.2-0.7-0.2-1.1c0-0.8,0.3-1.5,0.9-2c0.8-0.5,1.7-0.8,2.6-0.7c0.4,0,0.8,0,1.1,0.1c0.3,0,0.6,0.1,0.9,0.3
		c0.2,0.1,0.4,0.3,0.6,0.5c0.1,0.2,0.2,0.4,0.2,0.7c0,0.2,0,0.5-0.2,0.7c-0.1,0.2-0.3,0.3-0.4,0.4c-0.3-0.2-0.6-0.3-0.9-0.3
		c-0.4-0.1-0.8-0.2-1.2-0.2c-0.3,0-0.7,0-1,0.2c-0.2,0.1-0.3,0.3-0.3,0.4c0,0.1,0.1,0.3,0.2,0.3c0.2,0.1,0.4,0.2,0.6,0.3l0.8,0.2
		c0.8,0.2,1.5,0.6,2.1,1.1c1,1,1,2.7-0.1,3.7c0,0-0.1,0.1-0.2,0.1c-0.8,0.6-1.8,0.8-2.8,0.8c-0.4,0-0.8,0-1.2-0.1
		c-0.3-0.1-0.7-0.2-1-0.3c-0.3-0.1-0.5-0.3-0.7-0.5c-0.2-0.2-0.2-0.5-0.2-0.7c0-0.3,0.1-0.5,0.2-0.7c0.1-0.2,0.3-0.3,0.5-0.5
		c0.3,0.2,0.6,0.4,1,0.6c0.4,0.2,0.8,0.2,1.3,0.2c0.3,0,0.7,0,1-0.2c0.2-0.1,0.3-0.3,0.3-0.5c0-0.2-0.1-0.3-0.2-0.4
		c-0.2-0.1-0.4-0.2-0.6-0.3L92.5,33.5z"/>
	<path class="st2" d="M103.2,32.7c0-0.2-0.1-0.5-0.2-0.7c-0.2-0.1-0.4-0.2-0.7-0.2c-0.2,0-0.4,0-0.6,0.1c-0.2,0-0.3,0.1-0.5,0.2v5
		c-0.2,0-0.3,0.1-0.5,0.1c-0.2,0-0.4,0-0.6,0c-0.2,0-0.4,0-0.6,0c-0.2,0-0.3-0.1-0.4-0.2c-0.1-0.1-0.2-0.2-0.3-0.3
		c-0.1-0.2-0.1-0.4-0.1-0.6v-4.3c0-0.2,0-0.4,0.2-0.6c0.1-0.2,0.3-0.3,0.5-0.4c0.4-0.3,0.8-0.4,1.2-0.6c0.5-0.1,1.1-0.2,1.6-0.2
		c0.9-0.1,1.8,0.2,2.5,0.7c0.6,0.5,0.9,1.2,0.9,2v4.5c-0.1,0-0.3,0.1-0.4,0.1c-0.2,0-0.4,0-0.6,0c-0.2,0-0.4,0-0.6,0
		c-0.2,0-0.3-0.1-0.4-0.2c-0.1-0.1-0.2-0.2-0.3-0.3c-0.1-0.2-0.1-0.4-0.1-0.6L103.2,32.7z"/>
	<path class="st2" d="M111,29.8c0.5,0,1,0.1,1.4,0.2c0.4,0.1,0.8,0.3,1.1,0.5c0.3,0.2,0.5,0.5,0.7,0.8c0.2,0.4,0.3,0.8,0.2,1.2v3.2
		c0,0.2-0.1,0.4-0.2,0.6c-0.1,0.2-0.3,0.3-0.5,0.4c-0.8,0.4-1.7,0.6-2.6,0.6c-0.5,0-0.9,0-1.4-0.1c-0.4-0.1-0.7-0.2-1-0.4
		c-0.3-0.2-0.5-0.4-0.7-0.7c-0.2-0.3-0.2-0.7-0.2-1c0-0.6,0.2-1.1,0.6-1.5c0.5-0.4,1.2-0.6,1.8-0.7l1.9-0.2v-0.1
		c0-0.3-0.1-0.5-0.4-0.6c-0.3-0.1-0.7-0.2-1.1-0.2c-0.4,0-0.7,0-1.1,0.1c-0.3,0.1-0.6,0.2-0.9,0.3c-0.1-0.1-0.2-0.2-0.3-0.4
		c-0.1-0.2-0.1-0.4-0.1-0.6c0-0.2,0.1-0.4,0.2-0.6c0.2-0.2,0.3-0.3,0.6-0.4c0.3-0.1,0.7-0.2,1-0.2C110.3,29.8,110.7,29.8,111,29.8z
		 M111.1,35.4c0.2,0,0.4,0,0.5,0c0.2,0,0.3-0.1,0.4-0.1v-1.2l-1,0.1c-0.2,0-0.5,0.1-0.7,0.2c-0.2,0.1-0.3,0.2-0.3,0.4
		c0,0.2,0.1,0.4,0.2,0.5C110.6,35.4,110.9,35.5,111.1,35.4L111.1,35.4z"/>
	<path class="st2" d="M120.9,31.7c-0.2,0-0.5,0-0.7,0.1c-0.2,0.1-0.4,0.2-0.6,0.3c-0.2,0.2-0.3,0.4-0.4,0.6
		c-0.1,0.2-0.2,0.5-0.1,0.8c0,0.5,0.2,1,0.5,1.3c0.3,0.3,0.8,0.5,1.2,0.4c0.3,0,0.5,0,0.8-0.1c0.2-0.1,0.4-0.1,0.6-0.2
		c0.2,0.1,0.3,0.3,0.4,0.4c0.1,0.2,0.2,0.4,0.1,0.6c0,0.4-0.2,0.7-0.6,0.9c-0.5,0.2-1,0.4-1.6,0.3c-0.6,0-1.1-0.1-1.6-0.3
		c-0.5-0.2-0.9-0.4-1.3-0.8c-0.4-0.3-0.6-0.7-0.8-1.2c-0.2-0.5-0.3-1-0.3-1.5c0-0.6,0.1-1.1,0.3-1.7c0.2-0.4,0.5-0.9,0.9-1.2
		c0.4-0.3,0.8-0.5,1.3-0.7c0.5-0.2,1-0.2,1.5-0.2c0.6,0,1.1,0.1,1.6,0.4c0.4,0.2,0.6,0.6,0.6,1c0,0.2,0,0.4-0.1,0.5
		c-0.1,0.2-0.2,0.3-0.3,0.4c-0.2-0.1-0.4-0.2-0.6-0.2C121.4,31.8,121.2,31.7,120.9,31.7z"/>
	<path class="st2" d="M131.8,35.8c0,0.4-0.2,0.7-0.4,1c-0.3,0.3-0.6,0.4-1,0.4c-0.3,0-0.6-0.1-0.8-0.2c-0.3-0.2-0.6-0.5-0.8-0.8
		l-1.4-1.8V37l-0.5,0.1c-0.2,0-0.4,0.1-0.6,0.1c-0.2,0-0.4,0-0.6,0c-0.2,0-0.3-0.1-0.4-0.2c-0.1-0.1-0.2-0.2-0.3-0.3
		c-0.1-0.2-0.1-0.4-0.1-0.6v-8.3l0.5-0.1c0.2,0,0.4,0,0.6,0c0.2,0,0.4,0,0.6,0c0.2,0,0.3,0.1,0.4,0.2c0.1,0.1,0.2,0.2,0.3,0.3
		c0.1,0.2,0.1,0.4,0.1,0.6v3.7l2.5-2.5c0.4,0,0.8,0.1,1.2,0.3c0.3,0.2,0.4,0.5,0.4,0.8c0,0.1,0,0.3-0.1,0.4
		c-0.1,0.1-0.1,0.3-0.2,0.4c-0.1,0.1-0.2,0.3-0.4,0.4l-0.6,0.5l-0.8,0.7L131.8,35.8z"/>
	<path class="st2" d="M139.7,34.9c0,0.7-0.3,1.3-0.8,1.7c-0.7,0.5-1.6,0.7-2.4,0.6c-0.4,0-0.8,0-1.1-0.1c-0.3,0-0.6-0.1-0.9-0.3
		c-0.2-0.1-0.4-0.3-0.6-0.5c-0.1-0.2-0.2-0.4-0.2-0.7c0-0.2,0-0.4,0.1-0.6c0.1-0.2,0.2-0.3,0.4-0.4c0.3,0.2,0.7,0.3,1,0.4
		c0.4,0.1,0.8,0.2,1.2,0.2c0.2,0,0.5,0,0.7-0.1c0.1-0.1,0.2-0.2,0.2-0.3c0-0.1-0.1-0.3-0.2-0.3c-0.2-0.1-0.4-0.2-0.6-0.2l-0.4-0.1
		c-0.7-0.1-1.3-0.4-1.9-0.8c-0.4-0.4-0.7-0.9-0.6-1.5c0-0.3,0.1-0.7,0.2-1c0.2-0.3,0.4-0.5,0.6-0.7c0.3-0.2,0.6-0.4,1-0.4
		c0.4-0.1,0.9-0.2,1.3-0.2c0.3,0,0.7,0,1,0.1c0.3,0.1,0.6,0.1,0.8,0.2c0.2,0.1,0.4,0.2,0.5,0.4c0.1,0.2,0.2,0.4,0.2,0.6
		c0,0.2,0,0.4-0.1,0.6c-0.1,0.2-0.2,0.3-0.3,0.4c-0.1-0.1-0.2-0.1-0.3-0.2c-0.2-0.1-0.3-0.1-0.5-0.2l-0.6-0.1c-0.2,0-0.3,0-0.5,0
		c-0.3,0-0.5,0-0.7,0.1c-0.2,0-0.3,0.2-0.3,0.3c0,0.1,0.1,0.2,0.1,0.3c0.2,0.1,0.4,0.2,0.6,0.2l0.4,0.1c0.7,0.1,1.4,0.4,2,0.9
		C139.5,33.9,139.7,34.4,139.7,34.9z"/>
	<path class="st2" d="M93.4,48.5h-0.6c-0.2,0-0.5,0-0.7,0c-0.2,0-0.5-0.1-0.7-0.1c-0.2,0-0.4-0.1-0.6-0.2c-0.5-0.1-0.8-0.5-0.8-1
		v-6.8c0-0.2,0-0.3,0.2-0.5c0.1-0.1,0.3-0.2,0.5-0.3c0.4-0.1,0.8-0.2,1.2-0.2c0.5-0.1,1-0.1,1.5-0.1c1-0.1,2,0.2,2.8,0.6
		c0.7,0.4,1,1.1,1,1.9c0,0.4-0.1,0.8-0.4,1.1c-0.3,0.3-0.6,0.6-1,0.7c0.5,0.1,0.9,0.4,1.2,0.7c0.3,0.4,0.5,0.8,0.5,1.3
		c0.1,0.8-0.4,1.6-1.1,2.1C95.5,48.4,94.5,48.6,93.4,48.5z M92.5,43h1.1c0.3,0,0.6-0.1,0.9-0.2c0.2-0.2,0.3-0.4,0.3-0.7
		c0-0.2-0.1-0.5-0.3-0.6c-0.3-0.2-0.7-0.3-1-0.2h-0.5c-0.1,0-0.3,0-0.4,0L92.5,43z M92.5,46.5c0.2,0.1,0.3,0.1,0.5,0.1h0.6
		c0.3,0,0.7-0.1,1-0.2c0.3-0.2,0.4-0.4,0.4-0.7c0-0.3-0.1-0.5-0.3-0.7c-0.3-0.2-0.7-0.2-1-0.2h-1.2L92.5,46.5z"/>
	<path class="st2" d="M106.9,44.8c0,0.5-0.1,1.1-0.3,1.6c-0.3,0.9-1.1,1.6-2,1.9c-1,0.3-2.1,0.3-3.1,0c-0.4-0.2-0.8-0.4-1.2-0.8
		c-0.3-0.3-0.6-0.7-0.8-1.2c-0.2-0.5-0.3-1-0.3-1.6c0-0.5,0.1-1.1,0.3-1.5c0.2-0.4,0.4-0.8,0.8-1.2c0.3-0.3,0.7-0.6,1.2-0.7
		c0.5-0.2,1-0.3,1.5-0.3c0.5,0,1.1,0.1,1.6,0.3c0.4,0.2,0.9,0.4,1.2,0.8c0.3,0.3,0.6,0.7,0.8,1.2C106.8,43.8,106.9,44.3,106.9,44.8z
		 M101.9,44.8c0,0.5,0.1,0.9,0.3,1.3c0.2,0.3,0.6,0.5,0.9,0.5c0.4,0,0.7-0.2,0.9-0.5c0.2-0.4,0.3-0.9,0.3-1.3c0-0.5-0.1-0.9-0.3-1.3
		c-0.4-0.5-1.1-0.6-1.6-0.2c-0.1,0.1-0.2,0.1-0.2,0.2C102,43.9,101.9,44.4,101.9,44.8L101.9,44.8z"/>
	<path class="st2" d="M108.7,42.5c0.1-0.3,0.2-0.7,0.4-0.9c0.2-0.2,0.5-0.4,0.9-0.3c0.3,0,0.5,0.1,0.7,0.2c0.2,0.2,0.4,0.4,0.6,0.7
		l0.9,1.2l1.6-2.2c0.4,0,0.9,0.1,1.2,0.3c0.3,0.2,0.5,0.4,0.5,0.8c0,0.1,0,0.2-0.1,0.3c0,0.1-0.1,0.2-0.1,0.3
		c-0.1,0.1-0.2,0.2-0.3,0.4l-0.4,0.5l-0.9,1.1l1.9,2.5c0,0.3-0.2,0.6-0.4,0.8c-0.2,0.2-0.5,0.3-0.9,0.3c-0.3,0-0.6-0.1-0.9-0.3
		c-0.2-0.2-0.4-0.5-0.6-0.7l-0.8-1.1l-1.5,2.1h-0.3c-0.4,0-0.8-0.1-1.1-0.3c-0.2-0.2-0.4-0.4-0.4-0.7c0-0.2,0.1-0.4,0.2-0.6
		c0.2-0.3,0.4-0.5,0.6-0.7l1.1-1.3L108.7,42.5z"/>
</g>
</svg>
