<?xml version="1.0" encoding="utf-8"?>
<!-- Generator: Adobe Illustrator 25.2.1, SVG Export Plug-In . SVG Version: 6.00 Build 0)  -->
<svg version="1.1" id="Layer_1" xmlns="http://www.w3.org/2000/svg" xmlns:xlink="http://www.w3.org/1999/xlink" x="0px" y="0px"
	 viewBox="0 0 182.9 63" style="enable-background:new 0 0 182.9 63;" xml:space="preserve">
<style type="text/css">
	.st0{fill:#FFFFFF;}
	.st1{fill:none;stroke:#000000;stroke-width:1.5;stroke-miterlimit:10;}
	.st2{fill:#82CCED;}
	.st3{fill:none;stroke:#000000;stroke-width:2;stroke-miterlimit:10;}
</style>
<g>
	<path class="st0" d="M95,34.1c-0.6-2.5-1.7-4.8-3.2-6.9c-1.2,4-4.9,6.7-9,6.7c-0.2,0-0.4,0-0.6,0c0.9,1.2,1.6,2.7,1.8,4.2
		c0.8,3.5-0.1,7.3-2.5,10c-2.1,2.5-5.1,3.9-8.4,3.9c-0.4,0-0.9,0-1.3-0.1c-3.2-0.4-6.2-1.8-8.6-3.9c-1.9-1.6-3.7-3.3-5.5-5l-2-1.9
		c-0.1-0.1-0.3-0.2-0.4-0.4l0.8-0.8c1.2-1.2,2.5-2.5,3.8-3.7c2.1-2,4.5-3.8,7.2-5.1c2-1,4.3-1.6,6.6-1.6h0.8c0.2,0,0.4,0,0.6,0.1
		c-2.3-3.5-2-8,0.7-11.2c-0.5,0-1.1-0.1-1.6-0.1c-4.5,0-8.9,1.2-12.7,3.5c-3.7,2.2-7,4.8-10,7.8c-1,1-2,2-2.9,3
		c-0.1,0.2-0.3,0.3-0.4,0.4l-1.2-1.2c-3.4-3.7-7.3-6.9-11.5-9.7c-3.8-2.4-8.1-3.8-12.6-3.8c-1.5,0-3.1,0.2-4.6,0.5
		C11.6,20,5.9,24.2,2.8,30.1c-2.9,5.3-3.6,11.6-1.8,17.4c2.1,8.3,9.2,14.4,17.7,15.3c1,0.1,2.1,0.2,3.2,0.2c3.9,0,7.8-1,11.2-2.7
		c3.9-2.1,7.5-4.7,10.7-7.8c1.2-1.1,2.3-2.3,3.5-3.4l0.7-0.7l0.1,0.1c0.7,0.8,1.4,1.5,2.2,2.2c3.3,3.4,7,6.4,11,8.9
		c3.6,2.2,7.7,3.3,11.9,3.4c1.7,0,3.4-0.2,5-0.6c6.6-1.3,12.2-5.6,15.2-11.6C96,45.7,96.6,39.7,95,34.1z M31.1,48.9
		c-2.3,1.6-4.9,2.6-7.7,2.9c-0.4,0-0.8,0.1-1.2,0.1c-2.6,0-5.2-0.9-7.2-2.7c-1.9-1.8-3.2-4.3-3.4-6.9c-0.7-4.4,1.3-8.8,5.1-11.1
		c1.7-1.2,3.7-1.8,5.8-1.8c1.8,0,3.6,0.4,5.2,1.2c2.6,1.2,5,2.8,7.1,4.8c1.5,1.4,2.9,2.8,4.4,4.2l1.1,1.1
		C37.6,43.8,34.5,46.5,31.1,48.9z"/>
	<path class="st1" d="M93.4,22.8"/>
	<circle class="st2" cx="82.8" cy="24.5" r="6.1"/>
	<path class="st3" d="M93.4,22.8"/>
	<path class="st2" d="M98.8,23c-0.5,0-0.9-0.3-1-0.8c-1.2-7.4-7.5-12.8-15-12.9c-1.1,0-2.2,0.1-3.3,0.4c-0.6,0-1-0.4-1-1
		c0-0.4,0.2-0.7,0.6-0.9c1.2-0.3,2.5-0.4,3.7-0.4c8.5,0,15.6,6.2,17,14.5c0.1,0.5-0.3,1-0.8,1.1L98.8,23z"/>
	<path class="st2" d="M93.4,23.6c-0.4,0-0.8-0.3-0.8-0.8c-0.8-4.8-4.9-8.2-9.8-8.2c-0.7,0-1.4,0.1-2.1,0.2c-0.4,0.1-0.8-0.2-0.9-0.6
		c0,0,0,0,0,0c-0.1-0.4,0.2-0.8,0.6-0.9c6.2-1.4,12.3,2.5,13.6,8.7c0.1,0.2,0.1,0.5,0.1,0.7c0,0,0,0.1,0,0.1
		C94.2,23.3,93.8,23.6,93.4,23.6z"/>
	<path class="st2" d="M104.3,22.4c-0.6,0-1.2-0.5-1.3-1.1c-1.8-11.1-12.2-18.8-23.4-17c-0.4,0.1-0.8,0.1-1.2,0.2
		c-0.7,0.2-1.4-0.2-1.6-0.9C76.6,3,77,2.3,77.7,2.1c0.1,0,0.1,0,0.2,0c1.6-0.4,3.3-0.6,5-0.5c11.3,0.1,20.9,8.3,22.7,19.5
		c0.1,0.7-0.4,1.4-1.1,1.5c0,0,0,0,0,0L104.3,22.4z"/>
	<rect x="112.9" class="st2" width="5.9" height="29"/>
	<rect x="166.1" class="st2" width="5.9" height="29"/>
	<rect x="155.2" y="0" class="st2" width="27.7" height="5.9"/>
	<path class="st2" d="M139.2,1.1c-7.7,0-14,6.2-14.1,13.9c0,7.7,6.2,14,13.9,14.1s14-6.2,14.1-13.9c0,0,0-0.1,0-0.1
		C153.2,7.3,147,1.1,139.2,1.1C139.3,1.1,139.3,1.1,139.2,1.1z M140.5,21.5H138V19h2.5V21.5z M142.4,17.2c-0.8-0.8-2-1.2-3.1-1.2
		c-1.1,0-2.3,0.4-3.1,1.2l-1.9-1.8c2.8-2.7,7.2-2.7,9.9,0L142.4,17.2z M145.6,14c-1.7-1.7-4-2.6-6.4-2.6c-2.4,0-4.6,0.9-6.3,2.6
		l-1.9-1.8c4.5-4.5,11.8-4.5,16.4,0L145.6,14z"/>
	<path class="st2" d="M116.5,42.2c-0.5-0.2-1-0.4-1.4-0.6c-0.4-0.2-0.8-0.4-1.1-0.7c-0.3-0.3-0.6-0.6-0.7-1
		c-0.2-0.4-0.3-0.9-0.3-1.3c0-1,0.4-1.9,1.2-2.5c1-0.7,2.2-1,3.3-0.9c0.5,0,1,0,1.4,0.1c0.4,0.1,0.8,0.2,1.1,0.3
		c0.3,0.1,0.6,0.3,0.8,0.6c0.2,0.2,0.3,0.5,0.3,0.8c0,0.3-0.1,0.6-0.2,0.8c-0.1,0.2-0.3,0.4-0.5,0.6c-0.3-0.2-0.7-0.3-1.1-0.4
		c-0.5-0.1-1-0.2-1.5-0.2c-0.4,0-0.8,0-1.2,0.2c-0.2,0.1-0.4,0.3-0.4,0.6c0,0.2,0.1,0.3,0.2,0.4c0.2,0.1,0.5,0.3,0.7,0.3l1,0.3
		c1,0.3,1.9,0.7,2.6,1.4c0.6,0.6,1,1.4,0.9,2.3c0,1-0.4,1.9-1.2,2.5c-1.1,0.7-2.3,1.1-3.6,1c-0.5,0-1,0-1.6-0.1
		c-0.4-0.1-0.9-0.2-1.2-0.4c-0.3-0.2-0.6-0.4-0.8-0.7c-0.2-0.3-0.3-0.6-0.3-0.9c0-0.3,0.1-0.6,0.3-0.9c0.2-0.2,0.4-0.4,0.7-0.6
		c0.4,0.3,0.8,0.5,1.2,0.7c0.5,0.2,1.1,0.3,1.6,0.3c0.4,0,0.9-0.1,1.2-0.3c0.2-0.1,0.4-0.4,0.4-0.6c0-0.2-0.1-0.4-0.3-0.6
		c-0.3-0.2-0.5-0.3-0.8-0.4L116.5,42.2z"/>
	<path class="st2" d="M130,41.2c0-0.3-0.1-0.6-0.3-0.8c-0.3-0.2-0.6-0.3-0.9-0.3c-0.2,0-0.5,0-0.7,0.1c-0.2,0.1-0.4,0.1-0.6,0.3v6.3
		c-0.2,0-0.4,0.1-0.6,0.1c-0.3,0-0.5,0.1-0.8,0.1c-0.2,0-0.5,0-0.7-0.1c-0.2,0-0.4-0.1-0.5-0.2c-0.2-0.1-0.3-0.3-0.3-0.4
		c-0.1-0.2-0.1-0.5-0.1-0.7V40c0-0.3,0.1-0.6,0.2-0.8c0.2-0.2,0.4-0.4,0.6-0.6c0.5-0.3,1-0.6,1.6-0.7c0.7-0.2,1.4-0.3,2.1-0.3
		c1.1-0.1,2.2,0.2,3.2,0.9c0.7,0.6,1.2,1.5,1.1,2.5v5.7c-0.2,0.1-0.4,0.1-0.6,0.1c-0.3,0-0.5,0.1-0.8,0.1c-0.2,0-0.5,0-0.7-0.1
		c-0.2,0-0.4-0.1-0.5-0.2c-0.2-0.1-0.3-0.3-0.3-0.4c-0.1-0.2-0.1-0.5-0.1-0.7V41.2z"/>
	<path class="st2" d="M139.9,37.5c0.6,0,1.2,0.1,1.8,0.2c0.5,0.1,1,0.3,1.4,0.6c0.4,0.3,0.7,0.6,0.9,1c0.2,0.5,0.3,1,0.3,1.5v4.1
		c0,0.3-0.1,0.6-0.3,0.8c-0.2,0.2-0.4,0.4-0.6,0.5c-1,0.5-2.2,0.8-3.3,0.7c-0.6,0-1.2-0.1-1.7-0.2c-0.5-0.1-0.9-0.2-1.3-0.5
		c-0.4-0.2-0.7-0.6-0.9-0.9c-0.2-0.4-0.3-0.9-0.3-1.3c0-0.7,0.2-1.4,0.8-1.9c0.7-0.5,1.5-0.8,2.3-0.8l2.4-0.3v-0.1
		c0-0.3-0.2-0.6-0.5-0.8c-0.4-0.2-0.9-0.3-1.3-0.2c-0.5,0-0.9,0-1.4,0.2c-0.4,0.1-0.8,0.2-1.2,0.4c-0.2-0.1-0.3-0.3-0.4-0.5
		c-0.1-0.2-0.2-0.5-0.2-0.7c0-0.3,0.1-0.5,0.2-0.8c0.2-0.2,0.4-0.4,0.7-0.5c0.4-0.1,0.8-0.2,1.2-0.3
		C138.9,37.6,139.4,37.5,139.9,37.5z M140,44.6c0.2,0,0.5,0,0.7-0.1c0.2,0,0.4-0.1,0.6-0.2V43l-1.3,0.1c-0.3,0-0.6,0.1-0.8,0.2
		c-0.2,0.1-0.3,0.3-0.3,0.5c0,0.2,0.1,0.5,0.3,0.6C139.3,44.6,139.7,44.7,140,44.6L140,44.6z"/>
	<path class="st2" d="M152.3,39.9c-0.3,0-0.6,0-0.9,0.1c-0.3,0.1-0.5,0.2-0.7,0.4c-0.2,0.2-0.4,0.4-0.5,0.7c-0.1,0.3-0.2,0.7-0.2,1
		c0,0.6,0.2,1.2,0.6,1.7c0.4,0.4,1,0.6,1.6,0.6c0.3,0,0.6,0,0.9-0.1c0.2-0.1,0.5-0.2,0.7-0.3c0.2,0.1,0.4,0.3,0.5,0.6
		c0.1,0.2,0.2,0.5,0.2,0.7c0,0.5-0.3,0.9-0.7,1.2c-0.6,0.3-1.3,0.4-2,0.4c-0.7,0-1.4-0.1-2.1-0.4c-0.6-0.2-1.1-0.5-1.6-0.9
		c-0.4-0.4-0.8-0.9-1-1.5c-0.3-0.6-0.4-1.2-0.4-1.9c0-0.7,0.1-1.4,0.4-2.1c0.2-0.6,0.6-1.1,1.1-1.5c0.5-0.4,1-0.7,1.5-0.9
		c0.6-0.2,1.2-0.3,1.8-0.2c0.7,0,1.4,0.1,2,0.5c0.4,0.3,0.7,0.7,0.7,1.2c0,0.2-0.1,0.4-0.2,0.6c-0.1,0.2-0.2,0.4-0.4,0.5
		c-0.2-0.1-0.5-0.2-0.8-0.3C153,40,152.6,39.9,152.3,39.9z"/>
	<path class="st2" d="M166.1,45.1c0,0.5-0.2,0.9-0.5,1.3c-0.3,0.3-0.8,0.5-1.2,0.5c-0.4,0-0.7-0.1-1-0.3c-0.4-0.3-0.7-0.6-1-1
		l-1.8-2.2v3.3l-0.6,0.1c-0.3,0-0.5,0.1-0.8,0.1c-0.2,0-0.5,0-0.7-0.1c-0.2,0-0.4-0.1-0.5-0.2c-0.1-0.1-0.3-0.3-0.3-0.4
		c-0.1-0.2-0.1-0.5-0.1-0.7V35c0.1,0,0.3-0.1,0.6-0.1c0.3,0,0.5-0.1,0.8-0.1c0.2,0,0.5,0,0.7,0c0.2,0,0.4,0.1,0.5,0.2
		c0.2,0.1,0.3,0.3,0.3,0.4c0.1,0.2,0.1,0.5,0.1,0.7v4.7l3.1-3.2c0.5,0,1.1,0.1,1.5,0.4c0.3,0.2,0.6,0.6,0.6,1c0,0.2,0,0.3-0.1,0.5
		c-0.1,0.2-0.2,0.3-0.3,0.5c-0.2,0.2-0.3,0.3-0.5,0.5l-0.7,0.6l-1,0.9L166.1,45.1z"/>
	<path class="st2" d="M176,44c0,0.8-0.3,1.6-1,2.2c-0.9,0.6-2,0.9-3,0.8c-0.5,0-1,0-1.4-0.1c-0.4-0.1-0.8-0.2-1.1-0.3
		c-0.3-0.1-0.5-0.3-0.7-0.6c-0.2-0.2-0.3-0.5-0.3-0.8c0-0.3,0.1-0.5,0.2-0.7c0.1-0.2,0.3-0.4,0.4-0.5c0.4,0.2,0.8,0.4,1.2,0.5
		c0.5,0.2,1,0.2,1.6,0.2c0.3,0,0.6,0,0.9-0.2c0.2-0.1,0.3-0.2,0.3-0.4c0-0.2-0.1-0.3-0.2-0.4c-0.2-0.1-0.5-0.2-0.7-0.2l-0.5-0.1
		c-0.9-0.1-1.7-0.5-2.4-1c-0.5-0.5-0.8-1.2-0.8-1.9c0-0.9,0.4-1.7,1.1-2.1c0.4-0.3,0.8-0.4,1.3-0.6c0.5-0.1,1.1-0.2,1.6-0.2
		c0.4,0,0.8,0,1.3,0.1c0.3,0.1,0.7,0.2,1,0.3c0.3,0.1,0.5,0.3,0.7,0.5c0.2,0.2,0.3,0.5,0.2,0.8c0,0.2,0,0.5-0.1,0.7
		c-0.1,0.2-0.2,0.4-0.4,0.5c-0.1-0.1-0.3-0.1-0.4-0.2c-0.2-0.1-0.4-0.1-0.6-0.2c-0.2-0.1-0.5-0.1-0.7-0.1c-0.2,0-0.4-0.1-0.6-0.1
		c-0.3,0-0.6,0-0.9,0.1c-0.2,0.1-0.3,0.2-0.3,0.4c0,0.1,0.1,0.3,0.2,0.3c0.2,0.1,0.4,0.2,0.7,0.2l0.6,0.1c0.9,0.1,1.8,0.5,2.5,1.1
		C175.8,42.6,176.1,43.3,176,44z"/>
	<path class="st2" d="M117.7,61.2h-0.8c-0.3,0-0.6,0-0.9-0.1c-0.3,0-0.6-0.1-0.9-0.1c-0.3,0-0.5-0.1-0.8-0.2c-0.6-0.2-1-0.7-1-1.3
		v-8.5c0-0.2,0.1-0.4,0.2-0.6c0.2-0.2,0.4-0.3,0.6-0.3c0.5-0.2,1-0.3,1.5-0.3c0.6-0.1,1.3-0.1,1.9-0.1c1.2-0.1,2.5,0.2,3.6,0.8
		c0.8,0.5,1.3,1.4,1.2,2.4c0,0.5-0.1,1-0.5,1.4c-0.3,0.4-0.8,0.7-1.3,0.9c0.6,0.2,1.1,0.5,1.5,0.9c0.4,0.5,0.6,1.1,0.6,1.7
		c0.1,1.1-0.4,2.1-1.3,2.7C120.3,60.9,119,61.2,117.7,61.2z M116.5,54.2h1.3c0.4,0,0.8-0.1,1.1-0.3c0.2-0.2,0.4-0.5,0.4-0.8
		c0-0.3-0.1-0.6-0.4-0.8c-0.4-0.2-0.8-0.3-1.2-0.3h-0.6c-0.2,0-0.4,0-0.6,0.1V54.2z M116.5,58.6c0.2,0.1,0.4,0.1,0.7,0.1h0.8
		c0.4,0,0.8-0.1,1.2-0.3c0.3-0.2,0.5-0.6,0.5-0.9c0-0.3-0.1-0.7-0.4-0.8c-0.4-0.2-0.8-0.3-1.2-0.2h-1.5V58.6z"/>
	<path class="st2" d="M134.8,56.5c0,0.7-0.1,1.4-0.4,2c-0.2,0.6-0.6,1.1-1,1.5c-0.4,0.4-0.9,0.7-1.5,0.9c-0.6,0.2-1.3,0.3-2,0.3
		c-0.7,0-1.3-0.1-1.9-0.3c-0.6-0.2-1.1-0.5-1.5-0.9c-0.4-0.4-0.8-0.9-1-1.5c-0.5-1.3-0.5-2.6,0-3.9c0.2-0.6,0.6-1.1,1-1.5
		c0.4-0.4,0.9-0.7,1.5-0.9c0.6-0.2,1.3-0.3,1.9-0.3c0.7,0,1.4,0.1,2,0.3c0.6,0.2,1.1,0.5,1.5,0.9c0.4,0.4,0.8,0.9,1,1.5
		C134.7,55.2,134.8,55.8,134.8,56.5z M128.4,56.5c0,0.6,0.1,1.2,0.4,1.7c0.3,0.4,0.7,0.6,1.2,0.6c0.5,0,0.9-0.2,1.2-0.6
		c0.3-0.5,0.4-1.1,0.4-1.7c0-0.6-0.1-1.2-0.4-1.7c-0.5-0.7-1.4-0.8-2.1-0.3c-0.1,0.1-0.2,0.2-0.3,0.3
		C128.5,55.3,128.4,55.9,128.4,56.5z"/>
	<path class="st2" d="M136.9,53.6c0.1-0.4,0.3-0.8,0.6-1.2c0.3-0.3,0.7-0.4,1.1-0.4c0.3,0,0.7,0.1,0.9,0.3c0.3,0.3,0.5,0.5,0.7,0.8
		l1.2,1.6l2-2.7c0.5,0,1.1,0.1,1.6,0.4c0.4,0.2,0.6,0.6,0.6,1c0,0.1,0,0.3-0.1,0.4c-0.1,0.1-0.1,0.3-0.2,0.4l-0.3,0.5l-0.5,0.6
		l-1.2,1.4l2.4,3.1c-0.1,0.8-0.8,1.5-1.6,1.5c-0.4,0-0.8-0.1-1.1-0.4c-0.3-0.3-0.6-0.6-0.8-0.9l-1-1.4l-1.9,2.7h-0.4
		c-0.5,0-1-0.1-1.4-0.4c-0.3-0.2-0.5-0.6-0.5-0.9c0-0.3,0.1-0.5,0.2-0.8c0.2-0.3,0.5-0.6,0.7-0.9l1.5-1.7L136.9,53.6z"/>
</g>
</svg>
