<?xml version="1.0" encoding="utf-8"?>
<!-- Generator: Adobe Illustrator 25.2.1, SVG Export Plug-In . SVG Version: 6.00 Build 0)  -->
<svg version="1.1" id="Layer_1" xmlns="http://www.w3.org/2000/svg" xmlns:xlink="http://www.w3.org/1999/xlink" x="0px" y="0px"
	 viewBox="0 0 35 35" style="enable-background:new 0 0 35 35;" xml:space="preserve">
<style type="text/css">
	.st0{fill:#0E9D59;}
	.st1{fill:#557EC0;}
	.st2{fill:#F9BD15;}
	.st3{fill:#32AB51;}
	.st4{fill:#CE2D4A;}
	.st5{fill:#EB4234;}
</style>
<g>
	<path class="st0" d="M28.2,25.5c-0.5-0.5-1.6-0.5-2.8-0.4c-2,2.1-4.9,3.3-7.8,3.3c-0.6,0-1.3-0.1-1.9-0.2c-1.1,0.9-2.2,1.9-2.2,2.7
		c0,1.5,4.1,4.1,4.1,4.1c3.9,0,7.6-1.3,10.6-3.6C28.2,31.4,29.2,26.5,28.2,25.5z"/>
	<path class="st1" d="M34.9,15.7H17.5v6h10c-0.8,2-2.3,3.7-4.1,4.9l4.8,4.8c0.6-0.5,1.2-1,1.7-1.5c3.3-3.3,5.1-7.7,5.1-12.4
		C35,16.9,35,16.3,34.9,15.7L34.9,15.7z"/>
	<path class="st2" d="M6.6,17.5c0-2.9,1.2-5.8,3.3-7.8c0.1-1.2,0-2.4-0.4-2.8c-1-1-5.9,0-5.9,0c-4.8,6.3-4.8,15,0,21.3
		c0,0,4.9,1,5.9,0c0.5-0.5,0.5-1.6,0.4-2.8C7.8,23.3,6.6,20.4,6.6,17.5z"/>
	<path class="st3" d="M8.4,23.4l-4.8,4.8c0.5,0.6,1,1.2,1.5,1.7c3.3,3.3,7.7,5.1,12.4,5.1v-6.6C13.8,28.4,10.4,26.5,8.4,23.4z"/>
	<path class="st4" d="M15.6,6.8c0.6-0.1,1.3-0.2,1.9-0.2c3.2,0,6.3,1.4,8.4,3.9l4.7-4.7l-0.7-0.7C26.6,1.8,22.1,0,17.5,0
		c0,0-4.1,2.6-4.1,4.1C13.4,4.8,14.5,5.9,15.6,6.8L15.6,6.8z"/>
	<path class="st5" d="M17.5,6.6V0C12.9,0,8.4,1.8,5.1,5.1c-0.5,0.5-1,1.1-1.5,1.7l4.8,4.8C10.4,8.5,13.8,6.6,17.5,6.6z"/>
</g>
</svg>
