<?xml version="1.0" encoding="utf-8"?>
<!-- Generator: Adobe Illustrator 25.2.1, SVG Export Plug-In . SVG Version: 6.00 Build 0)  -->
<svg version="1.1" id="Layer_1" xmlns="http://www.w3.org/2000/svg" xmlns:xlink="http://www.w3.org/1999/xlink" x="0px" y="0px"
	 viewBox="0 0 1440 900" style="enable-background:new 0 0 1440 900;" xml:space="preserve">
<style type="text/css">
	.st0{fill:#439AD5;}
	.st1{fill:#4DA6D6;}
	.st2{fill:#58B0D8;}
</style>
<g>
	<rect class="st0" width="1440" height="900"/>
	<path class="st1" d="M1440,0v603.2C1255.3,786.7,1000.9,900,720,900S184.7,786.7,0,603.2V0H1440z"/>
	<path class="st2" d="M1416.4,0H22.1C5.2,33-3.6,68.4,1.4,103.5c6.9,48.9,43.7,96.7,101.4,117.1c33.8,12,71.8,14,108.1,20.1
		s74,17.9,93.6,42.4c28.1,35.2,8.5,80.8-13.8,118.4s-47.5,79.9-28.5,118.5c12.7,25.8,43.1,44,75.2,55.9s66.8,19.1,99,30.7
		c109,39.5,274.6,145.4,264.3,238.5h253.7c-24.2-30.8-1.7-196.1,41.1-210.2c36.5-12.1,83.3-28.9,101.7-65.4
		c25.6-50.7-17-112.6-3-167.7c12.4-48.8,65.4-76.1,115.1-84.1c74.6-12,144.2-10.1,215.8-38.3c5-2,9.9-4.1,14.8-6.3V0H1416.4z"/>
</g>
</svg>
