<?xml version="1.0" encoding="utf-8"?>
<!-- Generator: Adobe Illustrator 25.2.1, SVG Export Plug-In . SVG Version: 6.00 Build 0)  -->
<svg version="1.1" id="Layer_1" xmlns="http://www.w3.org/2000/svg" xmlns:xlink="http://www.w3.org/1999/xlink" x="0px" y="0px"
	 viewBox="0 0 121.8 80" style="enable-background:new 0 0 121.8 80;" xml:space="preserve">
<style type="text/css">
	.st0{fill:#3D465E;}
	.st1{fill:#4C68B1;}
	.st2{fill:#090909;}
	.st3{fill:#010101;}
	.st4{fill:#F89822;}
	.st5{fill:#F8F39D;}
	.st6{fill:#FFFFFF;}
	.st7{fill:#F59699;}
	.st8{fill:#D4802A;}
	.st9{fill:#0D0E0F;}
	.st10{fill:#2D1514;}
	.st11{fill:#CD2037;}
	.st12{fill:#221F1F;}
	.st13{fill:#F6DEDD;}
	.st14{fill:#F5F3EF;}
	.st15{fill:#561615;}
	.st16{fill:#0F0F0F;}
	.st17{opacity:0.44;}
</style>
<g>
	<path class="st0" d="M118.8,30.4H56.4l-1.2,2.5c-0.1,0.2-0.3,0.4-0.5,0.4H50c-0.2,0-0.4-0.2-0.5-0.4l-1.2-2.5h-4.9
		c-1.7,0-3,2.2-3,5v12.1c0,2.7,1.3,5,3,5h4.9l1.2,2.5c0.1,0.2,0.3,0.4,0.5,0.4h4.7c0.2,0,0.4-0.2,0.5-0.4l1.3-2.6h62.5
		c1.7,0,3-2.2,3-5v-12C121.8,32.6,120.4,30.4,118.8,30.4z"/>
	<path class="st1" d="M117.9,30.4H55.7l-1.2,2.5c-0.1,0.2-0.2,0.3-0.5,0.4h-4.6c-0.2,0-0.4-0.2-0.5-0.4l-1.2-2.5h-4.8
		c-1.7,0-3,2.2-3,4.9v11.9c0,2.7,1.3,4.9,3,4.9h4.8l1.2,2.5c0.1,0.2,0.2,0.4,0.5,0.4H54c0.2,0,0.4-0.2,0.5-0.4l1.2-2.5h62.2
		c1.7,0,3-2.2,3-4.9V35.3C120.9,32.6,119.6,30.4,117.9,30.4z"/>
	<path class="st2" d="M4,13.2c0,0,1,5.5-1.5,7.9c0,0,1.3,0-0.2,1.5c0.8,0.6,0.9,1.7,0.4,2.5l-0.1,0.1c0,0,1.8-0.3,0.7,2.2l5.4-2.3
		L4,13.2z"/>
	<path class="st3" d="M7.9,32.1c0,0,1,3.8-0.7,4.6c-2.1,0.7-3.8,2-4.9,3.9c0,0-3,5.2,0.9,7.8l0.2,0.1c-1.8,1.6-3,3.8-3.3,6.2
		c0,0-0.8,12.9,12.4,11.8c0,0,6.1,4.2,9,0l0.8-1.2C22.3,65.4,22.9,28.3,7.9,32.1z"/>
	<path class="st3" d="M2.6,22.9c0,0,1.1,1-0.2,2.3c0,0,1.9-0.2,0.7,2.2c0,0,3-0.5,0.5,1.5c0,0,2.5,1.6,3.4,1.4c0,0-0.8,0.5-0.6,1.1
		c1.3,0.9,2.9,1.2,4.3,0.8l-0.6,0.6c0.4,0.3,0.9,0.4,1.5,0.3l0.2,0.3l2-1.2C13.8,32.2,10.4,20.9,2.6,22.9z"/>
	<path class="st3" d="M50,58.9c-1.3-1.5-2.9-2.7-4.7-3.5c0-0.5,0-0.9-0.1-1.4c-0.1-0.7-0.2-1.4-0.4-2c-0.3-0.7-0.7-1.3-1.2-1.9
		c-0.1-0.2-1.3-1.8-1.4-1.8c1.1-0.4,1.8-1.4,2-2.5c0.5-1.9,0.2-4-0.9-5.6c-0.3-0.5-0.6-0.9-1-1.3c-0.7-0.7-1.4-1.3-2.2-1.8
		c-0.3-0.2-0.6-0.4-0.9-0.5c-0.2-0.1-0.4-0.2-0.6-0.3c-0.3-0.1-0.5-0.3-0.8-0.5c-0.2-0.2-0.4-0.5-0.6-0.7c0.5,0.1,1-0.1,1.4-0.5
		c-0.2-0.2-0.4-0.4-0.7-0.6c3.5-0.1,4.2-1.3,4.2-1.3c0-0.5-0.4-1-0.9-1.1c0.9,0.2,3.3-1.8,3.3-1.8l-0.9-0.7
		c-0.9-0.7,1.2-0.8,1.2-0.8c-0.1-0.5-0.2-0.9-0.5-1.3c-0.5-0.8,0.9-1,0.9-1c-0.5-0.3-0.8-1-0.9-1.6c-0.1-0.8-0.2-1.6-0.1-2.4
		c0-1.1-0.1-2.3-0.2-3.4C44.1,17.8,44,16.9,44,16c0-0.8,1.2-2,1.7-4.9c0.1-0.9,0.1-1.7,0-2.6C45.2,6.7,44.1,5,42.5,4
		c-1.1-0.8-2.4-1.2-3.7-1.3c-1.4,0.1-2.8,0.6-4,1.4c-0.1,0.1-1.8,1.4-1.9,1.4c-1.1-0.7-4.7-2.2-4.7-2.2C26.3,2.8,25.2,0,25.2,0
		c-0.2,0.7-0.1,1.5,0.2,2.2C25,2.4,24,0.9,24,0.9c0,1.2-0.5,1.5-0.5,1.5c-0.1-0.4-0.1-0.7-0.3-1.1c0,0-1.2,2-3.1,2.2
		c-1.7,0.3-3.4,0.9-4.9,1.6C12.6,2.1,10,1.1,7.6,1.9c-2.9,1-4.3,3-4.8,6.1c-0.2,1.4-0.1,2.7,0.5,4c0.1,0.3,0.3,0.7,0.5,1
		C3.8,13,4,13.3,4,13.3C4.5,20.2,2.4,21,2.4,21c1.5-0.1-0.2,1.5-0.2,1.5c0.2,0,0.3,0.1,0.4,0.3c0.3,0.2,0.7,0.3,1.1,0.4
		c0.6,0.1,1.1,0,1.7,0c0.9,0.1,1.7,0.6,2.1,1.4c0.6,1.2,0.4,2.6,1,3.8c0.4,0.8,0.5,2.1,1.3,2.6c0.2,0.1,0.3,0.3,0.4,0.5l0.1,0
		c0.4,0.3,1,0.5,1.4,0.8c0.3,0.2,0.3,0.6,0.2,0.9c-0.1,0.3-0.3,0.6-0.5,0.9c0.6,1,1,2.1,1.3,3.2c0.3,0.1,0.4,0.4,0.5,0.6
		c0,0.2-0.1,0.4-0.2,0.5c0.2,1,0.3,2.1,0.4,3.2c0.1,0.1,0.3,0.1,0.4,0.2c0.5,0.3,0.7,0.8,0.6,1.4c0.1,0.1,0.2,0.3,0.2,0.5l0,0.9
		c0.4-0.1,0.8,0.2,0.8,0.7c0,0,0,0,0,0c0.1,0.5,0.6,0.9,0.8,1.2c0.3,0.3,0.6,0.8,0.7,1.2c0.3,1.1,0,2.3,0.3,3.4
		c0.6,2.4,1.5,4.7,2.7,6.8c0.3,0.7,0.7,1.4,0.9,2.1c0.1,0,0.3,0.1,0.3,0.3c0.3,0.6,0.4,1.2,0.4,1.9c0.1,0.1,0.2,0.3,0.2,0.5
		c0.1,0.9,0,1.9-0.3,2.8c0,0.3,0,0.7-0.1,1c0.3,0,0.6-0.1,0.9-0.1c0.5,0,1.1,0,1.6,0.1c0.9,0.9,2.1,1.3,3.3,1.2
		c1.7,0,3.5-0.6,4.8-1.7c1.7,0.2,3.4,0.2,5-0.1c1.6-0.2,3-0.9,4.2-1.9c1,0.3,1.5,1.3,1.3,2.3c0,1.4-0.8,2.7-2,3.4
		c-1,0.7-5.4,0.8-5.4,0.8c-2.1-0.1-4.1,0.1-6.1,0.7c-3.5,1-3.8,3.2-3.8,3.2c-0.3,3.6,2.1,4.4,4,5.2s7.5,0,7.5,0
		c2.7-0.2,5.3-0.8,7.7-1.8c4.6-2.3,7.7-6.7,8.4-11.7C53,62.6,51.7,61.1,50,58.9z"/>
	<path class="st4" d="M44.7,25.8c-0.7-1.1-1-2.5-0.7-3.8c-0.2-0.9-1.5-0.8-1.5-0.8c-0.8,0.1-0.3-0.4-0.3-0.4
		c0.3-0.2,0.5-0.6,0.6-0.9c0-0.6,0-1.2-0.1-1.8c-0.1-0.5-0.3-1.3-0.9-1.3c-0.9-0.1-0.4-0.4-0.4-0.4c0.9-0.2,1.7-0.6,2.3-1.2
		c1-1.3,1.3-4.8,1.3-4.8c-0.8-5.8-5.7-5.8-5.7-5.8c-2.1-0.6-4.4-0.1-6.1,1.2c-0.1,0.8,0,1.6,0.3,2.3c0.3,0.7-0.2,0.3-0.2,0.3
		c-1.5-1.3-5.1-3.7-5.1-3.7c-2.8-1.5-3.8,0.1-3.8,0.1C24,5.4,24,4.9,24,4.9c-0.2-1-2-1.1-4.7,0.1c-1.4,0.6-2.7,1.5-3.7,2.6
		c-0.5,0.5-0.4-0.1-0.4-0.1c0.1-0.7,0-1.5-0.3-2.2c-0.9-0.8-1.9-1.4-3-1.8C10.4,3.3,9,3.3,7.7,3.6C6.4,4.1,5.3,5,4.6,6.3
		c0,0-0.3,0.4-0.5,3.2s2.5,5.2,2.5,5.2c0.5,0.5-0.2,0.4-0.2,0.4c-0.2,0-0.5,0-0.7,0.2c-1,1.2-0.2,2-0.2,2c0.5,0.4-0.2,0.5-0.2,0.5
		c-0.5,0.2-0.9,0.4-1.2,0.8c-0.1,0.8-0.5,1.6-1,2.2c0.7,0.5-0.4,1.5-0.4,1.5C2.9,22.5,3.1,22.7,3,23c0.4,0.5,0.5,1.2,0.1,1.8
		c0,0,1.4,0.2,0.3,2.1c0,0,2.9-0.2,0.7,1.7c0.8,0.6,1.7,0.9,2.7,1.1c0,0,1.1,0,0.3,0.8c0,0-0.5,0.5-0.5,0.6c0,0,0.9,0.9,3.5,0.6
		c0,0,1.4,0.4,0.3,0.9c0,0,1.3,0.9,2.2,0.2c-0.4-1.4-1-2.8-1.7-4.1l0.9-0.6h-0.1c-0.8,0-0.2-0.3-0.2-0.3c1.2-0.6,2.6-1,4-1
		c0-0.2,0.1-0.4,0.3-0.5c-0.2-0.3-0.2-0.7,0.1-1c0.4-0.4,0.8-0.8,1.3-1.1c0.5-0.3,0.8-0.8,0.9-1.4c0-0.2,0-0.3-0.1-0.5
		c-0.7,0.6-1.7,0.8-2.5,0.4c-0.8-0.4-1.4-1.1-1.6-2c-0.2-0.6-0.8-1-1.5-1c-0.7,0.3,0,1.1,0,1.1c0.2,0.3,2.4,2.8,2.4,2.8
		c0.5,0.6-0.2,0.4-0.2,0.4c-1.6-0.4-4-2.8-4-2.8s-1.3-1.4-1.1-2.6c0.2-0.8,0.6-1.6,1.3-2.2c0.7-0.6,0.4,0.2,0.4,0.2
		c-1.3,3,0.6,2.7,0.6,2.7c-0.6-0.6-0.7-1.5-0.3-2.2c0.4-0.6,0.9-1.1,1.4-1.6c0.9-0.7,1.8-1.3,2.8-1.8c0.6-0.3,1.1-0.6,1.7-0.9
		c0.1-0.1,0.1-0.1,0.2-0.1c0.3-0.2,0.6-0.4,0.9-0.6c0.8-0.6,1.7-0.9,2.6-1.1c0.2,1.2-0.1,2.5-0.7,3.5c-0.6,0.8-1.1,1.8-1.2,2.8
		c0,1.2,0.4,2.4,1.1,3.3c0.6,1.1-0.2,1.7-0.2,1.7c-0.5,0.4-1.1,0.4-1.7,0.1c0.1,0.3,0,0.7-0.2,1c-0.4,0.6-0.9,1.1-1.5,1.4
		c-1,0.8-0.7,1.2-0.7,1.2c0.3-0.4,0.8-0.5,1.2-0.3c0.1,0.1,0.2,0.2,0.3,0.3l0.5,0.9c0.2,0.3,0.6,0.1,0.6,0.1
		c-0.2-0.4,0.1-0.9,0.5-1.1c0,0,0,0,0,0l0,0c1-0.4,2.1-0.3,3,0.3c0.9-0.5,2-0.4,2.9,0.1c0.4,0.3,0.5,0.9,0.2,1.3
		c0.2,0.1,0.4,0.1,0.6,0c0.2-0.1,0.4-0.2,0.6-0.3c0.3-0.2,0.6-0.4,0.9-0.5c0.1,0,0.3,0,0.4,0c0.5,0.2,0.9,0.7,1,1.2
		c0,0,0.3-0.3,0.3-0.6c0-0.5-0.8-1.2-1.1-1.6c-0.3-0.3-0.5-0.7-0.6-1.1c-0.1-0.5,0-1,0.2-1.5c-1.3,0.4-1.8-0.8-1.7-1.9
		c0.2-0.7,0.5-1.3,1-1.9c0.4-0.6,0.6-1.3,0.5-2.1c0-0.7-0.4-1.4-0.9-2c-0.4-0.6-0.7-1.3-0.9-2c0-0.7,0-1.5,0-2.2
		c0.3,0,0.7,0.1,1,0.2c0.9,0.5,1.8,1.1,2.5,1.9c1.2,1.1,2.5,1.9,3.7,2.9c2,1.9,2,3,2,3c0.1,0.7-0.1,1.4-0.6,1.9
		c0.3,0.1,0.7,0.1,1-0.1c0.2-0.2,0.2-0.5,0.2-0.7c-0.1-0.5-0.2-1-0.4-1.5c-0.2-1,0.4-0.3,0.4-0.3c0.5,0.6,0.8,1.2,1.1,1.9
		c0.3,0.7,0.4,1.5,0.3,2.3c-0.3,0.8-0.9,1.5-1.6,2c-1.2,0.7-2.5,1.1-3.9,1c-0.7,0-0.3-0.3-0.3-0.3c0.5-0.2,1-0.5,1.5-0.7
		c0.7-0.3,1.3-0.8,1.8-1.3c0.3-0.3,1-0.8,0.6-1.2c-0.3-0.3-0.8-0.5-1.2-0.4c-1,0.1-1.7,1.4-1.7,1.4c-0.7,1.4-2.6,0.9-2.6,0.9
		c-0.5-0.2-1-0.4-1.4-0.8c0,0.2-0.1,0.3-0.2,0.5c0,0.1-0.1,0.3-0.1,0.4c0,0.3,0,0.6,0.1,0.8c0.2,0.5,0.5,0.9,0.8,1.2
		c0.4,0.4,0.7,1,0.8,1.6c0,0,1.4,0.2,1.5,0.3c0.6,0.1,1.1,0.3,1.7,0.6c0.4,0.2,0.8,0.6,1,1c0,0,0.2,0.3,0.2,0.4
		c-0.1,0.2-0.2,0.3-0.4,0.3c0.6,0.5,1,1.2,1.1,2l-0.5,0.1c1.1,1,1,1,1,1c-0.1,0.2-0.6,0.4-0.6,0.4c0.2,0.4,0.5,0.7,0.8,1
		c1,0,2-0.1,3-0.3L38,34.3c-0.8-0.7,0.2-0.7,0.2-0.7c2.9,0,3.8-1.1,3.8-1.1c-0.1-0.3-0.3-0.5-0.6-0.6c-0.8-0.6,0.1-0.8,0.1-0.8
		c1-0.2,1.9-0.7,2.7-1.4c-1.9-1-0.4-1.7-0.4-1.7c0.3-0.1,0.6-0.1,0.9-0.1C43.4,26.1,44.7,25.8,44.7,25.8z M3.9,22.8
		c-0.4-1.3,0-2.8,0.9-3.7c0.7-0.8,0.6-0.2,0.6-0.2c-0.6,1.3-0.5,2.8,0.2,4.1C5.1,22.7,4.5,22.7,3.9,22.8L3.9,22.8z"/>
	<path class="st5" d="M27.9,52.5l0.2-0.2c0,0.4,0.2,0.8,0.5,1.1c-0.6,0.5-0.9,1.2-1,1.9c0,0,0,2.1,2.4,1.1c0,0,1.3,2.2,3.2,1
		c0.7-0.6,0.8-1.7,0.2-2.4l0.5-0.4c0.3,0.3,0.6,0.5,0.9,0.6c0,0.8-0.1,1.7-0.2,2.5c-0.2,0.8-0.5,1.6-0.9,2.3
		c-0.3,0.8-0.8,1.5-1.4,2.1c-0.7,0.9-1.6,1.7-2.6,2.4c-0.9,0.6-2.1,0.7-3.1,0.3c-0.9-0.6-1.4-1.7-1.3-2.8c0-0.9,0.1-1.7,0.3-2.5
		c0.2-1,0.5-2,0.9-3C27.1,55.6,28.1,53.6,27.9,52.5z"/>
	<path class="st4" d="M21.6,10.1c0,0-10.1,5.5-10.1,7c0,0-1.2,2.4,1.3,3c0,0,2.8,3.7,3.8,3.6c0.6-0.4,1.1-0.8,1.6-1.4l0.4,0.1
		c0,0,1.7,1.6,2.2,0.7S22.7,10.6,21.6,10.1z"/>
	<path class="st6" d="M28.2,56.6c0.6,0.3,1.3,0.2,1.9-0.2c0.3,0.6,0.9,1.1,1.6,1.3c0,0.5-0.1,1.1-0.2,1.6c-0.2,1-0.7,1.8-1.4,2.6
		c-0.5,0.7-1.3,1.1-2.1,1.4c0,0-1.7,0.1-1.3-2.6C26.9,59.2,27.4,57.8,28.2,56.6z"/>
	<path class="st7" d="M28.8,53.7c0.6,0.5,1.5,0.4,2-0.2c0,0,0,0,0-0.1c0-0.1,0.1-0.1,0.1-0.2c-0.1,0.2,0.2,0.9,0.3,1
		c0.4,0.7,1.2,1,2,0.8c0.4,0.5,0.5,1.2,0.2,1.8c-0.4,0.6-1.1,0.8-1.8,0.6c-0.6-0.3-1.2-0.8-1.5-1.4c-0.3,0.2-0.6,0.3-1,0.4
		c-0.5,0.2-1-0.1-1.2-0.6c0,0,0-0.1,0-0.1c-0.1-0.5,0-1,0.3-1.3C28.5,54.1,28.7,53.9,28.8,53.7z"/>
	<path class="st4" d="M45.4,55.7c0.2,0.1,0.5,0.1,0.7,0.2c0,0,0.5,4.5-2.8,7.1c0,0-0.2,0.1,0,0.3s0.5-0.1,0.5-0.1
		c2.2-1.1,4-2.9,5-5.2c0.7,0.8,1.4,1.7,2,2.6c-1.4,2.3-3.8,3.8-6.4,4.3c0,0-0.4,0-0.4,0.2c0,0,0,0.2,0.5,0.2s4.7,1.1,7.5-2.2
		c0.3,1.2,0.4,2.4,0.3,3.6c-2.5,1-5.2,1-7.7,0.1c0,0-0.3-0.1-0.4,0.1s0,0.3,0.2,0.5s2.1,2.5,6.9,2.7c-0.4,0.9-0.9,1.8-1.5,2.5
		c0,0-3.8-1.3-5.5-2.8c0,0-0.3-0.4-0.4-0.3s0,0.5,0,0.5c0.8,2.1,2.2,3.8,3.9,5.2c-0.6,0.6-1.3,1.2-2,1.6c-0.1,0.1-0.8-0.4-0.8-0.5
		c-0.8-0.7-1.4-1.5-1.8-2.5c-0.2-0.4-0.3-0.7-0.4-1.1s-0.3-1.7-0.7-1.6c-0.2,0-0.2,0.9-0.2,1v0.9c0.1,1,0.2,1.9,0.5,2.9
		c0.1,0.2,0.7,2.2,0.8,2.1c-0.8,0.4-1.7,0.6-2.5,0.7c0,0-2.7-1.7-3-6.5c0,0,0.1-0.6-0.2-0.5s-0.3,0.6-0.3,0.6
		c-0.6,2.3-0.5,4.7,0.2,7c-0.6,0.1-1.1,0.2-1.7,0.2c0,0-4.5-2.1-1.7-8.5c1.4,0,2.8,0,4.3-0.1c1.2-0.2,3-0.3,4-2
		c0.7-1.1,0.9-2.5,0.5-3.7c-0.2-0.4-0.6-0.8-1.1-1c1.5-1.3,2.5-2.9,3.2-4.8C45,58,45.2,56.9,45.4,55.7z"/>
	<path class="st4" d="M37.9,48.4c0.8,0.5,1.7,0.6,2.6,0.4c0.5-0.1,1-0.2,1.5-0.4l1.8,2.3c-1.2-1-2.9-1.3-4.3-0.6
		c0,0-0.2,0.2,0.2,0.3c0.6,0.1,1.2,0.3,1.8,0.6c1.1,0.4,2.2,1.1,3,2c0.4,0.6,0.6,1.4,0.6,2.1c0,0.3-0.1,1.9-0.2,2.1
		c-0.9-1.8-2.5-3.2-4.4-4c0,0-0.5-0.3-0.6-0.1s0.3,0.5,0.3,0.5s3.6,4.2,3.4,7.2c-0.4,0.6-0.8,1.2-1.2,1.8c0,0-1.2-3.7-3.3-4.8
		c0,0-0.2-0.2-0.4-0.1s0.1,0.5,0.1,0.5s2,3.5,1,6.7c-0.4,0.2-0.9,0.4-1.3,0.5c0.2-1.7-0.3-3.3-1.4-4.6c0,0,0.9,4.3-1.8,5.2
		c-1,0.1-1.9,0-2.8-0.1c3.1-3.2,5.4-7.2,6.5-11.5c0.3-1.4,0.3-2.9-0.1-4.3C38.6,49.5,38.3,48.9,37.9,48.4z"/>
	<path class="st4" d="M26.8,47.5c0.5,0.5,1.2,0.8,1.9,0.8l0.1,0.3c-0.6,1-0.9,2.2-0.8,3.4c0,0-1.4,1.5-2.2-0.9
		C25.4,49.8,25.7,48.3,26.8,47.5z"/>
	<path class="st8" d="M28.1,51.9c0-0.2,0-0.3,0-0.5V51c0,0-2.5,0.9-2-2.6c-0.6,1.1-0.5,2.4,0.3,3.4c0.3,0.5,0.9,0.7,1.5,0.4
		C27.9,52.2,28,52.1,28.1,51.9z"/>
	<path class="st4" d="M29,48.9c0.5,0.5,1.1,0.8,1.8,0.8l0.3,0.3c-0.2,0.9-0.3,1.9-0.3,2.9c-0.2,0.6-0.9,0.9-1.4,0.7
		c-0.3-0.1-0.5-0.3-0.6-0.5c-0.5-0.8-0.6-1.7-0.3-2.5C28.9,49,29,48.9,29,48.9z"/>
	<path class="st8" d="M28.7,49.8c0,0-0.8,2,0.1,3.3c0,0,1,1.5,2-0.2v-1C30.8,51.9,28.8,54,28.7,49.8z"/>
	<path class="st4" d="M31.5,50.3c0.6,0.6,1.5,0.6,2.1,0l0.3,0.3c-0.4,0.7-0.6,1.6-0.6,2.4c0.2,1.1,0.5,1.3,0.5,1.3s-1.4,1.1-2.3-0.2
		C31.5,54.1,30.9,53.4,31.5,50.3z"/>
	<path class="st8" d="M33.8,54.4c0,0-0.3-0.2-0.5-1.2c0,0-2.1,1.7-2.1-1.5c0,0-0.5,2.6,0.9,3C32.7,54.8,33.3,54.7,33.8,54.4z"/>
	<path class="st4" d="M34.2,50.8c0.8,0.4,1.8,0.4,2.6-0.1c0.7-0.5,1-1.4,0.7-2.2c0.9,1,1.4,2.3,1.3,3.6c-0.1,2.3-0.2,3.1-0.8,4.4
		s-1.6,3.5-2.2,4.4c-0.8,1.3-1.7,2.6-2.7,3.8c-0.8,0.8-1.7,1.5-2.7,2.1c-1.7,0.7-4.3,1.2-5.9-0.1c-0.8-0.7-1.3-1.7-1.4-2.8
		c-0.1-1.3,0-2.6,0.4-3.8c0.4-1.6,1.5-3,1.9-4.6c0.3-1.1,0.5-2.2,0.7-3.3c0.4,0.4,0.9,0.6,1.5,0.5c-0.1,0.7-0.3,1.4-0.5,2.1
		c-0.3,1.1-1,1.9-1.3,3c-0.4,1.4-0.7,2.9-0.7,4.4c0,0.9,0.3,1.8,0.9,2.5c0.6,0.7,1.6,1,2.5,0.9c1.5-0.3,3.7-1.8,5.2-4.3
		s1.4-2.8,1.5-4c0.1-0.6,0.1-1.3,0.1-1.9c0,0,1.9-0.3,2-1.9c0,0,0.1-0.3-0.1-0.3s-0.2,0.4-0.3,0.5c-0.1,0.2-0.2,0.4-0.4,0.6
		c-0.4,0.7-1.3,0.9-2,0.5c-0.1-0.1-0.2-0.1-0.3-0.2c0,0-0.8-0.6-0.5-2.3C33.7,51.5,33.9,51.1,34.2,50.8z"/>
	<path class="st8" d="M37.2,50.3c0.4-0.5,0.5-1.2,0.3-1.8c1.1,1.1,1.5,2.6,1.2,4.1C38.8,52.6,38.3,50.3,37.2,50.3z"/>
	<path class="st8" d="M37,53.1c0,0-0.3,1.9-1.9,1.6s-1.5-2.5-1.2-3.2C33.8,51.5,34.6,55.9,37,53.1z"/>
	<path class="st4" d="M42.2,41.5c-0.6-1.4-1.7-2.6-3.1-3.3c-0.8-0.4-1.5-1-1.8-1.9C37.1,36,37,35.5,37,35.1
		c-0.6,0.1-2.8,0.1-2.8,0.1c0,0.5,0.2,0.9,0.6,1.2c0.1,0.1,0.2,0.2,0.3,0.4c0.3,0.5,0.1,1.1-0.3,1.4l0,0C35.2,38,35.6,38,36,38
		c0.9,0,1.8,0.3,2.5,0.9c0.8,0.6,1.5,1.4,1.9,2.3c0.6,1.1,0.6,2.4,0,3.5c-0.2,0.8-0.5,0.1-0.5,0.1c-0.2-0.6-0.5-1.2-0.6-1.9
		c-0.3-1-0.8-1.9-1.6-2.7c-0.8-0.7-1.8-1.3-2.8-1.7c-0.9-0.4-3.2,0-3.2,0l1,0.1c0.7,0.1,1.4,0.3,2.1,0.7c0.9,0.5,1.7,1.2,2.3,2.1
		c0.6,1.1,0.7,2.3,0.5,3.5c-0.2,0.8-0.5,0.2-0.5,0.2c-0.3-1.7-1.3-3.1-2.8-3.8c-0.9-0.5-1.8-1-2.8-1.3c-0.5-0.1-1-0.2-1.5-0.3
		c-0.2-0.1-0.5-0.1-0.8-0.1c-0.4,0.2-0.7,0.4-1,0.7c4.9,0.5,5.4,4.6,5.4,4.6c0.1,0.9-0.4,0.5-0.4,0.5c-3.7-4-6.5-3.2-6.5-3.2
		c-0.5,1.3-0.5,2.7-0.1,3.9c0.2,0.9,1,1.6,2,1.6c-0.2-0.8-0.2-1.7,0.1-2.5c0,0,0.1-0.5,0.4-0.4s0,0.5,0,0.5c-0.3,0.6-0.4,1.3-0.3,2
		c0.4,2,1.7,2,1.7,2c-0.2-0.7-0.2-1.5,0.1-2.2c0,0,0.2-0.5,0.4-0.3s0,0.4,0,0.4c-0.3,0.7-0.3,1.4,0,2.1c0.4,0.8,1.4,1.2,2.2,0.8
		c0,0,0.1,0,0.1,0c-0.7-0.6-0.9-1.6-0.6-2.4c0,0,0.2-0.4,0.4-0.2s0,0.4,0,0.4c-0.8,1.6,1.3,2.7,1.3,2.7c0.7,0.2,1.5,0.2,2.2-0.1
		c0.7-0.3,0.6-1.2,0.6-1.2c-0.1-0.4-0.1-0.8-0.1-1.2c0.1-0.6,0.5-1.2,0.9-1.6c0,0,0.2-0.3,0.4-0.2s-0.1,0.4-0.1,0.4
		c-0.5,0.3-0.8,1.6-0.8,1.6c2.3,1,2.8,0.5,2.8,0.5c0.7-0.8,1.4-1.8,1.9-2.8C43.1,44,42.2,41.5,42.2,41.5z"/>
	<path class="st4" d="M3.4,41.8c0.7-1.4,1.8-2.5,3.2-3.2c0.8-0.3,1.5-1,1.9-1.8c0.2-0.4,0.3-0.8,0.3-1.2c0.6,0.1,2.8,0.1,2.8,0.1
		c0,0.5-0.2,0.9-0.6,1.1c-0.1,0.1-0.2,0.2-0.3,0.4c-0.3,0.5-0.2,1.1,0.3,1.4l0,0c-0.4-0.1-0.9-0.1-1.3-0.1c-0.9,0-1.8,0.3-2.5,0.8
		c-0.9,0.6-1.5,1.4-2,2.3c-0.6,1.1-0.6,2.4,0,3.5c0.2,0.9,0.5,0.1,0.5,0.1c0.3-0.6,0.5-1.2,0.7-1.9c0.3-1,0.9-1.9,1.7-2.7
		c0.8-0.7,1.8-1.3,2.8-1.7c0.9-0.4,3.2,0.1,3.2,0.1l-1,0.1c-0.7,0.1-1.4,0.3-2.1,0.6c-1,0.5-1.8,1.2-2.3,2.1C8,43,7.8,44.2,8,45.4
		c0.2,0.8,0.5,0.2,0.5,0.2c0.3-1.7,1.4-3.1,2.9-3.8c0.9-0.5,1.8-0.9,2.8-1.2c0.5-0.1,1-0.2,1.5-0.3c0.2,0,0.6-0.1,0.8-0.1
		c0.4,0.2,0.7,0.5,1,0.7c-4.9,0.4-5.5,4.5-5.5,4.5c-0.1,0.9,0.4,0.5,0.4,0.5c3.8-3.9,6.6-3.1,6.6-3.1c0.5,1.3,0.4,2.2,0,3.9
		c-0.2,1-1.1,1.6-2.1,1.6c0.2-0.8,0.2-1.7-0.1-2.5c0,0-0.1-0.5-0.4-0.4s0,0.5,0,0.5c0.2,0.6,0.3,1.3,0.2,2c-0.5,2-1.8,1.9-1.8,1.9
		c0.3-0.7,0.3-1.5,0-2.2c0,0-0.2-0.5-0.4-0.3s0,0.4,0,0.4c0.3,0.7,0.3,1.5,0,2.1c-0.4,0.8-1.4,1.2-2.2,0.8c0,0-0.1,0-0.1-0.1
		c0.7-0.6,1-1.6,0.6-2.4c0,0-0.2-0.4-0.4-0.2s0,0.4,0,0.4c0.7,1.7-1.3,2.6-1.3,2.6c-0.7,0.2-1.5,0.1-2.2-0.2
		c-0.7-0.3-0.6-1.3-0.6-1.3c0.4-1,0.1-2.2-0.7-2.9c0,0-0.2-0.3-0.4-0.2s0,0.4,0,0.4c0.4,0.5,0.7,1.1,0.8,1.7
		c-2.4,0.9-2.9,0.5-2.9,0.5C4.4,47.9,3.8,47,3.3,46C2.5,44.3,3.4,41.8,3.4,41.8z"/>
	<path class="st8" d="M33.1,47.8c-0.3,0.7-0.2,1.5,0.3,2c0.5,0.7,1.3,1,2.1,1c0,0,2-0.3,1.6-1.7C37.3,49,35.1,51.3,33.1,47.8z"/>
	<path class="st8" d="M33.4,50.1c-0.2-0.2-0.4-0.4-0.5-0.6c0,0-2.2,0.5-1.8-2.1c-0.5,0.9-0.2,2,0.5,2.6
		C32.1,50.4,32.8,50.5,33.4,50.1z"/>
	<path class="st8" d="M30.6,49.3c0,0-2.3-0.1-1.6-3.5c0,0,0.7,2.9,1.5,2.4C30.4,48.6,30.4,48.9,30.6,49.3z"/>
	<path class="st8" d="M28.6,47.8c0,0-2.7,0.4-2.3-4c0,0,0.8,3.8,2.2,2.8C28.4,47,28.5,47.4,28.6,47.8z"/>
	<path class="st3" d="M11.1,28.7c0,0-0.7,0.5-0.7,0.7c0,0,1.5,0.1,0.9,0.2c-0.2,0.3-0.6,0.6-0.9,0.8c0,0,0.7,0.3,0.6,0.4
		c-0.4,0.4-0.7,0.8-1,1.3c-0.1,0.3,2.8-0.2,2.8-0.2L11.1,28.7z"/>
	<path class="st8" d="M14.9,5.5c0,0-2.7-3.9-6.2-3.4C6.6,2.3,4.8,3.6,3.9,5.6c-0.8,1.7-1,3.7-0.5,5.6c0.8,3.2,2.8,3.2,3,3.4
		c0,0-3.6-3.9-1.6-7.9c0,0,1.2-2.7,3.5-3C10.7,3.2,13.1,3.8,14.9,5.5z"/>
	<path class="st8" d="M33.2,5.9c1-0.9,3-2.5,4.8-2.7c1.6-0.2,3.3,0.3,4.5,1.4c2.2,1.5,3.3,4.1,2.8,6.7c-0.7,3.3-1.7,4-1.7,4
		s1.8-4,0.6-6.9c-0.8-1.8-2.4-3.1-4.3-3.5C40,4.9,35.7,4.3,33.2,5.9z"/>
	<path class="st8" d="M19.4,26c0,0-0.7-0.4,0.3-0.8c0.8-0.4,1.5-1,2-1.7c0.5-0.5,1.3-0.5,1.8,0c0.1,0.1,0.1,0.1,0.2,0.2
		c0.5,0.9,0.5,1.1,0.7,1.4c0.3,0.4,0.7,0.7,1.2,1c0.7,0.4,0,0.8,0,0.8s-1-1.4-3.2-0.5C21.4,25.8,20.4,25.7,19.4,26z"/>
	<path class="st6" d="M23.4,26.7c0,0-0.9,0.6-1.4,0.2c-0.3-0.3-0.7-0.5-1.2-0.5c-0.2,0-0.2,0.2-0.2,0.4c0.1,0.2,0.2,0.4,0.4,0.5
		c0.3,0.3,0.8,0.4,1.2,0.4c0.2,0,0.5-0.1,0.7-0.3C23.1,27.2,23.3,27,23.4,26.7z"/>
	<path class="st5" d="M34.1,33.6c0.2,0,0.5-0.1,0.7-0.2c-0.5-0.3-0.8-0.8-1.1-1.3c0.2,0,0.4,0,0.6-0.1c-0.2-0.8-0.7-1.5-1.4-1.9
		c0.3,0,0.6-0.1,0.8-0.3c0,0-0.6-1.4-4.2-1.7c0,0-0.3,0.4-0.4,0.6c0,1-0.3,1.9-0.9,2.6c-0.9,0.8-2.1,1.2-3.3,1.2
		c-1.1-0.1-2.1-0.6-2.8-1.4c-0.9,0.7-2,1-3.1,0.8c-1.7-0.3-3-1.6-3.4-3.2c0-0.5,0-1,0.1-1.5c-1.2,0-2.4,0.3-3.6,0.8
		c0.2,0,0.4,0.1,0.5,0.2c-0.6,0.3-1.1,0.7-1.6,1.1c0,0,0.6,0,0.7,0.2c-0.2,0.4-0.6,0.7-1,0.9c0.2,0,0.4,0.1,0.5,0.3
		c-0.3,0.3-0.6,0.6-0.8,1c0.5,0.2,0.9,0.5,1.3,0.8c0.2,0.2,0.3,0.4,0.2,0.7c0.6,0.3,1.1,0.6,1.7,0.8c1.1,0.4,2.2,0.6,3.4,0.5
		c0.3,0,0.7,0,1,0.2c0.6,0.3,1.3,0.6,2,0.8c0.7,0.2,1.4,0.3,2.1,0.2c0.7-0.1,1.5-0.2,2.2-0.5c0.5-0.2,1-0.3,1.6-0.4
		c0.3,0,0.5,0.1,0.8,0.2c1,0.2,2,0.2,3,0.2l1.9-0.1l3.2-0.3C34.5,34.4,34.3,34,34.1,33.6z"/>
	<path class="st6" d="M24.9,32.6L24.9,32.6c-1.2-0.1-2.2-0.6-2.9-1.4c-0.9,0.7-2,1-3.1,0.8l-0.4-0.1c-0.2,0.2-0.8,1.7,0.9,3.3
		c0.2,0.1,0.5,0.2,0.7,0.2c0.7,0.2,1.4,0.3,2.1,0.2c0.6-0.1,1.2-0.2,1.8-0.4C24.6,34.6,25,33.6,24.9,32.6z"/>
	<path class="st5" d="M29.5,35.5c-0.7,0.1-1.3,0-2-0.1c-0.6-0.2-1.2-0.3-1.8-0.3c-0.6,0.1-1.6,0.4-2.2,0.6c-1.3,0.3-2.6,0.3-3.8-0.1
		c0,0-0.9-0.4-1.9-0.8c-0.8-0.2-1.6-0.1-2.2,0.5c1.7-0.1,1.2,0.9,1.2,0.9c0.5,0,0.9,0.2,1.2,0.5c0.3,0.4,0.4,0.9,0.3,1.4
		c0.8-0.1,1.5,0.5,1.6,1.4c0.5-0.1,1,0,1.5,0.3c0.5,0.4,0.8,0.9,0.9,1.5c0.2-0.2,0.6-0.3,0.9-0.1c-0.1-0.2-0.1-0.5,0-0.7
		c0.3-0.8,1.5-0.9,2.1-0.8c0.1,0,1,0.1,1,0.2c0-0.2,0.1-0.5,0.2-0.7c0.2-0.4,0.4-0.7,0.7-1c0.2-0.1,0.3-0.2,0.5-0.2
		c0.1,0,0.3,0,0.4,0.1c0.2-1.1,1.2-1.9,2.4-1.8C29.9,35.4,29.5,35.5,29.5,35.5z"/>
	<path class="st6" d="M15.6,42.8l-0.1-0.1c-0.3-0.1-0.6,0-0.8,0.3c0,0,0,0.1-0.1,0.1h0.1c0.3,0,0.7-0.1,1-0.2
		C15.6,42.9,15.6,42.9,15.6,42.8z"/>
	<path class="st6" d="M17.9,43.3L17.9,43.3c-0.5,0.6-1.2,1-2,1.2c-0.3,0.1-0.7,0.2-1,0.2c0.3,0.1,0.6,0.3,0.6,0.6
		c0.1,0.4,0.5,0.8,0.8,1.2c-0.1-0.2-0.1-0.3-0.2-0.4c-0.5-0.9,0.8-1.7,1.2-0.8c0.3,0.7,0.6,1.5,0.7,2.3h0.1c0-0.2-0.1-0.4-0.1-0.6
		c0-0.9,0-1.7,0.1-2.6C18.1,44,18,43.6,17.9,43.3z"/>
	<path class="st6" d="M18.5,50.2c0,0.1-0.1,0.1-0.1,0.2c0,0.6,0.1,1.2,0.1,1.7c0-0.1,0.1-0.3,0.1-0.5c0.2-0.6,0.2-1.3,0.1-1.9
		C18.6,49.9,18.5,50.1,18.5,50.2z"/>
	<path class="st6" d="M19.5,56.7l-0.2,0.1l0.4,0.8C19.6,57.3,19.6,57,19.5,56.7z"/>
	<path class="st6" d="M34.8,36.8c0-0.1-0.1-0.1-0.2-0.2c0,0-1-0.6-0.8-1.4c0,0-1.8,1.2-1.9,2c-0.3-0.6-0.3-1.2,0-1.8
		c0,0-1.2,0.1-1.8,0.1c0.3,0.2,0.5,0.5,0.5,0.9c-1.2-0.2-2.3,0.6-2.5,1.8c0,0.1,0,0.2,0,0.2c0-0.1-0.4-0.2-0.4-0.2
		c-0.2,0-0.4,0-0.6,0.2c-0.3,0.2-0.5,0.5-0.6,0.9c-0.1,0.3-0.2,0.7-0.3,1c-0.8-0.4-1.7-0.4-2.6-0.1c-0.3,0.1-0.5,0.3-0.5,0.6
		c0,0.1,0.1,0.6,0.1,0.8c0,0-1.2-0.5-1.3,0.3c0,0-0.3-2.7-2.5-2c0,0,0.3-1.4-1.6-1.5c0,0,0.6-1.9-1.6-1.8c0,0,1.2-1.2-1.1-0.9
		c0.1-0.3,0.3-0.6,0.6-0.7c-0.4-0.1-0.8-0.1-1.1-0.3c0,0.6,0.1,1.2,0.3,1.8c-0.8-0.4-1.6-1-2.3-1.6c-0.3-0.3-0.5-0.7-0.6-1.1
		l-0.2-0.1c-0.1,0.3-0.3,0.5-0.5,0.8c0.6,1,1,2.1,1.3,3.2c0.3,0.1,0.5,0.4,0.5,0.6v0.1c1.5,0.3,3,1,4.1,2.1c0.1,0.1,0.2,0.2,0.2,0.3
		c0.2,0.2,0.4,0.3,0.6,0.5c0.7,0.5,1.1,1.2,1.3,2c0.1,0.8,0.1,1.6,0,2.4c-0.1,1.9,0.9,3.5,0.8,5.4c0,0.4-0.1,0.9-0.2,1.3
		c0.2,0.1,0.3,0.2,0.4,0.4c0.3,1,0.5,2.1,0.5,3.2c0.3,1.3,0.8,2.6,1.3,3.8c0.3,1,0.5,2,0.7,3.1v-0.4c0.1-1.3,0.4-2.5,0.9-3.6
		c0.3-0.6,0.5-1.1,0.8-1.7c0.3-0.6,0.5-1.1,0.7-1.7c0.1-0.4,0.2-0.9,0.3-1.3c0.2-0.7,0.3-1.4,0.4-2.1c-0.4-0.7-0.5-1.4-0.5-2.1
		c0-0.7,0.2-1.4,0.7-2c0.2-0.2,0.3-0.4,0.5-0.5C26,46.3,25.8,45,26,43.8c0.2-1.2,0.8-2.4,1.8-3.2c0.9-0.9,2-1.5,3.3-1.9
		c1.1-0.3,2.2-0.4,3.3-0.4C34.3,38.3,35.2,37.5,34.8,36.8z"/>
	<path class="st6" d="M23,65c0,0.4,0,0.8,0.1,1.1c0.2,0,0.4,0.1,0.6,0.2C23.4,65.9,23.1,65.5,23,65z"/>
	<path class="st3" d="M22.9,43.8c-0.5,1.3-1.8,2.2-3.2,2.3c0,0,2,0.6,2.2,3.8c0,1.6,0.4,3.1,1,4.5c0.5-1.5,0.8-3,0.9-4.6
		c0-1.3,0.7-2.5,1.7-3.3C24,46.4,22.9,45.2,22.9,43.8z"/>
	<path class="st5" d="M22.8,44.6c-0.4,0.9-1.2,1.5-2.2,1.6c0,0,1.4,0.7,1.6,3.6c0,1.3,0.2,2.6,0.7,3.8c0,0,0.4-2,0.5-2.7
		c0-1.2,0.2-2.3,0.7-3.4c0.2-0.3,0.5-0.6,0.7-0.8C23.8,46.5,22.9,45.6,22.8,44.6z"/>
	<path class="st3" d="M8.4,14c0.5-0.3,1-0.6,1.5-1c0.9-0.6,1.6-1.4,2.2-2.3c1-1.9,0.2-5.2-2.1-5.7c-1.9-0.4-4,0-4.5,2.1
		c-0.3,1.7,0.2,3.5,1.3,4.8C7.4,12.5,7.9,13.2,8.4,14z"/>
	<path class="st5" d="M12.1,9.6c0-0.1,0-0.3,0-0.4c0-0.3,0-0.7,0-1c-0.1-0.9-0.5-1.8-1.2-2.4C9.7,5.1,8.2,5.1,7,5.7
		c-1.7,1-1.5,3.6-0.4,5.1l1.9,2.6c0,0-3.7-6.6-0.7-7S12.1,9.6,12.1,9.6z"/>
	<path class="st6" d="M8.5,13.4c-0.8-1.3-1.4-2.7-1.8-4.2C6.5,7.4,6.8,7,7.4,6.6c0,0,2.8,1.9,2.7,3.3S8.5,13.4,8.5,13.4z"/>
	<path class="st9" d="M18,31.2l0.5,0.1l7.2-0.3c-0.1,0,0,0.6,0,0.7c0.1,1-0.3,2-1.1,2.7c-0.8,0.5-1.8,0.8-2.7,0.8
		c-0.5,0-1.1-0.1-1.6-0.3c-0.6-0.2-1.2-0.5-1.6-1c-0.3-0.4-0.6-0.9-0.7-1.4C18,32.3,17.8,31.2,18,31.2z"/>
	<path class="st10" d="M23,30.8c0,0-0.1,0-0.2,0c-0.1,0.1-0.2,0.1-0.3,0.1h-0.1c-0.1,0.2-0.3,0.3-0.5,0.3c-0.3,0-0.6-0.2-0.6-0.5
		h-0.2c-0.1,0-0.3,0-0.4-0.1c-0.6,0.5-1.4,0.7-2.2,0.7c-0.2,0.4-0.2,0.8-0.1,1.2c0,0,2.4-1.1,3.3,0.4c0.8-0.8,2.2-0.9,3.1,0
		c0.1,0.1,0.2,0.2,0.2,0.3c0.2-0.4,0.4-0.9,0.4-1.3C24.6,31.7,23.7,31.4,23,30.8z"/>
	<path class="st11" d="M18.6,32.9c0,0,2-1.1,3.1,0.4c0,0,1.7-1.6,3.1,0.1c-0.7,1-2,1.5-3.2,1.4C19.2,34.5,18.6,32.9,18.6,32.9z"/>
	<path class="st10" d="M8.5,13.4c0,0,3.3-2,3.5-3.8c0,0-1.1-4-4.7-3c0,0,2.4,1.9,2.7,3S8.5,13.4,8.5,13.4z"/>
	<path class="st3" d="M40.9,14.6c0,0-4.6-0.3-4.9-3.4s1.6-4.4,2.6-4.6c1.7-0.3,3.3,0.6,4,2.1c0.4,1.3,0.2,2.7-0.7,3.7
		C41.4,13.2,41.1,13.9,40.9,14.6z"/>
	<path class="st5" d="M40.6,14.3c0,0,1.7-5.6-0.6-6.2s-3.7,1.7-3.7,1.7s1.2-3.4,3.9-2.6c0,0,2.5,1.1,2,3.3
		C42,12,41.4,12.5,40.6,14.3z"/>
	<path class="st6" d="M40.6,14.3c0,0-5.2-2.6-1.2-6.4c0,0,2-0.2,1.9,2.6C41.3,11.9,41.1,13.1,40.6,14.3z"/>
	<path class="st10" d="M40.6,14.3c-1.2-0.8-2.7-2.1-2.6-3.4c0.1-1.2,0.7-2.2,1.5-3c-0.3,0-0.6,0-1,0.1c-0.7,0.2-1.4,0.6-1.8,1.1
		c-0.9,0.9-0.5,2.7,0.2,3.6c0.3,0.3,0.6,0.6,1,0.8c0.3,0.2,0.6,0.4,1,0.5c0.4,0.2,0.9,0.3,1.4,0.3C40.4,14.3,40.5,14.3,40.6,14.3z"
		/>
	<path class="st10" d="M14.4,9.7c0,0,0.8-0.7,1.2-1c1-0.8,2.1-1.3,3.3-1.5c1.7-0.3,4.1,0.2,5.2-1.6c0.6,1.1,1.7,1.8,2.9,2
		c0,0,3.8,0.6,6,3c-1.6-0.8-3.3-1.3-5-1.8c-1.9-0.4-3.8,0-4.4,2.1c-0.1-1.1-0.5-2.6-1.5-3c-1.3-0.2-2.6-0.1-3.9,0.3
		C16.8,8.5,15.5,9,14.4,9.7z"/>
	<path class="st12" d="M31.5,26.2c0,0,5.2,1.9,6.4-1.5s-1.2-9.5-1.2-9.5s5.3,5.8,2.7,11C37.4,30.1,31.5,26.2,31.5,26.2z"/>
	<path class="st10" d="M33.7,27c0,0,3.6,1,4.7-2.3c1-2.9-0.8-7.6-0.8-7.6s3.3,4.9,1.5,8.7C37.6,28.8,33.7,27,33.7,27z"/>
	<path class="st12" d="M40.6,20.7c0,0,2.5,5.7-1.3,7.9c-1.4,0.8-3,1.2-4.7,1.1c0,0,5.8,3.1,8-2.1S40.6,20.7,40.6,20.7z"/>
	<path class="st10" d="M41.1,21.3c0,0,2.1,5.2-1.2,7.3c-1.2,0.8-2.5,1.3-3.9,1.5c0,0,4.5,1.8,6.3-2.6S41.1,21.3,41.1,21.3z"/>
	<path class="st12" d="M10.3,14c0,0-5.5,3.2-3.6,7.8c1.8,4.5,6.7,3.2,6.7,3.2s-3.4-1.5-4.1-3.2c-0.5-1.4-0.6-2.9-0.2-4.4
		C9.4,16.3,9.8,15.1,10.3,14z"/>
	<path class="st10" d="M9.6,14.8c0,0-4.1,2.9-2.7,6.8s5.6,3.3,5.6,3.3c-0.1,0-0.3-0.1-0.4-0.1c-1.5-0.5-2.7-1.6-3.3-3
		c-0.4-1.3-0.5-2.6-0.2-3.9c0.1-0.8,0.3-1.5,0.6-2.3C9.4,15.4,9.5,14.9,9.6,14.8z"/>
	<path class="st10" d="M32,25.4c1.5-0.4,2.7-1.4,3.5-2.7c0,0,0.4-0.6-1-1.1c0,0,1.9,0.3,1.5-1.5l-0.2-0.9c0,0,1.6,2.5,0.7,4
		C35.2,25.3,32,25.4,32,25.4z"/>
	<path class="st10" d="M44,21.3c-0.2-1.8-0.3-3.6-0.4-5.5c-0.4,0.4-0.9,0.7-1.5,0.8c0.2,0,0.5,0.3,0.5,0.4c0.4,0.7,0.5,1.4,0.5,2.1
		c0,0.3,0,0.6,0,0.9c-0.1,0.2-0.3,0.8-0.5,0.9C43.2,20.8,43.7,20.9,44,21.3z"/>
	<path class="st10" d="M10.9,17.1c0,0-2.1,2.1,0.5,4.4c0.9,0.8,1.9,1.6,3,2.3c0,0-3.5-3.2-2.6-3.8C11.8,19.9,9.8,19.9,10.9,17.1z"/>
	<path class="st10" d="M4.4,13.8c0.1,1.5,0.1,3-0.1,4.4c0.3-0.2,0.6-0.4,0.9-0.5c-0.3-0.5-0.4-1.1-0.2-1.7c0.3-0.7,0.8-1.1,1.4-1
		C5.5,14.8,4.8,14.4,4.4,13.8z"/>
	<path class="st10" d="M14.1,34.4c-0.6-0.2-1.2-0.4-1.7-0.7c0.1,0.8,1.8,2,1.8,2C14.1,35.3,14.1,34.8,14.1,34.4z"/>
	<path class="st10" d="M33.4,35.3l-1,0.1c-0.2,0.3-0.2,0.7-0.2,1C32.5,35.9,32.9,35.6,33.4,35.3z"/>
	<path class="st10" d="M44,42.6c-0.3-1.4-1-2.7-1.9-3.8c-0.4-0.5-0.9-0.9-1.4-1.2c-0.8-0.5-1.7-0.8-2.4-1.3c-0.2,0-0.4,0-0.6,0
		c0.6,0.8,1.3,1.5,2.3,1.8c1.6,0.9,2.7,2.4,3,4.2c0.2,1,0.2,2.1-0.1,3.1c-0.3,0.8-0.6,1.5-1.2,2.1c-0.1,0.2-0.5,0.8-0.8,0.9
		c0.6-0.2,1.1-0.4,1.7-0.7C44.2,46.8,44.2,44.3,44,42.6z"/>
	<path class="st10" d="M38.2,36.3c-0.1-0.1-0.2-0.1-0.2-0.2c-0.1-0.1-0.6-0.4-0.6-0.6c0,0.3,0.1,0.5,0.2,0.8L38.2,36.3z"/>
	<path class="st10" d="M39.6,40.6c-1-1.6-2.8-2.5-4.7-2.3c4.6,1.2,5.1,6.2,5.1,6.2C40.6,43.3,40.5,41.8,39.6,40.6z"/>
	<path class="st10" d="M31.2,38.8c-0.5,0.2-1,0.4-1.4,0.7c6.6,0.6,7.5,5.3,7.5,5.3C37.6,39.3,31.2,38.8,31.2,38.8z"/>
	<path class="st10" d="M26.8,42c0.3-0.5,0.7-0.9,1.1-1.3c2.5,0.2,4.7,2,5.3,4.5C33.3,45.1,30.3,41.3,26.8,42z"/>
	<path class="st10" d="M44.7,52.9c-0.1-0.6-0.4-1.3-0.8-1.8c0,0-2.4-1.5-3.9-0.8C40,50.3,43.7,51.1,44.7,52.9z"/>
	<path class="st10" d="M43.8,60.4c0.4-0.9,0.7-1.8,0.8-2.8c0,0-1.9-3.3-4.2-4C40.5,53.6,43.7,57.1,43.8,60.4z"/>
	<path class="st10" d="M40.2,64.5c0.7-0.4,1.3-1,1.8-1.6c0,0-1.2-3.5-2.9-4.6C39.1,58.2,41.1,61.4,40.2,64.5z"/>
	<path class="st10" d="M36.1,65.8c0.7-0.1,1.3-0.2,2-0.4c0.2-1.2-0.1-2.4-0.6-3.5C37.5,61.8,38,65.1,36.1,65.8z"/>
	<path class="st10" d="M37.7,79.1c0.8-0.1,1.7-0.2,2.5-0.4c0,0-2.6-1.8-2.8-6.3C37,74.6,37.1,76.9,37.7,79.1z"/>
	<path class="st10" d="M43.5,77.7c0.7-0.2,1.4-0.5,2-0.8c0,0-2.2-0.7-3.3-5.3C42.2,71.6,41.8,73.3,43.5,77.7z"/>
	<path class="st10" d="M48.1,74.7c0.6-0.5,1.1-1.1,1.5-1.8c-1.9-0.6-3.7-1.5-5.2-2.8C44.4,70.1,46.4,73.5,48.1,74.7z"/>
	<path class="st10" d="M51.6,69.6c0.4-0.8,0.7-1.6,0.7-2.5c-2.3,1-5,1-7.4,0.1C45,67.3,46.9,69.4,51.6,69.6z"/>
	<path class="st10" d="M51.9,62.7c-0.2-0.6-0.5-1.2-0.9-1.7c0,0-2.2,3.5-6.1,4C44.9,65.1,49.5,65.9,51.9,62.7z"/>
	<path class="st5" d="M17.4,53.2L17.2,53c-0.1,0.4-0.2,0.8-0.5,1.1c0.6,0.5,0.9,1.2,1,2c0,0-0.1,2.1-2.5,1c0,0-1.4,2.2-3.3,0.9
		c-0.7-0.7-0.7-1.7-0.1-2.5c0,0-0.3-0.3-0.5-0.4c-0.3,0.3-0.6,0.5-0.9,0.6c0,0.8,0,1.7,0.2,2.5c0.1,0.8,0.4,1.6,0.8,2.4
		c0.3,0.8,0.8,1.5,1.3,2.1c0.7,0.9,1.6,1.8,2.5,2.5c0.9,0.6,2,0.8,3.1,0.4c0.9-0.6,1.5-1.6,1.4-2.8c0-0.8-0.1-1.7-0.3-2.5
		c-0.2-1-0.5-2-0.8-3C18,56.3,17.2,54.2,17.4,53.2z"/>
	<path class="st6" d="M16.9,57.2c-0.6,0.3-1.3,0.2-1.8-0.2c-0.4,0.6-0.9,1.1-1.6,1.3c0,0.5,0.1,1.1,0.2,1.6c0.2,1,0.7,1.9,1.3,2.6
		c0.5,0.7,1.2,1.2,2,1.4c0,0,1.7,0.2,1.3-2.6C18.2,59.8,17.7,58.4,16.9,57.2z"/>
	<path class="st7" d="M16.4,54.3c-0.6,0.5-1.5,0.4-2-0.2c0,0,0,0,0,0c0-0.1-0.1-0.1-0.1-0.2c0.1,0.2-0.2,0.8-0.3,1
		c-0.4,0.6-1.2,1-2,0.8c-0.4,0.5-0.5,1.2-0.2,1.8c0.4,0.6,1.1,0.8,1.8,0.6c0.6-0.2,1.2-0.7,1.5-1.3c0.3,0.2,0.6,0.3,0.9,0.4
		c0.5,0.2,1.1-0.1,1.3-0.6c0,0,0-0.1,0-0.1c0.1-0.5,0-1-0.3-1.4C16.7,54.7,16.6,54.5,16.4,54.3z"/>
	<path class="st4" d="M7.5,48.8c-0.8,0.4-1.7,0.6-2.6,0.4c-0.5-0.1-1-0.2-1.5-0.4L1.5,51c1.2-1,2.9-1.2,4.4-0.5c0,0,0.2,0.2-0.2,0.3
		c-0.6,0.1-1.2,0.3-1.8,0.5c-1.1,0.4-2.2,1-3,1.9c-0.5,0.6-0.7,1.3-0.6,2.1c0,0.3,0.1,1.9,0.1,2.1c1-1.8,2.6-3.1,4.5-3.8
		c0,0,0.5-0.3,0.6-0.1S5.1,54,5.1,54s-3.7,4.2-3.6,7.1c0.3,0.6,0.7,1.2,1.2,1.8c0,0,1.3-3.7,3.4-4.8c0,0,0.2-0.2,0.4-0.1
		s-0.1,0.5-0.1,0.5s-2.1,3.5-1.2,6.6c0.4,0.3,0.8,0.4,1.3,0.6C6.3,64,6.8,62.3,8,61.1c0,0-1,4.3,1.6,5.3c0.9,0.1,1.9,0.1,2.8,0
		c-1.6-1.6-2.9-3.5-3.8-5.5c-1.1-1.9-1.9-4-2.3-6.2c-0.3-1.4-0.2-2.9,0.2-4.3C6.8,49.8,7.1,49.3,7.5,48.8z"/>
	<path class="st4" d="M18.6,48.2c-0.5,0.5-1.2,0.8-1.9,0.7l-0.2,0.3c0.6,1,0.8,2.2,0.7,3.4c0,0,1.3,1.5,2.2-0.9
		C20,50.5,19.6,49,18.6,48.2z"/>
	<path class="st8" d="M17.2,52.6c0-0.1,0-0.3,0-0.5c0-0.2,0-0.5,0-0.5s2.5,0.9,2.1-2.5c0.6,1.1,0.4,2.4-0.4,3.4
		c-0.3,0.5-1,0.6-1.5,0.3C17.4,52.8,17.3,52.7,17.2,52.6z"/>
	<path class="st4" d="M16.4,49.6c-0.5,0.5-1.1,0.8-1.8,0.7l-0.3,0.3c0.2,1,0.3,1.9,0.2,2.9c0.2,0.6,0.9,0.9,1.5,0.6
		c0.2-0.1,0.4-0.2,0.5-0.4c0.5-0.7,0.6-1.7,0.4-2.5C16.5,49.6,16.4,49.6,16.4,49.6z"/>
	<path class="st8" d="M16.7,50.4c0,0,0.8,2-0.2,3.3c-0.3,0.5-1,0.7-1.5,0.4c-0.2-0.1-0.4-0.3-0.5-0.6c0,0,0-0.5,0-1
		C14.5,52.5,16.4,54.6,16.7,50.4z"/>
	<path class="st4" d="M13.8,50.9c0,0-0.8,0.9-2.1,0l-0.3,0.3c0.4,0.7,0.6,1.6,0.5,2.5c-0.2,1.1-0.5,1.2-0.5,1.2
		c0.6,0.6,1.6,0.6,2.2,0c0,0,0.1-0.1,0.1-0.1C13.8,54.7,14.4,54,13.8,50.9z"/>
	<path class="st8" d="M11.4,54.8c0,0,0.3-0.2,0.5-1.2c0,0,2,1.8,2.1-1.4c0,0,0.4,2.6-1,3C12.5,55.3,11.9,55.2,11.4,54.8z"/>
	<path class="st4" d="M11.1,51.2c-0.8,0.4-1.8,0.3-2.6-0.2c-0.7-0.5-1-1.4-0.6-2.2c-0.9,1-1.4,2.3-1.4,3.6c0,2.3,0.1,3.1,0.7,4.4
		s1.5,3.5,2,4.5c0.8,1.3,1.6,2.6,2.5,3.8c0.8,0.9,1.7,1.6,2.7,2.2c1.7,0.7,4.3,1.3,5.9,0c0.8-0.7,1.3-1.7,1.5-2.8
		c0.1-1.3,0-2.6-0.3-3.8c-0.4-1.6-1.4-3-1.8-4.6c-0.3-1.4-0.6-3.3-0.6-3.3c-0.4,0.4-0.9,0.6-1.5,0.4c0.1,0.7,0.3,1.4,0.5,2.1
		c0.3,1.1,0.9,2,1.2,3c0.4,1.4,0.6,2.9,0.6,4.4c0,0.9-0.3,1.8-0.9,2.5c-0.6,0.7-1.6,1-2.5,0.8c-1.5-0.3-3.7-1.9-5-4.5
		s-1.3-2.9-1.4-4.1c0-0.6,0-1.3,0-1.9c0,0-1.9-0.4-2-1.9c0,0-0.1-0.3,0.2-0.3s0.2,0.4,0.2,0.5c0.1,0.2,0.2,0.4,0.4,0.6
		c0.3,0.4,0.7,0.7,1.2,0.7c0.4,0,0.8-0.2,1.1-0.4c0,0,0.9-0.6,0.6-2.3C11.5,52,11.4,51.6,11.1,51.2z"/>
	<path class="st8" d="M8.1,50.7c-0.4-0.5-0.5-1.2-0.2-1.8C6.8,50,6.3,51.5,6.5,53C6.5,53,7,50.7,8.1,50.7z"/>
	<path class="st8" d="M8.3,53.5c0,0,0.3,1.9,1.9,1.7s1.6-2.5,1.3-3.2C11.5,52,10.6,56.3,8.3,53.5z"/>
	<path class="st4" d="M3.4,41.8c0.7-1.4,1.8-2.5,3.2-3.2c0.8-0.3,1.5-1,1.9-1.8c0.5,0,1.1,0,1.6,0.2l0.6,0.2
		c-0.3,0.5-0.2,1.1,0.3,1.4l0,0c-0.4-0.1-0.9-0.1-1.3-0.1c-0.9,0-1.8,0.3-2.5,0.8c-0.9,0.6-1.5,1.4-2,2.3c-0.6,1.1-0.6,2.4,0,3.5
		c0.2,0.9,0.5,0.1,0.5,0.1c0.3-0.6,0.5-1.2,0.7-1.9c0.3-1,0.9-1.9,1.7-2.6c0.8-0.7,1.8-1.3,2.8-1.7c0.9-0.4,3.2,0.1,3.2,0.1l-1,0.1
		c-0.7,0.1-1.4,0.3-2.1,0.6c-1,0.5-1.8,1.2-2.4,2.1c-0.6,1-0.8,2.2-0.6,3.4c0.2,0.8,0.5,0.2,0.5,0.2c0.3-1.7,1.5-3.1,3-3.8
		c0.9-0.5,1.8-0.9,2.8-1.2c0.5-0.1,1-0.2,1.5-0.3c0.3-0.1,0.5-0.1,0.8-0.1c0.4,0.2,0.7,0.5,1,0.7c-4.9,0.3-5.5,4.4-5.5,4.4
		c-0.1,0.9,0.4,0.5,0.4,0.5c3.8-3.9,6.6-3,6.6-3c0.5,1.3,0.5,2.7,0,3.9c-0.2,1-1.1,1.6-2.1,1.5c0.2-0.8,0.2-1.7-0.1-2.5
		c0,0-0.1-0.5-0.4-0.4s0,0.5,0,0.5c0.2,0.6,0.3,1.3,0.2,2c-0.5,2-1.8,1.9-1.8,1.9c0.3-0.7,0.3-1.5,0-2.2c0,0-0.2-0.5-0.4-0.3
		s0,0.4,0,0.4c0.3,0.7,0.3,1.5,0,2.1c-0.4,0.8-1.4,1.1-2.2,0.7c0,0-0.1-0.1-0.1-0.1c0.7-0.6,1-1.5,0.7-2.4c0,0-0.2-0.4-0.4-0.2
		s0,0.4,0,0.4c0.7,1.7-1.3,2.6-1.3,2.6C10.4,51,9.6,51,9,50.7c-0.7-0.3-0.6-1.3-0.6-1.3c0.1-0.4,0.2-0.8,0.1-1.2
		c-0.1-0.6-0.4-1.2-0.9-1.7c0,0-0.2-0.3-0.4-0.2s0,0.4,0,0.4c0.4,0.5,0.7,1.1,0.8,1.7c-2.4,0.9-2.9,0.4-2.9,0.4
		c-0.7-0.9-1.3-1.8-1.8-2.9C2.4,44.3,3.4,41.8,3.4,41.8z"/>
	<path class="st8" d="M12.3,48.3c0.3,0.7,0.1,1.5-0.4,2c-0.5,0.7-1.3,1-2.2,0.9c0,0-2-0.4-1.6-1.8C8.1,49.4,10.2,51.8,12.3,48.3z"/>
	<path class="st8" d="M12,50.6c0.2-0.2,0.4-0.4,0.5-0.6c0,0,2.1,0.6,1.8-2.1c0.4,0.9,0.2,2-0.6,2.6C13.3,50.9,12.5,51,12,50.6z"/>
	<path class="st8" d="M14.8,49.9c0,0,2.3-0.1,1.7-3.4c0,0-0.8,2.8-1.5,2.3C15,49.1,14.9,49.5,14.8,49.9z"/>
	<path class="st10" d="M1.6,42.8c0.3-1.4,1-2.7,2-3.7C4,38.7,4.5,38.3,5,37.9c0.8-0.5,1.7-0.8,2.5-1.2c0.2,0,0.4,0,0.6,0
		c-0.6,0.8-1.4,1.4-2.3,1.8c-1.6,0.8-2.7,2.3-3.1,4.1c-0.2,1-0.2,2.1,0,3.1c0.2,0.8,0.6,1.5,1.1,2.2c0.1,0.2,0.5,0.8,0.7,0.9
		c-0.6-0.2-1.1-0.4-1.6-0.8C1.2,47,1.3,44.5,1.6,42.8z"/>
	<path class="st10" d="M6,40.9c1-1.6,2.9-2.4,4.7-2.1c-4.6,1.1-5.2,6.1-5.2,6.1C4.9,43.6,5.1,42.1,6,40.9z"/>
	<path class="st10" d="M14.5,39.3c0.5,0.2,0.9,0.4,1.4,0.7c-6.6,0.4-7.7,5.1-7.7,5.1C8,39.6,14.5,39.3,14.5,39.3z"/>
	<path class="st10" d="M18.7,42.6c-0.3-0.5-0.7-0.9-1.1-1.4c-2.6,0.1-4.7,1.9-5.4,4.3C12.2,45.6,15.3,41.9,18.7,42.6z"/>
	<path class="st10" d="M0.6,53c0.1-0.6,0.4-1.2,0.8-1.8c0,0,2.4-1.5,3.9-0.7C5.4,50.6,1.6,51.3,0.6,53z"/>
	<path class="st10" d="M1.2,60.6c-0.4-0.9-0.7-1.8-0.8-2.8c0,0,2-3.2,4.3-3.9C4.8,53.9,1.4,57.3,1.2,60.6z"/>
	<path class="st10" d="M4.8,64.8c-0.7-0.5-1.3-1-1.8-1.7c0,0,1.3-3.4,3-4.5C6,58.6,3.9,61.7,4.8,64.8z"/>
	<path class="st10" d="M8.8,66.2c-0.7-0.1-1.3-0.2-2-0.4c-0.1-1.2,0.1-2.4,0.7-3.5C7.5,62.2,6.9,65.4,8.8,66.2z"/>
	<path class="st6" d="M21.8,29.8c-0.2-0.3-0.4-0.5-0.6-0.7c-0.4-0.5-0.8-0.8-1.4-1c-0.4-0.1-0.8-0.2-0.9-0.7c-0.4,0.1-0.8,0-1-0.4
		c0,0-0.8-1.8-1.7-0.4c-0.8,1.6-0.3,3.5,1.2,4.4c1.3,1,3.1,1,4.4,0L21.8,29.8z"/>
	<path class="st6" d="M22.2,29.8c0,0,0.2,0,0.5-0.4c0.2-0.3,0.4-0.5,0.7-0.7c0.3-0.2,0.7-0.3,1.1-0.3c0.3,0,0.6-0.1,0.8-0.3
		c0,0,0.5,0.4,1.4-0.3c0.3-0.2,0.5-0.5,0.8-0.5s1.1,0.5,1.2,1c0,0.5,0,1-0.1,1.5c-0.2,0.9-0.8,1.6-1.6,1.9c-1,0.6-2.2,0.7-3.3,0.2
		c-0.6-0.3-1.1-0.7-1.5-1.1L22.2,29.8z"/>
	<path class="st3" d="M25.2,30.4c0,0.1-0.1,0.2-0.2,0.2c-0.1,0-0.2-0.1-0.2-0.2c0-0.1,0.1-0.2,0.2-0.2C25,30.2,25.2,30.3,25.2,30.4
		L25.2,30.4z"/>
	<path class="st3" d="M25.9,29.5c0,0.1-0.1,0.2-0.2,0.2c-0.1,0-0.2-0.2-0.2-0.3c0-0.1,0.1-0.2,0.2-0.2
		C25.8,29.2,25.9,29.3,25.9,29.5z"/>
	<path class="st3" d="M20.2,29.4c0,0.1-0.1,0.2-0.2,0.2c0,0,0,0,0,0c-0.1,0-0.2-0.1-0.2-0.2c0-0.1,0.1-0.3,0.2-0.3
		C20,29.1,20.1,29.2,20.2,29.4C20.2,29.3,20.2,29.4,20.2,29.4z"/>
	<path class="st3" d="M19.1,29.8c0,0.1-0.1,0.2-0.2,0.2c0,0,0,0,0,0c-0.1,0-0.2-0.1-0.3-0.2c0,0,0,0,0,0c0-0.1,0.1-0.2,0.2-0.3l0,0
		C19,29.5,19.1,29.6,19.1,29.8C19.1,29.7,19.1,29.7,19.1,29.8z"/>
	<path class="st3" d="M19.4,28.6c0,0.1-0.1,0.2-0.2,0.2c0,0,0,0,0,0c-0.1,0-0.2-0.1-0.2-0.2c0-0.1,0.1-0.2,0.2-0.2
		C19.2,28.4,19.4,28.5,19.4,28.6C19.4,28.6,19.4,28.6,19.4,28.6L19.4,28.6z"/>
	<path class="st3" d="M24.2,30c0,0.1-0.1,0.2-0.2,0.3c0,0,0,0,0,0c-0.1,0-0.2-0.1-0.2-0.2c0,0,0,0,0,0l0,0c0-0.1,0.1-0.2,0.2-0.2
		C24.1,29.8,24.2,29.9,24.2,30C24.2,30,24.2,30,24.2,30z"/>
	<path class="st4" d="M25.2,11c0,0-1.6,14.7,2.6,12.6l0.3-0.1c0,0,1.8,3,4.3,0.5c0.6-0.9,1.3-1.8,2-2.6c0,0,1.9-1-0.5-5.4
		C34,15.9,25.5,10,25.2,11z"/>
	<path class="st2" d="M11.5,17.6c0.2-1.1,0.7-2.2,1.4-3.1c0.1-0.1,0.1-0.4,0.4-0.3c0,0.2-0.1,0.3-0.2,0.5c-0.2,0.8,0.1,1.2,0.9,1.2
		c0.2,0,0.3-0.1,0.5-0.1c2.1-0.7,3.5,0.1,4.2,2.3c0.2,0.6,0.3,1.2,0.3,1.8c0,0.6,0,1.2-0.1,1.8c0.5-0.1,0.9-0.4,1.1-0.8
		c0,2-0.4,2.6-2.2,3.4c-0.2,0.1-0.4,0.4-0.7,0.1c0.6-0.2,1-0.7,1.2-1.2c0.1-0.3,0.1-0.5-0.4-0.5c-1.5,0.1-2.9-0.5-4-1.4
		c-0.9-0.9-1.3-2.2-0.8-3.4c0.1-0.4-0.1-0.9-0.5-1c-0.3-0.1-0.4,0.2-0.4,0.4c-0.3,1.2-0.3,2.5,0.1,3.7v0.9c-0.3-0.7-0.6-1.4-0.7-2.1
		C11.5,19,11.5,18.3,11.5,17.6z M14.9,21.2c-0.2-0.4-0.5-0.7-0.7-1.1c0.3-0.1,0.6-0.5,0.5-0.8c-0.1-0.4-0.4-0.5-0.8-0.5
		c0.5-1.5,0.5-1.5,1.9-2.4c-1.5-0.3-3,1.8-2.4,3.1c0,0.2,0.1,0.4,0.2,0.6C13.9,20.6,14.3,21.1,14.9,21.2L14.9,21.2z M18.5,21.1
		c-0.6,0.5-1.3,0.7-2,0.9C18.1,22.4,18.5,22.3,18.5,21.1L18.5,21.1z M17,19c0,0.3,0.2,0.4,0.4,0.3s0.4-0.1,0.4-0.4
		c0-0.2-0.1-0.4-0.3-0.4c0,0-0.1,0-0.1,0C17,18.5,17,18.7,17,19L17,19z"/>
	<path class="st5" d="M19.4,18.8c0-0.5,0.4-0.9,0.5-1.4l-0.4-1.5c-0.2-0.2-0.3-0.5-0.5-0.7c-0.1,0-0.1,0-0.1-0.1l-1.1-1
		c-0.1,0-0.1,0-0.2-0.1c-0.1,0-0.2-0.1-0.3-0.1c-0.4,0-0.7-0.2-1.1-0.3c-1-0.1-2.1,0.1-2.9,0.7l0,0h-0.1l-0.2,0.5
		c-0.2,0.8,0.1,1.2,0.9,1.1c0.2,0,0.3-0.1,0.5-0.1c2.1-0.7,3.5,0.1,4.2,2.3c0.2,0.6,0.3,1.2,0.3,1.8c0,0.6,0,1.2-0.1,1.8
		c0.5-0.1,0.9-0.4,1.1-0.8l0.1-1.4C19.5,19.6,19.4,19.2,19.4,18.8z"/>
	<path class="st5" d="M17,24.3c0.6-0.2,1-0.7,1.2-1.2c0.1-0.3,0.1-0.5-0.4-0.5c-1.5,0-2.9-0.5-4-1.4c-0.9-0.9-1.3-2.2-0.8-3.4
		c0.1-0.4-0.1-0.8-0.5-1c-0.3-0.1-0.4,0.2-0.4,0.4c-0.3,1.2-0.3,2.5,0.1,3.7c0.5,0.6,1.1,1.2,1.7,1.8C14.9,23.4,15.9,23.9,17,24.3z"
		/>
	<path class="st13" d="M13.9,18.9c0.5-1.5,0.5-1.5,1.9-2.4c-1.5-0.3-3,1.8-2.4,3.1C13.4,19.1,13.7,19.1,13.9,18.9z"/>
	<path class="st14" d="M13.9,18.9c-0.2,0.2-0.5,0.3-0.5,0.7c0,0.2,0.1,0.4,0.2,0.6c0.2,0,0.4,0,0.6,0.1c0.3-0.1,0.6-0.5,0.5-0.8
		C14.6,19,14.3,18.9,13.9,18.9z"/>
	<path class="st13" d="M16.5,22c1.7,0.4,2,0.3,2-0.8C17.9,21.6,17.2,21.8,16.5,22z"/>
	<path class="st15" d="M17.4,18.6c-0.3,0-0.4,0.1-0.3,0.4s0.2,0.4,0.4,0.3s0.4-0.1,0.4-0.4c0-0.2-0.1-0.4-0.3-0.4L17.4,18.6z"/>
	<path class="st13" d="M14.2,20.2c-0.2-0.1-0.4-0.1-0.6-0.1c0.2,0.5,0.7,1,1.2,1.1C14.7,20.9,14.4,20.6,14.2,20.2z"/>
	<path class="st16" d="M21.6,16.8c0,0.3,0.2,0.6,0.1,1s-0.2,0.5-0.5,0.3s-0.2-0.5-0.3-0.8c-0.2-0.7-0.4-1.3-0.8-1.9l-0.1-0.1l0,0
		l-0.2-0.4c-0.1-0.3-0.3-0.5-0.4-0.8c0.2,0,0.4,0.3,0.6,0.4C20.8,15.1,21.3,15.9,21.6,16.8z"/>
	<path class="st2" d="M34.7,15.8c-0.1-0.2,0-0.4-0.3-0.4v0.5c0,0.9-0.4,1.1-1.2,0.8c-0.2-0.1-0.3-0.1-0.4-0.2
		c-1.8-1.3-3.4-0.9-4.6,1c-0.4,0.5-0.6,1-0.8,1.6c-0.2,0.6-0.3,1.2-0.4,1.8c-0.4-0.2-0.7-0.6-0.8-1.1c-0.6,1.9-0.3,2.7,1.2,3.9
		c0.2,0.1,0.3,0.5,0.6,0.3l0,0v-0.1c-0.4-0.4-0.7-0.9-0.7-1.4c0-0.3,0-0.5,0.5-0.4c1.4,0.4,2.9,0.4,4.2-0.2c1.1-0.6,1.8-1.7,1.7-3
		c0-0.3,0.4-0.9,0.7-0.8s0.3,0.3,0.3,0.5c-0.1,1.3-0.5,2.5-1.2,3.6c-0.1,0.2-0.2,0.5-0.3,0.9c0.5-0.6,0.9-1.2,1.3-1.8l0.7-1.9
		C35.4,18,35.2,16.8,34.7,15.8z M27.4,20.4c0.4,0.6,1,1.1,1.7,1.4C27.4,21.8,27.2,21.5,27.4,20.4L27.4,20.4z M29.5,18.8
		c-0.1,0.3-0.2,0.3-0.5,0.2s-0.4-0.3-0.3-0.5c0-0.2,0.2-0.3,0.4-0.3h0.1C29.6,18.4,29.6,18.5,29.5,18.8L29.5,18.8z M32.7,20.4
		c-0.1,0.2-0.2,0.4-0.4,0.5c-0.4,0.5-0.9,0.7-1.5,0.8c0.3-0.3,0.7-0.5,0.9-0.8c-0.3-0.2-0.4-0.6-0.2-0.9c0.2-0.3,0.5-0.3,0.9-0.2
		c0-1.6,0-1.6-1.1-2.9C32.9,16.8,33.7,19.3,32.7,20.4L32.7,20.4z"/>
	<path class="st5" d="M34.4,15.3L34.4,15.3c-0.6-0.9-1.6-1.4-2.6-1.6c-0.4,0-0.8,0-1.2,0c-0.1,0-0.2,0.1-0.2,0.1h-0.2l-1.4,0.7
		c0,0.1-0.1,0.1-0.1,0.1L28,15.1l-0.8,1.4c0,0.5,0.3,1,0.1,1.5s-0.3,0.8-0.8,0.4l-0.3,1.4c0.1,0.5,0.4,0.9,0.8,1.1
		c0.1-0.6,0.2-1.2,0.4-1.8c0.2-0.6,0.5-1.1,0.8-1.6c1.2-1.9,2.8-2.3,4.6-1c0.1,0.1,0.3,0.2,0.4,0.2c0.8,0.3,1.2,0,1.2-0.8L34.4,15.3
		L34.4,15.3z"/>
	<path class="st16" d="M28,23.8c-0.1,0-0.1,0.1-0.1,0.2c0,0.1-0.1-0.1-0.1-0.1L28,23.8z"/>
	<path class="st5" d="M27.9,23.9c-0.5-0.4-0.8-0.9-0.8-1.5c0-0.3,0-0.5,0.5-0.4c1.4,0.4,2.9,0.4,4.2-0.2c1.1-0.6,1.8-1.7,1.7-3
		c0-0.3,0.4-0.9,0.7-0.8s0.3,0.3,0.3,0.5c-0.1,1.3-0.5,2.5-1.2,3.6c-0.7,0.5-1.4,0.9-2.1,1.2C30.2,23.6,29.1,23.9,27.9,23.9z"/>
	<path class="st13" d="M32.5,19.6c0-1.6,0-1.6-1.1-2.9c1.6,0.1,2.4,2.6,1.4,3.7C32.9,20,32.6,19.8,32.5,19.6z"/>
	<path class="st14" d="M32.5,19.6c0.1,0.2,0.5,0.4,0.3,0.8c-0.1,0.2-0.2,0.4-0.4,0.5c-0.2-0.1-0.4-0.1-0.6-0.1
		c-0.3-0.2-0.4-0.6-0.2-0.9C31.8,19.5,32.1,19.5,32.5,19.6z"/>
	<path class="st13" d="M29.2,21.8c-1.7-0.1-2-0.3-1.7-1.4C27.9,21,28.5,21.5,29.2,21.8z"/>
	<path class="st15" d="M29.3,18.3c0.3,0.1,0.3,0.2,0.2,0.5S29.3,19.1,29,19s-0.4-0.3-0.3-0.5c0-0.2,0.2-0.3,0.4-0.3
		C29.2,18.3,29.3,18.3,29.3,18.3z"/>
	<path class="st13" d="M31.8,20.8c0.2,0,0.4,0,0.5,0.1c-0.4,0.4-0.9,0.7-1.5,0.8C31.2,21.3,31.5,21.1,31.8,20.8z"/>
	<path class="st8" d="M20.5,13.3c1.4,1.1,2.4,2.6,2.7,4.4c0,0,0.9-3.4,3.1-4.4c-1.4,0-2.7,1-3,2.4C23,14.3,21.8,13.3,20.5,13.3z"/>
	<path class="st16" d="M24.9,16.6c-0.1,0.3-0.2,0.7-0.3,1c0,0.3,0,0.6,0.4,0.4s0.2-0.5,0.4-0.8c0.3-0.7,0.6-1.3,0.9-1.9l0.1-0.1l0,0
		l0.2-0.4c0.2-0.2,0.3-0.5,0.4-0.8c-0.2,0-0.3,0.2-0.5,0.2C25.9,14.9,25.3,15.7,24.9,16.6z"/>
	<path class="st5" d="M19.8,16.9c0.2,0.9,0.3,1.9,0.2,2.8c-0.1,2-0.8,0.2-0.8,0.2S19.3,17.1,19.8,16.9z"/>
	<path class="st5" d="M27.2,16.3c-0.4,0.7-0.7,1.5-0.8,2.3c-0.4,1.5,0.7,0.5,0.7,0.5l0.8-2.1L27.2,16.3z"/>
	<path class="st16" d="M27.4,23.8c0.1,0.1,0.1,0.2,0.1,0.3c0,0.2,0.1-0.2,0.1-0.2L27.4,23.8z"/>
	<path class="st3" d="M26.8,23.2c0.4,0.3,0.7,0.8,0.7,1.3l0.2-0.7L26.8,23.2z"/>
	<polygon class="st3" points="11.3,33 12.1,33.2 12,33.5 10.5,33.1 	"/>
	<path class="st5" d="M10.4,31.7c0.2,0.1,0.3,0.2,0.5,0.4c0.1,0.1,0.3,0.6-0.3,0.6c0,0,0.1,0.4,1.5,0.5S10.6,31.3,10.4,31.7z"/>
	<path class="st5" d="M10.9,32.2c0,0,0.2,0.1-0.4,0.4c0,0,0,0.3,1.8,0.7S10.9,32.2,10.9,32.2z"/>
	<path class="st4" d="M8.8,35.6c0,0,0.3-2.4-0.4-3.4c0.6,0.2,1.3,0.3,2,0.1c0,0,0.5-0.1-0.2,0.6c0.4,0.4,0.9,0.6,1.4,0.7l-0.5,0.8
		c0,0,0.7,0.8,0.5,1.4S8.8,35.6,8.8,35.6z"/>
	<path class="st6" d="M11.4,34.2c0,0,1.4,2-0.2,2.9c0,0-0.8,0.4,0.1,1.4c0,0,4.3-0.3,6.2,2.1c0,0,2.4,2,2,4.5c0,0-0.1,2.5-0.5,2.7
		c1,1.2,1.4,2.9,1,4.4c-0.1,0.2-0.3,0.4-0.5,0.5c0.1,2.4,0.8,4.8,2,6.9c0,0,1.5,3.9,0.3,6.6c0,0,1.7-0.2,2,0.1
		c-0.7-1-1.1-2.2-0.9-3.5L22.3,58L20,47.2l-0.3-1.4l0.6-2C20.3,43.8,18.5,40.1,11.4,34.2z"/>
	<path class="st6" d="M20,50c0.1,0.9-0.1,1.9-0.6,2.7l1.1,0.7C20.5,53.5,20.8,49.9,20,50z"/>
	<path class="st10" d="M48.4,57.4c-0.5-0.5-1-0.8-1.6-0.9c0,0-0.1,4.2-3.2,6.6C43.6,63.1,47.9,61.4,48.4,57.4z"/>
	<g class="st17">
		<path class="st0" d="M50.2,46c0-0.2,0-0.3,0.1-0.5c0.1-0.6,0.3-1.1,0.5-1.6s0.4-1.1,0.5-1.6s0.3-1,0.4-1.4s0.2-0.7,0.3-0.9
			c0.1-0.2,0.1-0.5,0.2-0.7c0.1-0.2,0.1-0.4,0.2-0.6l0.2-0.4c0.1-0.1,0.1-0.2,0.2-0.3c0.1-0.1,0.1-0.2,0.2-0.2
			c0.1-0.1,0.2-0.1,0.2-0.1c0.1,0,0.3,0,0.4,0.1c0.1,0,0.1,0.1,0.2,0.2l0.1,0.2H54h0.3l0.3-0.1l0.2-0.1c0.3-0.1,0.5-0.1,0.8-0.2
			l0.7-0.1l0.6-0.1c0.2,0,0.4,0,0.6,0c0.2,0,0.3,0,0.5,0c0.1,0,0.2,0,0.3,0.1c0.1,0,0.1,0.1,0.2,0.1c0,0,0,0.1,0,0.1
			c0,0.1,0,0.1,0,0.2c0,0.1-0.1,0.1-0.1,0.2c-0.1,0.1-0.2,0.1-0.2,0.1c-0.1,0-0.3,0.1-0.4,0.1l-0.3,0l-0.4,0.1l-0.4,0.1l-0.3,0.1
			l0,0h-0.2l-0.3,0.1L55.2,39l-0.5,0.1l-0.4,0.1L54,39.4c-0.2,0.1-0.4,0.2-0.6,0.4c-0.1,0.2-0.3,0.3-0.3,0.5c0,0.1,0,0.1-0.1,0.2
			l-0.1,0.3l-0.1,0.4c0,0.1-0.1,0.2-0.1,0.4s-0.1,0.2-0.1,0.3c0,0.1,0,0.1-0.1,0.2c0,0,0,0.1,0,0.1v0.1l0,0c0.1,0,0.3,0,0.4-0.1
			l0.7-0.2l0.8-0.3l0.9-0.3l0.7-0.2c0.2,0,0.3-0.1,0.5-0.1c0.1,0,0.2,0,0.3,0.1c0,0,0.1,0.1,0.1,0.2c0,0.1-0.1,0.3-0.2,0.4
			c-0.1,0.1-0.2,0.2-0.4,0.3L56,42.1l-0.4,0.1l-0.4,0.1l-0.3,0.1l-1,0.4l-0.6,0.2l-0.4,0.1l-0.2,0.1l-0.2,0.1L52,43.5
			c-0.1,0.1-0.1,0.3-0.1,0.4l-0.2,0.5c0,0.2-0.1,0.4-0.1,0.5c0,0.1,0,0.2,0,0.3c0,0.1,0,0.1,0,0.2c0,0,0,0.1,0.1,0.1h0.2
			c0.2,0,0.5,0,0.7-0.1c0.3,0,0.6-0.1,0.9-0.2c0.2-0.1,0.5-0.2,0.7-0.3l0.5-0.3c0.2-0.1,0.3-0.2,0.5-0.2c0.2-0.1,0.3-0.1,0.5-0.1
			h0.2c0.1,0,0.2,0.1,0.3,0.1c0,0,0,0.1,0,0.1c0,0.1-0.1,0.3-0.2,0.4c-0.1,0.1-0.2,0.2-0.4,0.3c-0.2,0.1-0.3,0.2-0.5,0.3
			c-0.2,0.1-0.4,0.2-0.6,0.3l-0.6,0.2l-0.5,0.2c-0.4,0.1-0.7,0.2-1.1,0.3c-0.3,0.1-0.7,0.1-1,0.1c-0.3,0-0.5,0-0.7-0.2
			C50.2,46.4,50.2,46.2,50.2,46z"/>
		<path class="st0" d="M57.7,44.3c0.1-0.2,0.1-0.5,0.2-0.7c0.1-0.2,0.2-0.5,0.3-0.7c0.1-0.2,0.3-0.4,0.5-0.6
			c0.2-0.2,0.4-0.4,0.6-0.6c0.2-0.1,0.3-0.3,0.5-0.4c0.2-0.1,0.4-0.2,0.6-0.3c0.2-0.1,0.4-0.1,0.6-0.2c0.2-0.1,0.4-0.1,0.6-0.1
			c0.1,0,0.2,0,0.4,0c0.1,0,0.2,0.1,0.3,0.1c0-0.1,0.2-0.5,0.3-1.1s0.4-1.5,0.7-2.6c0-0.1,0.1-0.2,0.2-0.3c0.1-0.1,0.2-0.1,0.3-0.1
			c0.1,0,0.2,0,0.2,0c0.1,0,0.1,0,0.2,0.1c0.1,0,0.1,0.1,0.2,0.2c0,0.1,0.1,0.2,0.1,0.3l-1.2,5c0,0.2-0.1,0.4-0.1,0.6
			c0,0.2-0.1,0.5-0.1,0.8s0,0.5-0.1,0.8s0,0.5,0,0.7c0,0.2,0,0.5-0.1,0.7c0,0.1,0,0.2-0.1,0.2c0,0.1-0.1,0.1-0.1,0.2
			c-0.1,0-0.1,0.1-0.2,0.1c-0.1,0-0.2,0-0.2,0c-0.1,0-0.2,0-0.3,0c-0.1,0-0.1-0.1-0.2-0.1c0,0,0-0.1-0.1-0.1v-0.4c0-0.1,0-0.1,0-0.2
			l-0.2,0.1l-0.3,0.2l-0.2,0.1l-0.2,0.1l-0.3,0.2l-0.4,0.2c-0.1,0-0.3,0.1-0.4,0.1c-0.2,0-0.3,0-0.5,0c-0.2,0-0.4,0-0.5-0.1
			c-0.2-0.1-0.3-0.2-0.5-0.3c-0.1-0.1-0.3-0.3-0.3-0.5c-0.1-0.2-0.1-0.5-0.1-0.7v-0.3C57.6,44.5,57.6,44.4,57.7,44.3z M58.8,44.2
			c0,0.1,0,0.2,0,0.4c0,0.1,0,0.2,0,0.3c0,0.1,0.1,0.2,0.1,0.3c0.1,0.1,0.1,0.1,0.2,0.2c0.1,0.1,0.2,0.1,0.4,0.1c0.1,0,0.2,0,0.3,0
			l0.3-0.1l0.3-0.1l0.2-0.1c0.2-0.1,0.3-0.2,0.4-0.3c0.1-0.1,0.3-0.2,0.4-0.3c0.1-0.1,0.2-0.2,0.3-0.4c0.1-0.2,0.1-0.3,0.2-0.5
			c0-0.2,0.1-0.3,0.1-0.5l0.1-0.4c0-0.1,0-0.3,0.1-0.4c0-0.2,0-0.3,0.1-0.5L62,41.8c0,0-0.1,0-0.2,0c-0.2,0-0.4,0-0.5,0.1
			c-0.2,0.1-0.4,0.1-0.6,0.2c-0.2,0.1-0.4,0.2-0.6,0.4c-0.4,0.3-0.7,0.7-1,1.1C58.9,43.9,58.8,44.1,58.8,44.2L58.8,44.2z"/>
		<path class="st0" d="M65.8,40.9c0-0.1,0-0.1,0.1-0.2c0,0,0-0.1,0.1-0.1l0.1-0.1h0.2h0.2h0.2c0.1,0,0.2,0,0.2,0.1
			c0.1,0.1,0.1,0.2,0.1,0.3c0,0.1,0,0.2,0,0.3c-0.1,0.5-0.3,1-0.4,1.3l-0.3,1c-0.1,0.3-0.2,0.5-0.2,0.7c0,0.1-0.1,0.3-0.1,0.4
			c0,0.1,0,0.2,0,0.3c0,0.1,0.1,0.2,0.1,0.3c0,0.1,0.1,0.2,0.2,0.2c0.1,0.1,0.2,0.1,0.2,0.1c0.2,0,0.4-0.1,0.5-0.2
			c0.2-0.1,0.4-0.2,0.5-0.4c0.2-0.2,0.3-0.3,0.4-0.5l0.3-0.5l0.2-0.3c0.1-0.2,0.2-0.4,0.3-0.6c0.1-0.2,0.2-0.5,0.2-0.7
			s0.1-0.4,0.2-0.6s0.1-0.4,0.1-0.5l0.2-0.8c0-0.1,0.1-0.2,0.2-0.3c0.1-0.1,0.2-0.1,0.3-0.1c0.1,0,0.2,0,0.3,0
			c0.1,0,0.2,0.1,0.2,0.1c0.1,0.1,0.1,0.1,0.1,0.2c0,0.1,0,0.3,0,0.4c0,0.2,0,0.4-0.1,0.6l-0.2,0.8c0,0.1-0.1,0.3-0.1,0.5
			c0,0.2-0.1,0.3-0.1,0.5S70,43.6,70,43.8v0.4c0,0.2,0,0.4,0,0.6c0,0.2,0,0.4,0,0.7v0.3c0,0.2-0.1,0.4-0.2,0.5
			c-0.1,0.1-0.2,0.1-0.4,0.1c-0.1,0-0.2,0-0.3,0c-0.1,0-0.1-0.1-0.2-0.1c0,0-0.1-0.1-0.1-0.1c0-0.1,0-0.1,0-0.2l-0.1-1.1h0
			c-0.1,0.2-0.3,0.4-0.5,0.6c-0.2,0.2-0.3,0.4-0.5,0.6c-0.2,0.2-0.4,0.3-0.6,0.5c-0.2,0.1-0.5,0.2-0.7,0.2h-0.2l-0.3-0.1l-0.3-0.1
			l-0.2-0.1c-0.2-0.2-0.4-0.4-0.5-0.7c-0.1-0.3-0.1-0.5-0.1-0.8c0-0.2,0-0.3,0-0.5c0-0.1,0-0.3,0.1-0.4c0-0.1,0.1-0.3,0.1-0.4
			c0-0.1,0.1-0.2,0.1-0.3c0.1-0.3,0.1-0.6,0.2-0.8s0.1-0.4,0.2-0.6s0.1-0.3,0.1-0.5S65.7,41,65.8,40.9z"/>
		<path class="st0" d="M78.1,43.6c0,0.3-0.1,0.6-0.3,0.9c-0.2,0.4-0.5,0.7-0.8,0.9c-0.1,0.1-0.3,0.2-0.4,0.3L76,46l-0.6,0.3
			c-0.2,0.1-0.5,0.2-0.7,0.2c-0.2,0.1-0.4,0.1-0.7,0.2c-0.2,0-0.4,0.1-0.6,0.1c-0.1,0-0.2,0-0.2,0c-0.1,0-0.1,0-0.2-0.1
			c-0.1,0-0.1-0.1-0.2-0.2c-0.1-0.1-0.1-0.2-0.2-0.2c-0.1,0.1-0.2,0.1-0.3,0.2c-0.1,0-0.2,0-0.3,0h-0.2c0,0-0.1,0-0.1,0l-0.1-0.1
			c-0.1-0.1-0.1-0.1-0.1-0.2c0-0.2,0-0.4,0.1-0.6c0.1-0.2,0.1-0.4,0.2-0.6c0.1-0.4,0.2-0.7,0.4-1.1s0.2-0.8,0.3-1.1s0.2-0.8,0.3-1.1
			s0.2-0.7,0.3-1.1l0.2-0.7v-0.6v-0.1l0,0c0-0.1,0-0.1,0.1-0.2c0-0.1,0.1-0.2,0.1-0.3c0-0.1,0.1-0.1,0.2-0.2c0.1,0,0.1-0.1,0.2-0.1
			h0.7c0,0,0.1,0,0.2,0l0.2-0.1l0.4-0.1l0.7-0.2c0.2,0,0.4-0.1,0.6-0.1l0.5-0.1c0.2,0,0.3,0,0.5,0c0.2,0,0.4,0,0.6,0.1
			c0.2,0,0.4,0.1,0.5,0.2c0.2,0.1,0.3,0.2,0.4,0.4c0.1,0.2,0.1,0.3,0.1,0.5c0,0.4-0.1,0.7-0.3,1c-0.2,0.3-0.5,0.6-0.8,0.8
			c-0.4,0.3-0.8,0.5-1.3,0.7c-0.5,0.2-1.1,0.4-1.7,0.6c0.4,0.1,0.8,0.1,1.2,0.3c0.3,0.1,0.6,0.2,0.9,0.4c0.2,0.1,0.4,0.3,0.5,0.5
			C78.1,43.3,78.1,43.5,78.1,43.6z M76,43.1h-0.2L75.4,43L75,42.9l-0.5-0.1l-0.4-0.1l-0.3-0.1c-0.2,0.5-0.3,1-0.4,1.5L73,45.6h0.4
			h0.2h0.1c0.2,0,0.4-0.1,0.5-0.1l0.6-0.2c0.2-0.1,0.4-0.2,0.7-0.3l0.7-0.3l0.2-0.2c0.1-0.1,0.2-0.1,0.2-0.2
			c0.1-0.1,0.1-0.2,0.2-0.3c0-0.1,0.1-0.2,0.1-0.3c0-0.2-0.1-0.3-0.3-0.4C76.5,43.2,76.3,43.1,76,43.1z M74.1,41.6l0.7-0.3
			c0.2-0.1,0.5-0.2,0.8-0.3l0.8-0.4l0.8-0.4l0,0l0.3-0.2c0.1-0.1,0.2-0.2,0.3-0.2c0.1-0.1,0.1-0.2,0.2-0.3c0-0.1,0.1-0.2,0.1-0.3
			c0-0.1,0-0.1,0-0.2c0-0.1-0.1-0.1-0.1-0.2c-0.1-0.1-0.2-0.1-0.2-0.1c-0.1,0-0.3,0-0.4,0c-0.2,0-0.5,0-0.7,0.1
			c-0.3,0.1-0.5,0.1-0.8,0.2c-0.2,0.1-0.4,0.2-0.7,0.3c-0.1,0.1-0.3,0.2-0.4,0.3c0,0,0,0.1,0,0.1l-0.1,0.2c0,0.1,0,0.2-0.1,0.2
			c0,0.1-0.1,0.1-0.1,0.2c0,0.1,0,0.1,0,0.2c0,0.1-0.1,0.2-0.1,0.3c0,0.1-0.1,0.2-0.1,0.4S74.1,41.5,74.1,41.6z"/>
		<path class="st0" d="M81.3,37.9c0-0.2,0.1-0.3,0.1-0.5c0-0.1,0.1-0.2,0.2-0.4c0.1-0.1,0.2-0.1,0.3-0.1h0.2c0.1,0,0.2,0.1,0.2,0.1
			c0.1,0,0.1,0.1,0.2,0.1c0.1,0.1,0.1,0.1,0.1,0.2c0,0,0,0.1,0,0.1c0,0,0,0.1,0,0.1L81,43.9c-0.1,0.2-0.1,0.5-0.2,0.7
			c0,0.2-0.1,0.4-0.1,0.6v0.1c0,0.1,0,0.3,0,0.4c0,0.1-0.1,0.3-0.1,0.4c0,0.1-0.1,0.2-0.2,0.3c-0.1,0.1-0.2,0.1-0.3,0.1
			c-0.1,0-0.2,0-0.3-0.1c-0.1,0-0.1-0.1-0.2-0.2c-0.1-0.1-0.1-0.2-0.1-0.2c0-0.1,0-0.2,0-0.2c0-0.1,0-0.2,0-0.2c0-0.1,0-0.2,0-0.3
			c0-0.1,0-0.2,0.1-0.3c0-0.1,0-0.2,0.1-0.3l1.6-6.4C81.2,38.2,81.3,38.1,81.3,37.9z"/>
		<path class="st0" d="M82.7,44c0.1-0.3,0.2-0.5,0.3-0.8c0.1-0.3,0.3-0.6,0.5-0.9c0.2-0.3,0.5-0.6,0.8-0.9c0.3-0.3,0.6-0.5,1-0.8
			l0.3-0.1c0.1,0,0.3-0.1,0.4-0.1c0.2-0.2,0.4-0.3,0.7-0.3c0.3,0,0.6,0.1,0.8,0.2c0.2,0.2,0.4,0.4,0.5,0.7c0,0.1,0.1,0.2,0.1,0.3
			c0,0.1,0.1,0.2,0.1,0.3c0,0.1,0.1,0.2,0.1,0.3c0,0.1,0,0.3,0,0.4c0,0.3-0.1,0.7-0.2,1c-0.1,0.4-0.2,0.7-0.4,1
			c-0.4,0.7-0.9,1.3-1.6,1.7c-0.2,0.2-0.5,0.3-0.7,0.4c-0.3,0.1-0.6,0.1-0.9,0.1c-0.3,0-0.6,0-0.8-0.1c-0.2-0.1-0.4-0.2-0.6-0.4
			c-0.2-0.2-0.3-0.4-0.3-0.6c-0.1-0.2-0.1-0.5-0.1-0.7C82.5,44.6,82.6,44.3,82.7,44z M83.7,44.1c0,0.1,0,0.2,0,0.3v0.2
			c0,0.1,0,0.3,0,0.4c0,0.1,0.1,0.2,0.2,0.3c0.1,0.1,0.2,0.2,0.3,0.2c0.1,0,0.3,0.1,0.4,0.1c0.3,0,0.6-0.1,0.9-0.2
			c0.3-0.2,0.5-0.4,0.7-0.6c0.2-0.2,0.4-0.5,0.5-0.8c0.1-0.2,0.2-0.5,0.3-0.8c0-0.1,0.1-0.3,0.1-0.4c0-0.1,0-0.2,0-0.4
			c0-0.1,0-0.2-0.1-0.3c0-0.1-0.1-0.2-0.2-0.3l-0.1-0.2c0-0.1-0.1-0.2-0.1-0.2c0,0.1-0.1,0.1-0.1,0.1c0,0-0.1,0.1-0.2,0.1
			c-0.1,0-0.2,0.1-0.3,0.1c-0.2,0-0.3,0.1-0.5,0.1c-0.1,0-0.3,0.1-0.4,0.2c-0.1,0.1-0.3,0.2-0.4,0.3c-0.1,0.1-0.3,0.3-0.4,0.4
			c-0.1,0.1-0.2,0.3-0.3,0.5c-0.1,0.1-0.2,0.3-0.3,0.5C83.7,43.8,83.7,44,83.7,44.1L83.7,44.1z"/>
		<path class="st0" d="M89.4,44c0.1-0.3,0.2-0.7,0.3-1c0.2-0.4,0.3-0.7,0.6-1c0.2-0.3,0.5-0.6,0.8-0.9c0.3-0.3,0.6-0.5,0.9-0.7
			c0.1-0.1,0.2-0.1,0.3-0.1c0.1,0,0.3,0,0.4,0c0.1,0,0.3,0,0.4,0c0.1,0,0.2,0.1,0.3,0.1c0.1,0.1,0.2,0.1,0.2,0.2
			c0,0.1,0.1,0.2,0.1,0.3c0,0.1,0,0.2,0,0.3c0,0.1-0.1,0.2-0.1,0.3c-0.1,0.1-0.1,0.1-0.2,0.2c-0.1,0-0.2,0.1-0.3,0.1
			c-0.1,0-0.2,0-0.3,0l-0.2-0.1l-0.1-0.1l-0.1,0c-0.2,0.1-0.3,0.2-0.5,0.3c-0.1,0.1-0.3,0.3-0.4,0.4c-0.1,0.2-0.2,0.3-0.3,0.5
			c-0.1,0.2-0.2,0.3-0.3,0.5s-0.2,0.3-0.2,0.5l-0.1,0.4c0,0.1-0.1,0.2-0.1,0.3c0,0.1,0,0.3,0,0.4c0,0.1,0,0.2,0,0.2
			c0,0.1,0,0.1,0.1,0.2c0,0.1,0.1,0.1,0.2,0.1c0.1,0,0.1,0.1,0.2,0.1c0.2,0,0.3,0,0.4-0.1l0.4-0.1c0.1-0.1,0.3-0.1,0.4-0.2l0.4-0.2
			l0.2-0.1c0.1-0.1,0.1-0.1,0.2-0.1l0.2-0.1c0.1,0,0.1,0,0.2,0c0.1,0,0.1,0,0.2,0c0.1,0,0.1,0.1,0.1,0.2c0,0.1,0,0.1,0,0.2
			c-0.1,0.3-0.3,0.6-0.6,0.8c-0.1,0.1-0.2,0.2-0.4,0.3l-0.4,0.2c-0.2,0.1-0.5,0.2-0.8,0.3c-0.2,0.1-0.4,0.1-0.7,0.1h-0.3
			c-0.1,0-0.1,0-0.2-0.1c-0.3-0.1-0.6-0.3-0.7-0.6c-0.2-0.3-0.2-0.6-0.2-0.9c0-0.1,0-0.3,0-0.5C89.2,44.3,89.3,44.2,89.4,44z"/>
		<path class="st0" d="M97.3,43.4c-0.1,0-0.2,0-0.3,0.1l-0.3,0.1l-0.3,0.2l-0.2,0.1l-0.6,2.2c0,0.1-0.1,0.2-0.2,0.2
			c-0.1,0-0.1,0.1-0.2,0.1c-0.2,0-0.3,0-0.5-0.1c-0.1-0.1-0.1-0.2-0.1-0.4c0-0.1,0-0.1,0-0.2c0-0.1,0-0.1,0-0.2v-0.1
			c0-0.1,0.1-0.2,0.1-0.4s0.1-0.4,0.1-0.5l0.2-0.6l0.1-0.5c0-0.1,0.1-0.4,0.2-0.7l0.3-1c0.1-0.4,0.2-0.8,0.3-1.2s0.2-0.8,0.3-1.2
			s0.2-0.7,0.3-1s0.1-0.5,0.2-0.7c0-0.1,0.1-0.1,0.2-0.1c0.1,0,0.2-0.1,0.3-0.1c0.1,0,0.2,0,0.2,0c0.1,0,0.1,0.1,0.2,0.1
			c0.1,0,0.1,0.1,0.2,0.1c0,0.1,0.1,0.1,0.1,0.2c0,0.1,0,0.1,0,0.2c-0.2,0.7-0.5,1.5-0.7,2.2s-0.5,1.5-0.7,2.3l0.3-0.2l0.5-0.4
			l0.5-0.4l0.5-0.4l0.2-0.2l0.2-0.2l0.2-0.2l0.1-0.1c0.1-0.1,0.2-0.2,0.2-0.2c0.1-0.1,0.2-0.1,0.3-0.1c0.1,0,0.2,0,0.2,0
			c0.1,0,0.1,0.1,0.2,0.1c0.1,0,0.1,0.1,0.1,0.1c0,0.1,0,0.1,0,0.2c0,0.1,0,0.1,0,0.2c0,0.1-0.1,0.1-0.1,0.2c0,0.1-0.1,0.1-0.1,0.2
			l-0.1,0.1c-0.1,0.1-0.2,0.2-0.4,0.3l-0.4,0.4l-0.5,0.4l-0.5,0.4c0.3,0.1,0.5,0.3,0.6,0.6c0.2,0.3,0.3,0.5,0.4,0.8
			c0.1,0.3,0.2,0.6,0.2,0.9c0,0.3,0,0.6,0,1V46c0,0,0,0.1,0,0.1c0,0.1,0,0.1-0.1,0.2c0,0.1-0.1,0.1-0.1,0.2c-0.1,0-0.1,0.1-0.2,0.1
			c-0.2,0.1-0.3,0.1-0.5,0c-0.1,0-0.1-0.1-0.2-0.1c0-0.1-0.1-0.1-0.1-0.2c0-0.1,0-0.1,0-0.2v-0.6c0-0.2,0-0.4-0.1-0.6
			c0-0.2-0.1-0.4-0.2-0.6c-0.1-0.2-0.1-0.3-0.2-0.5c-0.1-0.1-0.1-0.2-0.2-0.2C97.5,43.4,97.4,43.4,97.3,43.4L97.3,43.4z"/>
		<path class="st0" d="M103.5,42c0,0.3-0.1,0.6-0.3,0.8c-0.2,0.2-0.5,0.3-0.8,0.3c-0.2,0-0.4-0.1-0.5-0.2c-0.1-0.1-0.2-0.3-0.2-0.5
			c0-0.3,0.1-0.6,0.3-0.8c0.2-0.2,0.5-0.3,0.8-0.3c0.2,0,0.4,0.1,0.5,0.2C103.4,41.6,103.5,41.8,103.5,42z"/>
		<path class="st0" d="M105.5,44c0.1-0.3,0.2-0.7,0.3-1c0.2-0.4,0.3-0.7,0.6-1c0.2-0.3,0.5-0.6,0.8-0.9c0.3-0.3,0.6-0.5,0.9-0.7
			c0.1-0.1,0.2-0.1,0.3-0.1c0.1,0,0.3,0,0.4,0c0.1,0,0.3,0,0.4,0c0.1,0,0.2,0.1,0.3,0.1c0.1,0.1,0.1,0.1,0.2,0.2
			c0.1,0.1,0.1,0.2,0.1,0.3c0,0.1,0,0.2,0,0.3c0,0.1-0.1,0.2-0.1,0.3c-0.1,0.2-0.3,0.3-0.5,0.3c-0.1,0-0.2,0-0.2,0l-0.2-0.1
			l-0.1-0.1h-0.1c-0.2,0.1-0.3,0.2-0.5,0.3c-0.1,0.1-0.3,0.3-0.4,0.4c-0.2,0.3-0.5,0.6-0.6,1c-0.1,0.2-0.2,0.3-0.2,0.5
			c-0.1,0.2-0.1,0.3-0.2,0.4s0,0.2-0.1,0.3c0,0.1,0,0.3,0,0.4c0,0.1,0,0.2,0,0.2c0,0.1,0,0.1,0.1,0.2c0,0.1,0.1,0.1,0.2,0.1
			c0.1,0,0.2,0,0.2,0c0.2,0,0.3,0,0.5-0.1c0.1,0,0.3-0.1,0.4-0.1c0.1-0.1,0.3-0.1,0.4-0.2l0.4-0.2l0.2-0.1l0.2-0.1l0.2-0.1
			c0.1,0,0.1,0,0.2,0c0.1,0,0.1,0,0.2,0c0.1,0,0.1,0.1,0.1,0.2c0,0.1,0,0.1,0,0.2c-0.1,0.2-0.1,0.3-0.2,0.4
			c-0.1,0.1-0.2,0.2-0.3,0.4c-0.1,0.1-0.3,0.2-0.4,0.3c-0.1,0.1-0.3,0.1-0.4,0.2c-0.2,0.1-0.5,0.2-0.8,0.3c-0.2,0.1-0.4,0.1-0.7,0.1
			h-0.2c-0.1,0-0.1,0-0.2-0.1c-0.3-0.1-0.6-0.3-0.7-0.6c-0.2-0.3-0.2-0.6-0.2-0.9c0-0.1,0-0.3,0-0.5C105.4,44.4,105.4,44.2,105.5,44
			z"/>
		<path class="st0" d="M110.9,44c0.1-0.3,0.2-0.5,0.3-0.8c0.1-0.3,0.3-0.6,0.5-0.9c0.5-0.7,1.1-1.2,1.8-1.6c0.1,0,0.2-0.1,0.3-0.1
			c0.1,0,0.3-0.1,0.4-0.1c0.2-0.2,0.4-0.3,0.7-0.2c0.3,0,0.6,0.1,0.8,0.2c0.2,0.2,0.4,0.4,0.5,0.7l0.1,0.3c0,0.1,0.1,0.2,0.1,0.3
			c0,0.1,0.1,0.2,0.1,0.3c0,0.1,0,0.3,0,0.4c0,0.3-0.1,0.7-0.2,1c-0.1,0.3-0.3,0.7-0.5,1c-0.2,0.3-0.4,0.6-0.7,0.9
			c-0.3,0.3-0.6,0.6-0.9,0.8c-0.2,0.2-0.5,0.3-0.7,0.4c-0.3,0.1-0.6,0.1-0.9,0.1c-0.3,0-0.6,0-0.8-0.1c-0.4-0.1-0.8-0.5-0.9-0.9
			c-0.1-0.2-0.1-0.5-0.1-0.7C110.8,44.6,110.8,44.3,110.9,44z M111.9,44.1c0,0.1,0,0.2-0.1,0.3v0.2c0,0.1,0,0.3,0.1,0.4
			c0,0.1,0.1,0.2,0.2,0.3c0.1,0.1,0.2,0.2,0.3,0.2c0.1,0,0.3,0.1,0.4,0.1c0.3,0,0.6-0.1,0.9-0.2c0.3-0.2,0.5-0.4,0.7-0.6
			c0.4-0.4,0.7-1,0.8-1.5c0-0.1,0.1-0.3,0.1-0.4c0-0.1,0-0.2,0-0.4c0-0.1,0-0.2,0-0.3c0-0.1-0.1-0.2-0.2-0.3l-0.1-0.2
			c0-0.1-0.1-0.1-0.1-0.2l-0.1,0.1c0,0.1-0.1,0.1-0.2,0.1c-0.1,0-0.2,0.1-0.3,0.1c-0.2,0-0.3,0.1-0.5,0.1c-0.1,0-0.3,0.1-0.4,0.2
			c-0.1,0.1-0.3,0.2-0.4,0.3c-0.1,0.1-0.3,0.3-0.4,0.4c-0.2,0.3-0.4,0.6-0.6,0.9C112,43.8,111.9,44,111.9,44.1L111.9,44.1z"/>
	</g>
	<path class="st6" d="M50.2,47.1c0-0.2,0-0.3,0.1-0.5c0.1-0.6,0.3-1.1,0.5-1.6s0.4-1.1,0.5-1.6s0.3-1,0.4-1.4s0.2-0.7,0.3-0.9
		s0.2-0.5,0.2-0.7s0.1-0.4,0.2-0.6l0.2-0.4c0.1-0.1,0.1-0.2,0.2-0.3c0.1-0.1,0.1-0.2,0.2-0.2c0.1-0.1,0.2-0.1,0.2-0.1
		c0.1,0,0.3,0,0.4,0.1c0.1,0,0.1,0.1,0.2,0.1l0.1,0.2H54c0.1,0,0.2,0,0.3-0.1l0.3-0.1c0.1,0,0.1,0,0.2-0.1l0.8-0.2
		c0.2,0,0.5-0.1,0.7-0.1s0.4-0.1,0.6-0.1c0.2,0,0.4,0,0.6,0c0.2,0,0.3,0,0.5,0c0.1,0,0.2,0,0.3,0.1c0.1,0,0.1,0.1,0.2,0.1
		c0,0.1,0,0.1,0,0.2c0,0,0,0.1,0,0.1c0,0.1-0.1,0.1-0.1,0.2c-0.1,0.1-0.2,0.1-0.2,0.1c-0.1,0-0.3,0.1-0.4,0.1h-0.3l-0.4,0.1
		l-0.4,0.1l-0.3,0l0,0l-0.2,0L55.6,40l-0.4,0.1l-0.5,0.1l-0.4,0.1L54,40.4c-0.2,0.1-0.4,0.2-0.6,0.4c-0.1,0.2-0.3,0.3-0.3,0.5
		c0,0.1,0,0.1-0.1,0.2l-0.1,0.3c0,0.1-0.1,0.2-0.1,0.4s-0.1,0.2-0.1,0.4s-0.1,0.2-0.1,0.3c0,0.1,0,0.1-0.1,0.2v0.1v0.1l0,0
		c0.1,0,0.3,0,0.4-0.1l0.7-0.2l0.8-0.3l0.9-0.3c0.3-0.1,0.5-0.2,0.7-0.2c0.2-0.1,0.3-0.1,0.5-0.1c0.1,0,0.2,0,0.3,0.1
		c0,0,0.1,0.1,0.1,0.2c0,0.1-0.1,0.3-0.2,0.4c-0.1,0.1-0.2,0.2-0.4,0.3L56,43.2l-0.4,0.1l-0.4,0.1l-0.3,0.1l-1,0.4l-0.6,0.2
		l-0.4,0.1l-0.2,0.1l-0.2,0.1L52,44.6c0,0.1-0.1,0.3-0.1,0.4l-0.2,0.5c0,0.2-0.1,0.4-0.1,0.5c0,0.1,0,0.2,0,0.3c0,0.1,0,0.1,0,0.2
		c0,0,0,0.1,0.1,0.1h0.2c0.2,0,0.5,0,0.7-0.1c0.3-0.1,0.6-0.1,0.8-0.2c0.2-0.1,0.5-0.2,0.7-0.3l0.5-0.3c0.2-0.1,0.3-0.2,0.5-0.2
		c0.2-0.1,0.3-0.1,0.5-0.1h0.2c0.1,0,0.1,0,0.2,0c0,0,0.1,0.1,0.1,0.1c0,0,0,0.1,0,0.1c0,0.1-0.1,0.3-0.2,0.4
		c-0.1,0.1-0.2,0.2-0.4,0.3c-0.2,0.1-0.3,0.2-0.5,0.3c-0.2,0.1-0.4,0.2-0.6,0.3l-0.6,0.2l-0.5,0.2c-0.4,0.1-0.7,0.2-1.1,0.3
		c-0.3,0.1-0.7,0.1-1,0.1c-0.3,0-0.5,0-0.7-0.2C50.3,47.4,50.2,47.3,50.2,47.1z"/>
	<path class="st6" d="M57.7,45.4c0.1-0.2,0.1-0.5,0.2-0.7c0.1-0.2,0.2-0.5,0.3-0.7c0.1-0.2,0.3-0.4,0.5-0.6c0.2-0.2,0.4-0.4,0.6-0.6
		c0.2-0.1,0.3-0.3,0.5-0.4c0.2-0.1,0.4-0.2,0.6-0.3c0.2-0.1,0.4-0.2,0.6-0.2c0.2,0,0.4-0.1,0.6-0.1c0.1,0,0.2,0,0.4,0l0.3,0.1
		l0.3-1.1c0.2-0.6,0.4-1.5,0.7-2.6c0-0.1,0.1-0.2,0.2-0.3c0.1-0.1,0.2-0.1,0.3-0.1h0.2c0.1,0,0.2,0,0.2,0.1c0.1,0,0.1,0.1,0.2,0.2
		c0,0.1,0.1,0.2,0.1,0.3l-1.2,5c0,0.2-0.1,0.4-0.1,0.6c0,0.2-0.1,0.5-0.1,0.8s0,0.5-0.1,0.8s0,0.5,0,0.7c0,0.2,0,0.5-0.1,0.7
		c0,0.1,0,0.2-0.1,0.3c0,0.1-0.1,0.1-0.1,0.2c0,0-0.1,0.1-0.2,0.1c-0.1,0-0.2,0-0.2,0c-0.1,0-0.2,0-0.3,0c-0.1,0-0.1-0.1-0.2-0.1
		c0,0-0.1-0.1-0.1-0.1v-0.4c0-0.1,0-0.1,0-0.2l-0.2,0.1l-0.3,0.2l-0.2,0.1L60.8,47l-0.3,0.2c-0.1,0.1-0.3,0.1-0.4,0.2
		c-0.1,0.1-0.3,0.1-0.4,0.1c-0.2,0-0.3,0-0.5,0c-0.2,0-0.4,0-0.5-0.1c-0.2-0.1-0.3-0.2-0.5-0.3c-0.1-0.1-0.3-0.3-0.3-0.5
		c-0.1-0.2-0.1-0.5-0.1-0.7v-0.3C57.6,45.6,57.7,45.5,57.7,45.4z M58.8,45.4c0,0.1,0,0.2,0,0.4c0,0.1,0,0.2,0,0.3
		c0,0.1,0.1,0.2,0.1,0.3c0.1,0.1,0.1,0.1,0.2,0.2c0.1,0.1,0.2,0.1,0.4,0.1c0.1,0,0.2,0,0.3,0c0.1,0,0.2-0.1,0.3-0.1l0.3-0.1l0.2-0.1
		c0.2-0.1,0.3-0.2,0.4-0.3c0.1-0.1,0.3-0.2,0.4-0.3c0.1-0.1,0.2-0.2,0.3-0.4c0.1-0.2,0.1-0.3,0.2-0.5c0-0.2,0.1-0.3,0.1-0.5l0.1-0.4
		l0.1-0.4c0-0.1,0-0.3,0.1-0.5c0,0,0-0.1-0.1-0.1c0,0-0.1,0-0.2,0c-0.2,0-0.4,0-0.5,0.1c-0.2,0.1-0.4,0.1-0.6,0.2
		c-0.2,0.1-0.4,0.2-0.6,0.4c-0.2,0.1-0.4,0.3-0.6,0.5c-0.2,0.2-0.3,0.4-0.5,0.6C58.9,45.1,58.8,45.3,58.8,45.4L58.8,45.4z"/>
	<path class="st6" d="M65.8,42.1c0-0.1,0-0.1,0.1-0.2c0,0,0.1-0.1,0.1-0.1l0.1-0.1h0.2h0.2h0.2c0.1,0,0.2,0,0.2,0.1
		c0.1,0.1,0.1,0.2,0.1,0.3c0,0.1,0,0.2,0,0.2c-0.1,0.5-0.3,1-0.4,1.4l-0.3,1c-0.1,0.3-0.2,0.5-0.2,0.6c0,0.1-0.1,0.3-0.1,0.4
		c0,0.1,0,0.2,0,0.3c0,0.1,0.1,0.2,0.1,0.3c0,0.1,0.1,0.2,0.2,0.2c0.1,0.1,0.2,0.1,0.2,0.1c0.2,0,0.4-0.1,0.5-0.2
		c0.2-0.1,0.4-0.2,0.5-0.4c0.2-0.2,0.3-0.3,0.4-0.5l0.3-0.5l0.2-0.3c0.1-0.2,0.2-0.4,0.3-0.6c0.1-0.2,0.2-0.5,0.2-0.7
		s0.1-0.4,0.2-0.6s0.1-0.4,0.1-0.5l0.2-0.8c0-0.1,0.1-0.2,0.2-0.3c0.1-0.1,0.2-0.1,0.3-0.1c0.1,0,0.2,0,0.3,0c0.1,0,0.2,0.1,0.2,0.1
		c0.1,0.1,0.1,0.1,0.1,0.2c0,0.1,0,0.3,0,0.4c0,0.2,0,0.4-0.1,0.6l-0.2,0.8c0,0.1-0.1,0.3-0.1,0.5s-0.1,0.3-0.1,0.5S70,44.8,70,44.9
		s0,0.3,0,0.4s0,0.4,0,0.6s0,0.4,0,0.7v0.3c0,0.1,0,0.1,0,0.2c0,0.1-0.1,0.3-0.2,0.4c-0.1,0.1-0.2,0.1-0.4,0.1c-0.1,0-0.2,0-0.3,0
		c-0.1,0-0.1-0.1-0.2-0.1c0,0-0.1-0.1-0.1-0.1c0-0.1,0-0.1,0-0.2L68.8,46h0c-0.1,0.2-0.3,0.4-0.5,0.6c-0.2,0.2-0.3,0.4-0.5,0.6
		c-0.2,0.2-0.4,0.3-0.6,0.5c-0.2,0.1-0.5,0.2-0.7,0.2h-0.2l-0.3-0.1c-0.1,0-0.2-0.1-0.3-0.1l-0.2-0.1c-0.2-0.2-0.4-0.4-0.5-0.7
		c-0.1-0.3-0.1-0.5-0.1-0.8c0-0.2,0-0.3,0-0.5c0-0.1,0-0.3,0.1-0.4c0-0.1,0.1-0.3,0.1-0.4c0-0.1,0.1-0.2,0.1-0.3
		c0.1-0.3,0.1-0.6,0.2-0.8s0.1-0.5,0.2-0.6s0.1-0.3,0.1-0.5S65.7,42.1,65.8,42.1z"/>
	<path class="st6" d="M78.1,44.8c0,0.3-0.1,0.6-0.3,0.9c-0.2,0.4-0.5,0.7-0.8,0.9l-0.4,0.3c-0.2,0.1-0.4,0.2-0.6,0.3
		c-0.2,0.1-0.4,0.2-0.6,0.3s-0.4,0.2-0.7,0.2l-0.7,0.2c-0.2,0-0.4,0.1-0.6,0.1h-0.2c-0.1,0-0.1,0-0.2-0.1c-0.1,0-0.1-0.1-0.2-0.1
		c-0.1-0.1-0.1-0.2-0.2-0.2c-0.1,0.1-0.2,0.1-0.3,0.2c-0.1,0-0.2,0.1-0.3,0.1h-0.2c0,0-0.1,0-0.1,0c0,0-0.1,0-0.1-0.1
		c0,0,0-0.1-0.1-0.1c0,0,0-0.1,0-0.1c0-0.2,0-0.4,0.1-0.6c0.1-0.2,0.1-0.4,0.2-0.6c0.1-0.4,0.2-0.7,0.4-1.1s0.2-0.8,0.3-1.1
		s0.2-0.8,0.3-1.2s0.2-0.7,0.3-1.1l0.2-0.7v-0.6v-0.1l0,0c0-0.1,0.1-0.2,0.1-0.3c0-0.1,0.1-0.2,0.1-0.3c0-0.1,0.1-0.1,0.2-0.2
		c0.1-0.1,0.1-0.1,0.2-0.1h0.7h0.2c0.1,0,0.2,0,0.2-0.1l0.4-0.1l0.7-0.2l0.6-0.1c0.2,0,0.3-0.1,0.5-0.1c0.2,0,0.3,0,0.5,0
		c0.2,0,0.4,0,0.6,0.1c0.2,0,0.4,0.1,0.5,0.2c0.3,0.2,0.5,0.5,0.5,0.9c0,0.4-0.1,0.7-0.3,1c-0.2,0.3-0.5,0.6-0.8,0.8
		c-0.4,0.3-0.8,0.5-1.3,0.7c-0.5,0.2-1,0.4-1.7,0.6c0.4,0.1,0.8,0.2,1.3,0.3c0.3,0.1,0.6,0.2,0.9,0.4c0.2,0.1,0.4,0.3,0.5,0.5
		C78.1,44.5,78.1,44.6,78.1,44.8z M76,44.2h-0.2l-0.4-0.1L75,44.1L74.5,44l-0.4-0.1l-0.3-0.1c-0.2,0.5-0.3,1-0.4,1.5L73,46.7l0.4,0
		h0.2h0.1c0.2,0,0.4-0.1,0.5-0.1c0.2,0,0.4-0.1,0.6-0.2c0.2-0.1,0.4-0.2,0.7-0.2c0.2-0.1,0.4-0.2,0.7-0.3l0.2-0.2
		c0.1-0.1,0.2-0.2,0.2-0.2c0.1-0.1,0.1-0.2,0.2-0.3c0-0.1,0.1-0.2,0.1-0.3c0-0.2-0.1-0.3-0.3-0.4C76.5,44.4,76.3,44.3,76,44.2z
		 M74.1,42.8c0.2-0.1,0.5-0.2,0.7-0.3s0.5-0.2,0.8-0.3l0.8-0.4l0.8-0.4l0,0c0.1-0.1,0.2-0.1,0.3-0.2c0.1-0.1,0.2-0.2,0.3-0.2
		c0.1-0.1,0.1-0.2,0.2-0.3c0-0.1,0.1-0.2,0.1-0.3c0-0.1,0-0.1,0-0.2c0-0.1-0.1-0.1-0.1-0.2c-0.1-0.1-0.2-0.1-0.2-0.1
		c-0.1,0-0.3-0.1-0.4,0c-0.2,0-0.5,0-0.7,0.1c-0.3,0-0.5,0.1-0.8,0.2c-0.2,0.1-0.4,0.2-0.7,0.2c-0.1,0.1-0.3,0.2-0.4,0.3
		c0,0,0,0.1,0,0.1l-0.1,0.2l-0.1,0.2c0,0.1-0.1,0.1-0.1,0.2c0,0.1,0,0.1,0,0.2l-0.1,0.3c0,0.1-0.1,0.2-0.1,0.4S74.1,42.6,74.1,42.8z
		"/>
	<path class="st6" d="M81.3,39.1c0-0.2,0.1-0.3,0.1-0.5c0-0.1,0.1-0.2,0.2-0.4c0.1-0.1,0.2-0.1,0.3-0.1c0.1,0,0.1,0,0.2,0
		c0.1,0,0.2,0.1,0.2,0.1c0.1,0,0.1,0.1,0.2,0.2c0,0.1,0.1,0.1,0.1,0.2c0,0,0,0.1,0,0.1c0,0,0,0.1,0,0.1L81,45
		c-0.1,0.2-0.1,0.5-0.2,0.7c0,0.2-0.1,0.4-0.1,0.5v0.1c0,0.1,0,0.3,0,0.4c0,0.1-0.1,0.3-0.1,0.4c0,0.1-0.1,0.2-0.2,0.3
		c-0.1,0.1-0.2,0.1-0.3,0.1c-0.1,0-0.2,0-0.3-0.1c-0.1,0-0.1-0.1-0.2-0.2c-0.1-0.1-0.1-0.1-0.1-0.2c0-0.1,0-0.2,0-0.2v-0.2
		c0-0.1,0-0.2,0-0.3c0-0.1,0-0.2,0.1-0.3l0.1-0.3l1.6-6.3C81.2,39.4,81.3,39.2,81.3,39.1z"/>
	<path class="st6" d="M82.7,45.2c0.1-0.3,0.2-0.5,0.3-0.8c0.1-0.3,0.3-0.6,0.5-0.9c0.2-0.3,0.5-0.6,0.8-0.8c0.3-0.3,0.6-0.5,1-0.8
		c0.1-0.1,0.2-0.1,0.3-0.1c0.1,0,0.3-0.1,0.4-0.1c0.2-0.2,0.4-0.3,0.7-0.3c0.3,0,0.6,0.1,0.8,0.2c0.2,0.2,0.4,0.4,0.5,0.7
		c0,0.1,0.1,0.2,0.1,0.3c0,0.1,0.1,0.2,0.1,0.3c0,0.1,0,0.2,0.1,0.3c0,0.1,0,0.3,0,0.4c0,0.3-0.1,0.7-0.2,1c-0.1,0.4-0.3,0.7-0.4,1
		c-0.2,0.3-0.4,0.6-0.7,0.9c-0.3,0.3-0.6,0.6-0.9,0.8c-0.2,0.2-0.5,0.3-0.7,0.4c-0.3,0.1-0.6,0.1-0.9,0.1c-0.3,0-0.6,0-0.8-0.1
		c-0.2-0.1-0.4-0.2-0.6-0.4c-0.2-0.2-0.3-0.3-0.3-0.6c-0.1-0.2-0.1-0.5-0.1-0.7C82.5,45.8,82.6,45.5,82.7,45.2z M83.7,45.3
		c0,0.1,0,0.2,0,0.3c0,0.1,0,0.2,0,0.2c0,0.1,0,0.3,0,0.4c0,0.1,0.1,0.2,0.2,0.3c0.1,0.1,0.2,0.1,0.3,0.2c0.1,0.1,0.3,0.1,0.4,0.1
		c0.3,0,0.6-0.1,0.9-0.2c0.3-0.2,0.5-0.4,0.7-0.6c0.2-0.2,0.4-0.5,0.5-0.8c0.1-0.2,0.2-0.5,0.3-0.8c0-0.1,0.1-0.3,0.1-0.4
		c0-0.1,0-0.2,0-0.4c0-0.1,0-0.2-0.1-0.3c0-0.1-0.1-0.2-0.2-0.3l-0.1-0.2c0-0.1-0.1-0.2-0.1-0.2c0,0.1-0.1,0.1-0.1,0.1
		c0,0-0.1,0.1-0.2,0.1l-0.3,0.1L85.6,43c-0.1,0-0.3,0.1-0.4,0.2c-0.1,0.1-0.3,0.2-0.4,0.3c-0.1,0.1-0.3,0.3-0.4,0.4
		c-0.1,0.1-0.2,0.3-0.3,0.5s-0.2,0.3-0.3,0.5C83.7,45,83.7,45.1,83.7,45.3L83.7,45.3z"/>
	<path class="st6" d="M89.4,45.1c0.1-0.3,0.2-0.7,0.3-1c0.2-0.3,0.3-0.7,0.6-1c0.2-0.3,0.5-0.6,0.8-0.9c0.3-0.3,0.6-0.5,0.9-0.7
		c0.1-0.1,0.2-0.1,0.3-0.1c0.1,0,0.3,0,0.4,0c0.1,0,0.3,0,0.4,0c0.1,0,0.2,0.1,0.3,0.1c0.1,0.1,0.1,0.1,0.2,0.2
		c0.1,0.1,0.1,0.2,0.1,0.3c0,0.1,0,0.2,0,0.3c0,0.1-0.1,0.2-0.1,0.3c-0.1,0.1-0.1,0.1-0.2,0.2c-0.1,0-0.2,0.1-0.3,0.1
		c-0.1,0-0.2,0-0.2,0l-0.2-0.1c0,0-0.1,0-0.1-0.1c0,0-0.1,0-0.1-0.1c-0.2,0.1-0.3,0.2-0.5,0.3c-0.1,0.1-0.3,0.3-0.4,0.4
		c-0.1,0.1-0.2,0.3-0.3,0.5c-0.1,0.2-0.2,0.3-0.3,0.5c-0.1,0.2-0.2,0.3-0.2,0.5c-0.1,0.2-0.1,0.3-0.2,0.5c0,0.1-0.1,0.2-0.1,0.3
		c0,0.1,0,0.3,0,0.4c0,0.1,0,0.2,0,0.2c0,0.1,0,0.1,0.1,0.2c0,0.1,0.1,0.1,0.2,0.1c0.1,0,0.2,0.1,0.2,0c0.1,0,0.3,0,0.4-0.1
		c0.1,0,0.3-0.1,0.4-0.1c0.1-0.1,0.3-0.1,0.4-0.2l0.4-0.2l0.2-0.2l0.2-0.1l0.2-0.1c0.1,0,0.1,0,0.2,0c0.1,0,0.1,0,0.2,0
		c0.1,0,0.1,0.1,0.1,0.1c0,0.1,0,0.1,0,0.2c-0.1,0.2-0.1,0.3-0.2,0.4c-0.1,0.1-0.2,0.2-0.3,0.4c-0.1,0.1-0.3,0.2-0.4,0.3l-0.4,0.2
		c-0.2,0.1-0.5,0.2-0.8,0.3c-0.2,0.1-0.4,0.1-0.7,0.1h-0.3c-0.1,0-0.1,0-0.2-0.1c-0.3-0.1-0.6-0.3-0.7-0.6c-0.2-0.3-0.2-0.6-0.2-0.9
		c0-0.1,0-0.3,0-0.5C89.2,45.5,89.3,45.3,89.4,45.1z"/>
	<path class="st6" d="M97.3,44.6c-0.1,0-0.2,0-0.3,0.1c-0.1,0-0.2,0.1-0.3,0.1c-0.1,0-0.2,0.1-0.3,0.2l-0.2,0.1l-0.6,2.2
		c0,0.1-0.1,0.2-0.2,0.2c-0.1,0-0.1,0.1-0.2,0.1c-0.2,0-0.3,0-0.5-0.1c-0.1-0.1-0.1-0.2-0.1-0.4c0-0.1,0-0.1,0-0.2
		c0-0.1,0-0.1,0-0.2v-0.1c0-0.1,0.1-0.2,0.1-0.4s0.1-0.4,0.1-0.5l0.2-0.6l0.1-0.5c0-0.1,0.1-0.4,0.2-0.7l0.3-1
		c0.1-0.4,0.2-0.8,0.3-1.2l0.3-1.2c0.1-0.4,0.2-0.7,0.3-1s0.1-0.5,0.2-0.6c0-0.1,0.1-0.1,0.2-0.1c0.1,0,0.2,0,0.3,0h0.2
		c0.1,0,0.1,0,0.2,0.1c0.1,0,0.1,0.1,0.2,0.1c0,0.1,0.1,0.1,0.1,0.2c0,0.1,0,0.1,0,0.2c-0.2,0.7-0.5,1.5-0.7,2.2s-0.5,1.5-0.7,2.3
		l0.3-0.2c0.1-0.1,0.3-0.2,0.5-0.4l0.5-0.4l0.5-0.4l0.2-0.3l0.2-0.2l0.2-0.2l0.1-0.1c0.1-0.1,0.1-0.2,0.2-0.3
		c0.1-0.1,0.2-0.1,0.3-0.1c0.2,0,0.3,0.1,0.4,0.1c0.1,0,0.1,0.1,0.1,0.1c0,0.1,0,0.1,0,0.2c0,0.1,0,0.1,0,0.2c0,0.1-0.1,0.1-0.1,0.2
		c0,0.1-0.1,0.1-0.1,0.2c0,0.1-0.1,0.1-0.1,0.1c-0.1,0.1-0.2,0.2-0.4,0.3L99,43.1c-0.2,0.1-0.3,0.2-0.5,0.4l-0.5,0.4
		c0.3,0.1,0.5,0.3,0.6,0.6c0.2,0.3,0.3,0.5,0.4,0.8c0.1,0.3,0.2,0.6,0.2,0.9c0,0.3,0,0.6,0,1v0.1c0,0,0,0.1,0,0.1
		c0,0.1,0,0.1-0.1,0.2c0,0.1-0.1,0.1-0.1,0.2c-0.1,0-0.1,0.1-0.2,0.1c-0.2,0.1-0.3,0.1-0.5,0c-0.1,0-0.1-0.1-0.2-0.1
		c0-0.1-0.1-0.1-0.1-0.2c0-0.1,0-0.1,0-0.2v-0.6c0-0.2,0-0.4-0.1-0.6c0-0.2-0.1-0.4-0.2-0.6c-0.1-0.2-0.1-0.3-0.2-0.5
		c-0.1-0.1-0.1-0.2-0.2-0.2C97.5,44.7,97.4,44.7,97.3,44.6L97.3,44.6z"/>
	<path class="st6" d="M103.5,43.1c0,0.3-0.1,0.6-0.3,0.7c-0.2,0.2-0.5,0.3-0.8,0.3c-0.4,0-0.8-0.3-0.8-0.8l0,0
		c0-0.3,0.1-0.6,0.3-0.8c0.2-0.2,0.5-0.3,0.8-0.3c0.2,0,0.4,0.1,0.5,0.2C103.4,42.7,103.5,42.9,103.5,43.1z"/>
	<path class="st6" d="M105.5,45.1c0.1-0.3,0.2-0.7,0.3-1c0.2-0.3,0.3-0.7,0.6-1c0.2-0.3,0.5-0.6,0.8-0.9c0.3-0.3,0.6-0.5,0.9-0.7
		c0.1-0.1,0.2-0.1,0.4-0.1c0.1,0,0.3,0,0.4,0c0.1,0,0.3,0,0.4,0c0.1,0,0.2,0.1,0.3,0.1c0.1,0.1,0.2,0.1,0.2,0.2
		c0.1,0.1,0.1,0.2,0.1,0.3c0,0.1,0,0.2,0,0.3c0,0.1-0.1,0.2-0.1,0.3c-0.1,0.1-0.1,0.1-0.2,0.2c-0.1,0.1-0.2,0.1-0.3,0.1
		c-0.1,0-0.2,0-0.2,0l-0.2-0.1l-0.1-0.1l-0.1,0c-0.2,0.1-0.3,0.2-0.5,0.3c-0.1,0.1-0.3,0.3-0.4,0.4c-0.1,0.1-0.2,0.3-0.3,0.5
		c-0.1,0.2-0.2,0.3-0.3,0.5s-0.2,0.3-0.2,0.5s-0.1,0.3-0.2,0.5s0,0.2-0.1,0.3c0,0.1,0,0.3,0,0.4c0,0.1,0,0.2,0,0.2
		c0,0.1,0,0.1,0.1,0.2c0,0.1,0.1,0.1,0.2,0.1c0.1,0,0.2,0,0.2,0c0.2,0,0.3,0,0.5-0.1c0.1,0,0.3-0.1,0.4-0.1c0.1-0.1,0.3-0.1,0.4-0.2
		l0.4-0.2l0.2-0.2l0.2-0.1l0.2-0.1c0.1,0,0.1,0,0.2,0c0.1,0,0.1,0,0.2,0c0.1,0,0.1,0.1,0.1,0.1c0,0.1,0,0.1,0,0.2
		c-0.1,0.2-0.1,0.3-0.2,0.4c-0.1,0.1-0.2,0.2-0.3,0.4c-0.1,0.1-0.3,0.2-0.4,0.3l-0.4,0.2c-0.2,0.1-0.5,0.2-0.8,0.3
		c-0.2,0.1-0.4,0.1-0.7,0.1h-0.2l-0.2-0.1c-0.3-0.1-0.6-0.3-0.7-0.6c-0.2-0.3-0.2-0.6-0.2-0.9v-0.5
		C105.4,45.5,105.4,45.3,105.5,45.1z"/>
	<path class="st6" d="M110.9,45.2c0.1-0.3,0.2-0.5,0.3-0.8c0.1-0.3,0.3-0.6,0.5-0.9c0.2-0.3,0.5-0.6,0.8-0.8c0.3-0.3,0.6-0.5,1-0.8
		c0.1-0.1,0.2-0.1,0.3-0.1c0.1,0,0.2-0.1,0.4-0.1c0.2-0.2,0.4-0.3,0.7-0.3c0.3,0,0.6,0.1,0.8,0.2c0.2,0.2,0.4,0.4,0.5,0.7
		c0,0.1,0.1,0.2,0.1,0.3c0,0.1,0.1,0.2,0.1,0.3c0,0.1,0,0.2,0.1,0.3c0,0.1,0,0.3,0,0.4c0,0.3-0.1,0.7-0.2,1c-0.1,0.3-0.3,0.7-0.4,1
		c-0.4,0.7-0.9,1.3-1.6,1.7c-0.2,0.2-0.5,0.3-0.7,0.4c-0.3,0.1-0.6,0.1-0.9,0.1c-0.3,0-0.6,0-0.8-0.1c-0.2-0.1-0.4-0.2-0.6-0.4
		c-0.2-0.2-0.3-0.3-0.3-0.6c-0.1-0.2-0.1-0.5-0.1-0.7C110.7,45.8,110.8,45.5,110.9,45.2z M111.9,45.3c0,0.1,0,0.2-0.1,0.3v0.2
		c0,0.1,0,0.3,0.1,0.4c0,0.1,0.1,0.2,0.2,0.3c0.1,0.1,0.2,0.2,0.3,0.2c0.1,0.1,0.3,0.1,0.4,0.1c0.3,0,0.6-0.1,0.9-0.2
		c0.3-0.2,0.5-0.4,0.7-0.6c0.4-0.4,0.7-1,0.8-1.5c0-0.1,0.1-0.3,0.1-0.4c0-0.1,0-0.2,0-0.4c0-0.1,0-0.2,0-0.3c0-0.1-0.1-0.2-0.2-0.3
		l-0.1-0.2c0-0.1-0.1-0.1-0.1-0.2l-0.1,0.1c0,0.1-0.1,0.1-0.2,0.1l-0.3,0.1l-0.5,0.1c-0.1,0-0.3,0.1-0.4,0.2
		c-0.1,0.1-0.3,0.2-0.4,0.3c-0.3,0.3-0.5,0.5-0.7,0.9c-0.1,0.1-0.2,0.3-0.3,0.5C112,45,111.9,45.1,111.9,45.3L111.9,45.3z"/>
</g>
</svg>
