<?xml version="1.0" encoding="utf-8"?>
<!-- Generator: Adobe Illustrator 25.2.1, SVG Export Plug-In . SVG Version: 6.00 Build 0)  -->
<svg version="1.1" id="Layer_1" xmlns="http://www.w3.org/2000/svg" xmlns:xlink="http://www.w3.org/1999/xlink" x="0px" y="0px"
	 viewBox="0 0 148.2 80" style="enable-background:new 0 0 148.2 80;" xml:space="preserve">
<style type="text/css">
	.st0{fill:#059849;}
	.st1{fill:#EA2228;}
	.st2{fill:none;stroke:#F8EC26;stroke-width:2.06;stroke-miterlimit:10;}
	.st3{fill:#F8EC26;}
	.st4{fill:#0CA64C;}
</style>
<g>
	<path class="st0" d="M31.9,63.9C14.3,63.9,0,49.6,0,31.9S14.3,0,31.9,0s31.9,14.3,31.9,31.9c0,8.5-3.4,16.6-9.4,22.6
		C48.5,60.5,40.4,63.9,31.9,63.9z M31.9,0.7c-17.3,0-31.3,14-31.3,31.3c0,17.3,14,31.3,31.3,31.3c17.3,0,31.3-14,31.3-31.3
		c0,0,0,0,0,0C63.2,14.7,49.2,0.7,31.9,0.7z"/>
	<circle class="st1" cx="31.9" cy="31.9" r="21.2"/>
	<path class="st2" d="M15.5,52.1"/>
	<path class="st0" d="M24.5,55.7L23.7,55c-2.6-0.9-5-2.3-7.1-4l0.5,0.9l0.1,0.1c0.1,0.2,0.2,0.4,0.4,0.6l0.2,0.2l0.5,0.3
		c0.1,0.1,0.2,0.2,0.4,0.3c0.1,0.1,0.2,0.2,0.2,0.3c0.1,0.2,0.1,0.4,0.1,0.6c-0.4,0-0.7,0-0.9,0c-0.1,0-0.3,0-0.4-0.1
		c-0.1-0.1-0.2-0.2-0.2-0.4c0-0.1,0-0.2,0-0.3l-0.8-0.2c0.1,0.3,0.2,0.6,0.3,0.8c0.1,0.2,0.2,0.3,0.3,0.5c0.2,0.2,0.3,0.3,0.5,0.4
		l0.3,0.1c0.2,0.1,0.4,0.1,0.6,0.1c0.2,0,0.4,0,0.5,0h0.7c0.2,0,0.5,0,0.7,0.1c0.2,0.1,0.3,0.2,0.5,0.3c0.1,0.1,0.2,0.2,0.2,0.3
		l-0.6,1.3c0.3,0.3,0.5,0.6,0.8,0.9l1.2-3l0.9,0.3L24.5,55.7z M21.4,55.4c-0.2-0.2-0.3-0.4-0.5-0.6c-0.1-0.1-0.3-0.3-0.5-0.3
		c-0.3-0.1-0.5-0.2-0.8-0.2l0,0c0.1-0.2,0-0.5-0.3-0.9l0.3,0.2l0.3,0.2l0.6,0.3l0.6,0.3l0.6,0.3L21.4,55.4z"/>
	<path class="st0" d="M30.5,56.8c-0.3-0.2-0.6-0.3-1-0.5c-1.2-0.1-2.3-0.3-3.5-0.6c-1.1-0.3-2.3-0.7-3.4-1.1l0.8,0.8
		c1.3,0.5,2.7,0.9,4.1,1.1v0.1c-1.4-0.1-2.9-0.1-4.5-0.2c0.3,0.3,0.6,0.6,0.9,1c0.3,0.1,0.6,0.2,0.9,0.3l0.4,0.2l0.4,0.2l0.3,0.2
		l0.3,0.2c0.2,0.1,0.3,0.2,0.5,0.4l0.2,0.2l0.5,0.5l0.6,0.3l0.4-3.2l0.9,0.1h0.2H30L30.5,56.8z M25.8,58.9c0.2,0,0.3-0.2,0.2-0.3
		c-0.1-0.1-0.2-0.2-0.3-0.3c-0.2-0.1-0.4-0.2-0.6-0.2C24.9,58,24.7,58,24.5,58c-0.2,0-0.3,0.1-0.3,0.2s0,0.2,0.2,0.3
		c0.1,0.1,0.2,0.1,0.3,0.2c0.1,0.1,0.2,0.1,0.4,0.1C25.3,58.9,25.5,58.9,25.8,58.9z M27.2,58.5c-0.3-0.3-0.6-0.5-1-0.7l-0.6-0.3
		l-0.3-0.2l-0.2-0.1L25,57.1c0.2,0,0.4,0,0.6,0h0.6c0.4,0,0.8,0,1.2,0L27.2,58.5z"/>
	<path class="st0" d="M36,57.7c-0.2,0-0.3,0.1-0.5,0.1c-0.3,0.2-0.5,0.3-0.5,0.4s0.1,0.2,0.4,0.3c0.3,0,0.5,0,0.8,0
		c0.4,0,0.7-0.2,1-0.4c0.2-0.2,0.3-0.3,0.3-0.5c0-0.1-0.1-0.2-0.1-0.2c-0.3-0.3-0.7-0.5-1.1-0.5c-0.3-0.1-0.6-0.1-0.9-0.1h-0.4h-0.4
		v-0.1c1.4-0.1,2.7-0.4,4-0.7c-0.4-0.1-0.7-0.1-1.1-0.2c-1.5,0.3-3,0.6-4.5,0.6c-1.5,0.1-3.1,0-4.6-0.2c0.3,0.2,0.6,0.4,0.9,0.6
		c1.4,0.1,2.8,0.2,4.3,0.1v0.1c-1.5,0.3-2.9,0.6-4.2,0.9c0.2,0.1,0.4,0.2,0.6,0.3l0.6,0.3h0.5l0.5,0.1l0.5,0.1c0.1,0,0.3,0,0.4,0.1
		c0.3,0.1,0.6,0.2,0.9,0.3c0.2,0.1,0.4,0.2,0.6,0.3l0.4,0.3l0.6,0.2l-0.3-2.5h0.4h0.4c0.2,0,0.5,0,0.7,0.1c0.3,0.1,0.5,0.2,0.6,0.3
		C36.5,57.7,36.3,57.7,36,57.7z M33.7,58.8c-0.2-0.1-0.3-0.2-0.5-0.2L33,58.5l-0.3-0.1c-0.4-0.1-0.8-0.2-1.3-0.3l0.5-0.2l0.2-0.1
		c0.2-0.1,0.4-0.1,0.7-0.2l0.8-0.2L33.7,58.8z"/>
	<path class="st0" d="M37.5,55.8l-0.6,0.1l-0.8,0.2l0.5,0.1l0.5,0.1h0.2c0.2,0,0.4-0.1,0.6-0.1c0.2,0,0.3,0,0.5,0.1
		c0.1,0,0.2,0.1,0.2,0.2l0.6,2.3c0.4,0.1,0.8,0.1,1.2,0.1l-1-3.2c0.3-0.1,0.6-0.2,0.9-0.3s0.6-0.2,0.9-0.4c-0.4,0-0.7,0-1.1-0.1
		l-0.5,0.2l-0.5,0.2l-0.2,0c-0.1-0.1-0.2-0.2-0.3-0.3l-0.6,0c0.1,0.3,0.2,0.6,0.3,0.9c-0.2-0.1-0.3-0.1-0.5-0.1h-0.3L37.5,55.8z"/>
	<path class="st0" d="M46.7,52l-1.1,0.2c-2,1.3-4.1,2.3-6.3,3h0.5h0.5c1.4-0.5,2.7-1.1,3.9-1.8l0,0.1c-1.1,0.9-2.3,1.8-3.6,2.7
		l0.6,0.1l0.6,0.1l0.9-0.3l0.5-0.1l0.5-0.1c0.4-0.1,0.9-0.2,1.3-0.2h0.3l0.7,0.1l0.6-0.1l-1.7-2.7l0.8-0.5L46.7,52z M44.5,56.6
		c0.1-0.2,0.1-0.3,0-0.4c-0.1,0-0.3,0-0.4,0c-0.2,0-0.4,0.1-0.6,0.2c-0.2,0.1-0.4,0.2-0.5,0.4c-0.1,0.1-0.2,0.2-0.1,0.3
		s0.2,0.1,0.4,0.1c0.2,0,0.5-0.1,0.7-0.2C44.1,57,44.3,56.8,44.5,56.6L44.5,56.6z M45.3,55.4c-0.4,0-0.8,0-1.2,0.1l-0.7,0.1
		l-0.4,0.1l-0.4,0.1c0.6-0.5,1.3-1.1,1.9-1.6L45.3,55.4z"/>
	<path class="st0" d="M4.7,28.1c0,0.2,0,0.4,0,0.5c0,0.2,0,0.3,0.1,0.5c0.1,0.2,0.2,0.4,0.4,0.6C5.3,29.9,5.4,30,5.6,30
		c0.2,0,0.5-0.1,0.6-0.5c0-0.1,0.1-0.2,0.1-0.2c0-0.2,0-0.4-0.1-0.6c-0.1-0.2-0.1-0.3-0.1-0.5c0-0.1,0-0.2,0.1-0.2s0.2,0.2,0.4,0.5
		c0.1,0.2,0.2,0.4,0.2,0.5L7,29.3L7.4,29l0.4-0.3c-0.2-0.4-0.4-0.7-0.7-1c-0.1-0.2-0.3-0.3-0.5-0.3c-0.2,0-0.4,0.1-0.6,0.3
		c-0.2,0.2-0.3,0.5-0.3,0.8c0,0.1,0,0.3,0,0.4c-0.2-0.3-0.3-0.7-0.2-1.1c0-0.1,0.1-0.2,0.1-0.3c0.1-0.1,0.1-0.2,0.2-0.3
		c0.2-0.2,0.4-0.4,0.6-0.5c0.2-0.1,0.4-0.2,0.6-0.1l2.1,0.5l0.8-0.6l-4.2-1l0.1-0.4l0.1-0.4l0.2-0.8c-0.2,0.2-0.5,0.4-0.8,0.6
		l-0.1,0.4l-0.1,0.4c0,0.1-0.1,0.1-0.1,0.2c-0.2,0.1-0.3,0.1-0.4,0l-0.5,0.5C4.6,25.9,5,26,5.4,26l0.5,0.1c-0.3,0.1-0.6,0.3-0.8,0.6
		c-0.1,0.2-0.2,0.4-0.3,0.6C4.8,27.6,4.7,27.9,4.7,28.1z"/>
	<path class="st0" d="M7.5,23.7c-0.1,0-0.3,0-0.4,0c-0.2-0.1-0.3-0.2-0.3-0.4c-0.1-0.2-0.1-0.5,0-0.7c0.1-0.3,0.3-0.6,0.6-0.7
		c0.1-0.1,0.3-0.2,0.5-0.2c0.2,0,0.3,0,0.5,0.1l2,0.9l0.9-0.4l-3.7-1.7c0.1-0.3,0.2-0.5,0.4-0.8L8,19.3l0.2-0.4l-0.4,0.2l-0.4,0.2
		C7.3,19.6,7.1,19.8,7,20c-0.1,0.1-0.2,0.1-0.3,0.2c-0.1,0-0.2,0-0.2,0c-0.1,0-0.3,0.1-0.4,0.1l-0.3,0.2C6.2,20.7,6.6,20.9,7,21
		l0.5,0.1c-0.4,0.1-0.7,0.2-1,0.5c0,0-0.1,0.1-0.3,0.3C6.1,22.1,6,22.2,6,22.3c0,0.1-0.1,0.3-0.1,0.5c-0.1,0.2-0.1,0.4,0,0.6
		c0,0.2,0.1,0.4,0.2,0.6c0.1,0.3,0.4,0.5,0.7,0.6c0.3,0.1,0.6,0,0.9-0.1c0.2-0.1,0.3-0.2,0.4-0.4c0.1-0.2,0.2-0.4,0.3-0.5
		c0.1-0.1,0.1-0.2,0.1-0.4c0-0.1,0-0.3,0-0.4c0-0.2-0.1-0.5-0.3-0.6c-0.1,0-0.1,0-0.2,0c-0.3,0.1-0.5,0.3-0.6,0.5
		c-0.1,0.4-0.1,0.6,0.1,0.7h0.1C7.6,23.6,7.5,23.6,7.5,23.7z"/>
	<path class="st0" d="M11.7,13.7c-0.2,0.1-0.4,0.2-0.6,0.3c-0.2,0.1-0.4,0.3-0.5,0.5c-0.3,0.3-0.5,0.7-0.6,1.2
		c-0.1,0.4-0.1,0.8,0,1.2c0,0.1,0.1,0.2,0.1,0.2c0.1,0.1,0.2,0.1,0.4,0c0.1-0.1,0.3-0.2,0.3-0.3c0.1-0.2,0.2-0.4,0.3-0.6
		c0.1-0.1,0.2-0.1,0.4,0c0.1,0,0.1,0.1,0.1,0.2c0,0.2,0,0.5,0,0.7l0.4-0.3l0.4-0.3c0-0.4,0-0.8,0.1-1.1l0-0.6c0-0.2,0-0.4,0.1-0.6
		c0.3-0.1,0.6-0.1,0.8,0.1l1.4,1.5l0.5-0.1l0.4-0.1l-2.8-2.9c0.2-0.2,0.4-0.4,0.6-0.6l0.6-0.5l-1,0.1c-0.1,0.1-0.2,0.2-0.4,0.3
		l-0.2,0.2l-0.2,0.1c-0.1,0-0.2,0-0.3-0.1H12c-0.2,0.1-0.4,0.1-0.6,0.2l1.1,0.9l0.4,0.2C12.5,13.6,12.1,13.6,11.7,13.7z M10.7,15.9
		c0-0.2,0-0.4,0.1-0.5c0.1-0.2,0.2-0.4,0.3-0.6c0.2-0.2,0.4-0.3,0.6-0.4c0,0.4-0.1,0.8-0.1,1.3C11.3,15.5,11,15.6,10.7,15.9
		L10.7,15.9z"/>
	<path class="st0" d="M16,15.8c-0.2-0.2-0.3-0.3-0.6-0.4c-0.1,0-0.2-0.1-0.3-0.1c-0.2,0-0.3,0-0.5,0c-0.3,0-0.5,0.1-0.7,0.2
		l-0.3,0.2l-0.2,0.2c-0.2,0.1-0.3,0.3-0.5,0.5l-0.1,0.1l-0.1,0.1l-0.2,0.2l-0.3,0.3c-0.2,0.2-0.3,0.3-0.3,0.3
		c-0.4,0.3-0.7,0.3-0.9,0.2c-0.1,0-0.1-0.1-0.1-0.2c-0.2,0-0.3,0.1-0.5,0.2c0,0,0,0.1,0,0.1c0,0,0.1,0.1,0.1,0.1
		c0.1,0.1,0.2,0.2,0.3,0.2c0.2,0.1,0.5,0.2,0.8,0.2c0.3,0,0.6-0.1,0.8-0.3c0.2-0.2,0.5-0.4,0.6-0.6c0.3-0.5,0.6-0.8,0.8-1
		c0.1-0.2,0.3-0.3,0.5-0.4c0.1-0.1,0.3-0.2,0.4-0.2c0.2,0,0.4,0,0.5,0.1C15.5,15.8,15.7,15.8,16,15.8z"/>
	<path class="st0" d="M17,10.6c-0.1,0-0.1,0-0.2,0.1c0,0-0.1,0.1-0.2,0.3c-0.2,0.3-0.3,0.5-0.5,0.7c-0.2,0.1-0.3,0.1-0.4,0
		c-0.1-0.2-0.1-0.4-0.1-0.5c0-0.2,0-0.4,0.2-0.6h0.4c0.1,0,0.2,0,0.3,0l0.2-0.1l0.3-0.1c0.2-0.1,0.4-0.2,0.6-0.3
		c0.1,0,0.2-0.1,0.3-0.1l0.3-0.2c0,0.4,0.1,0.7,0.3,1.1c0.2,0.2,0.3,0.4,0.6,0.6l0.6,0.5c0,0,0.1,0,0.3,0c0.1,0,0.2-0.1,0.3-0.1
		c0,0,0.1-0.1,0.1-0.1c-0.4-0.2-0.7-0.4-0.9-0.8c-0.1-0.1-0.1-0.3-0.2-0.4c-0.1-0.2-0.1-0.5-0.1-0.8c0-0.3,0.1-0.6,0.3-0.8l-0.6-0.1
		h-0.5c-0.4,0.4-0.7,0.6-0.8,0.7c-0.2,0.1-0.4,0.3-0.7,0.3c-0.3,0.1-0.5,0.2-0.5,0.1c0,0,0-0.1,0-0.1c0.1-0.1,0.1-0.2,0.2-0.3
		c1.1-0.7,2.2-1.4,3.3-2c-0.3,0-0.6-0.1-1-0.1l-0.4,0.2L18.2,8l-0.2,0.1l-0.9,0.5C16.5,9,16,9.4,15.5,9.8c-1.1,0.8-2.1,1.7-3,2.6
		l1-0.2l0.8-0.7l0.2-0.2l0.2-0.2l0.4-0.3c0,0.1,0,0.1,0,0.1c-0.1,0.3-0.1,0.7,0.1,1c0.1,0.1,0.1,0.1,0.2,0.2c0.3,0.2,0.7,0.2,1,0.1
		c0.1,0,0.2-0.1,0.3-0.1c0.1,0,0.2-0.1,0.3-0.2c0.2-0.2,0.4-0.4,0.6-0.7l0.1-0.1c0,0,0.1,0,0.2,0c0.1,0,0.1,0.1,0.1,0.1
		c0.1,0.1,0,0.3-0.2,0.5c-0.1,0.2-0.3,0.4-0.5,0.5c-0.1,0.1-0.2,0.2-0.4,0.2c-0.2,0.1-0.3,0.1-0.5,0.1c-0.3,0-0.6,0-0.8-0.1
		c-0.2-0.1-0.4-0.2-0.5-0.3c-0.2-0.1-0.4-0.3-0.5-0.5C14.2,12,14,12,13.8,12.1c0.2,0.3,0.4,0.5,0.6,0.7c0.2,0.2,0.5,0.4,0.7,0.5
		c0.3,0.1,0.6,0.2,0.9,0.2c0.3,0,0.6,0,0.9-0.1c0.1,0,0.3-0.1,0.4-0.2c0.1-0.1,0.3-0.1,0.4-0.2c0.3-0.2,0.5-0.4,0.6-0.7
		c0.1-0.3,0.2-0.5,0.1-0.8c0-0.1-0.1-0.2-0.1-0.3c-0.2-0.3-0.5-0.4-0.9-0.5C17.3,10.7,17.2,10.7,17,10.6L17,10.6z"/>
	<path class="st0" d="M18.8,7.7c-0.4,0.2-0.7,0.4-1,0.6h1L19,8.2c0.3-0.2,0.6-0.2,0.9-0.1c0.1,0,0.2,0.1,0.3,0.3l1.3,2.6l0.9,0.2
		l-1.8-3.8c0.2-0.1,0.5-0.2,0.7-0.3L22,6.8l-1-0.2c-0.3,0.1-0.5,0.2-0.8,0.4l-0.2,0c-0.1-0.1-0.2-0.2-0.3-0.3h-0.5
		c0.2,0.3,0.4,0.7,0.6,1c-0.1-0.1-0.3-0.1-0.5-0.1C19.1,7.5,19,7.6,18.8,7.7z"/>
	<path class="st0" d="M28.4,5.1L28,4.9l-0.5-0.2c-1.3,0.2-2.5,0.5-3.8,0.9l-0.9,0.3l-0.9,0.3c-0.3,0.1-0.6,0.2-0.9,0.4l-0.5,0.2
		L20.1,7l0.5,0.1l0.5,0.1c1.2-0.5,2.4-0.9,3.6-1.3l0.5-0.1l0.5-0.1l0.9-0.2c0.2,0,0.3-0.1,0.5-0.1l0.5-0.1L28,5.2
		C28.1,5.2,28.3,5.2,28.4,5.1z M27.4,7.2c0-0.2-0.1-0.3-0.2-0.5c-0.2-0.3-0.5-0.5-0.8-0.6C26.2,6,26.1,6,25.9,6c-0.2,0-0.4,0-0.5,0
		C25.2,6,25,6,24.8,6.1c-0.2,0-0.3,0.1-0.5,0.2c-0.1,0.1-0.3,0.2-0.4,0.3c-0.2,0.2-0.3,0.5-0.2,0.8c0,0.1,0.1,0.1,0.1,0.2
		c0.1,0.2,0.3,0.3,0.5,0.3c0.1,0,0.2,0,0.3,0c0.1,0,0.2,0,0.4-0.1c0.6-0.2,0.9-0.5,0.8-0.9c0-0.1-0.1-0.3-0.2-0.3l0.2-0.1
		c0.2-0.1,0.5,0,0.7,0.1c0.2,0.1,0.3,0.3,0.3,0.4c0,0.2-0.1,0.5-0.3,0.6c-0.2,0.3-0.6,0.5-0.9,0.6c-0.2,0-0.3,0.1-0.5,0.1
		c-0.2,0-0.3,0-0.5,0c-0.3,0-0.7-0.1-1-0.3c-0.3-0.2-0.6-0.3-0.9-0.5L21.9,7l-0.6,0.1c0.2,0.2,0.4,0.4,0.7,0.6L22.3,8l0.4,0.3
		c0.3,0.2,0.6,0.4,0.9,0.5L23.9,9l0.3,0.1c0.2,0.1,0.5,0.1,0.7,0.1c0.2,0,0.5-0.1,0.7-0.1C25.8,9,26,8.9,26.2,8.9
		c0.2-0.1,0.4-0.2,0.5-0.3c0.2-0.2,0.4-0.4,0.5-0.6C27.4,7.7,27.4,7.5,27.4,7.2z"/>
	<path class="st0" d="M30.9,5.9C31,6,31.2,6.1,31.4,6.2l0,0c0.1,0.1,0.2,0.1,0.3,0.1h0.2l0.3,0.1C32.5,6.1,32.7,6,32.7,6
		C32.9,5.9,33,5.7,33,5.6c0-0.2-0.1-0.3-0.1-0.5c-0.1-0.2-0.2-0.4-0.3-0.4v0.2C33.3,4.9,34,5,34.8,5L34,4.4c-2.5-0.2-5,0-7.5,0.5
		l0.9,0.4L28,5.2l0.5-0.1L29.1,5h0.3h0.3L30.7,5h1.1C31.9,5,31.9,5,32,5c0.1,0.1,0.1,0.2,0.2,0.3c0,0.2-0.2,0.4-0.4,0.5
		c-0.3-0.2-0.5-0.3-0.8-0.4l-0.2-0.1c-0.1,0-0.2,0-0.2,0c-0.2,0-0.3,0-0.5,0c-0.6,0-1,0.3-1,0.7c0,0.2,0,0.4,0.2,0.5
		c0.2,0.1,0.5,0.2,0.7,0.2c0.2,0,0.4-0.1,0.5-0.2c0.1-0.1,0.2-0.3,0.2-0.4c0-0.1,0-0.1-0.1-0.2C30.6,5.8,30.7,5.9,30.9,5.9z"/>
	<path class="st0" d="M32,6.3c0,0,0,0,0,0.1c0,0.1,0.1,0.1,0.1,0.2v1.4L32,8c-0.3-0.1-0.6-0.2-0.9-0.2h-0.3c-0.4,0.1-0.9,0.1-1.3,0
		c-0.2-0.1-0.4-0.3-0.4-0.5c0-0.2,0-0.3,0.1-0.5l-0.3-0.1c-0.1,0-0.2,0-0.2,0.1c-0.1,0.2-0.2,0.5-0.1,0.8c0.1,0.5,0.5,1,1.1,1
		c0.2,0.1,0.5,0.1,0.8,0h0.2c0.1,0,0.2,0,0.3,0c0.2,0,0.4-0.1,0.5-0.1c0.2,0,0.5,0,0.6,0.2c0.1,0.1,0.2,0.2,0.2,0.3l0.4,0.3L32.8,7
		c0-0.3,0-0.5,0-0.8c-0.2-0.4-0.6-0.6-1-0.5c-0.2,0-0.5,0-0.6,0.1l-0.5,0.2c-0.2,0.1-0.3,0.3-0.5,0.4C30.1,6.7,30,6.8,30,7
		c0,0.1,0,0.2,0.1,0.3c0.1,0.1,0.2,0.2,0.3,0.3c0.1,0,0.2,0.1,0.2,0.1h0.2c0.2,0,0.4-0.1,0.5-0.2c0.1-0.1,0.2-0.2,0.2-0.4
		c0-0.1-0.1-0.2-0.1-0.3c-0.1-0.1-0.3-0.1-0.4-0.1h-0.1c0-0.1,0.1-0.2,0.2-0.2c0.1-0.1,0.2-0.2,0.4-0.2c0.1,0,0.2,0,0.2,0l0,0
		L32,6.3z"/>
	<path class="st0" d="M37,5.4l-0.7-0.7l-0.5-0.1l-0.5-0.1l-0.1-0.3C35.1,4,35,3.8,34.9,3.6c-0.2-0.2-0.4-0.4-0.6-0.5
		c-0.2-0.1-0.4-0.2-0.5-0.3l-0.3-0.1l-0.2-0.1c-0.3-0.1-0.6-0.1-0.9-0.2l-0.4,0h-0.3c-0.3,0-0.6,0-0.9,0.1l-0.4,0.1l-0.4,0.1
		c-0.5,0.2-0.7,0.4-0.7,0.6s0.2,0.4,0.5,0.5C30,3.9,30.3,4,30.7,4h1c0.2,0,0.4,0,0.6,0.1c0.1,0,0.2,0.1,0.2,0.1S32.4,4.4,32,4.6h1
		c0.1-0.1,0.1-0.2,0.1-0.3c0-0.5-0.5-0.8-1.4-0.9h-1.2h-0.4c-0.3,0-0.5,0-0.5-0.1s0.2-0.2,0.7-0.3C30.6,3,31,2.9,31.3,2.9
		c0.6,0,1.1,0,1.7,0.2c0.4,0.1,0.8,0.3,1.1,0.6c0.2,0.2,0.3,0.4,0.5,0.6l0.1,0.2l-0.8-0.1h-0.4h-0.4l0.4,0.3L33.7,5l0.7,0l-0.3,3.5
		c0.2,0.2,0.4,0.4,0.6,0.6l0.5-4.1l0.9,0.1L37,5.4z"/>
	<path class="st0" d="M44.8,8.2l-0.5-0.9c-1.9-0.9-3.8-1.7-5.8-2.2c0.2,0.2,0.4,0.5,0.6,0.7c1.2,0.3,2.4,0.7,3.5,1.2l0,0.1h-0.2
		h-0.2l-0.5,0h-0.5c-0.2,0-0.4,0-0.6,0c-0.5,0-1.1,0.1-1.6,0.2l0.3,0.5l0.1,0.2l0.1,0.3c0.3,0.1,0.5,0.2,0.8,0.4
		c0.2,0.2,0.4,0.3,0.6,0.5c0.2,0.2,0.3,0.4,0.4,0.6c0.1,0.2,0.1,0.5,0.1,0.8c0.1,0.2,0.1,0.4,0.2,0.6l1.8-3.8
		c0.2,0.1,0.5,0.2,0.7,0.4L44.8,8.2z M41.6,9.5c-0.1-0.3-0.3-0.6-0.5-0.8c-0.1-0.1-0.2-0.3-0.4-0.4l-0.2-0.2l-0.2-0.2
		c0.3,0,0.7,0,1,0c0.2,0,0.3,0,0.5,0h0.2h0.2L41.6,9.5z"/>
	<path class="st0" d="M44.3,7.3c-0.1-0.1-0.3-0.2-0.5-0.2l-0.6-0.3c0.2,0.3,0.4,0.5,0.5,0.8l0.2,0.1c0.3,0.1,0.5,0.4,0.6,0.7
		c0,0.1,0,0.3,0,0.4l-1.4,2.6c0.1,0.3,0.2,0.6,0.3,0.8l2.1-3.6c0.5,0.3,0.9,0.6,1.4,0.9l-0.4-0.9c-0.2-0.2-0.5-0.3-0.8-0.5
		c0-0.1,0-0.1-0.1-0.2c0-0.2,0-0.3,0.1-0.5L45.4,7c-0.2,0.4-0.4,0.7-0.5,1.1C44.8,7.7,44.6,7.5,44.3,7.3z"/>
	<path class="st0" d="M47.8,11.5c0.2,0,0.4-0.1,0.5-0.3c0.2-0.2,0.2-0.5,0.1-0.8c-0.1-0.3-0.3-0.6-0.6-0.8c-0.1-0.1-0.3-0.2-0.5-0.2
		c-0.2-0.1-0.3-0.1-0.5-0.1c-0.3,0-0.6,0.1-0.7,0.3c-0.1,0.3-0.1,0.6,0,0.8c0.1,0.2,0.1,0.3,0.2,0.4c0.1,0.1,0.2,0.3,0.4,0.4
		c0.1,0.1,0.3,0.2,0.5,0.3C47.4,11.5,47.6,11.5,47.8,11.5z M46.5,14.8l0.4-0.4c0-0.5-0.1-1-0.2-1.4c0-0.3-0.1-0.6-0.2-0.8
		c-0.2-0.5-0.4-1-0.6-1.5l-0.6,0.9l0.2,0.4l0.2,0.4l0.3,0.7c0,0.1,0.1,0.2,0.1,0.3l0.1,0.3c0.1,0.1,0.1,0.3,0.1,0.4l0.1,0.5
		L46.5,14.8z M47.8,10.6c0,0.1-0.1,0.1-0.2,0.2c-0.2,0-0.3,0-0.5,0c-0.2,0-0.3-0.1-0.5-0.2c-0.1-0.1-0.1-0.2,0-0.3
		c0.1-0.1,0.3-0.2,0.5-0.2c0.2,0,0.4,0.1,0.6,0.2C47.8,10.3,47.8,10.5,47.8,10.6C47.8,10.6,47.8,10.6,47.8,10.6z"/>
	<path class="st0" d="M53.7,15.9c0-0.2,0-0.3,0-0.5l0-0.5l-0.3-0.4l-0.1-0.2l-0.1-0.2l-0.6-0.7l-0.1-0.2l-0.1-0.2l-0.3-0.3l-0.3-0.3
		l-0.1-0.2l-0.2-0.1l-0.6-0.6l-0.2-0.1l-0.2-0.1L50,11.1l-0.3-0.3l-0.2-0.1l-0.2-0.1L48.7,10l0.3,1c1.2,0.9,2.2,2,3.2,3.1l-0.5,0.4
		c0,0,0-0.1,0-0.1v-0.3c-0.1-0.2-0.2-0.4-0.3-0.5c-0.1-0.1-0.2-0.2-0.4-0.2c-0.1,0-0.3-0.1-0.4-0.1v-0.1c-0.1-0.4-0.3-0.7-0.6-1
		c-0.3-0.3-0.6-0.4-1-0.4c-0.3,0-0.6,0.1-0.8,0.4c-0.1,0.1-0.1,0.2-0.2,0.3c-0.1,0.3-0.1,0.6,0,0.9c0.1,0.3,0.3,0.6,0.6,0.8
		c0.2,0.3,0.6,0.4,0.9,0.3c0.1,0,0.2-0.1,0.3-0.4c0.1-0.3,0-0.6-0.2-0.7c-0.1-0.1-0.3-0.2-0.5-0.3c-0.1,0-0.3,0-0.4,0.1
		c0,0-0.1,0.1-0.1,0.2c-0.1-0.2-0.1-0.4,0-0.6c0.1-0.1,0.3-0.2,0.5-0.1c0.1,0,0.2,0.1,0.3,0.1c0.1,0.1,0.2,0.1,0.3,0.2
		c0.2,0.2,0.3,0.4,0.4,0.6c0,0.1,0,0.3,0,0.4c0,0.1-0.1,0.2-0.2,0.2l0.5,0.3c0.1-0.2,0.3-0.3,0.4-0.3c0.1,0,0.2,0,0.3,0.1
		c0.1,0.1,0.2,0.2,0.2,0.4c0,0.1,0,0.2-0.1,0.3l-1.6,1.5c0,0.3,0,0.6,0.1,0.9l3.1-2.6l0.5,0.6l0.2,0.3
		C53.6,15.7,53.6,15.8,53.7,15.9z"/>
	<path class="st0" d="M53.6,14.9c-0.2-0.3-0.5-0.6-0.8-0.9c0,0.3,0.1,0.6,0.1,1l0.1,0.1c0.2,0.2,0.3,0.5,0.3,0.9
		c0,0.1-0.1,0.3-0.2,0.3l-2.4,1.7c0,0.3,0,0.6-0.1,0.9l3.5-2.4c0.1,0.1,0.2,0.2,0.2,0.3l0.2,0.3l0.4,0.7c0-0.3,0-0.6,0-1l-0.2-0.4
		l-0.2-0.4c0-0.1,0-0.1,0-0.2c0.1-0.1,0.1-0.3,0.2-0.4l-0.1-0.5c-0.3,0.2-0.6,0.5-0.9,0.8C53.9,15.6,53.8,15.2,53.6,14.9z"/>
	<path class="st0" d="M56.6,20.9l0.1-1c-0.7-1.4-1.4-2.7-2.3-3.9c0,0.3,0,0.6,0,1c0.3,0.4,0.6,0.9,0.8,1.3c-0.4-0.1-0.8-0.2-1.2-0.2
		c-0.3,0-0.7,0.1-0.9,0.3c-0.6,0.4-1,1-1,1.8c0,0.1,0,0.3,0,0.4c0,0.1,0,0.1,0.1,0.2l0.1,0.2c0.1,0.2,0.3,0.4,0.5,0.5
		c0.2,0.1,0.4,0.1,0.6,0.1c0.1,0,0.2-0.1,0.2-0.2c0-0.1,0.1-0.2,0-0.3c0-0.1,0-0.3-0.1-0.4c-0.1-0.1-0.1-0.2-0.2-0.3
		c-0.1-0.1-0.2-0.2-0.4-0.2c-0.1,0-0.2,0-0.3,0.1c-0.1,0.1-0.1,0.1-0.1,0.2c0,0.1-0.1,0.2-0.1,0.2s0,0-0.1-0.1
		c0.1,0.1,0.2,0.2,0.2,0.1v-0.1c-0.1-0.2-0.1-0.4,0-0.7c0-0.2,0.1-0.4,0.3-0.5c0.1-0.1,0.2-0.2,0.3-0.2c0.3-0.2,0.6-0.3,0.9-0.3
		c0.3,0,0.6,0,0.9,0.1c0.2,0.1,0.3,0.2,0.5,0.3c0.2,0.1,0.3,0.3,0.5,0.4C56.3,20.2,56.5,20.6,56.6,20.9z"/>
	<path class="st0" d="M58.3,26.1c0.1-0.3,0.2-0.6,0.3-1c-0.5-2.1-1.3-4.1-2.3-6c0,0.3-0.1,0.7-0.1,1c0.1,0.2,0.1,0.3,0.2,0.5l-2,0.9
		c-0.1,0.4-0.1,0.7-0.2,1c0.4,0,0.8,0.2,1.2,0.4c0.4,0.2,0.7,0.6,1,0.9c-0.3,0-0.6,0.1-0.9,0.2c-0.5,0.2-1,0.5-1.5,0.8
		c0,0.2,0,0.4,0,0.6c0.3-0.2,0.6-0.3,0.9-0.5c0.1-0.1,0.2-0.1,0.3-0.1c0.7-0.2,1.4-0.1,2,0.2l0.1-0.6c0-0.2,0.1-0.4,0.1-0.6
		c-0.2-0.3-0.4-0.6-0.6-0.8l-0.1-0.2l-0.1-0.1c-0.1-0.1-0.2-0.2-0.3-0.2c-0.3-0.3-0.6-0.5-0.7-0.6l1.3-0.5
		C57.5,22.8,58,24.4,58.3,26.1z"/>
	<path class="st0" d="M59,31.9l0.5-0.8v-0.5c0-0.1,0.1-0.2,0.1-0.3c0,0,0.1,0,0.1,0c0.1,0,0.1-0.1,0.2-0.1c0.1-0.2,0.2-0.4,0.3-0.6
		l-0.9,0.1l-0.9,0.2l0.1-0.1c0.5-0.6,0.8-1,0.7-1.3c0-0.1,0-0.2-0.1-0.3c0-0.1-0.1-0.2-0.1-0.4c0-0.1-0.1-0.2-0.2-0.3
		c-0.1-0.2-0.3-0.3-0.4-0.4c0.1-0.1,0.1-0.2,0.2-0.3l0.1-0.4c0.1-0.3,0.1-0.5,0-0.8l-0.1-0.4c0-0.1-0.1-0.2-0.1-0.4l-0.2-0.7
		l-0.3,0.9c0.1,0.6,0.2,0.8,0.1,0.6c0,0.2,0,0.4,0,0.6c0,0.1-0.1,0.2-0.2,0.3c-0.1-0.2-0.3-0.4-0.5-0.5c-0.2-0.1-0.4-0.2-0.6-0.2
		c-0.2,0-0.3,0.2-0.4,0.3c-0.1,0.2-0.1,0.4-0.1,0.6c0,0.2,0.1,0.3,0.2,0.5c0.1,0.1,0.2,0.3,0.3,0.3c-0.2,0.2-0.2,0.6-0.2,0.9
		c0,0.4,0.2,0.6,0.4,0.7c0.1,0.1,0.3,0.1,0.4,0c0.1-0.1,0.3-0.2,0.3-0.4c0.1-0.2,0.1-0.4,0.2-0.5c0.1,0,0.2,0.2,0.3,0.4
		c0,0.2-0.1,0.5-0.2,0.7c-0.2,0.3-0.4,0.4-0.5,0.4l-2.5,0.2c-0.2,0.3-0.3,0.5-0.5,0.8l4.1-0.2C58.9,30.9,58.9,31.4,59,31.9z"/>
	<polygon class="st1" points="10.7,38 4.6,34.9 7.5,41 8.7,34.4 4,38.9 	"/>
	<polygon class="st1" points="14.4,45.4 7.7,44 12.1,49.1 11.5,42.4 8.2,48.1 	"/>
	<polygon class="st1" points="54.5,38 60.6,34.9 57.8,41 56.5,34.4 61.2,38.9 	"/>
	<polygon class="st1" points="50.8,45.4 57.5,44 53.1,49.1 53.7,42.4 57,48.1 	"/>
	<path class="st3" d="M36.6,36.1c0-0.1,0-0.2,0-0.3c0-0.2,0-0.3,0-0.5s0.1-0.2,0.2-0.1c0.1,0.1,0.1,0.1,0.2,0.2l0.4,1
		c0,0.1,0.1,0.2,0.1,0.2c0,0.1,0.1,0.1,0.1,0c0.2-0.2,0.5-0.4,0.7-0.6s0.1-0.3,0.1-0.5l-0.1-0.5c0-0.2,0-0.4,0.2-0.5l0.3-0.3
		c0.2-0.2,0.3-0.5,0.3-0.8V33v-0.2l0.2,0.2c0.2,0.2,0.2,0.1,0.4,0c0.1-0.1,0.2-0.1,0.3-0.2c0.1,0,0.1,0,0.2,0c0,0,0,0,0,0
		c0,0.1,0.1,0.1,0.1,0.1s0.2,0,0.2,0.1c0,0.3,0.1,0.5,0.2,0.8c0.1,0.4,0.2,0.9,0.2,1.3l0.1,1.5c0,0.1,0,0.1,0.1,0.2
		c0.2,0.4,0.4,0.8,0.5,1.3c0,0.2,0,0.3,0,0.5c0.1,0.5,0.2,0.9,0.3,1.4c0,0.2,0.1,0.3,0.1,0.5c0,0.1,0,0.2-0.1,0.2c0,0.1,0,0.1,0,0.2
		c0.1,0.6,0.1,1.3,0.1,1.9c0,0.5,0,1,0.1,1.4c0,0.2,0.1,0.4,0.1,0.6c0,0,0,0.1,0,0.1c0,0.1-0.1,0.1-0.2,0c0,0,0,0,0,0
		C42.1,45,42,45,42,44.9c-0.1-0.2-0.2-0.3-0.4-0.3s-0.2,0-0.2-0.2v-0.2c0-0.1-0.1-0.1-0.2-0.1c-0.4,0.2-0.7,0.5-0.8,1
		c-0.1,0.4,0,0.8,0.2,1.1c0.2,0.4,0.3,0.8,0.4,1.3c0,0,0,0,0,0.1c0,0,0,0,0,0.1l-0.1-0.1l-0.6-1c-0.1-0.2-0.3-0.5-0.4-0.7
		c-0.2-0.2-0.3-0.5-0.3-0.8c0-0.2-0.1-0.4-0.2-0.6c-0.1-0.1-0.1-0.2-0.1-0.3c0-0.1,0-0.2-0.2-0.2s-0.3-0.1-0.3-0.3s0-0.5,0-0.7
		c0-0.1-0.1-0.2-0.1-0.3c0-0.1,0-0.2,0-0.2c0-0.2,0.1-0.4,0.2-0.6c0,0,0-0.1,0-0.1c-0.1-0.5-0.3-1-0.4-1.5c-0.1-0.2-0.2-0.5-0.2-0.7
		c-0.2-0.5-0.5-1-0.9-1.3c-0.2-0.1-0.3-0.3-0.5-0.4c-0.1-0.1-0.3-0.1-0.4,0c0.1,0.1,0.1,0.1,0.1,0.2c0.1,0.1,0.1,0.2,0.1,0.3
		c0,0.1,0,0.2-0.2,0.1c-0.2,0-0.4,0.1-0.5,0.3c0,0.1,0,0.1,0.1,0.1h0.2c0,0.1-0.1,0.2-0.2,0.2c-0.1,0-0.2,0-0.3,0.1
		c-0.1,0.2-0.3,0.2-0.5,0s-0.5-0.4-0.7-0.5c-0.3-0.2-0.5-0.5-0.7-0.8c-0.1-0.2-0.2-0.4-0.3-0.6c-0.1-0.2-0.3-0.5-0.5-0.7
		c0,0-0.1,0-0.2-0.1s-0.1,0-0.1-0.1S33,36,33,35.9c0,0,0.1-0.1,0.1,0c0.1,0,0.1,0,0.1-0.1c0-0.2,0-0.3,0.1-0.5
		c0.1-0.2,0.1-0.3,0-0.5c-0.1-0.3-0.2-0.5-0.3-0.8c0,0,0,0,0-0.1c0,0.2,0,0.4,0,0.5s0,0.3-0.3,0.4l0.2,0.2c0.2,0.2,0.2,0.2,0.1,0.5
		c-0.1,0.2-0.2,0.4-0.2,0.6c0,0.3,0.1,0.6,0.3,0.8l0.2,0.2c0.1,0.1,0.1,0.3,0.1,0.4c0.3,0.1,0.3,0.2,0.3,0.4L33.6,38l0,0
		c0,0.1,0,0.1,0.1,0.2c0.1,0.2,0.3,0.5,0.4,0.7c0.3,0.3,0.3,0.7,0.2,1.1c-0.1,0.4-0.2,0.9-0.5,1.2c-0.1,0.1-0.1,0.1-0.2,0.2
		c-0.2,0.1-0.4,0.3-0.5,0.5c0,0.1-0.1,0.1-0.1,0.2c-0.1,0.1-0.2,0-0.1-0.1s0.1-0.3,0.1-0.5c0,0,0-0.1,0-0.1
		c-0.1,0.1-0.2,0.2-0.2,0.2l-0.6,0.5H32c-0.1,0-0.2,0-0.2-0.1l-0.1,0.1c-0.1,0.2-0.3,0.3-0.6,0.2c-0.3-0.1-0.5-0.3-0.5-0.6
		c0-0.1,0.1-0.3,0.2-0.3c-0.2-0.1-0.3,0-0.3,0.1c0,0-0.1,0.1-0.1,0c0,0,0,0,0,0c-0.1-0.1-0.2-0.2-0.2-0.3c0-0.1-0.1-0.2-0.1-0.2
		c0,0-0.1,0-0.1,0c0,0,0,0,0,0.1c0,0.1,0,0.1,0,0.2c0,0.1,0,0.1,0,0.2c0.1,0.3-0.1,0.5-0.3,0.6c-0.1,0-0.1,0-0.2,0
		c-0.1,0-0.2,0-0.3,0c-0.1,0-0.1,0-0.1,0.1s0.1,0.2-0.1,0.3c-0.1,0.1-0.2,0.1-0.3,0.2c-0.1,0.1-0.2,0.1-0.2,0
		c-0.1-0.2-0.1-0.3-0.1-0.5c0-0.1,0-0.3,0-0.4s-0.1-0.1-0.1-0.1s-0.2,0-0.2,0.1c0,0.1,0,0.2,0,0.3c0,0.2,0,0.4-0.1,0.5
		s-0.2,0.1-0.3,0l-0.3-0.4c0,0.2,0,0.3,0,0.4c0,0.1,0,0.2-0.1,0.3c-0.1,0.1-0.2,0.2-0.3,0.1c0,0,0,0,0,0c0-0.2,0-0.3,0-0.5
		c0-0.1,0-0.1-0.1-0.2c0-0.1-0.1-0.1-0.2-0.1s-0.1,0.1-0.1,0.2l0,0c0,0.1,0,0.1,0,0.2c-0.1,0-0.1,0-0.2-0.1
		c-0.1-0.1-0.2-0.3-0.2-0.5c0-0.1,0-0.2,0-0.3l0.1,0.2l0,0l0,0c0-0.5,0-1.1-0.1-1.6c0-0.1-0.1-0.2-0.1-0.4c-0.1-0.2-0.2-0.5-0.2-0.7
		c0-0.1,0-0.2,0-0.4c0-0.1,0-0.1,0-0.2c-0.1-0.2-0.2-0.4-0.1-0.6c0-0.2,0-0.4-0.1-0.6c0-0.1,0-0.1,0.1-0.1s0.1-0.1,0.1-0.2
		s0-0.2-0.1-0.2s-0.2-0.1-0.2-0.3c-0.1-0.3-0.1-0.7,0.1-1c0-0.1,0.1-0.2,0.2-0.2c0,0,0.1-0.1,0.1-0.1v-0.1c-0.1,0-0.2-0.1-0.3-0.1
		c-0.2,0-0.3,0-0.5,0c-0.2,0-0.3-0.1-0.3-0.3c0,0,0,0,0,0c0-0.1,0-0.3,0.1-0.4c0-0.1,0.1-0.2,0.1-0.3c0.1-0.1,0-0.2-0.1-0.3
		c0,0,0,0,0,0l-0.2-0.1c-0.1-0.1-0.2-0.2-0.2-0.3c0-0.1-0.1-0.2-0.2-0.2c-0.1,0-0.2-0.1-0.2-0.2c0-0.3,0-0.6,0.1-0.9
		c0-0.1,0.1-0.1,0.1-0.1c0.2-0.1,0.3-0.2,0.4-0.4c0.1-0.1,0.1-0.3,0-0.4c-0.1-0.3-0.1-0.6-0.1-0.9c0-0.2-0.1-0.3-0.1-0.5
		c-0.1-0.2-0.3-0.4-0.6-0.4c-0.2,0-0.4,0-0.6-0.1c-0.1,0-0.2-0.1-0.3-0.2l-0.2-0.2c-0.1-0.1-0.3-0.1-0.4,0c0,0-0.1,0-0.1,0
		c-0.1,0-0.2,0-0.2-0.1s0-0.3,0-0.4s0-0.3-0.2-0.4s-0.4-0.3-0.2-0.6c0.1-0.1,0.1-0.2,0.2-0.3c0.1-0.1,0.1-0.2,0.2-0.4
		c0-0.1,0-0.1,0-0.2c0-0.1,0-0.2,0.1-0.1c0.2,0,0.3,0.1,0.5,0.1c0.1,0,0.2,0,0.3-0.1c0.2-0.2,0.4-0.6,0.4-0.9c0-0.1,0.1-0.3,0.1-0.4
		c0,0,0.1-0.1,0.1-0.1c0.4,0.1,0.8,0.1,1.1,0.1h0.6c0.2,0,0.2,0,0.2-0.2s0.1-0.1,0.1-0.2l-0.2-0.1c-0.2-0.1-0.3-0.2-0.4-0.4
		c0-0.1-0.1-0.2-0.1-0.3c0-0.1-0.1-0.2-0.2-0.2c0,0,0,0,0,0c-0.3,0-0.5,0-0.8,0c-0.3-0.1-0.6-0.3-0.7-0.6c0-0.1-0.1-0.2-0.2-0.3
		c-0.2-0.2-0.5-0.4-0.7-0.5c-0.1,0-0.1-0.1-0.2-0.1c-0.5,0-0.5-0.2-0.5-0.7c0-0.1,0.1-0.2,0.2-0.3c0.1-0.1,0.1-0.3,0.2-0.4
		c0-0.2,0.2-0.4,0.3-0.5c0.2-0.2,0.5-0.4,0.6-0.6c0.1-0.1,0.2-0.2,0.3-0.3l0,0c0.1-0.1,0.2-0.1,0.2-0.3c0-0.2-0.2-0.3-0.4-0.3
		c-0.1,0-0.2,0-0.3,0h-0.2l0,0c0.1-0.2,0.1-0.5,0.2-0.7c0,0,0,0,0-0.1l0.1-0.1c0,0,0.1,0.1,0.1,0.1c0,0.2,0.2,0.4,0.3,0.5
		s0.3,0.2,0.5,0.3c0.2,0.1,0.3,0.3,0.5,0.5c0.1,0.2,0.1,0.3,0,0.4h0.2c0.2,0,0.3,0,0.4,0.2l0.1,0.1l0,0c0.2-0.2,0.2-0.2,0.4-0.1
		c0.1,0,0.2,0.1,0.3,0.1c0.1,0,0.1,0,0.1-0.1s-0.2-0.2-0.2-0.3c-0.1-0.1-0.2-0.2-0.2-0.3c-0.1-0.1,0-0.2,0.1-0.2
		c0.3,0,0.6,0.2,0.7,0.5c0.1,0.4,0.2,0.7,0.4,1c0.1,0.1,0.1,0.1,0.2,0.2c0.1,0.1,0.2,0.1,0.2,0.2c0.1,0.2,0.3,0.2,0.5,0.2
		c0.1,0,0.3,0,0.4,0.1l0.1,0.1c0.2,0.1,0.3,0.1,0.3-0.1s0.1-0.2,0.2-0.2c0-0.1-0.1-0.1-0.1-0.1c-0.1-0.1-0.1-0.2,0-0.3
		c0.1-0.1,0.1-0.2,0.2-0.3c0.1-0.1,0.1-0.1,0.2,0.1s0,0.1,0,0.1s0.1,0.1,0.1,0.1c0.1,0,0.2,0,0.2,0.1c0,0,0,0,0,0
		c0.1,0.1,0.1,0.3,0.2,0.4c0,0.2,0.2,0.4,0.3,0.6c0.1,0.1,0.1,0.1,0,0.2c0,0,0,0,0,0c0,0-0.1,0.1-0.1,0.2c0,0.2,0,0.5,0,0.7
		c0,0.4,0,0.8,0,1.2c0,0.2-0.1,0.4-0.1,0.5c0,0.1,0,0.2,0,0.2c0,0.1,0.1,0.2,0.2,0.3c0.3,0,0.6,0.1,0.9,0.3c0.5,0.2,0.9,0.3,1.4,0.3
		c0.8,0,1.6,0,2.4,0c0.4,0,0.7,0,1-0.1c0.3,0,0.7,0,1,0.1c0.5,0.1,1,0.2,1.6,0.1l1.1-0.2c0.4,0,0.7,0.1,1,0.3
		c0.3,0.2,0.6,0.3,0.8,0.4c0.1,0.1,0.2,0.1,0.2,0.2c0,0.1,0.1,0.2,0.2,0.2c0.1,0.1,0.2,0.1,0.2,0.2c0,0.1-0.1,0.2-0.2,0.2l-0.5,0.2
		c-0.2,0-0.3,0.1-0.3,0.4s-0.2,0.6-0.3,0.9c-0.1,0.3-0.2,0.6-0.3,0.9c0,0.2-0.1,0.2-0.2,0.2c-0.1,0-0.3,0.1-0.4,0.1
		c-0.2,0.1-0.3,0.2-0.3,0.4c0,0.1,0,0.3,0,0.4c0,0.1-0.1,0.1-0.1,0.1c0,0-0.1-0.1-0.1-0.1c-0.1-0.1-0.2-0.2-0.3-0.2
		c-0.1,0-0.1,0.1-0.1,0.2s0,0.2-0.1,0.2c-0.1,0-0.2,0-0.2-0.1c0,0,0,0,0,0c0,0,0-0.1-0.1-0.1c0,0-0.1,0-0.1,0.1
		c0,0.1-0.1,0.1-0.1,0.2c0,0.2-0.1,0.2-0.2,0.2h-0.4c-0.1,0-0.2,0-0.3,0c-0.2,0-0.2,0-0.2,0.2c0,0.1,0,0.2,0,0.2
		c0,0.1-0.1,0.1-0.1,0.1c-0.2,0-0.4,0.2-0.4,0.4c0,0.2-0.1,0.4-0.1,0.6c0,0.2-0.1,0.2-0.2,0.2s-0.1,0.1-0.1,0.1c0,0.1,0,0.1,0.1,0.2
		c0.1,0.1,0.1,0.1,0,0.2s0,0.1,0,0.2s0.1,0.4,0.2,0.6c0.3,0.5,0.4,1.1,0.5,1.7c0,0.2,0.1,0.3,0.2,0.5L36.6,36.1z M33.3,38.8
		L33.3,38.8c0,0,0,0.1,0,0.1c0,0.2,0,0.3,0,0.5c0,0.2-0.1,0.4-0.1,0.6c-0.3,0.5-0.6,1-1.1,1.3c-0.1,0-0.1,0.1-0.2,0.1
		c0,0-0.1,0-0.1,0c0,0.1,0,0.2,0,0.3l0,0c0.1-0.1,0.1-0.2,0.2-0.3c0.1-0.1,0.2-0.2,0.4-0.3c0.1,0,0.2-0.1,0.2-0.2s0.1-0.1,0.1-0.2
		l0.1-0.1c0.1-0.1,0.1-0.2,0.2-0.3c0.1-0.1,0.1-0.2,0.2-0.3c0.1-0.1,0.2-0.1,0.2-0.2c0.1-0.3,0.1-0.7,0.1-1
		C33.4,38.9,33.3,38.9,33.3,38.8z M30.1,33.4L30.1,33.4l0.6,0.3c0.1,0,0.2,0,0.2,0c0,0,0.1-0.1,0.1-0.1s-0.1-0.1-0.1-0.1
		C30.6,33.5,30.4,33.4,30.1,33.4L30.1,33.4z M31.2,34.3c0.2,0.1,0.4,0,0.6-0.1C31.7,34,31.3,34.1,31.2,34.3L31.2,34.3z M28,41.3
		c0,0.2,0.1,0.2,0.2,0.2c0.2-0.1,0.3-0.3,0.2-0.5c0,0,0,0,0,0C28.3,41.2,28.3,41.4,28,41.3z M32.2,34.7c0.1-0.1,0.1-0.3,0-0.5
		c0,0-0.1,0-0.1,0C32.1,34.4,32.1,34.6,32.2,34.7L32.2,34.7z M29.7,40L29.7,40c-0.1,0.2,0,0.3,0.1,0.5h0.1L29.7,40z M27.9,40.1v0.3
		C28,40.3,28,40.2,27.9,40.1L27.9,40.1z"/>
	<path class="st3" d="M34.7,41.3c0-0.1,0.1-0.2,0.1-0.4c0.2-0.3,0.2-0.7,0.2-1c0-0.2,0.1-0.4,0.1-0.5c0-0.1,0.1-0.1,0.2,0
		c0.3,0.3,0.3,0.8,0.1,1.1c-0.1,0.3-0.4,0.6-0.7,0.7L34.7,41.3z"/>
	<path class="st3" d="M37.5,39.3c0,0.1-0.1,0.2-0.1,0.2c-0.1,0-0.1,0-0.2,0c-0.3-0.2-0.4-0.6-0.4-0.9c0-0.1,0.1-0.2,0.2-0.1
		C37.3,38.7,37.4,39,37.5,39.3z"/>
	<path class="st3" d="M34.4,41c0.1-0.4,0.2-0.8,0.4-1.2C35,40.2,34.8,40.7,34.4,41z"/>
	<path class="st3" d="M34.2,38.6c0.2,0,0.4,0.1,0.5,0.3c0,0.1,0,0.1-0.1,0.1C34.5,38.9,34.3,38.8,34.2,38.6L34.2,38.6z"/>
	<path class="st3" d="M35.1,39.4c0,0.1-0.1,0.1-0.1,0.2c-0.1,0-0.2,0-0.3,0c0,0,0-0.1,0-0.1c0.1-0.1,0.1-0.2,0.2-0.2
		C35,39.2,35.1,39.2,35.1,39.4z"/>
	<path class="st3" d="M33.5,41.5c0,0,0,0.1,0,0.1c0,0.2-0.1,0.3-0.3,0.3c-0.1,0-0.1,0-0.1,0c0,0,0,0,0-0.1
		C33.2,41.7,33.3,41.6,33.5,41.5z"/>
	<path class="st3" d="M33.8,41.8C33.8,41.8,33.8,41.8,33.8,41.8c0,0.2-0.1,0.3-0.2,0.3c0,0-0.1,0-0.1-0.1
		C33.6,41.9,33.7,41.8,33.8,41.8C33.8,41.8,33.8,41.8,33.8,41.8z"/>
	<path class="st3" d="M33.1,34.8c0,0.1,0.1,0.1,0.1,0.2s0,0.1,0,0.1s-0.1,0-0.1,0L33.1,34.8L33.1,34.8z"/>
	<rect x="76.8" y="2.4" class="st4" width="8.2" height="36.6"/>
	<path class="st4" d="M97.2,20.7c0-7.9,5.1-11.7,11.7-11.7c2.4,0,4.7,0.4,6.9,1.3v-7c-2.4-0.7-4.8-1-7.3-0.9c-11.1,0-20,6.7-20,18.8
		c0,10,6.5,17.6,19.1,17.6c2.7,0,5.5-0.3,8.1-1V31c-2.2,0.8-4.5,1.1-6.9,1.1C101.5,32.2,97.2,27.7,97.2,20.7z"/>
	<polygon class="st4" points="119.3,2.4 119.3,9.3 128.9,9.3 128.9,38.8 137.1,38.8 137.1,9.3 146.9,9.3 146.9,2.4 	"/>
	<path class="st4" d="M77.1,44.8c1.2-0.2,2.4-0.3,3.6-0.2c1.7-0.1,3.4,0.3,4.8,1.3c1.4,1.1,2.1,2.8,2,4.5c0.1,1.8-0.6,3.6-2,4.9
		c-1.6,1.1-3.5,1.7-5.4,1.6c-1,0-2-0.1-3-0.2L77.1,44.8z M79.8,54.7c0.3,0,0.6,0.1,0.9,0c2.4,0,4-1.3,4-4.2c0-2.5-1.4-3.8-3.7-3.8
		c-0.4,0-0.8,0-1.2,0.1L79.8,54.7z"/>
	<path class="st4" d="M91.9,44.6v12.1h-2.7V44.6H91.9z"/>
	<path class="st4" d="M97,56.7l-3.8-12.1h2.9l1.4,5.1c0.4,1.4,0.8,2.8,1,4.3h0c0.3-1.5,0.7-2.9,1.1-4.3l1.5-5.2h2.8l-4,12.1H97z"/>
	<path class="st4" d="M107.9,44.6v12.1h-2.7V44.6H107.9z"/>
	<path class="st4" d="M110.3,53.9c0.9,0.5,1.9,0.7,2.9,0.8c1.2,0,1.9-0.5,1.9-1.3s-0.6-1.2-2-1.7c-2-0.7-3.2-1.8-3.2-3.6
		c0-2.1,1.7-3.6,4.5-3.6c1,0,2.1,0.2,3,0.6l-0.6,2.2c-0.8-0.4-1.6-0.6-2.5-0.6c-1.1,0-1.7,0.5-1.7,1.2s0.7,1.1,2.2,1.7
		c2.1,0.8,3,1.9,3,3.6c0,2-1.5,3.8-4.7,3.8c-1.1,0-2.3-0.2-3.3-0.7L110.3,53.9z"/>
	<path class="st4" d="M122.3,44.6v12.1h-2.7V44.6H122.3z"/>
	<path class="st4" d="M135.4,50.6c0,4-2.3,6.4-5.8,6.4s-5.5-2.7-5.5-6.1c0-3.6,2.3-6.3,5.7-6.3S135.4,47.2,135.4,50.6z M126.9,50.7
		c0,2.4,1.1,4,2.9,4s2.8-1.8,2.8-4.1c0-2.2-1-4-2.8-4S126.9,48.4,126.9,50.7z"/>
	<path class="st4" d="M137.1,56.7V44.6h3.1l2.4,4.4c0.7,1.3,1.4,2.7,1.9,4.1l0,0c-0.2-1.7-0.2-3.3-0.2-5v-3.5h2.4v12.1H144l-2.5-4.7
		c-0.7-1.3-1.5-2.9-2-4.3l0,0c0.1,1.6,0.1,3.3,0.1,5.3v3.6L137.1,56.7z"/>
	<polygon class="st1" points="4.7,79.8 5.9,79.8 5.9,76.6 9.2,76.6 9.2,75.5 5.9,75.5 5.9,73.5 9.7,73.5 9.7,72.5 4.7,72.5 	"/>
	<path class="st1" d="M20,77.6c0,0.2-0.1,0.5-0.2,0.7c-0.3,0.5-0.9,0.8-1.5,0.7c-0.4,0-0.8-0.1-1.2-0.3c-0.3-0.2-0.5-0.6-0.5-1v-5.1
		h-1.2v5.1c0,0.5,0.1,1,0.4,1.4c0.6,0.7,1.5,1.1,2.4,1c0.6,0,1.2-0.1,1.8-0.5c0.7-0.4,1.1-1.2,1.1-2v-5H20L20,77.6z"/>
	<polygon class="st1" points="26.8,73.5 29.1,73.5 29.1,79.8 30.3,79.8 30.3,73.5 32.6,73.5 32.6,72.5 26.8,72.5 	"/>
	<path class="st1" d="M42.7,77.6c0,0.2-0.1,0.5-0.2,0.7c-0.3,0.5-0.9,0.8-1.5,0.7c-0.4,0-0.8-0.1-1.2-0.3c-0.3-0.2-0.5-0.6-0.5-1
		v-5.1h-1.2v5.1c0,0.5,0.1,1,0.4,1.4c0.6,0.7,1.5,1.1,2.4,1c0.6,0,1.2-0.1,1.8-0.5c0.7-0.4,1.1-1.2,1.1-2v-5h-1.2V77.6z"/>
	<path class="st1" d="M55.9,79.1c-0.1-0.4-0.2-0.7-0.2-1.1c0-0.4,0-0.8-0.2-1.2c-0.1-0.3-0.4-0.5-0.6-0.6c0.1,0,0.1-0.1,0.2-0.1
		c0.5-0.4,0.8-0.9,0.8-1.5c0-0.3,0-0.5-0.1-0.8c-0.3-0.9-1.2-1.4-2.2-1.2h-3.4v7.3h1.2v-3h2.2c0.1,0,0.2,0,0.4,0
		c0.4,0.1,0.7,0.4,0.7,1.1v0.6c0,0.4,0.1,0.8,0.2,1.2v0.1h1.3v-0.4h0C56,79.3,55.9,79.2,55.9,79.1z M51.4,73.5h2
		c0.3,0,0.7,0.1,0.9,0.2c0.2,0.2,0.4,0.5,0.3,0.8c0,0.1,0,0.2,0,0.3c-0.1,0.5-0.5,0.7-1.2,0.7h-2L51.4,73.5z"/>
	<polygon class="st1" points="63.2,76.6 67.1,76.6 67.1,75.5 63.2,75.5 63.2,73.5 67.2,73.5 67.2,72.5 62.1,72.5 62.1,79.8 
		67.4,79.8 67.4,78.7 63.2,78.7 	"/>
	<rect x="81.2" y="72.5" class="st1" width="1.2" height="7.3"/>
	<path class="st1" d="M92.5,75.8l-1.8-0.5c-0.2,0-0.4-0.1-0.6-0.2c-0.3-0.1-0.5-0.4-0.5-0.7c0-0.2,0-0.4,0.1-0.5
		c0.3-0.4,0.8-0.6,1.3-0.5c0.2,0,0.4,0,0.7,0.1c0.6,0.1,1,0.6,1,1.2v0.1h1.1v-0.1c0-0.4-0.1-0.8-0.3-1.2c-0.5-0.8-1.5-1.3-2.4-1.1
		c-0.5,0-1.1,0.1-1.6,0.3c-0.7,0.4-1.1,1.1-1.1,1.9c0,0.9,0.6,1.6,1.5,1.8l1.8,0.5c0.1,0,0.1,0,0.2,0.1c0.6,0.2,1,0.5,1,1v0.1
		c0,0.3-0.2,0.6-0.4,0.8c-0.4,0.2-0.8,0.3-1.2,0.3c-0.6,0.1-1.1-0.1-1.5-0.5c-0.2-0.3-0.4-0.6-0.3-1v-0.1h-1.1v0.1
		c0,0.5,0.1,1.1,0.4,1.5c0.6,0.7,1.5,1.1,2.5,1.1c0.7,0,1.5-0.2,2.1-0.6l0.1-0.1c0.4-0.4,0.6-0.9,0.7-1.5v-0.1c0-0.2,0-0.4-0.1-0.5
		C93.9,76.5,93.2,75.9,92.5,75.8z"/>
	<polygon class="st1" points="112.1,75.5 108.8,75.5 108.8,72.5 107.6,72.5 107.6,79.8 108.8,79.8 108.8,76.6 112.1,76.6 
		112.1,79.8 113.3,79.8 113.3,72.5 112.1,72.5 	"/>
	<polygon class="st1" points="120.8,76.6 124.6,76.6 124.6,75.5 120.8,75.5 120.8,73.5 124.7,73.5 124.7,72.5 119.6,72.5 
		119.6,79.8 124.9,79.8 124.9,78.7 120.8,78.7 	"/>
	<path class="st1" d="M136.7,79.1c-0.1-0.4-0.2-0.7-0.2-1.1c0-0.4,0-0.8-0.2-1.2c-0.1-0.3-0.4-0.5-0.6-0.6L136,76
		c0.5-0.4,0.8-0.9,0.7-1.5c0-0.3,0-0.5-0.1-0.8c-0.3-0.9-1.2-1.4-2.2-1.2H131v7.3h1.2v-3h2.2c0.1,0,0.2,0,0.4,0
		c0.5,0.1,0.7,0.5,0.7,1.1v0.6c0,0.4,0.1,0.8,0.2,1.2v0.1h1.3v-0.4h-0.1C136.8,79.3,136.7,79.2,136.7,79.1z M132.2,73.5h2
		c0.3,0,0.7,0.1,0.9,0.2c0.2,0.2,0.4,0.5,0.3,0.8c0,0.1,0,0.2,0,0.3c-0.1,0.5-0.5,0.7-1.2,0.7h-2L132.2,73.5z"/>
	<polygon class="st1" points="144,78.7 144,76.6 147.9,76.6 147.9,75.5 144,75.5 144,73.5 148,73.5 148,72.5 142.9,72.5 142.9,79.8 
		148.2,79.8 148.2,78.7 	"/>
</g>
</svg>
