<?xml version="1.0" encoding="utf-8"?>
<!-- Generator: Adobe Illustrator 25.2.1, SVG Export Plug-In . SVG Version: 6.00 Build 0)  -->
<svg version="1.1" id="Layer_1" xmlns="http://www.w3.org/2000/svg" xmlns:xlink="http://www.w3.org/1999/xlink" x="0px" y="0px"
	 viewBox="0 0 247.6 80" style="enable-background:new 0 0 247.6 80;" xml:space="preserve">
<style type="text/css">
	.st0{fill:#0767A3;}
	.st1{fill:#E97C42;}
	.st2{fill:#82C447;}
	.st3{fill:#DB222C;}
	.st4{fill:#30302F;stroke:#30302F;stroke-miterlimit:10;}
</style>
<g>
	<path class="st0" d="M80,46.7c-1.3,0-2.4,1.1-2.4,2.4c0,0.7,0.3,1.3,0.8,1.8l-5.2,12.2c-2.9-1.2-6.2,0.1-7.4,3
		c-0.3,0.7-0.4,1.4-0.4,2.2c0,0.4,0.1,0.9,0.2,1.3l-13.6,3.3c-0.6-1.2-2-1.8-3.2-1.2c-1.2,0.6-1.8,2-1.2,3.2c0.6,1.2,2,1.8,3.2,1.2
		c0.7-0.3,1.2-1,1.4-1.7l14.4-2.7c1.9,2.4,5.4,2.9,7.9,1s2.9-5.4,1-7.9c-0.1-0.1-0.2-0.3-0.3-0.4l4.9-12.9H80c1.3,0,2.4-1.1,2.4-2.4
		C82.4,47.8,81.3,46.7,80,46.7C80,46.7,80,46.7,80,46.7L80,46.7z"/>
	<path class="st0" d="M82,28.4c-2.7,0-4.9,2.2-4.9,4.8l-20.8,1c-1.3-6.1-7.3-9.9-13.4-8.6c-1,0.2-2,0.6-3,1.1c-0.5,0.3-1,0.6-1.5,1
		L26,14c0.6-1.2,1-2.5,1-3.8c0-0.5,0-1-0.2-1.5l20.3-3.1c0.1,0.2,0.3,0.3,0.4,0.5c1,0.8,2.6,0.7,3.4-0.4c0.8-1,0.7-2.6-0.4-3.4
		S48,1.6,47.2,2.6c0,0,0,0,0,0c-0.2,0.2-0.3,0.5-0.4,0.7l-21.4,2C22.7,1.9,17.8,1.3,14.3,4c-3.4,2.7-4.1,7.6-1.4,11.1
		c0.1,0.1,0.2,0.3,0.4,0.4L6.5,32.6c-0.2,0-0.5,0.1-0.7,0.1c-1.3,0.5-1.9,1.9-1.4,3.1c0.5,1.3,1.9,1.9,3.1,1.4s1.9-1.9,1.4-3.1
		c0,0,0,0,0,0c-0.1-0.3-0.3-0.6-0.5-0.8l7.3-16.1c2,0.9,4.2,1,6.2,0.1l13.1,14.5c-2.5,5.2-0.5,11.5,4.5,14.5l-7.9,19.6
		c-2.2,0-4.2,1-5.5,2.7l-9.9-9.4c0.1-0.3,0.2-0.7,0.2-1c0-1.3-1.1-2.4-2.4-2.4c-1.3,0-2.4,1.1-2.4,2.4c0,1.3,1.1,2.4,2.4,2.4l0,0
		c0.3,0,0.7-0.1,1-0.2L25,70.9c-1.1,3.7,1,7.6,4.7,8.7c3.7,1.1,7.6-1,8.7-4.7c0.7-2.5,0-5.2-1.8-7l8-20c0.2,0,0.5,0,0.7,0
		c5.6,0,10.4-4.1,11.2-9.7l20.8-3.7c0.7,2.6,3.4,4.1,6,3.4c2.6-0.7,4.1-3.4,3.4-6C86.1,29.8,84.2,28.4,82,28.4L82,28.4z"/>
	<path class="st0" d="M4,45.2c-1-0.8-2.6-0.7-3.4,0.4c-0.8,1-0.7,2.6,0.4,3.4s2.6,0.7,3.4-0.4c0,0,0,0,0,0C5.2,47.5,5,46,4,45.2z"/>
	<circle class="st0" cx="68.9" cy="12.9" r="3.6"/>
	<path class="st0" d="M71.5,20.4c0,1.3,1.1,2.3,2.4,2.3s2.3-1.1,2.3-2.4c0-1.3-1.1-2.3-2.3-2.3C72.5,18,71.5,19,71.5,20.4
		C71.5,20.3,71.5,20.4,71.5,20.4z"/>
	<path class="st0" d="M59.4,5c1.4,0,2.5-1.1,2.5-2.5S60.8,0,59.4,0s-2.5,1.1-2.5,2.5S58,5,59.4,5z"/>
	<path class="st1" d="M20.7,21c-0.3-0.3-0.7-0.3-1,0c-0.1,0.1-0.2,0.2-0.2,0.3l-7.2,23.5c-0.5,1.7-0.1,3.6,1.1,4.9l14,15.1
		c0.2,0.3,0.7,0.3,0.9,0c0.1-0.1,0.1-0.2,0.2-0.3l6.7-16.6c0.1-0.3,0-0.5-0.2-0.7c-2.8-2.8-4.5-6.6-4.5-10.5c0-1.2,0.2-2.5,0.5-3.7
		c0.1-0.2,0-0.5-0.2-0.6L20.7,21z"/>
	<path class="st2" d="M31.3,14.8l7.5,8.3c0.2,0.2,0.5,0.3,0.8,0.2c1.8-0.8,3.8-1.2,5.8-1.2c5.6,0,10.7,3.3,13.2,8.3
		c0.1,0.2,0.4,0.4,0.6,0.4l12.6-0.6c0.4,0,0.7-0.3,0.6-0.7c0-0.2-0.1-0.3-0.2-0.4L55.3,10.8c-1.2-1.3-3.1-1.9-4.8-1.5l-18.9,4.3
		c-0.4,0.1-0.6,0.4-0.5,0.8C31.1,14.5,31.2,14.7,31.3,14.8z"/>
	<path class="st3" d="M67,61.6l6.8-22c0.1-0.4-0.1-0.7-0.4-0.9c-0.1,0-0.2,0-0.3,0l-13.3,2.4c-0.2,0-0.4,0.2-0.5,0.5
		c-1.8,5.1-6.4,8.8-11.8,9.6c-0.2,0-0.4,0.2-0.5,0.4l-7.2,17.8c-0.1,0.3,0,0.7,0.4,0.9c0.1,0.1,0.3,0.1,0.4,0l22.9-5.2
		C65,64.7,66.4,63.4,67,61.6z"/>
	<path class="st4" d="M109,37.3h-2.1l-8.5-20.9h2.2l7.4,18.3l7.4-18.3h2.2L109,37.3z"/>
	<path class="st4" d="M129.3,20.1h-2v-3.6h2V20.1z M129.3,37.3h-2V21.9h2V37.3z"/>
	<path class="st4" d="M141.9,37.3h-2.1V21.9h1.9v2.2c0.4-0.8,1.1-1.5,1.9-1.9c0.7-0.4,1.6-0.6,2.4-0.6v2c-0.8,0-1.7,0.3-2.3,0.8
		c-0.5,0.4-0.9,0.8-1.2,1.3c-0.4,0.7-0.6,1.6-0.5,2.4L141.9,37.3z"/>
	<path class="st4" d="M161.5,37.6c-3.8,0-5.6-1.6-5.6-4.8V16.5h2.1v5.4h3.5v1.9H158v8.7c0,2.3,1.2,3.4,3.5,3.4V37.6z"/>
	<path class="st4" d="M185.3,30.7c0.1,1.9-0.6,3.7-1.9,5c-1.3,1.3-3,2.1-4.9,2c-1.8,0.1-3.6-0.7-4.9-2c-1.3-1.3-2-3.1-1.9-5v-8.8
		h2.1v9c0,2.6,2.1,4.7,4.7,4.7c1.2,0,2.4-0.5,3.3-1.3c0.9-0.9,1.4-2.1,1.4-3.4v-9h2.1V30.7z"/>
	<path class="st4" d="M211.8,37.3h-2v-2.4c-1.5,1.8-3.8,2.9-6.2,2.8c-2.1,0-4-0.9-5.4-2.5c-3.1-3.2-3-8.3,0.2-11.4
		c1.5-1.6,3.6-2.4,5.8-2.3c2.1,0,4.1,0.9,5.5,2.5c1.5,1.5,2.3,3.5,2.2,5.6L211.8,37.3L211.8,37.3z M198,29.4
		c-0.1,1.6,0.5,3.1,1.6,4.3c1,1.2,2.5,1.9,4,1.9c1.6,0.1,3.2-0.5,4.3-1.8c1.2-1.2,1.8-2.8,1.8-4.5c0-1.6-0.6-3.1-1.7-4.2
		c-1-1.1-2.5-1.7-4-1.7c-1.6,0-3.1,0.6-4.2,1.7C198.7,26.4,198,27.9,198,29.4L198,29.4z"/>
	<path class="st4" d="M224.3,37.3h-2.1V16.5h2.1V37.3z"/>
	<path class="st1" d="M113.7,62.7h-2v-9.6h-10.6v9.6h-2V41.9h2v9.3h10.6v-9.3h2V62.7z"/>
	<path class="st1" d="M131.8,62.7h-2v-2.4c-2.8,3.3-7.7,3.7-10.9,0.9c-0.2-0.2-0.5-0.4-0.7-0.6c-3-3.2-3-8.3,0.2-11.4
		c1.5-1.6,3.6-2.4,5.8-2.3c2.1,0,4.1,0.9,5.5,2.5c1.5,1.5,2.3,3.5,2.2,5.6V62.7L131.8,62.7z M118,54.8c0,1.6,0.5,3.1,1.6,4.3
		c1,1.2,2.5,1.9,4,1.9c1.6,0.1,3.2-0.5,4.3-1.8c1.2-1.2,1.8-2.8,1.8-4.5c0-1.6-0.6-3.1-1.7-4.2c-1-1.1-2.5-1.7-4-1.7
		c-1.6,0-3.1,0.6-4.2,1.7C118.7,51.7,118.1,53.2,118,54.8L118,54.8z"/>
	<path class="st1" d="M136,62.7h-2.2V47.2h2v2.2c0.4-0.8,1.1-1.5,1.9-1.9c0.7-0.4,1.5-0.6,2.4-0.6V49c-0.8,0-1.7,0.3-2.3,0.8
		c-0.5,0.4-0.9,0.8-1.2,1.3c-0.4,0.7-0.6,1.6-0.5,2.4L136,62.7z"/>
	<path class="st1" d="M157.8,55c0.1,2.2-0.8,4.3-2.4,5.8c-1.5,1.6-3.6,2.4-5.8,2.3c-2.1,0-4.1-0.9-5.5-2.4c-3-3.2-2.9-8.3,0.2-11.4
		c1.5-1.6,3.6-2.4,5.7-2.3c2.2,0,4.3,1,5.7,2.7v-7.8h2L157.8,55z M149.7,61c1.6,0.1,3.2-0.5,4.3-1.8c1.2-1.2,1.8-2.8,1.7-4.4
		c0-1.6-0.6-3.1-1.7-4.2c-1-1.1-2.5-1.7-4-1.7c-1.6,0-3.1,0.6-4.2,1.8c-1.1,1.1-1.8,2.6-1.8,4.2c0,1.6,0.5,3.1,1.6,4.3
		C146.7,60.3,148.1,61,149.7,61L149.7,61z"/>
	<path class="st1" d="M177.1,62.7h-2.4l-3.4-10.2l-3.2,10.2h-2.4L160,47.2h2.2l4.8,12.9l3.6-11h1.8l3.5,10.9l4.9-12.8h2.2
		L177.1,62.7z"/>
	<path class="st1" d="M200.6,62.7h-2v-2.4c-1.5,1.8-3.8,2.9-6.2,2.8c-2.1,0-4-0.9-5.4-2.5c-3.1-3.2-3-8.3,0.2-11.4
		c1.5-1.6,3.6-2.4,5.8-2.3c2.1,0,4.1,0.9,5.5,2.5c1.5,1.5,2.3,3.5,2.2,5.6L200.6,62.7L200.6,62.7z M186.8,54.8
		c0,1.6,0.5,3.1,1.6,4.3c1,1.2,2.5,1.9,4,1.9c1.6,0.1,3.2-0.5,4.3-1.8c2.3-2.4,2.3-6.2,0-8.6c-1-1.1-2.5-1.7-4-1.7
		c-1.6,0-3.1,0.6-4.2,1.7C187.4,51.7,186.8,53.2,186.8,54.8z"/>
	<path class="st1" d="M204.7,62.7h-2.2V47.2h1.9v2.2c0.4-0.8,1.1-1.5,1.9-1.9c0.7-0.4,1.6-0.6,2.4-0.6V49c-0.8,0-1.7,0.3-2.3,0.8
		c-0.5,0.4-0.9,0.8-1.2,1.3c-0.4,0.7-0.6,1.6-0.5,2.4V62.7z"/>
	<path class="st1" d="M226,57.6c-0.5,1.6-1.5,3-2.9,4c-1.3,1-2.9,1.5-4.6,1.5c-2.1,0-4.1-0.8-5.6-2.3c-3.2-3.1-3.3-8.2-0.2-11.4
		c0.1-0.1,0.1-0.1,0.2-0.2c1.6-1.6,3.8-2.5,6-2.3c2,0.1,4,1,5.4,2.5c1.4,1.4,2.2,3.2,2.2,5.2v1.1h-13.9c0.1,1.5,0.9,2.9,2,3.8
		c1.1,1,2.6,1.5,4.1,1.5c2.3,0.1,4.4-1.3,5.2-3.4H226z M224.3,53.8c-0.5-2.8-3-4.9-5.8-4.9c-2.9-0.1-5.5,2-6,4.9H224.3z"/>
	<path class="st3" d="M247.3,54.9v4.5c0,2.4-1.4,4.1-3.9,4.1h-11.8v-1.6h12.1c0.6,0,1.2-0.3,1.6-0.8c0.4-0.5,0.6-1.1,0.5-1.7v-4.5
		H247.3z"/>
	<path class="st3" d="M247.3,36v1.5h-1.8c1.4,1.1,2.2,2.8,2.1,4.6c0,1.6-0.7,3-1.8,4.1c-2.4,2.3-6.2,2.2-8.5-0.1
		c-1.2-1.1-1.8-2.7-1.7-4.3c0-1.6,0.7-3.1,1.9-4.1c1.1-1.1,2.6-1.7,4.2-1.6H247.3z M241.4,46.3c1.2,0,2.3-0.4,3.2-1.2
		c0.9-0.8,1.4-1.8,1.4-3c0.1-1.2-0.4-2.4-1.3-3.2c-0.9-0.9-2.1-1.4-3.3-1.3c-1.2,0-2.3,0.5-3.1,1.3c-0.8,0.8-1.3,1.9-1.3,3
		c0,1.2,0.4,2.3,1.3,3.1C239.1,45.9,240.3,46.4,241.4,46.3L241.4,46.3z"/>
	<path class="st3" d="M241.5,28h-9.8v-1.5h5.8c-1.3-1.1-2-2.6-2-4.3c-0.1-1.6,0.5-3.2,1.7-4.3c2.3-2.4,6.1-2.4,8.5-0.1
		c1.1,1.1,1.8,2.5,1.8,4.1c0.1,1.6-0.6,3.2-1.7,4.3c-1.1,1.2-2.7,1.8-4.3,1.8H241.5z M244.7,18.9c-0.9-0.8-2-1.3-3.2-1.2
		c-1.2,0-2.3,0.5-3.1,1.3c-0.9,0.8-1.3,1.9-1.3,3.1c0,1.1,0.5,2.2,1.3,3c1.8,1.7,4.7,1.7,6.5,0c0.9-0.8,1.4-2,1.3-3.2
		C246,20.7,245.5,19.6,244.7,18.9L244.7,18.9z"/>
</g>
</svg>
