<?xml version="1.0" encoding="utf-8"?>
<!-- Generator: Adobe Illustrator 25.2.1, SVG Export Plug-In . SVG Version: 6.00 Build 0)  -->
<svg version="1.1" id="Layer_1" xmlns="http://www.w3.org/2000/svg" xmlns:xlink="http://www.w3.org/1999/xlink" x="0px" y="0px"
	 viewBox="0 0 203.2 70" style="enable-background:new 0 0 203.2 70;" xml:space="preserve">
<style type="text/css">
	.st0{fill:#FFFFFF;}
	.st1{fill:none;stroke:#000000;stroke-width:1.5;stroke-miterlimit:10;}
	.st2{fill:#82CCED;}
	.st3{fill:none;stroke:#000000;stroke-width:2;stroke-miterlimit:10;}
</style>
<g>
	<path class="st0" d="M105.5,37.9c-0.7-2.7-1.9-5.3-3.5-7.7c-1.3,4.4-5.4,7.4-10,7.4c-0.2,0-0.5,0-0.7,0c1,1.4,1.7,3,2,4.7
		c0.8,4.4-0.1,8.1-2.8,11.1c-2.3,2.8-5.7,4.3-9.3,4.3c-0.5,0-1,0-1.4-0.1c-3.6-0.4-6.9-1.9-9.6-4.4c-2.1-1.8-4.1-3.7-6.1-5.6
		c-0.7-0.7-1.5-1.4-2.2-2.1c-0.1-0.1-0.3-0.3-0.4-0.4l0.9-0.8c1.4-1.4,2.8-2.7,4.2-4.1c2.3-2.3,5-4.2,7.9-5.7
		c2.2-1.1,4.7-1.7,7.3-1.8h0.9c0.2,0,0.4,0,0.6,0.1c-2.5-3.8-2.2-8.9,0.8-12.4c-0.6-0.1-1.2-0.1-1.8-0.1c-5,0-9.8,1.4-14.1,3.9
		C64,26.7,60.3,29.6,57,33c-1.1,1.1-2.2,2.2-3.2,3.3c-0.1,0.2-0.3,0.3-0.4,0.5L52,35.5c-4-4-7.9-7.8-12.7-10.8
		c-4.2-2.7-9-4.2-14-4.3c-1.7,0-3.4,0.2-5.1,0.5c-7.3,1.3-13.6,6-17.1,12.5c-3.2,5.9-4,12.8-2,19.3c2.4,9.2,10.2,16,19.7,17
		c1.2,0.2,2.3,0.2,3.5,0.2c4.3,0,8.6-1,12.5-3c4.4-2.3,8.4-5.2,11.8-8.7c1.3-1.2,2.6-2.5,3.9-3.8l0.8-0.8l0.1,0.1
		c0.8,0.8,1.6,1.7,2.4,2.5c3.6,3.8,7.7,7.1,12.2,9.9c4,2.4,8.5,3.7,13.2,3.8c1.9,0,3.7-0.2,5.5-0.6c7.3-1.5,13.5-6.2,16.9-12.9
		C106.6,50.8,107.3,44.1,105.5,37.9z M34.5,54.4c-2.5,1.8-5.5,2.9-8.5,3.2c-0.4,0-0.9,0.1-1.3,0.1c-6.1,0.1-11.3-4.5-11.8-10.6
		c-0.6-5.3,1.3-9.5,5.7-12.3c1.9-1.3,4.2-2,6.5-2c2,0,4,0.5,5.8,1.3c2.9,1.3,5.6,3.1,7.9,5.4c1.6,1.5,3.2,3.1,4.9,4.6l1.3,1.2
		C41.6,48.6,38.4,51.9,34.5,54.4L34.5,54.4z"/>
	<path class="st1" d="M103.8,25.4"/>
	<circle class="st2" cx="92.1" cy="27.2" r="6.8"/>
	<path class="st3" d="M103.8,25.4"/>
	<path class="st2" d="M109.9,25.5c-0.5,0-1-0.4-1.1-0.9c-1.3-8.2-8.4-14.3-16.7-14.3c-1.2,0-2.5,0.1-3.7,0.4
		c-0.6,0.1-1.2-0.2-1.3-0.8c0,0,0,0,0,0c-0.1-0.6,0.2-1.1,0.7-1.3c1.4-0.3,2.8-0.5,4.1-0.5c9.4,0.1,17.4,6.9,18.9,16.1
		c0.1,0.6-0.3,1.1-0.9,1.2c0,0,0,0,0,0L109.9,25.5z"/>
	<path class="st2" d="M103.8,26.2c-0.5,0-0.9-0.4-0.9-0.9c0,0,0,0,0,0c-0.9-5.3-5.5-9.2-10.8-9.2c-0.8,0-1.6,0.1-2.4,0.3
		c-0.5,0.1-0.9-0.2-1-0.7c-0.1-0.5,0.2-0.9,0.6-1c0.9-0.2,1.8-0.3,2.8-0.3c6.2,0,11.6,4.6,12.6,10.7c0,0.1,0,0.1,0,0.1
		C104.6,25.9,104.2,26.3,103.8,26.2C103.8,26.3,103.8,26.3,103.8,26.2z"/>
	<path class="st2" d="M115.9,24.9c-0.7,0-1.3-0.5-1.4-1.2C112.5,11.4,101,2.9,88.6,4.8c-0.5,0.1-1,0.2-1.5,0.3
		c-0.8,0.2-1.6-0.3-1.7-1.1s0.3-1.6,1.1-1.7c1.8-0.4,3.7-0.6,5.6-0.6c12.6,0.1,23.2,9.2,25.2,21.6c0.1,0.8-0.4,1.5-1.2,1.6
		L115.9,24.9z"/>
	<rect x="125.4" class="st2" width="6.6" height="32.2"/>
	<rect x="184.5" class="st2" width="6.6" height="32.2"/>
	<rect x="172.4" y="0" class="st2" width="30.7" height="6.6"/>
	<path class="st2" d="M154.7,1.2c-8.6,0-15.5,6.9-15.5,15.5s6.9,15.5,15.5,15.5s15.5-6.9,15.5-15.5l0,0
		C170.2,8.2,163.3,1.2,154.7,1.2C154.7,1.2,154.7,1.2,154.7,1.2z M156.1,23.9h-2.8v-2.8h2.8V23.9z M158.1,19.1c-1.9-1.8-5-1.8-6.9,0
		l-2.1-2c3.1-2.9,7.9-2.9,11,0L158.1,19.1z M161.7,15.5c-3.9-3.8-10.2-3.8-14.1,0l-2.1-2c5.1-5,13.2-5,18.2,0L161.7,15.5z"/>
	<path class="st2" d="M129.5,46.9c-0.6-0.2-1.1-0.4-1.6-0.6c-0.5-0.2-0.9-0.4-1.2-0.8c-0.3-0.3-0.6-0.7-0.8-1.1
		c-0.2-0.5-0.3-1-0.3-1.5c0-1.1,0.5-2.1,1.3-2.7c1.1-0.7,2.4-1.1,3.7-1c0.5,0,1.1,0,1.6,0.1c0.4,0.1,0.9,0.2,1.3,0.4
		c0.3,0.1,0.6,0.4,0.8,0.6c0.2,0.3,0.3,0.6,0.3,0.9c0,0.3-0.1,0.6-0.2,0.9c-0.2,0.2-0.3,0.5-0.6,0.6c-0.4-0.2-0.8-0.4-1.2-0.5
		c-0.5-0.2-1.1-0.2-1.6-0.2c-0.5,0-0.9,0.1-1.3,0.3c-0.3,0.1-0.4,0.4-0.4,0.6c0,0.2,0.1,0.4,0.3,0.5c0.2,0.2,0.5,0.3,0.8,0.4
		l1.1,0.3c1.1,0.3,2.1,0.8,2.9,1.5c0.7,0.7,1.1,1.6,1,2.5c0,1.1-0.5,2.1-1.4,2.8c-1.2,0.8-2.6,1.2-4,1.1c-0.6,0-1.2,0-1.7-0.1
		c-0.5-0.1-0.9-0.2-1.4-0.4c-0.4-0.2-0.7-0.4-0.9-0.7c-0.2-0.3-0.3-0.6-0.3-1c0-0.4,0.1-0.7,0.3-1c0.2-0.3,0.5-0.5,0.8-0.6
		c0.4,0.3,0.9,0.6,1.4,0.8c0.6,0.2,1.2,0.3,1.8,0.3c0.5,0,1-0.1,1.4-0.3c0.2-0.2,0.4-0.4,0.4-0.7c0-0.2-0.1-0.5-0.3-0.6
		c-0.3-0.2-0.6-0.3-0.9-0.4L129.5,46.9z"/>
	<path class="st2" d="M144.4,45.7c0-0.3-0.1-0.7-0.4-0.9c-0.3-0.2-0.6-0.3-1-0.3c-0.3,0-0.5,0-0.8,0.1c-0.2,0.1-0.5,0.2-0.7,0.3v7
		c-0.2,0.1-0.4,0.1-0.6,0.1c-0.3,0-0.6,0.1-0.9,0.1c-0.3,0-0.5,0-0.8-0.1c-0.2,0-0.4-0.1-0.6-0.2c-0.2-0.1-0.3-0.3-0.4-0.5
		c-0.1-0.3-0.1-0.5-0.1-0.8v-6.1c0-0.3,0.1-0.6,0.2-0.9c0.2-0.2,0.4-0.5,0.6-0.6c0.5-0.4,1.1-0.6,1.7-0.8c0.8-0.2,1.5-0.3,2.3-0.3
		c1.3-0.1,2.5,0.3,3.5,1c0.8,0.7,1.3,1.7,1.3,2.8v6.3c-0.2,0.1-0.4,0.1-0.6,0.1c-0.3,0-0.6,0.1-0.9,0.1c-0.3,0-0.5,0-0.8-0.1
		c-0.2,0-0.4-0.1-0.6-0.2c-0.2-0.1-0.3-0.3-0.4-0.5c-0.1-0.3-0.1-0.5-0.1-0.8L144.4,45.7z"/>
	<path class="st2" d="M155.4,41.7c0.7,0,1.3,0.1,2,0.2c0.5,0.1,1,0.4,1.5,0.7c0.4,0.3,0.8,0.7,1,1.1c0.2,0.5,0.4,1.1,0.4,1.6v4.5
		c0,0.3-0.1,0.6-0.3,0.9c-0.2,0.2-0.4,0.4-0.7,0.6c-1.1,0.6-2.4,0.9-3.7,0.8c-0.6,0-1.3-0.1-1.9-0.2c-0.5-0.1-1-0.3-1.5-0.6
		c-0.4-0.2-0.7-0.6-1-1c-0.2-0.4-0.4-0.9-0.3-1.5c0-0.8,0.3-1.6,0.8-2.1c0.7-0.6,1.6-0.9,2.6-0.9l2.6-0.3v-0.1
		c0-0.4-0.2-0.7-0.5-0.8c-0.5-0.2-1-0.3-1.5-0.3c-0.5,0-1,0.1-1.5,0.2c-0.4,0.1-0.9,0.2-1.3,0.4c-0.2-0.1-0.4-0.3-0.5-0.6
		c-0.1-0.2-0.2-0.5-0.2-0.8c0-0.3,0.1-0.6,0.2-0.8c0.2-0.2,0.5-0.4,0.8-0.5c0.4-0.2,0.9-0.3,1.4-0.3
		C154.4,41.7,154.9,41.7,155.4,41.7z M155.5,49.6c0.3,0,0.5,0,0.8-0.1c0.2,0,0.4-0.1,0.6-0.2v-1.6l-1.5,0.1c-0.3,0-0.6,0.1-0.9,0.2
		c-0.2,0.1-0.4,0.4-0.4,0.6c0,0.3,0.1,0.5,0.3,0.6C154.8,49.6,155.2,49.7,155.5,49.6z"/>
	<path class="st2" d="M169.2,44.4c-0.3,0-0.7,0-1,0.2c-0.3,0.1-0.6,0.3-0.8,0.5c-0.2,0.2-0.4,0.5-0.5,0.8c-0.1,0.3-0.2,0.7-0.2,1.1
		c-0.1,0.7,0.2,1.4,0.7,1.9c0.5,0.4,1.1,0.6,1.7,0.6c0.3,0,0.7,0,1-0.1c0.3-0.1,0.5-0.2,0.8-0.3c0.2,0.2,0.5,0.4,0.6,0.6
		c0.1,0.2,0.2,0.5,0.2,0.8c0,0.5-0.3,1-0.8,1.3c-0.7,0.3-1.4,0.5-2.2,0.5c-0.8,0-1.6-0.1-2.3-0.4c-0.7-0.2-1.3-0.6-1.8-1
		c-0.5-0.5-0.9-1-1.1-1.6c-0.3-0.7-0.4-1.4-0.4-2.1c0-0.8,0.1-1.6,0.4-2.3c0.3-0.6,0.7-1.2,1.2-1.6c0.5-0.4,1.1-0.8,1.7-1
		c0.7-0.2,1.4-0.3,2.1-0.3c0.8,0,1.6,0.1,2.2,0.5c0.5,0.3,0.8,0.8,0.8,1.4c0,0.2-0.1,0.5-0.2,0.7c-0.1,0.2-0.3,0.4-0.4,0.6
		c-0.3-0.1-0.5-0.2-0.8-0.3C169.9,44.4,169.6,44.4,169.2,44.4z"/>
	<path class="st2" d="M184.5,50.2c0,0.5-0.2,1-0.5,1.5c-0.3,0.3-0.8,0.5-1.3,0.5c-0.4,0-0.8-0.1-1.2-0.3c-0.4-0.3-0.8-0.6-1.1-1.1
		l-2-2.5v3.7l-0.6,0.1c-0.3,0.1-0.6,0.1-0.9,0.1c-0.3,0-0.5,0-0.8-0.1c-0.2,0-0.4-0.1-0.6-0.2c-0.2-0.1-0.3-0.3-0.4-0.5
		c-0.1-0.3-0.1-0.5-0.1-0.8V38.9c0.2-0.1,0.4-0.1,0.7-0.1c0.3-0.1,0.6-0.1,0.9-0.1c0.3,0,0.5,0,0.8,0.1c0.2,0,0.4,0.1,0.6,0.2
		c0.2,0.1,0.3,0.3,0.4,0.5c0.1,0.3,0.1,0.5,0.1,0.8v5.3l3.5-3.6c0.6,0,1.2,0.1,1.7,0.5c0.4,0.3,0.6,0.7,0.6,1.2c0,0.2,0,0.4-0.1,0.5
		c-0.1,0.2-0.2,0.4-0.3,0.5c-0.2,0.2-0.4,0.4-0.5,0.5c-0.2,0.2-0.5,0.4-0.8,0.7l-1.2,1L184.5,50.2z"/>
	<path class="st2" d="M195.6,48.9c0,0.9-0.4,1.8-1.1,2.4c-1,0.6-2.2,1-3.4,0.9c-0.5,0-1.1,0-1.6-0.1c-0.4-0.1-0.8-0.2-1.2-0.4
		c-0.3-0.1-0.6-0.4-0.8-0.6c-0.2-0.3-0.3-0.6-0.3-0.9c0-0.3,0.1-0.6,0.2-0.8c0.1-0.2,0.3-0.4,0.5-0.5c0.4,0.2,0.9,0.4,1.3,0.6
		c0.6,0.2,1.1,0.3,1.7,0.3c0.3,0,0.7,0,1-0.2c0.2-0.1,0.3-0.3,0.3-0.5c0-0.2-0.1-0.3-0.2-0.4c-0.2-0.1-0.5-0.2-0.8-0.3l-0.6-0.1
		c-0.9-0.1-1.8-0.5-2.6-1.1c-0.6-0.5-0.9-1.3-0.9-2.1c0-0.9,0.4-1.8,1.2-2.4c0.4-0.3,0.9-0.5,1.4-0.6c0.6-0.2,1.2-0.2,1.8-0.2
		c0.5,0,0.9,0,1.4,0.1c0.4,0.1,0.8,0.2,1.1,0.3c0.3,0.1,0.6,0.3,0.8,0.6c0.2,0.2,0.3,0.5,0.3,0.8c0,0.3-0.1,0.5-0.2,0.8
		c-0.1,0.2-0.3,0.4-0.4,0.6c-0.2-0.1-0.3-0.2-0.5-0.2c-0.2-0.1-0.5-0.1-0.7-0.2l-0.8-0.2c-0.2,0-0.5-0.1-0.7-0.1c-0.3,0-0.7,0-1,0.2
		c-0.2,0.1-0.4,0.2-0.4,0.5c0,0.1,0.1,0.3,0.2,0.4c0.2,0.1,0.5,0.2,0.8,0.3l0.6,0.1c1,0.2,2,0.6,2.8,1.2
		C195.3,47.4,195.6,48.1,195.6,48.9z"/>
	<path class="st2" d="M130.8,67.9H130c-0.3,0-0.7,0-1-0.1c-0.3,0-0.7-0.1-1-0.1c-0.3-0.1-0.6-0.1-0.9-0.2c-0.7-0.2-1.1-0.8-1.1-1.5
		v-9.4c0-0.2,0.1-0.5,0.2-0.7c0.2-0.2,0.4-0.3,0.6-0.4c0.6-0.2,1.1-0.3,1.7-0.4c0.7-0.1,1.4-0.1,2.1-0.1c1.4-0.1,2.8,0.2,4,0.9
		c0.9,0.6,1.4,1.6,1.4,2.7c0,0.6-0.2,1.1-0.5,1.6c-0.4,0.5-0.9,0.8-1.4,1c0.6,0.2,1.2,0.5,1.7,1c0.5,0.5,0.7,1.2,0.7,1.9
		c0.1,1.2-0.5,2.3-1.5,3C133.7,67.7,132.2,68,130.8,67.9z M129.4,60.2h1.5c0.4,0,0.9-0.1,1.3-0.3c0.3-0.2,0.4-0.6,0.4-0.9
		c0-0.3-0.2-0.7-0.5-0.9c-0.4-0.2-0.9-0.4-1.4-0.3h-0.7c-0.2,0-0.4,0-0.6,0.1L129.4,60.2z M129.4,65.1c0.2,0.1,0.5,0.1,0.7,0.1h0.9
		c0.5,0,0.9-0.1,1.3-0.3c0.3-0.2,0.6-0.6,0.5-1c0-0.4-0.1-0.7-0.5-0.9c-0.4-0.2-0.9-0.3-1.4-0.3h-1.7V65.1z"/>
	<path class="st2" d="M149.7,62.8c0,0.8-0.1,1.5-0.4,2.2c-0.2,0.6-0.6,1.2-1.1,1.6c-0.5,0.4-1,0.8-1.7,1c-0.7,0.2-1.4,0.4-2.2,0.3
		c-0.7,0-1.5-0.1-2.2-0.4c-1.3-0.4-2.3-1.4-2.8-2.7c-0.5-1.4-0.5-2.9,0-4.3c0.5-1.3,1.5-2.2,2.8-2.7c0.7-0.2,1.4-0.4,2.2-0.4
		c0.7,0,1.5,0.1,2.2,0.4c0.6,0.2,1.2,0.6,1.7,1c0.5,0.5,0.8,1,1.1,1.6C149.6,61.3,149.7,62,149.7,62.8z M142.7,62.8
		c0,0.7,0.1,1.3,0.5,1.9c0.3,0.4,0.8,0.7,1.3,0.7c0.5,0,1-0.2,1.3-0.7c0.3-0.6,0.5-1.2,0.5-1.9c0-0.7-0.1-1.3-0.5-1.9
		c-0.6-0.7-1.6-0.9-2.3-0.3c-0.1,0.1-0.2,0.2-0.3,0.3C142.8,61.5,142.6,62.1,142.7,62.8L142.7,62.8z"/>
	<path class="st2" d="M152.1,59.6c0.1-0.5,0.3-0.9,0.6-1.3c0.3-0.3,0.7-0.5,1.2-0.5c0.4,0,0.7,0.1,1,0.3c0.3,0.3,0.6,0.6,0.8,0.9
		l1.3,1.8l2.2-3c0.6,0,1.2,0.1,1.8,0.4c0.4,0.2,0.6,0.6,0.6,1.1c0,0.2,0,0.3-0.1,0.5c-0.1,0.2-0.1,0.3-0.2,0.4
		c-0.1,0.1-0.2,0.3-0.4,0.5l-0.5,0.7l-1.3,1.5l2.6,3.4c0,0.5-0.3,0.9-0.6,1.2c-0.3,0.3-0.8,0.4-1.2,0.4c-0.4,0-0.9-0.1-1.2-0.4
		c-0.3-0.3-0.6-0.6-0.9-1l-1.1-1.5l-2.1,3h-0.4c-0.6,0-1.1-0.1-1.6-0.4c-0.3-0.2-0.5-0.6-0.5-1c0-0.3,0.1-0.6,0.2-0.9
		c0.2-0.4,0.5-0.7,0.8-1l1.6-1.9L152.1,59.6z"/>
</g>
</svg>
