<?xml version="1.0" encoding="utf-8"?>
<!-- Generator: Adobe Illustrator 25.2.1, SVG Export Plug-In . SVG Version: 6.00 Build 0)  -->
<svg version="1.1" id="Layer_1" xmlns="http://www.w3.org/2000/svg" xmlns:xlink="http://www.w3.org/1999/xlink" x="0px" y="0px"
	 viewBox="0 0 43 35" style="enable-background:new 0 0 43 35;" xml:space="preserve">
<style type="text/css">
	.st0{fill:#429CD6;}
</style>
<g>
	<path class="st0" d="M43,4.1c-1.5,0.7-3,1.1-4.6,1.3c0,0,0-0.1,0-0.1c1.6-1.1,2.8-2.7,3.4-4.6c-1.3,0.7-2.7,1.3-4.1,1.7
		c-0.5,0.1-1,0.2-1.5,0.3c-3.4-3.5-9.1-3.6-12.6-0.2c-1.7,1.7-2.7,4-2.7,6.4c0,0.2,0,0.4,0,0.5c0,0.4,0.1,0.8,0.2,1.2
		C14,10.4,7.4,7.1,2.9,1.7c0,0-4,6.9,2.7,11.7c-1.4,0-2.9-0.4-4.1-1.1c0,0-0.4,6.7,7.3,8.8c0,0-2.7,0.7-4.1,0.1
		c1.1,3.6,4.4,6.1,8.1,6.2C9.2,30.2,4.6,31.5,0,31.1c11.8,7.4,27.4,3.9,34.8-8c2.5-4,3.9-8.6,3.9-13.4v-1C40.4,7.5,41.9,5.9,43,4.1z
		"/>
</g>
</svg>
